<?xml version="1.0" encoding="UTF-8"?>
<!DOCTYPE svg PUBLIC "-//W3C//DTD SVG 1.1//EN" "http://www.w3.org/Graphics/SVG/1.1/DTD/svg11.dtd">
<svg width="273mm" height="270mm" viewBox="0 0 27300 27000" version="1.1" xmlns="http://www.w3.org/2000/svg" xmlns:xlink="http://www.w3.org/1999/xlink" stroke-width="28.222" stroke-linejoin="round" xml:space="preserve">
 <path fill="rgb(255,255,255)" stroke="none" d="M 13637,26990 L 0,26990 0,0 27275,0 27275,26990 13637,26990 Z"/>
 <path fill="none" stroke="rgb(179,179,179)" stroke-linejoin="round" d="M 14824,23383 L 2918,23383 2918,539 26730,539 26730,23383 14824,23383 Z"/>
 <path fill="none" stroke="rgb(179,179,179)" stroke-linejoin="round" d="M 26730,23382 L 2918,23382"/>
 <path fill="none" stroke="rgb(179,179,179)" stroke-linejoin="round" d="M 26730,19574 L 2918,19574"/>
 <path fill="none" stroke="rgb(179,179,179)" stroke-linejoin="round" d="M 26730,15767 L 2918,15767"/>
 <path fill="none" stroke="rgb(179,179,179)" stroke-linejoin="round" d="M 26730,11960 L 2918,11960"/>
 <path fill="none" stroke="rgb(179,179,179)" stroke-linejoin="round" d="M 26730,8153 L 2918,8153"/>
 <path fill="none" stroke="rgb(179,179,179)" stroke-linejoin="round" d="M 26730,4345 L 2918,4345"/>
 <path fill="none" stroke="rgb(179,179,179)" stroke-linejoin="round" d="M 26730,538 L 2918,538"/>
 <path fill="none" stroke="rgb(179,179,179)" stroke-linejoin="round" d="M 2918,23532 L 2918,23382"/>
 <path fill="none" stroke="rgb(179,179,179)" stroke-linejoin="round" d="M 2918,23532 L 2918,23382"/>
 <path fill="none" stroke="rgb(179,179,179)" stroke-linejoin="round" d="M 4749,23532 L 4749,23382"/>
 <path fill="none" stroke="rgb(179,179,179)" stroke-linejoin="round" d="M 4749,23532 L 4749,23382"/>
 <path fill="none" stroke="rgb(179,179,179)" stroke-linejoin="round" d="M 6581,23532 L 6581,23382"/>
 <path fill="none" stroke="rgb(179,179,179)" stroke-linejoin="round" d="M 6581,23532 L 6581,23382"/>
 <path fill="none" stroke="rgb(179,179,179)" stroke-linejoin="round" d="M 8413,23532 L 8413,23382"/>
 <path fill="none" stroke="rgb(179,179,179)" stroke-linejoin="round" d="M 8413,23532 L 8413,23382"/>
 <path fill="none" stroke="rgb(179,179,179)" stroke-linejoin="round" d="M 10245,23532 L 10245,23382"/>
 <path fill="none" stroke="rgb(179,179,179)" stroke-linejoin="round" d="M 10245,23532 L 10245,23382"/>
 <path fill="none" stroke="rgb(179,179,179)" stroke-linejoin="round" d="M 12076,23532 L 12076,23382"/>
 <path fill="none" stroke="rgb(179,179,179)" stroke-linejoin="round" d="M 12076,23532 L 12076,23382"/>
 <path fill="none" stroke="rgb(179,179,179)" stroke-linejoin="round" d="M 13907,23532 L 13907,23382"/>
 <path fill="none" stroke="rgb(179,179,179)" stroke-linejoin="round" d="M 13907,23532 L 13907,23382"/>
 <path fill="none" stroke="rgb(179,179,179)" stroke-linejoin="round" d="M 15739,23532 L 15739,23382"/>
 <path fill="none" stroke="rgb(179,179,179)" stroke-linejoin="round" d="M 15739,23532 L 15739,23382"/>
 <path fill="none" stroke="rgb(179,179,179)" stroke-linejoin="round" d="M 17571,23532 L 17571,23382"/>
 <path fill="none" stroke="rgb(179,179,179)" stroke-linejoin="round" d="M 17571,23532 L 17571,23382"/>
 <path fill="none" stroke="rgb(179,179,179)" stroke-linejoin="round" d="M 19402,23532 L 19402,23382"/>
 <path fill="none" stroke="rgb(179,179,179)" stroke-linejoin="round" d="M 19402,23532 L 19402,23382"/>
 <path fill="none" stroke="rgb(179,179,179)" stroke-linejoin="round" d="M 21234,23532 L 21234,23382"/>
 <path fill="none" stroke="rgb(179,179,179)" stroke-linejoin="round" d="M 21234,23532 L 21234,23382"/>
 <path fill="none" stroke="rgb(179,179,179)" stroke-linejoin="round" d="M 23066,23532 L 23066,23382"/>
 <path fill="none" stroke="rgb(179,179,179)" stroke-linejoin="round" d="M 23066,23532 L 23066,23382"/>
 <path fill="none" stroke="rgb(179,179,179)" stroke-linejoin="round" d="M 24898,23532 L 24898,23382"/>
 <path fill="none" stroke="rgb(179,179,179)" stroke-linejoin="round" d="M 24898,23532 L 24898,23382"/>
 <path fill="none" stroke="rgb(179,179,179)" stroke-linejoin="round" d="M 26730,23532 L 26730,23382"/>
 <path fill="none" stroke="rgb(179,179,179)" stroke-linejoin="round" d="M 26730,23532 L 26730,23382"/>
 <path fill="none" stroke="rgb(179,179,179)" stroke-linejoin="round" d="M 2918,23382 L 26730,23382"/>
 <path fill="none" stroke="rgb(179,179,179)" stroke-linejoin="round" d="M 2768,23382 L 2918,23382"/>
 <path fill="none" stroke="rgb(179,179,179)" stroke-linejoin="round" d="M 2768,23382 L 2918,23382"/>
 <path fill="none" stroke="rgb(179,179,179)" stroke-linejoin="round" d="M 2768,19574 L 2918,19574"/>
 <path fill="none" stroke="rgb(179,179,179)" stroke-linejoin="round" d="M 2768,19574 L 2918,19574"/>
 <path fill="none" stroke="rgb(179,179,179)" stroke-linejoin="round" d="M 2768,15767 L 2918,15767"/>
 <path fill="none" stroke="rgb(179,179,179)" stroke-linejoin="round" d="M 2768,15767 L 2918,15767"/>
 <path fill="none" stroke="rgb(179,179,179)" stroke-linejoin="round" d="M 2768,11960 L 2918,11960"/>
 <path fill="none" stroke="rgb(179,179,179)" stroke-linejoin="round" d="M 2768,11960 L 2918,11960"/>
 <path fill="none" stroke="rgb(179,179,179)" stroke-linejoin="round" d="M 2768,8153 L 2918,8153"/>
 <path fill="none" stroke="rgb(179,179,179)" stroke-linejoin="round" d="M 2768,8153 L 2918,8153"/>
 <path fill="none" stroke="rgb(179,179,179)" stroke-linejoin="round" d="M 2768,4345 L 2918,4345"/>
 <path fill="none" stroke="rgb(179,179,179)" stroke-linejoin="round" d="M 2768,4345 L 2918,4345"/>
 <path fill="none" stroke="rgb(179,179,179)" stroke-linejoin="round" d="M 2768,538 L 2918,538"/>
 <path fill="none" stroke="rgb(179,179,179)" stroke-linejoin="round" d="M 2768,538 L 2918,538"/>
 <path fill="none" stroke="rgb(179,179,179)" stroke-linejoin="round" d="M 2918,23382 L 2918,538"/>
 <path fill="rgb(0,69,134)" stroke="none" d="M 25356,23382 L 26272,23382 26272,4960 25356,4960 25356,23382 Z"/>
 <path fill="rgb(0,69,134)" stroke="none" d="M 23524,23382 L 24440,23382 24440,14746 23524,14746 23524,23382 Z"/>
 <path fill="rgb(0,69,134)" stroke="none" d="M 21692,23382 L 22608,23382 22608,15974 21692,15974 21692,23382 Z"/>
 <path fill="rgb(0,69,134)" stroke="none" d="M 19860,23382 L 20776,23382 20776,16588 19860,16588 19860,23382 Z"/>
 <path fill="rgb(0,69,134)" stroke="none" d="M 18029,23382 L 18944,23382 18944,17625 18029,17625 18029,23382 Z"/>
 <path fill="rgb(0,69,134)" stroke="none" d="M 16197,23382 L 17113,23382 17113,18661 16197,18661 16197,23382 Z"/>
 <path fill="rgb(0,69,134)" stroke="none" d="M 14365,23382 L 15281,23382 15281,19275 14365,19275 14365,23382 Z"/>
 <path fill="rgb(0,69,134)" stroke="none" d="M 12534,23382 L 13450,23382 13450,19620 12534,19620 12534,23382 Z"/>
 <path fill="rgb(0,69,134)" stroke="none" d="M 10703,23382 L 11618,23382 11618,22192 10703,22192 10703,23382 Z"/>
 <path fill="rgb(0,69,134)" stroke="none" d="M 8871,23382 L 9787,23382 9787,22652 8871,22652 8871,23382 Z"/>
 <path fill="rgb(0,69,134)" stroke="none" d="M 7039,23382 L 7955,23382 7955,22644 7039,22644 7039,23382 Z"/>
 <path fill="rgb(0,69,134)" stroke="none" d="M 5207,23382 L 6123,23382 6123,22644 5207,22644 5207,23382 Z"/>
 <path fill="rgb(0,69,134)" stroke="none" d="M 3375,23382 L 4291,23382 4291,22644 3375,22644 3375,23382 Z"/>
 <text class="TextShape" transform="rotate(-44.9 3018 24755)"><tspan class="TextParagraph" font-family="Liberation Sans, sans-serif" font-size="353px" font-weight="400"><tspan class="TextPosition" x="3018" y="24755"><tspan fill="rgb(0,0,0)" stroke="none">usbc-pill</tspan></tspan></tspan></text>
 <text class="TextShape" transform="rotate(-44.9 4606 24999)"><tspan class="TextParagraph" font-family="Liberation Sans, sans-serif" font-size="353px" font-weight="400"><tspan class="TextPosition" x="4606" y="24999"><tspan fill="rgb(0,0,0)" stroke="none">rustyprobe</tspan></tspan></tspan></text>
 <text class="TextShape" transform="rotate(-44.9 6251 25187)"><tspan class="TextParagraph" font-family="Liberation Sans, sans-serif" font-size="353px" font-weight="400"><tspan class="TextPosition" x="6251" y="25187"><tspan fill="rgb(0,0,0)" stroke="none">dappermime</tspan></tspan></tspan></text>
 <text class="TextShape" transform="rotate(-44.9 8758 24512)"><tspan class="TextParagraph" font-family="Liberation Sans, sans-serif" font-size="353px" font-weight="400"><tspan class="TextPosition" x="8758" y="24512"><tspan fill="rgb(0,0,0)" stroke="none">dap42</tspan></tspan></tspan></text>
 <text class="TextShape" transform="rotate(-44.9 10812 24289)"><tspan class="TextParagraph" font-family="Liberation Sans, sans-serif" font-size="353px" font-weight="400"><tspan class="TextPosition" x="10812" y="24289"><tspan fill="rgb(0,0,0)" stroke="none">jlink</tspan></tspan></tspan></text>
 <text class="TextShape" transform="rotate(-44.9 12233 24699)"><tspan class="TextParagraph" font-family="Liberation Sans, sans-serif" font-size="353px" font-weight="400"><tspan class="TextPosition" x="12233" y="24699"><tspan fill="rgb(0,0,0)" stroke="none">mculink</tspan></tspan></tspan></text>
 <text class="TextShape" transform="rotate(-44.9 12568 26196)"><tspan class="TextParagraph" font-family="Liberation Sans, sans-serif" font-size="353px" font-weight="400"><tspan class="TextPosition" x="12568" y="26196"><tspan fill="rgb(0,0,0)" stroke="none">jlink (using segger-rtt)</tspan></tspan></tspan></text>
 <text class="TextShape" transform="rotate(-44.9 15542 25055)"><tspan class="TextParagraph" font-family="Liberation Sans, sans-serif" font-size="353px" font-weight="400"><tspan class="TextPosition" x="15542" y="25055"><tspan fill="rgb(0,0,0)" stroke="none">microbit v2</tspan></tspan></tspan></text>
 <text class="TextShape" transform="rotate(-44.9 17655 24773)"><tspan class="TextParagraph" font-family="Liberation Sans, sans-serif" font-size="353px" font-weight="400"><tspan class="TextPosition" x="17655" y="24773"><tspan fill="rgb(0,0,0)" stroke="none">stlink v2</tspan></tspan></tspan></text>
 <text class="TextShape" transform="rotate(-44.9 19578 24681)"><tspan class="TextParagraph" font-family="Liberation Sans, sans-serif" font-size="353px" font-weight="400"><tspan class="TextPosition" x="19578" y="24681"><tspan fill="rgb(0,0,0)" stroke="none">lpclink2</tspan></tspan></tspan></text>
 <text class="TextShape" transform="rotate(-44.9 20549 25541)"><tspan class="TextParagraph" font-family="Liberation Sans, sans-serif" font-size="353px" font-weight="400"><tspan class="TextPosition" x="20549" y="25541"><tspan fill="rgb(0,0,0)" stroke="none">mculink-daplink</tspan></tspan></tspan></text>
 <text class="TextShape" transform="rotate(-44.9 23204 24718)"><tspan class="TextParagraph" font-family="Liberation Sans, sans-serif" font-size="353px" font-weight="400"><tspan class="TextPosition" x="23204" y="24718"><tspan fill="rgb(0,0,0)" stroke="none">hsprobe</tspan></tspan></tspan></text>
 <text class="TextShape" transform="rotate(-44.9 24981 24773)"><tspan class="TextParagraph" font-family="Liberation Sans, sans-serif" font-size="353px" font-weight="400"><tspan class="TextPosition" x="24981" y="24773"><tspan fill="rgb(0,0,0)" stroke="none">stlink v3</tspan></tspan></tspan></text>
 <text class="TextShape"><tspan class="TextParagraph" font-family="Liberation Sans, sans-serif" font-size="353px" font-weight="400"><tspan class="TextPosition" x="2483" y="23503"><tspan fill="rgb(0,0,0)" stroke="none">0</tspan></tspan></tspan></text>
 <text class="TextShape"><tspan class="TextParagraph" font-family="Liberation Sans, sans-serif" font-size="353px" font-weight="400"><tspan class="TextPosition" x="1557" y="19695"><tspan fill="rgb(0,0,0)" stroke="none">100000</tspan></tspan></tspan></text>
 <text class="TextShape"><tspan class="TextParagraph" font-family="Liberation Sans, sans-serif" font-size="353px" font-weight="400"><tspan class="TextPosition" x="1557" y="15888"><tspan fill="rgb(0,0,0)" stroke="none">200000</tspan></tspan></tspan></text>
 <text class="TextShape"><tspan class="TextParagraph" font-family="Liberation Sans, sans-serif" font-size="353px" font-weight="400"><tspan class="TextPosition" x="1557" y="12080"><tspan fill="rgb(0,0,0)" stroke="none">300000</tspan></tspan></tspan></text>
 <text class="TextShape"><tspan class="TextParagraph" font-family="Liberation Sans, sans-serif" font-size="353px" font-weight="400"><tspan class="TextPosition" x="1557" y="8273"><tspan fill="rgb(0,0,0)" stroke="none">400000</tspan></tspan></tspan></text>
 <text class="TextShape"><tspan class="TextParagraph" font-family="Liberation Sans, sans-serif" font-size="353px" font-weight="400"><tspan class="TextPosition" x="1557" y="4465"><tspan fill="rgb(0,0,0)" stroke="none">500000</tspan></tspan></tspan></text>
 <text class="TextShape"><tspan class="TextParagraph" font-family="Liberation Sans, sans-serif" font-size="353px" font-weight="400"><tspan class="TextPosition" x="1557" y="658"><tspan fill="rgb(0,0,0)" stroke="none">600000</tspan></tspan></tspan></text>
 <text class="TextShape" transform="rotate(-90 837 14209)"><tspan class="TextParagraph" font-family="Liberation Sans, sans-serif" font-size="318px" font-weight="400"><tspan class="TextPosition" x="837" y="14209"><tspan fill="rgb(0,0,0)" stroke="none">Bytes/Sec</tspan></tspan></tspan></text>
</svg>