<?xml version="1.0" encoding="UTF-8"?>
<!DOCTYPE svg PUBLIC "-//W3C//DTD SVG 1.1//EN" "http://www.w3.org/Graphics/SVG/1.1/DTD/svg11.dtd">
<svg width="275mm" height="270mm" viewBox="0 0 27500 27000" version="1.1" xmlns="http://www.w3.org/2000/svg" xmlns:xlink="http://www.w3.org/1999/xlink" stroke-width="28.222" stroke-linejoin="round" xml:space="preserve">
 <path fill="rgb(255,255,255)" stroke="none" d="M 13729,26987 L 0,26987 0,0 27457,0 27457,26987 13729,26987 Z"/>
 <path fill="none" stroke="rgb(179,179,179)" stroke-linejoin="round" d="M 12781,24820 L 2922,24820 2922,2192 22640,2192 22640,24820 12781,24820 Z"/>
 <path fill="none" stroke="rgb(179,179,179)" stroke-linejoin="round" d="M 22640,24819 L 2922,24819"/>
 <path fill="none" stroke="rgb(179,179,179)" stroke-linejoin="round" d="M 22640,22304 L 2922,22304"/>
 <path fill="none" stroke="rgb(179,179,179)" stroke-linejoin="round" d="M 22640,19790 L 2922,19790"/>
 <path fill="none" stroke="rgb(179,179,179)" stroke-linejoin="round" d="M 22640,17276 L 2922,17276"/>
 <path fill="none" stroke="rgb(179,179,179)" stroke-linejoin="round" d="M 22640,14761 L 2922,14761"/>
 <path fill="none" stroke="rgb(179,179,179)" stroke-linejoin="round" d="M 22640,12248 L 2922,12248"/>
 <path fill="none" stroke="rgb(179,179,179)" stroke-linejoin="round" d="M 22640,9733 L 2922,9733"/>
 <path fill="none" stroke="rgb(179,179,179)" stroke-linejoin="round" d="M 22640,7219 L 2922,7219"/>
 <path fill="none" stroke="rgb(179,179,179)" stroke-linejoin="round" d="M 22640,4705 L 2922,4705"/>
 <path fill="none" stroke="rgb(179,179,179)" stroke-linejoin="round" d="M 22640,2190 L 2922,2190"/>
 <path fill="none" stroke="rgb(179,179,179)" stroke-linejoin="round" d="M 2922,24969 L 2922,24819"/>
 <path fill="none" stroke="rgb(179,179,179)" stroke-linejoin="round" d="M 2922,24969 L 2922,24819"/>
 <path fill="none" stroke="rgb(179,179,179)" stroke-linejoin="round" d="M 4893,24969 L 4893,24819"/>
 <path fill="none" stroke="rgb(179,179,179)" stroke-linejoin="round" d="M 4893,24969 L 4893,24819"/>
 <path fill="none" stroke="rgb(179,179,179)" stroke-linejoin="round" d="M 6865,24969 L 6865,24819"/>
 <path fill="none" stroke="rgb(179,179,179)" stroke-linejoin="round" d="M 6865,24969 L 6865,24819"/>
 <path fill="none" stroke="rgb(179,179,179)" stroke-linejoin="round" d="M 8837,24969 L 8837,24819"/>
 <path fill="none" stroke="rgb(179,179,179)" stroke-linejoin="round" d="M 8837,24969 L 8837,24819"/>
 <path fill="none" stroke="rgb(179,179,179)" stroke-linejoin="round" d="M 10809,24969 L 10809,24819"/>
 <path fill="none" stroke="rgb(179,179,179)" stroke-linejoin="round" d="M 10809,24969 L 10809,24819"/>
 <path fill="none" stroke="rgb(179,179,179)" stroke-linejoin="round" d="M 12781,24969 L 12781,24819"/>
 <path fill="none" stroke="rgb(179,179,179)" stroke-linejoin="round" d="M 12781,24969 L 12781,24819"/>
 <path fill="none" stroke="rgb(179,179,179)" stroke-linejoin="round" d="M 14752,24969 L 14752,24819"/>
 <path fill="none" stroke="rgb(179,179,179)" stroke-linejoin="round" d="M 14752,24969 L 14752,24819"/>
 <path fill="none" stroke="rgb(179,179,179)" stroke-linejoin="round" d="M 16724,24969 L 16724,24819"/>
 <path fill="none" stroke="rgb(179,179,179)" stroke-linejoin="round" d="M 16724,24969 L 16724,24819"/>
 <path fill="none" stroke="rgb(179,179,179)" stroke-linejoin="round" d="M 18696,24969 L 18696,24819"/>
 <path fill="none" stroke="rgb(179,179,179)" stroke-linejoin="round" d="M 18696,24969 L 18696,24819"/>
 <path fill="none" stroke="rgb(179,179,179)" stroke-linejoin="round" d="M 20668,24969 L 20668,24819"/>
 <path fill="none" stroke="rgb(179,179,179)" stroke-linejoin="round" d="M 20668,24969 L 20668,24819"/>
 <path fill="none" stroke="rgb(179,179,179)" stroke-linejoin="round" d="M 22640,24969 L 22640,24819"/>
 <path fill="none" stroke="rgb(179,179,179)" stroke-linejoin="round" d="M 22640,24969 L 22640,24819"/>
 <path fill="none" stroke="rgb(179,179,179)" stroke-linejoin="round" d="M 2922,24819 L 22640,24819"/>
 <path fill="none" stroke="rgb(179,179,179)" stroke-linejoin="round" d="M 2772,24819 L 2922,24819"/>
 <path fill="none" stroke="rgb(179,179,179)" stroke-linejoin="round" d="M 2772,24819 L 2922,24819"/>
 <path fill="none" stroke="rgb(179,179,179)" stroke-linejoin="round" d="M 2772,22304 L 2922,22304"/>
 <path fill="none" stroke="rgb(179,179,179)" stroke-linejoin="round" d="M 2772,22304 L 2922,22304"/>
 <path fill="none" stroke="rgb(179,179,179)" stroke-linejoin="round" d="M 2772,19790 L 2922,19790"/>
 <path fill="none" stroke="rgb(179,179,179)" stroke-linejoin="round" d="M 2772,19790 L 2922,19790"/>
 <path fill="none" stroke="rgb(179,179,179)" stroke-linejoin="round" d="M 2772,17276 L 2922,17276"/>
 <path fill="none" stroke="rgb(179,179,179)" stroke-linejoin="round" d="M 2772,17276 L 2922,17276"/>
 <path fill="none" stroke="rgb(179,179,179)" stroke-linejoin="round" d="M 2772,14761 L 2922,14761"/>
 <path fill="none" stroke="rgb(179,179,179)" stroke-linejoin="round" d="M 2772,14761 L 2922,14761"/>
 <path fill="none" stroke="rgb(179,179,179)" stroke-linejoin="round" d="M 2772,12248 L 2922,12248"/>
 <path fill="none" stroke="rgb(179,179,179)" stroke-linejoin="round" d="M 2772,12248 L 2922,12248"/>
 <path fill="none" stroke="rgb(179,179,179)" stroke-linejoin="round" d="M 2772,9733 L 2922,9733"/>
 <path fill="none" stroke="rgb(179,179,179)" stroke-linejoin="round" d="M 2772,9733 L 2922,9733"/>
 <path fill="none" stroke="rgb(179,179,179)" stroke-linejoin="round" d="M 2772,7219 L 2922,7219"/>
 <path fill="none" stroke="rgb(179,179,179)" stroke-linejoin="round" d="M 2772,7219 L 2922,7219"/>
 <path fill="none" stroke="rgb(179,179,179)" stroke-linejoin="round" d="M 2772,4705 L 2922,4705"/>
 <path fill="none" stroke="rgb(179,179,179)" stroke-linejoin="round" d="M 2772,4705 L 2922,4705"/>
 <path fill="none" stroke="rgb(179,179,179)" stroke-linejoin="round" d="M 2772,2191 L 2922,2191"/>
 <path fill="none" stroke="rgb(179,179,179)" stroke-linejoin="round" d="M 2772,2191 L 2922,2191"/>
 <path fill="none" stroke="rgb(179,179,179)" stroke-linejoin="round" d="M 2922,24819 L 2922,2190"/>
 <path fill="none" stroke="rgb(0,69,134)" stroke-width="80" stroke-linejoin="round" d="M 6865,23801 L 8837,22866 10809,21211 12781,18553 14752,14889 16724,11006 18696,7105 20668,4508 22640,4537"/>
 <path fill="rgb(0,69,134)" stroke="none" d="M 6740,23676 L 6740,23926 6990,23926 6990,23676 6740,23676 Z"/>
 <path fill="none" stroke="rgb(0,69,134)" stroke-linejoin="round" d="M 6740,23676 L 6740,23926 6990,23926 6990,23676 6740,23676 Z"/>
 <path fill="rgb(0,69,134)" stroke="none" d="M 8712,22741 L 8712,22991 8962,22991 8962,22741 8712,22741 Z"/>
 <path fill="none" stroke="rgb(0,69,134)" stroke-linejoin="round" d="M 8712,22741 L 8712,22991 8962,22991 8962,22741 8712,22741 Z"/>
 <path fill="rgb(0,69,134)" stroke="none" d="M 10684,21086 L 10684,21336 10934,21336 10934,21086 10684,21086 Z"/>
 <path fill="none" stroke="rgb(0,69,134)" stroke-linejoin="round" d="M 10684,21086 L 10684,21336 10934,21336 10934,21086 10684,21086 Z"/>
 <path fill="rgb(0,69,134)" stroke="none" d="M 12656,18428 L 12656,18678 12906,18678 12906,18428 12656,18428 Z"/>
 <path fill="none" stroke="rgb(0,69,134)" stroke-linejoin="round" d="M 12656,18428 L 12656,18678 12906,18678 12906,18428 12656,18428 Z"/>
 <path fill="rgb(0,69,134)" stroke="none" d="M 14627,14764 L 14627,15014 14877,15014 14877,14764 14627,14764 Z"/>
 <path fill="none" stroke="rgb(0,69,134)" stroke-linejoin="round" d="M 14627,14764 L 14627,15014 14877,15014 14877,14764 14627,14764 Z"/>
 <path fill="rgb(0,69,134)" stroke="none" d="M 16599,10881 L 16599,11131 16849,11131 16849,10881 16599,10881 Z"/>
 <path fill="none" stroke="rgb(0,69,134)" stroke-linejoin="round" d="M 16599,10881 L 16599,11131 16849,11131 16849,10881 16599,10881 Z"/>
 <path fill="rgb(0,69,134)" stroke="none" d="M 18571,6980 L 18571,7230 18821,7230 18821,6980 18571,6980 Z"/>
 <path fill="none" stroke="rgb(0,69,134)" stroke-linejoin="round" d="M 18571,6980 L 18571,7230 18821,7230 18821,6980 18571,6980 Z"/>
 <path fill="rgb(0,69,134)" stroke="none" d="M 20543,4383 L 20543,4633 20793,4633 20793,4383 20543,4383 Z"/>
 <path fill="none" stroke="rgb(0,69,134)" stroke-linejoin="round" d="M 20543,4383 L 20543,4633 20793,4633 20793,4383 20543,4383 Z"/>
 <path fill="rgb(0,69,134)" stroke="none" d="M 22515,4412 L 22515,4662 22765,4662 22765,4412 22515,4412 Z"/>
 <path fill="none" stroke="rgb(0,69,134)" stroke-linejoin="round" d="M 22515,4412 L 22515,4662 22765,4662 22765,4412 22515,4412 Z"/>
 <path fill="none" stroke="rgb(255,66,14)" stroke-width="80" stroke-linejoin="round" d="M 6865,23804 L 8837,22874 10809,21238 12781,18631 14752,15079 16724,11275 18696,7726 20668,5199 22640,5200"/>
 <path fill="rgb(255,66,14)" stroke="none" d="M 6740,23804 L 6865,23929 6990,23804 6865,23679 6740,23804 Z"/>
 <path fill="none" stroke="rgb(255,66,14)" stroke-linejoin="round" d="M 6740,23804 L 6865,23929 6990,23804 6865,23679 6740,23804 Z"/>
 <path fill="rgb(255,66,14)" stroke="none" d="M 8712,22874 L 8837,22999 8962,22874 8837,22749 8712,22874 Z"/>
 <path fill="none" stroke="rgb(255,66,14)" stroke-linejoin="round" d="M 8712,22874 L 8837,22999 8962,22874 8837,22749 8712,22874 Z"/>
 <path fill="rgb(255,66,14)" stroke="none" d="M 10684,21238 L 10809,21363 10934,21238 10809,21113 10684,21238 Z"/>
 <path fill="none" stroke="rgb(255,66,14)" stroke-linejoin="round" d="M 10684,21238 L 10809,21363 10934,21238 10809,21113 10684,21238 Z"/>
 <path fill="rgb(255,66,14)" stroke="none" d="M 12656,18631 L 12781,18756 12906,18631 12781,18506 12656,18631 Z"/>
 <path fill="none" stroke="rgb(255,66,14)" stroke-linejoin="round" d="M 12656,18631 L 12781,18756 12906,18631 12781,18506 12656,18631 Z"/>
 <path fill="rgb(255,66,14)" stroke="none" d="M 14627,15079 L 14752,15204 14877,15079 14752,14954 14627,15079 Z"/>
 <path fill="none" stroke="rgb(255,66,14)" stroke-linejoin="round" d="M 14627,15079 L 14752,15204 14877,15079 14752,14954 14627,15079 Z"/>
 <path fill="rgb(255,66,14)" stroke="none" d="M 16599,11275 L 16724,11400 16849,11275 16724,11150 16599,11275 Z"/>
 <path fill="none" stroke="rgb(255,66,14)" stroke-linejoin="round" d="M 16599,11275 L 16724,11400 16849,11275 16724,11150 16599,11275 Z"/>
 <path fill="rgb(255,66,14)" stroke="none" d="M 18571,7726 L 18696,7851 18821,7726 18696,7601 18571,7726 Z"/>
 <path fill="none" stroke="rgb(255,66,14)" stroke-linejoin="round" d="M 18571,7726 L 18696,7851 18821,7726 18696,7601 18571,7726 Z"/>
 <path fill="rgb(255,66,14)" stroke="none" d="M 20543,5199 L 20668,5324 20793,5199 20668,5074 20543,5199 Z"/>
 <path fill="none" stroke="rgb(255,66,14)" stroke-linejoin="round" d="M 20543,5199 L 20668,5324 20793,5199 20668,5074 20543,5199 Z"/>
 <path fill="rgb(255,66,14)" stroke="none" d="M 22515,5200 L 22640,5325 22765,5200 22640,5075 22515,5200 Z"/>
 <path fill="none" stroke="rgb(255,66,14)" stroke-linejoin="round" d="M 22515,5200 L 22640,5325 22765,5200 22640,5075 22515,5200 Z"/>
 <path fill="none" stroke="rgb(255,211,32)" stroke-width="80" stroke-linejoin="round" d="M 2922,24196 L 4893,23614 6865,23059 8837,21528 10809,19398 12781,15992 14752,9805 16724,9545 18696,9562 20668,9599 22640,9633"/>
 <path fill="rgb(255,211,32)" stroke="none" d="M 2797,24071 L 2922,24321 3047,24071 2797,24071 Z"/>
 <path fill="none" stroke="rgb(255,211,32)" stroke-linejoin="round" d="M 2797,24071 L 2922,24321 3047,24071 2797,24071 Z"/>
 <path fill="rgb(255,211,32)" stroke="none" d="M 4768,23489 L 4893,23739 5018,23489 4768,23489 Z"/>
 <path fill="none" stroke="rgb(255,211,32)" stroke-linejoin="round" d="M 4768,23489 L 4893,23739 5018,23489 4768,23489 Z"/>
 <path fill="rgb(255,211,32)" stroke="none" d="M 6740,22934 L 6865,23184 6990,22934 6740,22934 Z"/>
 <path fill="none" stroke="rgb(255,211,32)" stroke-linejoin="round" d="M 6740,22934 L 6865,23184 6990,22934 6740,22934 Z"/>
 <path fill="rgb(255,211,32)" stroke="none" d="M 8712,21403 L 8837,21653 8962,21403 8712,21403 Z"/>
 <path fill="none" stroke="rgb(255,211,32)" stroke-linejoin="round" d="M 8712,21403 L 8837,21653 8962,21403 8712,21403 Z"/>
 <path fill="rgb(255,211,32)" stroke="none" d="M 10684,19273 L 10809,19523 10934,19273 10684,19273 Z"/>
 <path fill="none" stroke="rgb(255,211,32)" stroke-linejoin="round" d="M 10684,19273 L 10809,19523 10934,19273 10684,19273 Z"/>
 <path fill="rgb(255,211,32)" stroke="none" d="M 12656,15867 L 12781,16117 12906,15867 12656,15867 Z"/>
 <path fill="none" stroke="rgb(255,211,32)" stroke-linejoin="round" d="M 12656,15867 L 12781,16117 12906,15867 12656,15867 Z"/>
 <path fill="rgb(255,211,32)" stroke="none" d="M 14627,9680 L 14752,9930 14877,9680 14627,9680 Z"/>
 <path fill="none" stroke="rgb(255,211,32)" stroke-linejoin="round" d="M 14627,9680 L 14752,9930 14877,9680 14627,9680 Z"/>
 <path fill="rgb(255,211,32)" stroke="none" d="M 16599,9420 L 16724,9670 16849,9420 16599,9420 Z"/>
 <path fill="none" stroke="rgb(255,211,32)" stroke-linejoin="round" d="M 16599,9420 L 16724,9670 16849,9420 16599,9420 Z"/>
 <path fill="rgb(255,211,32)" stroke="none" d="M 18571,9437 L 18696,9687 18821,9437 18571,9437 Z"/>
 <path fill="none" stroke="rgb(255,211,32)" stroke-linejoin="round" d="M 18571,9437 L 18696,9687 18821,9437 18571,9437 Z"/>
 <path fill="rgb(255,211,32)" stroke="none" d="M 20543,9474 L 20668,9724 20793,9474 20543,9474 Z"/>
 <path fill="none" stroke="rgb(255,211,32)" stroke-linejoin="round" d="M 20543,9474 L 20668,9724 20793,9474 20543,9474 Z"/>
 <path fill="rgb(255,211,32)" stroke="none" d="M 22515,9508 L 22640,9758 22765,9508 22515,9508 Z"/>
 <path fill="none" stroke="rgb(255,211,32)" stroke-linejoin="round" d="M 22515,9508 L 22640,9758 22765,9508 22515,9508 Z"/>
 <path fill="none" stroke="rgb(87,157,28)" stroke-width="80" stroke-linejoin="round" d="M 4893,24026 L 6865,23648 8837,22580 10809,20858 12781,19098 14752,16238 16724,14521 18696,11947 20668,11948 22640,11947"/>
 <path fill="rgb(87,157,28)" stroke="none" d="M 4768,24151 L 5018,24151 4893,23901 4768,24151 Z"/>
 <path fill="none" stroke="rgb(87,157,28)" stroke-linejoin="round" d="M 4768,24151 L 5018,24151 4893,23901 4768,24151 Z"/>
 <path fill="rgb(87,157,28)" stroke="none" d="M 6740,23773 L 6990,23773 6865,23523 6740,23773 Z"/>
 <path fill="none" stroke="rgb(87,157,28)" stroke-linejoin="round" d="M 6740,23773 L 6990,23773 6865,23523 6740,23773 Z"/>
 <path fill="rgb(87,157,28)" stroke="none" d="M 8712,22705 L 8962,22705 8837,22455 8712,22705 Z"/>
 <path fill="none" stroke="rgb(87,157,28)" stroke-linejoin="round" d="M 8712,22705 L 8962,22705 8837,22455 8712,22705 Z"/>
 <path fill="rgb(87,157,28)" stroke="none" d="M 10684,20983 L 10934,20983 10809,20733 10684,20983 Z"/>
 <path fill="none" stroke="rgb(87,157,28)" stroke-linejoin="round" d="M 10684,20983 L 10934,20983 10809,20733 10684,20983 Z"/>
 <path fill="rgb(87,157,28)" stroke="none" d="M 12656,19223 L 12906,19223 12781,18973 12656,19223 Z"/>
 <path fill="none" stroke="rgb(87,157,28)" stroke-linejoin="round" d="M 12656,19223 L 12906,19223 12781,18973 12656,19223 Z"/>
 <path fill="rgb(87,157,28)" stroke="none" d="M 14627,16363 L 14877,16363 14752,16113 14627,16363 Z"/>
 <path fill="none" stroke="rgb(87,157,28)" stroke-linejoin="round" d="M 14627,16363 L 14877,16363 14752,16113 14627,16363 Z"/>
 <path fill="rgb(87,157,28)" stroke="none" d="M 16599,14646 L 16849,14646 16724,14396 16599,14646 Z"/>
 <path fill="none" stroke="rgb(87,157,28)" stroke-linejoin="round" d="M 16599,14646 L 16849,14646 16724,14396 16599,14646 Z"/>
 <path fill="rgb(87,157,28)" stroke="none" d="M 18571,12072 L 18821,12072 18696,11822 18571,12072 Z"/>
 <path fill="none" stroke="rgb(87,157,28)" stroke-linejoin="round" d="M 18571,12072 L 18821,12072 18696,11822 18571,12072 Z"/>
 <path fill="rgb(87,157,28)" stroke="none" d="M 20543,12073 L 20793,12073 20668,11823 20543,12073 Z"/>
 <path fill="none" stroke="rgb(87,157,28)" stroke-linejoin="round" d="M 20543,12073 L 20793,12073 20668,11823 20543,12073 Z"/>
 <path fill="rgb(87,157,28)" stroke="none" d="M 22515,12072 L 22765,12072 22640,11822 22515,12072 Z"/>
 <path fill="none" stroke="rgb(87,157,28)" stroke-linejoin="round" d="M 22515,12072 L 22765,12072 22640,11822 22515,12072 Z"/>
 <path fill="none" stroke="rgb(126,0,33)" stroke-width="80" stroke-linejoin="round" d="M 2922,24434 L 4893,24073 6865,23727 8837,22779 10809,21316 12781,19134 14752,17001 16724,13419 18696,13508"/>
 <path fill="rgb(126,0,33)" stroke="none" d="M 2797,24309 L 2797,24559 3047,24434 2797,24309 Z"/>
 <path fill="none" stroke="rgb(126,0,33)" stroke-linejoin="round" d="M 2797,24309 L 2797,24559 3047,24434 2797,24309 Z"/>
 <path fill="rgb(126,0,33)" stroke="none" d="M 4768,23948 L 4768,24198 5018,24073 4768,23948 Z"/>
 <path fill="none" stroke="rgb(126,0,33)" stroke-linejoin="round" d="M 4768,23948 L 4768,24198 5018,24073 4768,23948 Z"/>
 <path fill="rgb(126,0,33)" stroke="none" d="M 6740,23602 L 6740,23852 6990,23727 6740,23602 Z"/>
 <path fill="none" stroke="rgb(126,0,33)" stroke-linejoin="round" d="M 6740,23602 L 6740,23852 6990,23727 6740,23602 Z"/>
 <path fill="rgb(126,0,33)" stroke="none" d="M 8712,22654 L 8712,22904 8962,22779 8712,22654 Z"/>
 <path fill="none" stroke="rgb(126,0,33)" stroke-linejoin="round" d="M 8712,22654 L 8712,22904 8962,22779 8712,22654 Z"/>
 <path fill="rgb(126,0,33)" stroke="none" d="M 10684,21191 L 10684,21441 10934,21316 10684,21191 Z"/>
 <path fill="none" stroke="rgb(126,0,33)" stroke-linejoin="round" d="M 10684,21191 L 10684,21441 10934,21316 10684,21191 Z"/>
 <path fill="rgb(126,0,33)" stroke="none" d="M 12656,19009 L 12656,19259 12906,19134 12656,19009 Z"/>
 <path fill="none" stroke="rgb(126,0,33)" stroke-linejoin="round" d="M 12656,19009 L 12656,19259 12906,19134 12656,19009 Z"/>
 <path fill="rgb(126,0,33)" stroke="none" d="M 14627,16876 L 14627,17126 14877,17001 14627,16876 Z"/>
 <path fill="none" stroke="rgb(126,0,33)" stroke-linejoin="round" d="M 14627,16876 L 14627,17126 14877,17001 14627,16876 Z"/>
 <path fill="rgb(126,0,33)" stroke="none" d="M 16599,13294 L 16599,13543 16849,13419 16599,13294 Z"/>
 <path fill="none" stroke="rgb(126,0,33)" stroke-linejoin="round" d="M 16599,13294 L 16599,13543 16849,13419 16599,13294 Z"/>
 <path fill="rgb(126,0,33)" stroke="none" d="M 18571,13384 L 18571,13633 18821,13508 18571,13384 Z"/>
 <path fill="none" stroke="rgb(126,0,33)" stroke-linejoin="round" d="M 18571,13384 L 18571,13633 18821,13508 18571,13384 Z"/>
 <path fill="none" stroke="rgb(131,202,255)" stroke-width="80" stroke-linejoin="round" d="M 2922,24514 L 4893,24277 6865,24141 8837,23931 10809,23531 12781,23531 14752,23531 16724,23531 18696,23531 20668,23531 22640,23531"/>
 <path fill="rgb(131,202,255)" stroke="none" d="M 2797,24514 L 3047,24639 3047,24389 2797,24514 Z"/>
 <path fill="none" stroke="rgb(131,202,255)" stroke-linejoin="round" d="M 2797,24514 L 3047,24639 3047,24389 2797,24514 Z"/>
 <path fill="rgb(131,202,255)" stroke="none" d="M 4768,24277 L 5018,24402 5018,24152 4768,24277 Z"/>
 <path fill="none" stroke="rgb(131,202,255)" stroke-linejoin="round" d="M 4768,24277 L 5018,24402 5018,24152 4768,24277 Z"/>
 <path fill="rgb(131,202,255)" stroke="none" d="M 6740,24141 L 6990,24266 6990,24016 6740,24141 Z"/>
 <path fill="none" stroke="rgb(131,202,255)" stroke-linejoin="round" d="M 6740,24141 L 6990,24266 6990,24016 6740,24141 Z"/>
 <path fill="rgb(131,202,255)" stroke="none" d="M 8712,23931 L 8962,24056 8962,23806 8712,23931 Z"/>
 <path fill="none" stroke="rgb(131,202,255)" stroke-linejoin="round" d="M 8712,23931 L 8962,24056 8962,23806 8712,23931 Z"/>
 <path fill="rgb(131,202,255)" stroke="none" d="M 10684,23531 L 10934,23656 10934,23406 10684,23531 Z"/>
 <path fill="none" stroke="rgb(131,202,255)" stroke-linejoin="round" d="M 10684,23531 L 10934,23656 10934,23406 10684,23531 Z"/>
 <path fill="rgb(131,202,255)" stroke="none" d="M 12656,23531 L 12906,23656 12906,23406 12656,23531 Z"/>
 <path fill="none" stroke="rgb(131,202,255)" stroke-linejoin="round" d="M 12656,23531 L 12906,23656 12906,23406 12656,23531 Z"/>
 <path fill="rgb(131,202,255)" stroke="none" d="M 14627,23531 L 14877,23656 14877,23406 14627,23531 Z"/>
 <path fill="none" stroke="rgb(131,202,255)" stroke-linejoin="round" d="M 14627,23531 L 14877,23656 14877,23406 14627,23531 Z"/>
 <path fill="rgb(131,202,255)" stroke="none" d="M 16599,23531 L 16849,23656 16849,23406 16599,23531 Z"/>
 <path fill="none" stroke="rgb(131,202,255)" stroke-linejoin="round" d="M 16599,23531 L 16849,23656 16849,23406 16599,23531 Z"/>
 <path fill="rgb(131,202,255)" stroke="none" d="M 18571,23531 L 18821,23656 18821,23406 18571,23531 Z"/>
 <path fill="none" stroke="rgb(131,202,255)" stroke-linejoin="round" d="M 18571,23531 L 18821,23656 18821,23406 18571,23531 Z"/>
 <path fill="rgb(131,202,255)" stroke="none" d="M 20543,23531 L 20793,23656 20793,23406 20543,23531 Z"/>
 <path fill="none" stroke="rgb(131,202,255)" stroke-linejoin="round" d="M 20543,23531 L 20793,23656 20793,23406 20543,23531 Z"/>
 <path fill="rgb(131,202,255)" stroke="none" d="M 22515,23531 L 22765,23656 22765,23406 22515,23531 Z"/>
 <path fill="none" stroke="rgb(131,202,255)" stroke-linejoin="round" d="M 22515,23531 L 22765,23656 22765,23406 22515,23531 Z"/>
 <path fill="none" stroke="rgb(49,64,4)" stroke-width="80" stroke-linejoin="round" d="M 2922,24469 L 4893,24170 6865,23891 8837,23159 10809,22144 12781,22040 14752,22035 16724,22035 18696,22035 20668,22035 22640,22035"/>
 <path fill="rgb(49,64,4)" stroke="none" d="M 2797,24344 L 2797,24594 3047,24344 3047,24594 2797,24344 Z"/>
 <path fill="none" stroke="rgb(49,64,4)" stroke-linejoin="round" d="M 2797,24344 L 2797,24594 3047,24344 3047,24594 2797,24344 Z"/>
 <path fill="rgb(49,64,4)" stroke="none" d="M 4768,24045 L 4768,24295 5018,24045 5018,24295 4768,24045 Z"/>
 <path fill="none" stroke="rgb(49,64,4)" stroke-linejoin="round" d="M 4768,24045 L 4768,24295 5018,24045 5018,24295 4768,24045 Z"/>
 <path fill="rgb(49,64,4)" stroke="none" d="M 6740,23766 L 6740,24016 6990,23766 6990,24016 6740,23766 Z"/>
 <path fill="none" stroke="rgb(49,64,4)" stroke-linejoin="round" d="M 6740,23766 L 6740,24016 6990,23766 6990,24016 6740,23766 Z"/>
 <path fill="rgb(49,64,4)" stroke="none" d="M 8712,23034 L 8712,23284 8962,23034 8962,23284 8712,23034 Z"/>
 <path fill="none" stroke="rgb(49,64,4)" stroke-linejoin="round" d="M 8712,23034 L 8712,23284 8962,23034 8962,23284 8712,23034 Z"/>
 <path fill="rgb(49,64,4)" stroke="none" d="M 10684,22019 L 10684,22269 10934,22019 10934,22269 10684,22019 Z"/>
 <path fill="none" stroke="rgb(49,64,4)" stroke-linejoin="round" d="M 10684,22019 L 10684,22269 10934,22019 10934,22269 10684,22019 Z"/>
 <path fill="rgb(49,64,4)" stroke="none" d="M 12656,21915 L 12656,22165 12906,21915 12906,22165 12656,21915 Z"/>
 <path fill="none" stroke="rgb(49,64,4)" stroke-linejoin="round" d="M 12656,21915 L 12656,22165 12906,21915 12906,22165 12656,21915 Z"/>
 <path fill="rgb(49,64,4)" stroke="none" d="M 14627,21910 L 14627,22160 14877,21910 14877,22160 14627,21910 Z"/>
 <path fill="none" stroke="rgb(49,64,4)" stroke-linejoin="round" d="M 14627,21910 L 14627,22160 14877,21910 14877,22160 14627,21910 Z"/>
 <path fill="rgb(49,64,4)" stroke="none" d="M 16599,21910 L 16599,22160 16849,21910 16849,22160 16599,21910 Z"/>
 <path fill="none" stroke="rgb(49,64,4)" stroke-linejoin="round" d="M 16599,21910 L 16599,22160 16849,21910 16849,22160 16599,21910 Z"/>
 <path fill="rgb(49,64,4)" stroke="none" d="M 18571,21910 L 18571,22160 18821,21910 18821,22160 18571,21910 Z"/>
 <path fill="none" stroke="rgb(49,64,4)" stroke-linejoin="round" d="M 18571,21910 L 18571,22160 18821,21910 18821,22160 18571,21910 Z"/>
 <path fill="rgb(49,64,4)" stroke="none" d="M 20543,21910 L 20543,22160 20793,21910 20793,22160 20543,21910 Z"/>
 <path fill="none" stroke="rgb(49,64,4)" stroke-linejoin="round" d="M 20543,21910 L 20543,22160 20793,21910 20793,22160 20543,21910 Z"/>
 <path fill="rgb(49,64,4)" stroke="none" d="M 22515,21910 L 22515,22160 22765,21910 22765,22160 22515,21910 Z"/>
 <path fill="none" stroke="rgb(49,64,4)" stroke-linejoin="round" d="M 22515,21910 L 22515,22160 22765,21910 22765,22160 22515,21910 Z"/>
 <path fill="none" stroke="rgb(174,207,0)" stroke-width="80" stroke-linejoin="round" d="M 2922,24150 L 4893,23931 6865,23931 8837,23531 10809,23531 12781,23531 14752,23531 16724,23531"/>
 <path fill="rgb(174,207,0)" stroke="none" d="M 2797,24275 L 3047,24275 2797,24025 3047,24025 2797,24275 Z"/>
 <path fill="none" stroke="rgb(174,207,0)" stroke-linejoin="round" d="M 2797,24275 L 3047,24275 2797,24025 3047,24025 2797,24275 Z"/>
 <path fill="rgb(174,207,0)" stroke="none" d="M 4768,24056 L 5018,24056 4768,23806 5018,23806 4768,24056 Z"/>
 <path fill="none" stroke="rgb(174,207,0)" stroke-linejoin="round" d="M 4768,24056 L 5018,24056 4768,23806 5018,23806 4768,24056 Z"/>
 <path fill="rgb(174,207,0)" stroke="none" d="M 6740,24056 L 6990,24056 6740,23806 6990,23806 6740,24056 Z"/>
 <path fill="none" stroke="rgb(174,207,0)" stroke-linejoin="round" d="M 6740,24056 L 6990,24056 6740,23806 6990,23806 6740,24056 Z"/>
 <path fill="rgb(174,207,0)" stroke="none" d="M 8712,23656 L 8962,23656 8712,23406 8962,23406 8712,23656 Z"/>
 <path fill="none" stroke="rgb(174,207,0)" stroke-linejoin="round" d="M 8712,23656 L 8962,23656 8712,23406 8962,23406 8712,23656 Z"/>
 <path fill="rgb(174,207,0)" stroke="none" d="M 10684,23656 L 10934,23656 10684,23406 10934,23406 10684,23656 Z"/>
 <path fill="none" stroke="rgb(174,207,0)" stroke-linejoin="round" d="M 10684,23656 L 10934,23656 10684,23406 10934,23406 10684,23656 Z"/>
 <path fill="rgb(174,207,0)" stroke="none" d="M 12656,23656 L 12906,23656 12656,23406 12906,23406 12656,23656 Z"/>
 <path fill="none" stroke="rgb(174,207,0)" stroke-linejoin="round" d="M 12656,23656 L 12906,23656 12656,23406 12906,23406 12656,23656 Z"/>
 <path fill="rgb(174,207,0)" stroke="none" d="M 14627,23656 L 14877,23656 14627,23406 14877,23406 14627,23656 Z"/>
 <path fill="none" stroke="rgb(174,207,0)" stroke-linejoin="round" d="M 14627,23656 L 14877,23656 14627,23406 14877,23406 14627,23656 Z"/>
 <path fill="rgb(174,207,0)" stroke="none" d="M 16599,23656 L 16849,23656 16599,23406 16849,23406 16599,23656 Z"/>
 <path fill="none" stroke="rgb(174,207,0)" stroke-linejoin="round" d="M 16599,23656 L 16849,23656 16599,23406 16849,23406 16599,23656 Z"/>
 <path fill="none" stroke="rgb(75,31,111)" stroke-width="80" stroke-linejoin="round" d="M 2922,23531 L 4893,23531 6865,23531 8837,23531 10809,23531 12781,23531 14752,23531 16724,23531 18696,23531 20668,23531 22640,23531"/>
 <path fill="rgb(75,31,111)" stroke="none" d="M 3047,23531 L 3046,23526 3046,23520 3045,23515 3045,23509 3044,23504 3042,23499 3041,23494 3039,23488 3037,23483 3035,23478 3032,23473 3030,23469 3027,23464 3024,23459 3021,23455 3017,23451 3014,23447 3010,23443 3006,23439 3002,23435 2998,23432 2993,23429 2989,23426 2984,23423 2979,23420 2974,23418 2969,23416 2964,23414 2959,23412 2954,23410 2949,23409 2943,23408 2938,23407 2932,23407 2927,23406 2922,23406 2916,23406 2911,23407 2905,23407 2900,23408 2894,23409 2889,23410 2884,23412 2879,23414 2874,23416 2869,23418 2864,23420 2859,23423 2854,23426 2850,23429 2845,23432 2841,23435 2837,23439 2833,23443 2829,23447 2826,23451 2822,23455 2819,23459 2816,23464 2813,23469 2811,23473 2808,23478 2806,23483 2804,23488 2802,23494 2801,23499 2799,23504 2798,23509 2798,23515 2797,23520 2797,23526 2797,23531 2797,23537 2797,23542 2798,23547 2798,23553 2799,23558 2801,23564 2802,23569 2804,23574 2806,23579 2808,23584 2811,23589 2813,23594 2816,23598 2819,23603 2822,23607 2826,23612 2829,23616 2833,23620 2837,23623 2841,23627 2845,23630 2850,23634 2854,23637 2859,23639 2864,23642 2869,23644 2874,23647 2879,23649 2884,23650 2889,23652 2894,23653 2900,23654 2905,23655 2911,23656 2916,23656 2922,23656 2927,23656 2932,23656 2938,23655 2943,23654 2949,23653 2954,23652 2959,23650 2964,23649 2969,23647 2974,23644 2979,23642 2984,23639 2989,23637 2993,23634 2998,23630 3002,23627 3006,23623 3010,23620 3014,23616 3017,23612 3021,23607 3024,23603 3027,23598 3030,23594 3032,23589 3035,23584 3037,23579 3039,23574 3041,23569 3042,23564 3044,23558 3045,23553 3045,23547 3046,23542 3046,23537 3047,23531 Z"/>
 <path fill="none" stroke="rgb(75,31,111)" stroke-linejoin="round" d="M 3047,23531 L 3046,23526 3046,23520 3045,23515 3045,23509 3044,23504 3042,23499 3041,23494 3039,23488 3037,23483 3035,23478 3032,23473 3030,23469 3027,23464 3024,23459 3021,23455 3017,23451 3014,23447 3010,23443 3006,23439 3002,23435 2998,23432 2993,23429 2989,23426 2984,23423 2979,23420 2974,23418 2969,23416 2964,23414 2959,23412 2954,23410 2949,23409 2943,23408 2938,23407 2932,23407 2927,23406 2922,23406 2916,23406 2911,23407 2905,23407 2900,23408 2894,23409 2889,23410 2884,23412 2879,23414 2874,23416 2869,23418 2864,23420 2859,23423 2854,23426 2850,23429 2845,23432 2841,23435 2837,23439 2833,23443 2829,23447 2826,23451 2822,23455 2819,23459 2816,23464 2813,23469 2811,23473 2808,23478 2806,23483 2804,23488 2802,23494 2801,23499 2799,23504 2798,23509 2798,23515 2797,23520 2797,23526 2797,23531 2797,23537 2797,23542 2798,23547 2798,23553 2799,23558 2801,23564 2802,23569 2804,23574 2806,23579 2808,23584 2811,23589 2813,23594 2816,23598 2819,23603 2822,23607 2826,23612 2829,23616 2833,23620 2837,23623 2841,23627 2845,23630 2850,23634 2854,23637 2859,23639 2864,23642 2869,23644 2874,23647 2879,23649 2884,23650 2889,23652 2894,23653 2900,23654 2905,23655 2911,23656 2916,23656 2922,23656 2927,23656 2932,23656 2938,23655 2943,23654 2949,23653 2954,23652 2959,23650 2964,23649 2969,23647 2974,23644 2979,23642 2984,23639 2989,23637 2993,23634 2998,23630 3002,23627 3006,23623 3010,23620 3014,23616 3017,23612 3021,23607 3024,23603 3027,23598 3030,23594 3032,23589 3035,23584 3037,23579 3039,23574 3041,23569 3042,23564 3044,23558 3045,23553 3045,23547 3046,23542 3046,23537 3047,23531 Z"/>
 <path fill="rgb(75,31,111)" stroke="none" d="M 5018,23531 L 5018,23526 5018,23520 5017,23515 5017,23509 5015,23504 5014,23499 5013,23494 5011,23488 5009,23483 5007,23478 5004,23473 5002,23469 4999,23464 4996,23459 4993,23455 4989,23451 4986,23447 4982,23443 4978,23439 4974,23435 4969,23432 4965,23429 4961,23426 4956,23423 4951,23420 4946,23418 4941,23416 4936,23414 4931,23412 4926,23410 4920,23409 4915,23408 4910,23407 4904,23407 4899,23406 4893,23406 4888,23406 4883,23407 4877,23407 4872,23408 4866,23409 4861,23410 4856,23412 4851,23414 4846,23416 4841,23418 4836,23420 4831,23423 4826,23426 4822,23429 4817,23432 4813,23435 4809,23439 4805,23443 4801,23447 4798,23451 4794,23455 4791,23459 4788,23464 4785,23469 4783,23473 4780,23478 4778,23483 4776,23488 4774,23494 4773,23499 4771,23504 4770,23509 4769,23515 4769,23520 4769,23526 4768,23531 4769,23537 4769,23542 4769,23548 4770,23553 4771,23558 4773,23564 4774,23569 4776,23574 4778,23579 4780,23584 4783,23589 4785,23594 4788,23598 4791,23603 4794,23607 4798,23612 4801,23616 4805,23620 4809,23623 4813,23627 4817,23630 4822,23634 4826,23637 4831,23639 4836,23642 4841,23644 4846,23647 4851,23649 4856,23650 4861,23652 4866,23653 4872,23654 4877,23655 4883,23656 4888,23656 4893,23656 4899,23656 4904,23656 4910,23655 4915,23654 4920,23653 4926,23652 4931,23650 4936,23649 4941,23647 4946,23644 4951,23642 4956,23639 4961,23637 4965,23634 4969,23630 4974,23627 4978,23623 4982,23620 4986,23616 4989,23612 4993,23607 4996,23603 4999,23598 5002,23594 5004,23589 5007,23584 5009,23579 5011,23574 5013,23569 5014,23564 5015,23558 5017,23553 5017,23548 5018,23542 5018,23537 5018,23531 Z"/>
 <path fill="none" stroke="rgb(75,31,111)" stroke-linejoin="round" d="M 5018,23531 L 5018,23526 5018,23520 5017,23515 5017,23509 5015,23504 5014,23499 5013,23494 5011,23488 5009,23483 5007,23478 5004,23473 5002,23469 4999,23464 4996,23459 4993,23455 4989,23451 4986,23447 4982,23443 4978,23439 4974,23435 4969,23432 4965,23429 4961,23426 4956,23423 4951,23420 4946,23418 4941,23416 4936,23414 4931,23412 4926,23410 4920,23409 4915,23408 4910,23407 4904,23407 4899,23406 4893,23406 4888,23406 4883,23407 4877,23407 4872,23408 4866,23409 4861,23410 4856,23412 4851,23414 4846,23416 4841,23418 4836,23420 4831,23423 4826,23426 4822,23429 4817,23432 4813,23435 4809,23439 4805,23443 4801,23447 4798,23451 4794,23455 4791,23459 4788,23464 4785,23469 4783,23473 4780,23478 4778,23483 4776,23488 4774,23494 4773,23499 4771,23504 4770,23509 4769,23515 4769,23520 4769,23526 4768,23531 4769,23537 4769,23542 4769,23548 4770,23553 4771,23558 4773,23564 4774,23569 4776,23574 4778,23579 4780,23584 4783,23589 4785,23594 4788,23598 4791,23603 4794,23607 4798,23612 4801,23616 4805,23620 4809,23623 4813,23627 4817,23630 4822,23634 4826,23637 4831,23639 4836,23642 4841,23644 4846,23647 4851,23649 4856,23650 4861,23652 4866,23653 4872,23654 4877,23655 4883,23656 4888,23656 4893,23656 4899,23656 4904,23656 4910,23655 4915,23654 4920,23653 4926,23652 4931,23650 4936,23649 4941,23647 4946,23644 4951,23642 4956,23639 4961,23637 4965,23634 4969,23630 4974,23627 4978,23623 4982,23620 4986,23616 4989,23612 4993,23607 4996,23603 4999,23598 5002,23594 5004,23589 5007,23584 5009,23579 5011,23574 5013,23569 5014,23564 5015,23558 5017,23553 5017,23548 5018,23542 5018,23537 5018,23531 Z"/>
 <path fill="rgb(75,31,111)" stroke="none" d="M 6990,23531 L 6990,23526 6990,23520 6989,23515 6988,23509 6987,23504 6986,23499 6985,23494 6983,23488 6981,23483 6979,23478 6976,23473 6974,23469 6971,23464 6968,23459 6964,23455 6961,23451 6957,23447 6954,23443 6950,23439 6946,23435 6941,23432 6937,23429 6932,23426 6928,23423 6923,23420 6918,23418 6913,23416 6908,23414 6903,23412 6898,23410 6892,23409 6887,23408 6882,23407 6876,23407 6871,23406 6865,23406 6860,23406 6854,23407 6849,23407 6844,23408 6838,23409 6833,23410 6828,23412 6823,23414 6817,23416 6812,23418 6808,23420 6803,23423 6798,23426 6794,23429 6789,23432 6785,23435 6781,23439 6777,23443 6773,23447 6770,23451 6766,23455 6763,23459 6760,23464 6757,23469 6754,23473 6752,23478 6750,23483 6748,23488 6746,23494 6745,23499 6743,23504 6742,23509 6741,23515 6741,23520 6740,23526 6740,23531 6740,23537 6741,23542 6741,23547 6742,23553 6743,23558 6745,23564 6746,23569 6748,23574 6750,23579 6752,23584 6754,23589 6757,23594 6760,23598 6763,23603 6766,23607 6770,23612 6773,23616 6777,23620 6781,23623 6785,23627 6789,23630 6794,23634 6798,23637 6803,23639 6808,23642 6812,23644 6817,23647 6823,23649 6828,23650 6833,23652 6838,23653 6844,23654 6849,23655 6854,23656 6860,23656 6865,23656 6871,23656 6876,23656 6882,23655 6887,23654 6892,23653 6898,23652 6903,23650 6908,23649 6913,23647 6918,23644 6923,23642 6928,23639 6932,23637 6937,23634 6941,23630 6946,23627 6950,23623 6954,23620 6957,23616 6961,23612 6964,23607 6968,23603 6971,23598 6974,23594 6976,23589 6979,23584 6981,23579 6983,23574 6985,23569 6986,23564 6987,23558 6988,23553 6989,23547 6990,23542 6990,23537 6990,23531 Z"/>
 <path fill="none" stroke="rgb(75,31,111)" stroke-linejoin="round" d="M 6990,23531 L 6990,23526 6990,23520 6989,23515 6988,23509 6987,23504 6986,23499 6985,23494 6983,23488 6981,23483 6979,23478 6976,23473 6974,23469 6971,23464 6968,23459 6964,23455 6961,23451 6957,23447 6954,23443 6950,23439 6946,23435 6941,23432 6937,23429 6932,23426 6928,23423 6923,23420 6918,23418 6913,23416 6908,23414 6903,23412 6898,23410 6892,23409 6887,23408 6882,23407 6876,23407 6871,23406 6865,23406 6860,23406 6854,23407 6849,23407 6844,23408 6838,23409 6833,23410 6828,23412 6823,23414 6817,23416 6812,23418 6808,23420 6803,23423 6798,23426 6794,23429 6789,23432 6785,23435 6781,23439 6777,23443 6773,23447 6770,23451 6766,23455 6763,23459 6760,23464 6757,23469 6754,23473 6752,23478 6750,23483 6748,23488 6746,23494 6745,23499 6743,23504 6742,23509 6741,23515 6741,23520 6740,23526 6740,23531 6740,23537 6741,23542 6741,23547 6742,23553 6743,23558 6745,23564 6746,23569 6748,23574 6750,23579 6752,23584 6754,23589 6757,23594 6760,23598 6763,23603 6766,23607 6770,23612 6773,23616 6777,23620 6781,23623 6785,23627 6789,23630 6794,23634 6798,23637 6803,23639 6808,23642 6812,23644 6817,23647 6823,23649 6828,23650 6833,23652 6838,23653 6844,23654 6849,23655 6854,23656 6860,23656 6865,23656 6871,23656 6876,23656 6882,23655 6887,23654 6892,23653 6898,23652 6903,23650 6908,23649 6913,23647 6918,23644 6923,23642 6928,23639 6932,23637 6937,23634 6941,23630 6946,23627 6950,23623 6954,23620 6957,23616 6961,23612 6964,23607 6968,23603 6971,23598 6974,23594 6976,23589 6979,23584 6981,23579 6983,23574 6985,23569 6986,23564 6987,23558 6988,23553 6989,23547 6990,23542 6990,23537 6990,23531 Z"/>
 <path fill="rgb(75,31,111)" stroke="none" d="M 8962,23531 L 8962,23526 8962,23520 8961,23515 8960,23509 8959,23504 8958,23499 8956,23494 8955,23488 8953,23483 8950,23478 8948,23473 8945,23469 8943,23464 8940,23459 8936,23455 8933,23451 8929,23447 8926,23443 8922,23439 8918,23435 8913,23432 8909,23429 8904,23426 8900,23423 8895,23420 8890,23418 8885,23416 8880,23414 8875,23412 8870,23410 8864,23409 8859,23408 8854,23407 8848,23407 8843,23406 8837,23406 8832,23406 8826,23407 8821,23407 8815,23408 8810,23409 8805,23410 8800,23412 8794,23414 8789,23416 8784,23418 8779,23420 8775,23423 8770,23426 8766,23429 8761,23432 8757,23435 8753,23439 8749,23443 8745,23447 8741,23451 8738,23455 8735,23459 8732,23464 8729,23469 8726,23473 8724,23478 8722,23483 8720,23488 8718,23494 8716,23499 8715,23504 8714,23509 8713,23515 8713,23520 8712,23526 8712,23531 8712,23537 8713,23542 8713,23548 8714,23553 8715,23558 8716,23564 8718,23569 8720,23574 8722,23579 8724,23584 8726,23589 8729,23594 8732,23598 8735,23603 8738,23607 8741,23612 8745,23616 8749,23620 8753,23623 8757,23627 8761,23630 8766,23634 8770,23637 8775,23639 8779,23642 8784,23644 8789,23647 8794,23649 8800,23650 8805,23652 8810,23653 8815,23654 8821,23655 8826,23656 8832,23656 8837,23656 8843,23656 8848,23656 8854,23655 8859,23654 8864,23653 8870,23652 8875,23650 8880,23649 8885,23647 8890,23644 8895,23642 8900,23639 8904,23637 8909,23634 8913,23630 8918,23627 8922,23623 8926,23620 8929,23616 8933,23612 8936,23607 8940,23603 8943,23598 8945,23594 8948,23589 8950,23584 8953,23579 8955,23574 8956,23569 8958,23564 8959,23558 8960,23553 8961,23548 8962,23542 8962,23537 8962,23531 Z"/>
 <path fill="none" stroke="rgb(75,31,111)" stroke-linejoin="round" d="M 8962,23531 L 8962,23526 8962,23520 8961,23515 8960,23509 8959,23504 8958,23499 8956,23494 8955,23488 8953,23483 8950,23478 8948,23473 8945,23469 8943,23464 8940,23459 8936,23455 8933,23451 8929,23447 8926,23443 8922,23439 8918,23435 8913,23432 8909,23429 8904,23426 8900,23423 8895,23420 8890,23418 8885,23416 8880,23414 8875,23412 8870,23410 8864,23409 8859,23408 8854,23407 8848,23407 8843,23406 8837,23406 8832,23406 8826,23407 8821,23407 8815,23408 8810,23409 8805,23410 8800,23412 8794,23414 8789,23416 8784,23418 8779,23420 8775,23423 8770,23426 8766,23429 8761,23432 8757,23435 8753,23439 8749,23443 8745,23447 8741,23451 8738,23455 8735,23459 8732,23464 8729,23469 8726,23473 8724,23478 8722,23483 8720,23488 8718,23494 8716,23499 8715,23504 8714,23509 8713,23515 8713,23520 8712,23526 8712,23531 8712,23537 8713,23542 8713,23548 8714,23553 8715,23558 8716,23564 8718,23569 8720,23574 8722,23579 8724,23584 8726,23589 8729,23594 8732,23598 8735,23603 8738,23607 8741,23612 8745,23616 8749,23620 8753,23623 8757,23627 8761,23630 8766,23634 8770,23637 8775,23639 8779,23642 8784,23644 8789,23647 8794,23649 8800,23650 8805,23652 8810,23653 8815,23654 8821,23655 8826,23656 8832,23656 8837,23656 8843,23656 8848,23656 8854,23655 8859,23654 8864,23653 8870,23652 8875,23650 8880,23649 8885,23647 8890,23644 8895,23642 8900,23639 8904,23637 8909,23634 8913,23630 8918,23627 8922,23623 8926,23620 8929,23616 8933,23612 8936,23607 8940,23603 8943,23598 8945,23594 8948,23589 8950,23584 8953,23579 8955,23574 8956,23569 8958,23564 8959,23558 8960,23553 8961,23548 8962,23542 8962,23537 8962,23531 Z"/>
 <path fill="rgb(75,31,111)" stroke="none" d="M 10934,23531 L 10934,23526 10934,23520 10933,23515 10932,23509 10931,23504 10930,23499 10928,23494 10927,23488 10925,23483 10922,23478 10920,23473 10917,23469 10915,23464 10911,23459 10908,23455 10905,23451 10901,23447 10897,23443 10894,23439 10889,23435 10885,23432 10881,23429 10876,23426 10872,23423 10867,23420 10862,23418 10857,23416 10852,23414 10847,23412 10841,23410 10836,23409 10831,23408 10825,23407 10820,23407 10815,23406 10809,23406 10804,23406 10798,23407 10793,23407 10787,23408 10782,23409 10777,23410 10772,23412 10766,23414 10761,23416 10756,23418 10751,23420 10747,23423 10742,23426 10737,23429 10733,23432 10729,23435 10725,23439 10721,23443 10717,23447 10713,23451 10710,23455 10707,23459 10704,23464 10701,23469 10698,23473 10696,23478 10694,23483 10692,23488 10690,23494 10688,23499 10687,23504 10686,23509 10685,23515 10685,23520 10684,23526 10684,23531 10684,23537 10685,23542 10685,23547 10686,23553 10687,23558 10688,23564 10690,23569 10692,23574 10694,23579 10696,23584 10698,23589 10701,23594 10704,23598 10707,23603 10710,23607 10713,23612 10717,23616 10721,23620 10725,23623 10729,23627 10733,23630 10737,23634 10742,23637 10747,23639 10751,23642 10756,23644 10761,23647 10766,23649 10772,23650 10777,23652 10782,23653 10787,23654 10793,23655 10798,23656 10804,23656 10809,23656 10815,23656 10820,23656 10825,23655 10831,23654 10836,23653 10841,23652 10847,23650 10852,23649 10857,23647 10862,23644 10867,23642 10872,23639 10876,23637 10881,23634 10885,23630 10889,23627 10894,23623 10897,23620 10901,23616 10905,23612 10908,23607 10911,23603 10915,23598 10917,23594 10920,23589 10922,23584 10925,23579 10927,23574 10928,23569 10930,23564 10931,23558 10932,23553 10933,23547 10934,23542 10934,23537 10934,23531 Z"/>
 <path fill="none" stroke="rgb(75,31,111)" stroke-linejoin="round" d="M 10934,23531 L 10934,23526 10934,23520 10933,23515 10932,23509 10931,23504 10930,23499 10928,23494 10927,23488 10925,23483 10922,23478 10920,23473 10917,23469 10915,23464 10911,23459 10908,23455 10905,23451 10901,23447 10897,23443 10894,23439 10889,23435 10885,23432 10881,23429 10876,23426 10872,23423 10867,23420 10862,23418 10857,23416 10852,23414 10847,23412 10841,23410 10836,23409 10831,23408 10825,23407 10820,23407 10815,23406 10809,23406 10804,23406 10798,23407 10793,23407 10787,23408 10782,23409 10777,23410 10772,23412 10766,23414 10761,23416 10756,23418 10751,23420 10747,23423 10742,23426 10737,23429 10733,23432 10729,23435 10725,23439 10721,23443 10717,23447 10713,23451 10710,23455 10707,23459 10704,23464 10701,23469 10698,23473 10696,23478 10694,23483 10692,23488 10690,23494 10688,23499 10687,23504 10686,23509 10685,23515 10685,23520 10684,23526 10684,23531 10684,23537 10685,23542 10685,23547 10686,23553 10687,23558 10688,23564 10690,23569 10692,23574 10694,23579 10696,23584 10698,23589 10701,23594 10704,23598 10707,23603 10710,23607 10713,23612 10717,23616 10721,23620 10725,23623 10729,23627 10733,23630 10737,23634 10742,23637 10747,23639 10751,23642 10756,23644 10761,23647 10766,23649 10772,23650 10777,23652 10782,23653 10787,23654 10793,23655 10798,23656 10804,23656 10809,23656 10815,23656 10820,23656 10825,23655 10831,23654 10836,23653 10841,23652 10847,23650 10852,23649 10857,23647 10862,23644 10867,23642 10872,23639 10876,23637 10881,23634 10885,23630 10889,23627 10894,23623 10897,23620 10901,23616 10905,23612 10908,23607 10911,23603 10915,23598 10917,23594 10920,23589 10922,23584 10925,23579 10927,23574 10928,23569 10930,23564 10931,23558 10932,23553 10933,23547 10934,23542 10934,23537 10934,23531 Z"/>
 <path fill="rgb(75,31,111)" stroke="none" d="M 12906,23531 L 12906,23526 12906,23520 12905,23515 12904,23509 12903,23504 12902,23499 12900,23494 12898,23488 12896,23483 12894,23478 12892,23473 12889,23469 12886,23464 12883,23459 12880,23455 12877,23451 12873,23447 12869,23443 12865,23439 12861,23435 12857,23432 12853,23429 12848,23426 12844,23423 12839,23420 12834,23418 12829,23416 12824,23414 12819,23412 12813,23410 12808,23409 12803,23408 12797,23407 12792,23407 12786,23406 12781,23406 12776,23406 12770,23407 12765,23407 12759,23408 12754,23409 12749,23410 12743,23412 12738,23414 12733,23416 12728,23418 12723,23420 12719,23423 12714,23426 12709,23429 12705,23432 12701,23435 12697,23439 12693,23443 12689,23447 12685,23451 12682,23455 12679,23459 12676,23464 12673,23469 12670,23473 12668,23478 12666,23483 12664,23488 12662,23494 12660,23499 12659,23504 12658,23509 12657,23515 12656,23520 12656,23526 12656,23531 12656,23537 12656,23542 12657,23547 12658,23553 12659,23558 12660,23564 12662,23569 12664,23574 12666,23579 12668,23584 12670,23589 12673,23594 12676,23598 12679,23603 12682,23607 12685,23612 12689,23616 12693,23620 12697,23623 12701,23627 12705,23630 12709,23634 12714,23637 12719,23639 12723,23642 12728,23644 12733,23647 12738,23649 12743,23650 12749,23652 12754,23653 12759,23654 12765,23655 12770,23656 12776,23656 12781,23656 12786,23656 12792,23656 12797,23655 12803,23654 12808,23653 12813,23652 12819,23650 12824,23649 12829,23647 12834,23644 12839,23642 12844,23639 12848,23637 12853,23634 12857,23630 12861,23627 12865,23623 12869,23620 12873,23616 12877,23612 12880,23607 12883,23603 12886,23598 12889,23594 12892,23589 12894,23584 12896,23579 12898,23574 12900,23569 12902,23564 12903,23558 12904,23553 12905,23547 12906,23542 12906,23537 12906,23531 Z"/>
 <path fill="none" stroke="rgb(75,31,111)" stroke-linejoin="round" d="M 12906,23531 L 12906,23526 12906,23520 12905,23515 12904,23509 12903,23504 12902,23499 12900,23494 12898,23488 12896,23483 12894,23478 12892,23473 12889,23469 12886,23464 12883,23459 12880,23455 12877,23451 12873,23447 12869,23443 12865,23439 12861,23435 12857,23432 12853,23429 12848,23426 12844,23423 12839,23420 12834,23418 12829,23416 12824,23414 12819,23412 12813,23410 12808,23409 12803,23408 12797,23407 12792,23407 12786,23406 12781,23406 12776,23406 12770,23407 12765,23407 12759,23408 12754,23409 12749,23410 12743,23412 12738,23414 12733,23416 12728,23418 12723,23420 12719,23423 12714,23426 12709,23429 12705,23432 12701,23435 12697,23439 12693,23443 12689,23447 12685,23451 12682,23455 12679,23459 12676,23464 12673,23469 12670,23473 12668,23478 12666,23483 12664,23488 12662,23494 12660,23499 12659,23504 12658,23509 12657,23515 12656,23520 12656,23526 12656,23531 12656,23537 12656,23542 12657,23547 12658,23553 12659,23558 12660,23564 12662,23569 12664,23574 12666,23579 12668,23584 12670,23589 12673,23594 12676,23598 12679,23603 12682,23607 12685,23612 12689,23616 12693,23620 12697,23623 12701,23627 12705,23630 12709,23634 12714,23637 12719,23639 12723,23642 12728,23644 12733,23647 12738,23649 12743,23650 12749,23652 12754,23653 12759,23654 12765,23655 12770,23656 12776,23656 12781,23656 12786,23656 12792,23656 12797,23655 12803,23654 12808,23653 12813,23652 12819,23650 12824,23649 12829,23647 12834,23644 12839,23642 12844,23639 12848,23637 12853,23634 12857,23630 12861,23627 12865,23623 12869,23620 12873,23616 12877,23612 12880,23607 12883,23603 12886,23598 12889,23594 12892,23589 12894,23584 12896,23579 12898,23574 12900,23569 12902,23564 12903,23558 12904,23553 12905,23547 12906,23542 12906,23537 12906,23531 Z"/>
 <path fill="rgb(75,31,111)" stroke="none" d="M 14877,23531 L 14877,23526 14876,23520 14876,23515 14875,23509 14874,23504 14873,23499 14871,23494 14869,23488 14867,23483 14865,23478 14863,23473 14860,23469 14857,23464 14854,23459 14851,23455 14848,23451 14844,23447 14840,23443 14836,23439 14832,23435 14828,23432 14824,23429 14819,23426 14814,23423 14810,23420 14805,23418 14800,23416 14795,23414 14789,23412 14784,23410 14779,23409 14774,23408 14768,23407 14763,23407 14757,23406 14752,23406 14746,23406 14741,23407 14736,23407 14730,23408 14725,23409 14720,23410 14714,23412 14709,23414 14704,23416 14699,23418 14694,23420 14689,23423 14685,23426 14680,23429 14676,23432 14672,23435 14667,23439 14664,23443 14660,23447 14656,23451 14653,23455 14650,23459 14646,23464 14644,23469 14641,23473 14639,23478 14636,23483 14634,23488 14633,23494 14631,23499 14630,23504 14629,23509 14628,23515 14627,23520 14627,23526 14627,23531 14627,23537 14627,23542 14628,23547 14629,23553 14630,23558 14631,23564 14633,23569 14634,23574 14636,23579 14639,23584 14641,23589 14644,23594 14646,23598 14650,23603 14653,23607 14656,23612 14660,23616 14664,23620 14667,23623 14672,23627 14676,23630 14680,23634 14685,23637 14689,23639 14694,23642 14699,23644 14704,23647 14709,23649 14714,23650 14720,23652 14725,23653 14730,23654 14736,23655 14741,23656 14746,23656 14752,23656 14757,23656 14763,23656 14768,23655 14774,23654 14779,23653 14784,23652 14789,23650 14795,23649 14800,23647 14805,23644 14810,23642 14814,23639 14819,23637 14824,23634 14828,23630 14832,23627 14836,23623 14840,23620 14844,23616 14848,23612 14851,23607 14854,23603 14857,23598 14860,23594 14863,23589 14865,23584 14867,23579 14869,23574 14871,23569 14873,23564 14874,23558 14875,23553 14876,23547 14876,23542 14877,23537 14877,23531 Z"/>
 <path fill="none" stroke="rgb(75,31,111)" stroke-linejoin="round" d="M 14877,23531 L 14877,23526 14876,23520 14876,23515 14875,23509 14874,23504 14873,23499 14871,23494 14869,23488 14867,23483 14865,23478 14863,23473 14860,23469 14857,23464 14854,23459 14851,23455 14848,23451 14844,23447 14840,23443 14836,23439 14832,23435 14828,23432 14824,23429 14819,23426 14814,23423 14810,23420 14805,23418 14800,23416 14795,23414 14789,23412 14784,23410 14779,23409 14774,23408 14768,23407 14763,23407 14757,23406 14752,23406 14746,23406 14741,23407 14736,23407 14730,23408 14725,23409 14720,23410 14714,23412 14709,23414 14704,23416 14699,23418 14694,23420 14689,23423 14685,23426 14680,23429 14676,23432 14672,23435 14667,23439 14664,23443 14660,23447 14656,23451 14653,23455 14650,23459 14646,23464 14644,23469 14641,23473 14639,23478 14636,23483 14634,23488 14633,23494 14631,23499 14630,23504 14629,23509 14628,23515 14627,23520 14627,23526 14627,23531 14627,23537 14627,23542 14628,23547 14629,23553 14630,23558 14631,23564 14633,23569 14634,23574 14636,23579 14639,23584 14641,23589 14644,23594 14646,23598 14650,23603 14653,23607 14656,23612 14660,23616 14664,23620 14667,23623 14672,23627 14676,23630 14680,23634 14685,23637 14689,23639 14694,23642 14699,23644 14704,23647 14709,23649 14714,23650 14720,23652 14725,23653 14730,23654 14736,23655 14741,23656 14746,23656 14752,23656 14757,23656 14763,23656 14768,23655 14774,23654 14779,23653 14784,23652 14789,23650 14795,23649 14800,23647 14805,23644 14810,23642 14814,23639 14819,23637 14824,23634 14828,23630 14832,23627 14836,23623 14840,23620 14844,23616 14848,23612 14851,23607 14854,23603 14857,23598 14860,23594 14863,23589 14865,23584 14867,23579 14869,23574 14871,23569 14873,23564 14874,23558 14875,23553 14876,23547 14876,23542 14877,23537 14877,23531 Z"/>
 <path fill="rgb(75,31,111)" stroke="none" d="M 16849,23531 L 16849,23526 16848,23520 16848,23515 16847,23509 16846,23504 16845,23499 16843,23494 16841,23488 16839,23483 16837,23478 16835,23473 16832,23469 16829,23464 16826,23459 16823,23455 16820,23451 16816,23447 16812,23443 16808,23439 16804,23435 16800,23432 16795,23429 16791,23426 16786,23423 16782,23420 16777,23418 16772,23416 16767,23414 16761,23412 16756,23410 16751,23409 16746,23408 16740,23407 16735,23407 16729,23406 16724,23406 16718,23406 16713,23407 16707,23407 16702,23408 16697,23409 16691,23410 16686,23412 16681,23414 16676,23416 16671,23418 16666,23420 16661,23423 16657,23426 16652,23429 16648,23432 16643,23435 16639,23439 16635,23443 16632,23447 16628,23451 16625,23455 16621,23459 16618,23464 16616,23469 16613,23473 16611,23478 16608,23483 16606,23488 16605,23494 16603,23499 16602,23504 16601,23509 16600,23515 16599,23520 16599,23526 16599,23531 16599,23537 16599,23542 16600,23547 16601,23553 16602,23558 16603,23564 16605,23569 16606,23574 16608,23579 16611,23584 16613,23589 16616,23594 16618,23598 16621,23603 16625,23607 16628,23612 16632,23616 16635,23620 16639,23623 16643,23627 16648,23630 16652,23634 16657,23637 16661,23639 16666,23642 16671,23644 16676,23647 16681,23649 16686,23650 16691,23652 16697,23653 16702,23654 16707,23655 16713,23656 16718,23656 16724,23656 16729,23656 16735,23656 16740,23655 16746,23654 16751,23653 16756,23652 16761,23650 16767,23649 16772,23647 16777,23644 16782,23642 16786,23639 16791,23637 16795,23634 16800,23630 16804,23627 16808,23623 16812,23620 16816,23616 16820,23612 16823,23607 16826,23603 16829,23598 16832,23594 16835,23589 16837,23584 16839,23579 16841,23574 16843,23569 16845,23564 16846,23558 16847,23553 16848,23547 16848,23542 16849,23537 16849,23531 Z"/>
 <path fill="none" stroke="rgb(75,31,111)" stroke-linejoin="round" d="M 16849,23531 L 16849,23526 16848,23520 16848,23515 16847,23509 16846,23504 16845,23499 16843,23494 16841,23488 16839,23483 16837,23478 16835,23473 16832,23469 16829,23464 16826,23459 16823,23455 16820,23451 16816,23447 16812,23443 16808,23439 16804,23435 16800,23432 16795,23429 16791,23426 16786,23423 16782,23420 16777,23418 16772,23416 16767,23414 16761,23412 16756,23410 16751,23409 16746,23408 16740,23407 16735,23407 16729,23406 16724,23406 16718,23406 16713,23407 16707,23407 16702,23408 16697,23409 16691,23410 16686,23412 16681,23414 16676,23416 16671,23418 16666,23420 16661,23423 16657,23426 16652,23429 16648,23432 16643,23435 16639,23439 16635,23443 16632,23447 16628,23451 16625,23455 16621,23459 16618,23464 16616,23469 16613,23473 16611,23478 16608,23483 16606,23488 16605,23494 16603,23499 16602,23504 16601,23509 16600,23515 16599,23520 16599,23526 16599,23531 16599,23537 16599,23542 16600,23547 16601,23553 16602,23558 16603,23564 16605,23569 16606,23574 16608,23579 16611,23584 16613,23589 16616,23594 16618,23598 16621,23603 16625,23607 16628,23612 16632,23616 16635,23620 16639,23623 16643,23627 16648,23630 16652,23634 16657,23637 16661,23639 16666,23642 16671,23644 16676,23647 16681,23649 16686,23650 16691,23652 16697,23653 16702,23654 16707,23655 16713,23656 16718,23656 16724,23656 16729,23656 16735,23656 16740,23655 16746,23654 16751,23653 16756,23652 16761,23650 16767,23649 16772,23647 16777,23644 16782,23642 16786,23639 16791,23637 16795,23634 16800,23630 16804,23627 16808,23623 16812,23620 16816,23616 16820,23612 16823,23607 16826,23603 16829,23598 16832,23594 16835,23589 16837,23584 16839,23579 16841,23574 16843,23569 16845,23564 16846,23558 16847,23553 16848,23547 16848,23542 16849,23537 16849,23531 Z"/>
 <path fill="rgb(75,31,111)" stroke="none" d="M 18821,23531 L 18821,23526 18820,23520 18820,23515 18819,23509 18818,23504 18816,23499 18815,23494 18813,23488 18811,23483 18809,23478 18807,23473 18804,23469 18801,23464 18798,23459 18795,23455 18791,23451 18788,23447 18784,23443 18780,23439 18776,23435 18772,23432 18767,23429 18763,23426 18758,23423 18753,23420 18749,23418 18744,23416 18738,23414 18733,23412 18728,23410 18723,23409 18717,23408 18712,23407 18707,23407 18701,23406 18696,23406 18690,23406 18685,23407 18679,23407 18674,23408 18669,23409 18663,23410 18658,23412 18653,23414 18648,23416 18643,23418 18638,23420 18633,23423 18629,23426 18624,23429 18620,23432 18615,23435 18611,23439 18607,23443 18604,23447 18600,23451 18597,23455 18593,23459 18590,23464 18587,23469 18585,23473 18582,23478 18580,23483 18578,23488 18576,23494 18575,23499 18574,23504 18573,23509 18572,23515 18571,23520 18571,23526 18571,23531 18571,23537 18571,23542 18572,23548 18573,23553 18574,23558 18575,23564 18576,23569 18578,23574 18580,23579 18582,23584 18585,23589 18587,23594 18590,23598 18593,23603 18597,23607 18600,23612 18604,23616 18607,23620 18611,23623 18615,23627 18620,23630 18624,23634 18629,23637 18633,23639 18638,23642 18643,23644 18648,23647 18653,23649 18658,23650 18663,23652 18669,23653 18674,23654 18679,23655 18685,23656 18690,23656 18696,23656 18701,23656 18707,23656 18712,23655 18717,23654 18723,23653 18728,23652 18733,23650 18738,23649 18744,23647 18749,23644 18753,23642 18758,23639 18763,23637 18767,23634 18772,23630 18776,23627 18780,23623 18784,23620 18788,23616 18791,23612 18795,23607 18798,23603 18801,23598 18804,23594 18807,23589 18809,23584 18811,23579 18813,23574 18815,23569 18816,23564 18818,23558 18819,23553 18820,23548 18820,23542 18821,23537 18821,23531 Z"/>
 <path fill="none" stroke="rgb(75,31,111)" stroke-linejoin="round" d="M 18821,23531 L 18821,23526 18820,23520 18820,23515 18819,23509 18818,23504 18816,23499 18815,23494 18813,23488 18811,23483 18809,23478 18807,23473 18804,23469 18801,23464 18798,23459 18795,23455 18791,23451 18788,23447 18784,23443 18780,23439 18776,23435 18772,23432 18767,23429 18763,23426 18758,23423 18753,23420 18749,23418 18744,23416 18738,23414 18733,23412 18728,23410 18723,23409 18717,23408 18712,23407 18707,23407 18701,23406 18696,23406 18690,23406 18685,23407 18679,23407 18674,23408 18669,23409 18663,23410 18658,23412 18653,23414 18648,23416 18643,23418 18638,23420 18633,23423 18629,23426 18624,23429 18620,23432 18615,23435 18611,23439 18607,23443 18604,23447 18600,23451 18597,23455 18593,23459 18590,23464 18587,23469 18585,23473 18582,23478 18580,23483 18578,23488 18576,23494 18575,23499 18574,23504 18573,23509 18572,23515 18571,23520 18571,23526 18571,23531 18571,23537 18571,23542 18572,23548 18573,23553 18574,23558 18575,23564 18576,23569 18578,23574 18580,23579 18582,23584 18585,23589 18587,23594 18590,23598 18593,23603 18597,23607 18600,23612 18604,23616 18607,23620 18611,23623 18615,23627 18620,23630 18624,23634 18629,23637 18633,23639 18638,23642 18643,23644 18648,23647 18653,23649 18658,23650 18663,23652 18669,23653 18674,23654 18679,23655 18685,23656 18690,23656 18696,23656 18701,23656 18707,23656 18712,23655 18717,23654 18723,23653 18728,23652 18733,23650 18738,23649 18744,23647 18749,23644 18753,23642 18758,23639 18763,23637 18767,23634 18772,23630 18776,23627 18780,23623 18784,23620 18788,23616 18791,23612 18795,23607 18798,23603 18801,23598 18804,23594 18807,23589 18809,23584 18811,23579 18813,23574 18815,23569 18816,23564 18818,23558 18819,23553 18820,23548 18820,23542 18821,23537 18821,23531 Z"/>
 <path fill="rgb(75,31,111)" stroke="none" d="M 20793,23531 L 20792,23526 20792,23520 20792,23515 20791,23509 20790,23504 20788,23499 20787,23494 20785,23488 20783,23483 20781,23478 20778,23473 20776,23469 20773,23464 20770,23459 20767,23455 20763,23451 20760,23447 20756,23443 20752,23439 20748,23435 20744,23432 20739,23429 20735,23426 20730,23423 20725,23420 20720,23418 20715,23416 20710,23414 20705,23412 20700,23410 20695,23409 20689,23408 20684,23407 20678,23407 20673,23406 20668,23406 20662,23406 20657,23407 20651,23407 20646,23408 20641,23409 20635,23410 20630,23412 20625,23414 20620,23416 20615,23418 20610,23420 20605,23423 20600,23426 20596,23429 20592,23432 20587,23435 20583,23439 20579,23443 20575,23447 20572,23451 20568,23455 20565,23459 20562,23464 20559,23469 20557,23473 20554,23478 20552,23483 20550,23488 20548,23494 20547,23499 20546,23504 20544,23509 20544,23515 20543,23520 20543,23526 20543,23531 20543,23537 20543,23542 20544,23547 20544,23553 20546,23558 20547,23564 20548,23569 20550,23574 20552,23579 20554,23584 20557,23589 20559,23594 20562,23598 20565,23603 20568,23607 20572,23612 20575,23616 20579,23620 20583,23623 20587,23627 20592,23630 20596,23634 20600,23637 20605,23639 20610,23642 20615,23644 20620,23647 20625,23649 20630,23650 20635,23652 20641,23653 20646,23654 20651,23655 20657,23656 20662,23656 20668,23656 20673,23656 20678,23656 20684,23655 20689,23654 20695,23653 20700,23652 20705,23650 20710,23649 20715,23647 20720,23644 20725,23642 20730,23639 20735,23637 20739,23634 20744,23630 20748,23627 20752,23623 20756,23620 20760,23616 20763,23612 20767,23607 20770,23603 20773,23598 20776,23594 20778,23589 20781,23584 20783,23579 20785,23574 20787,23569 20788,23564 20790,23558 20791,23553 20792,23547 20792,23542 20792,23537 20793,23531 Z"/>
 <path fill="none" stroke="rgb(75,31,111)" stroke-linejoin="round" d="M 20793,23531 L 20792,23526 20792,23520 20792,23515 20791,23509 20790,23504 20788,23499 20787,23494 20785,23488 20783,23483 20781,23478 20778,23473 20776,23469 20773,23464 20770,23459 20767,23455 20763,23451 20760,23447 20756,23443 20752,23439 20748,23435 20744,23432 20739,23429 20735,23426 20730,23423 20725,23420 20720,23418 20715,23416 20710,23414 20705,23412 20700,23410 20695,23409 20689,23408 20684,23407 20678,23407 20673,23406 20668,23406 20662,23406 20657,23407 20651,23407 20646,23408 20641,23409 20635,23410 20630,23412 20625,23414 20620,23416 20615,23418 20610,23420 20605,23423 20600,23426 20596,23429 20592,23432 20587,23435 20583,23439 20579,23443 20575,23447 20572,23451 20568,23455 20565,23459 20562,23464 20559,23469 20557,23473 20554,23478 20552,23483 20550,23488 20548,23494 20547,23499 20546,23504 20544,23509 20544,23515 20543,23520 20543,23526 20543,23531 20543,23537 20543,23542 20544,23547 20544,23553 20546,23558 20547,23564 20548,23569 20550,23574 20552,23579 20554,23584 20557,23589 20559,23594 20562,23598 20565,23603 20568,23607 20572,23612 20575,23616 20579,23620 20583,23623 20587,23627 20592,23630 20596,23634 20600,23637 20605,23639 20610,23642 20615,23644 20620,23647 20625,23649 20630,23650 20635,23652 20641,23653 20646,23654 20651,23655 20657,23656 20662,23656 20668,23656 20673,23656 20678,23656 20684,23655 20689,23654 20695,23653 20700,23652 20705,23650 20710,23649 20715,23647 20720,23644 20725,23642 20730,23639 20735,23637 20739,23634 20744,23630 20748,23627 20752,23623 20756,23620 20760,23616 20763,23612 20767,23607 20770,23603 20773,23598 20776,23594 20778,23589 20781,23584 20783,23579 20785,23574 20787,23569 20788,23564 20790,23558 20791,23553 20792,23547 20792,23542 20792,23537 20793,23531 Z"/>
 <path fill="rgb(75,31,111)" stroke="none" d="M 22765,23531 L 22764,23526 22764,23520 22763,23515 22763,23509 22762,23504 22760,23499 22759,23494 22757,23488 22755,23483 22753,23478 22750,23473 22748,23469 22745,23464 22742,23459 22739,23455 22735,23451 22732,23447 22728,23443 22724,23439 22720,23435 22716,23432 22711,23429 22707,23426 22702,23423 22697,23420 22692,23418 22687,23416 22682,23414 22677,23412 22672,23410 22667,23409 22661,23408 22656,23407 22650,23407 22645,23406 22640,23406 22634,23406 22629,23407 22623,23407 22618,23408 22612,23409 22607,23410 22602,23412 22597,23414 22592,23416 22587,23418 22582,23420 22577,23423 22572,23426 22568,23429 22563,23432 22559,23435 22555,23439 22551,23443 22547,23447 22544,23451 22540,23455 22537,23459 22534,23464 22531,23469 22529,23473 22526,23478 22524,23483 22522,23488 22520,23494 22519,23499 22517,23504 22516,23509 22516,23515 22515,23520 22515,23526 22515,23531 22515,23537 22515,23542 22516,23547 22516,23553 22517,23558 22519,23564 22520,23569 22522,23574 22524,23579 22526,23584 22529,23589 22531,23594 22534,23598 22537,23603 22540,23607 22544,23612 22547,23616 22551,23620 22555,23623 22559,23627 22563,23630 22568,23634 22572,23637 22577,23639 22582,23642 22587,23644 22592,23647 22597,23649 22602,23650 22607,23652 22612,23653 22618,23654 22623,23655 22629,23656 22634,23656 22640,23656 22645,23656 22650,23656 22656,23655 22661,23654 22667,23653 22672,23652 22677,23650 22682,23649 22687,23647 22692,23644 22697,23642 22702,23639 22707,23637 22711,23634 22716,23630 22720,23627 22724,23623 22728,23620 22732,23616 22735,23612 22739,23607 22742,23603 22745,23598 22748,23594 22750,23589 22753,23584 22755,23579 22757,23574 22759,23569 22760,23564 22762,23558 22763,23553 22763,23547 22764,23542 22764,23537 22765,23531 Z"/>
 <path fill="none" stroke="rgb(75,31,111)" stroke-linejoin="round" d="M 22765,23531 L 22764,23526 22764,23520 22763,23515 22763,23509 22762,23504 22760,23499 22759,23494 22757,23488 22755,23483 22753,23478 22750,23473 22748,23469 22745,23464 22742,23459 22739,23455 22735,23451 22732,23447 22728,23443 22724,23439 22720,23435 22716,23432 22711,23429 22707,23426 22702,23423 22697,23420 22692,23418 22687,23416 22682,23414 22677,23412 22672,23410 22667,23409 22661,23408 22656,23407 22650,23407 22645,23406 22640,23406 22634,23406 22629,23407 22623,23407 22618,23408 22612,23409 22607,23410 22602,23412 22597,23414 22592,23416 22587,23418 22582,23420 22577,23423 22572,23426 22568,23429 22563,23432 22559,23435 22555,23439 22551,23443 22547,23447 22544,23451 22540,23455 22537,23459 22534,23464 22531,23469 22529,23473 22526,23478 22524,23483 22522,23488 22520,23494 22519,23499 22517,23504 22516,23509 22516,23515 22515,23520 22515,23526 22515,23531 22515,23537 22515,23542 22516,23547 22516,23553 22517,23558 22519,23564 22520,23569 22522,23574 22524,23579 22526,23584 22529,23589 22531,23594 22534,23598 22537,23603 22540,23607 22544,23612 22547,23616 22551,23620 22555,23623 22559,23627 22563,23630 22568,23634 22572,23637 22577,23639 22582,23642 22587,23644 22592,23647 22597,23649 22602,23650 22607,23652 22612,23653 22618,23654 22623,23655 22629,23656 22634,23656 22640,23656 22645,23656 22650,23656 22656,23655 22661,23654 22667,23653 22672,23652 22677,23650 22682,23649 22687,23647 22692,23644 22697,23642 22702,23639 22707,23637 22711,23634 22716,23630 22720,23627 22724,23623 22728,23620 22732,23616 22735,23612 22739,23607 22742,23603 22745,23598 22748,23594 22750,23589 22753,23584 22755,23579 22757,23574 22759,23569 22760,23564 22762,23558 22763,23553 22763,23547 22764,23542 22764,23537 22765,23531 Z"/>
 <path fill="none" stroke="rgb(255,149,14)" stroke-width="80" stroke-linejoin="round" d="M 2922,24449 L 4893,24122 6865,23828 8837,23037 10809,22109 12781,20647 14752,20016 16724,18428 18696,18455 20668,18413 22640,18426"/>
 <path fill="rgb(255,149,14)" stroke="none" d="M 2922,24324 L 2947,24424 3047,24449 2947,24474 2922,24574 2897,24474 2797,24449 2897,24424 2922,24324 Z"/>
 <path fill="none" stroke="rgb(255,149,14)" stroke-linejoin="round" d="M 2922,24324 L 2947,24424 3047,24449 2947,24474 2922,24574 2897,24474 2797,24449 2897,24424 2922,24324 Z"/>
 <path fill="rgb(255,149,14)" stroke="none" d="M 4893,23997 L 4918,24097 5018,24122 4918,24147 4893,24247 4868,24147 4768,24122 4868,24097 4893,23997 Z"/>
 <path fill="none" stroke="rgb(255,149,14)" stroke-linejoin="round" d="M 4893,23997 L 4918,24097 5018,24122 4918,24147 4893,24247 4868,24147 4768,24122 4868,24097 4893,23997 Z"/>
 <path fill="rgb(255,149,14)" stroke="none" d="M 6865,23703 L 6890,23803 6990,23828 6890,23853 6865,23953 6840,23853 6740,23828 6840,23803 6865,23703 Z"/>
 <path fill="none" stroke="rgb(255,149,14)" stroke-linejoin="round" d="M 6865,23703 L 6890,23803 6990,23828 6890,23853 6865,23953 6840,23853 6740,23828 6840,23803 6865,23703 Z"/>
 <path fill="rgb(255,149,14)" stroke="none" d="M 8837,22912 L 8862,23012 8962,23037 8862,23062 8837,23162 8812,23062 8712,23037 8812,23012 8837,22912 Z"/>
 <path fill="none" stroke="rgb(255,149,14)" stroke-linejoin="round" d="M 8837,22912 L 8862,23012 8962,23037 8862,23062 8837,23162 8812,23062 8712,23037 8812,23012 8837,22912 Z"/>
 <path fill="rgb(255,149,14)" stroke="none" d="M 10809,21984 L 10834,22084 10934,22109 10834,22134 10809,22234 10784,22134 10684,22109 10784,22084 10809,21984 Z"/>
 <path fill="none" stroke="rgb(255,149,14)" stroke-linejoin="round" d="M 10809,21984 L 10834,22084 10934,22109 10834,22134 10809,22234 10784,22134 10684,22109 10784,22084 10809,21984 Z"/>
 <path fill="rgb(255,149,14)" stroke="none" d="M 12781,20522 L 12806,20622 12906,20647 12806,20672 12781,20772 12756,20672 12656,20647 12756,20622 12781,20522 Z"/>
 <path fill="none" stroke="rgb(255,149,14)" stroke-linejoin="round" d="M 12781,20522 L 12806,20622 12906,20647 12806,20672 12781,20772 12756,20672 12656,20647 12756,20622 12781,20522 Z"/>
 <path fill="rgb(255,149,14)" stroke="none" d="M 14752,19891 L 14777,19991 14877,20016 14777,20041 14752,20141 14727,20041 14627,20016 14727,19991 14752,19891 Z"/>
 <path fill="none" stroke="rgb(255,149,14)" stroke-linejoin="round" d="M 14752,19891 L 14777,19991 14877,20016 14777,20041 14752,20141 14727,20041 14627,20016 14727,19991 14752,19891 Z"/>
 <path fill="rgb(255,149,14)" stroke="none" d="M 16724,18303 L 16749,18403 16849,18428 16749,18453 16724,18553 16699,18453 16599,18428 16699,18403 16724,18303 Z"/>
 <path fill="none" stroke="rgb(255,149,14)" stroke-linejoin="round" d="M 16724,18303 L 16749,18403 16849,18428 16749,18453 16724,18553 16699,18453 16599,18428 16699,18403 16724,18303 Z"/>
 <path fill="rgb(255,149,14)" stroke="none" d="M 18696,18330 L 18721,18430 18821,18455 18721,18480 18696,18580 18671,18480 18571,18455 18671,18430 18696,18330 Z"/>
 <path fill="none" stroke="rgb(255,149,14)" stroke-linejoin="round" d="M 18696,18330 L 18721,18430 18821,18455 18721,18480 18696,18580 18671,18480 18571,18455 18671,18430 18696,18330 Z"/>
 <path fill="rgb(255,149,14)" stroke="none" d="M 20668,18288 L 20693,18388 20793,18413 20693,18438 20668,18538 20643,18438 20543,18413 20643,18388 20668,18288 Z"/>
 <path fill="none" stroke="rgb(255,149,14)" stroke-linejoin="round" d="M 20668,18288 L 20693,18388 20793,18413 20693,18438 20668,18538 20643,18438 20543,18413 20643,18388 20668,18288 Z"/>
 <path fill="rgb(255,149,14)" stroke="none" d="M 22640,18301 L 22665,18401 22765,18426 22665,18451 22640,18551 22615,18451 22515,18426 22615,18401 22640,18301 Z"/>
 <path fill="none" stroke="rgb(255,149,14)" stroke-linejoin="round" d="M 22640,18301 L 22665,18401 22765,18426 22665,18451 22640,18551 22615,18451 22515,18426 22615,18401 22640,18301 Z"/>
 <path fill="none" stroke="rgb(197,0,11)" stroke-width="80" stroke-linejoin="round" d="M 2922,22109 L 4893,22109 6865,22109 8837,22109 10809,22109 12781,22109 14752,22109 16724,22109 18696,22109 20668,22109 22640,22113"/>
 <path fill="rgb(197,0,11)" stroke="none" d="M 2922,22095 L 2810,21984 2797,21997 2908,22109 2797,22220 2810,22234 2922,22122 3033,22234 3047,22220 2935,22109 3047,21997 3033,21984 2922,22095 Z"/>
 <path fill="none" stroke="rgb(197,0,11)" stroke-linejoin="round" d="M 2922,22095 L 2810,21984 2797,21997 2908,22109 2797,22220 2810,22234 2922,22122 3033,22234 3047,22220 2935,22109 3047,21997 3033,21984 2922,22095 Z"/>
 <path fill="rgb(197,0,11)" stroke="none" d="M 4893,22095 L 4782,21984 4768,21997 4880,22109 4768,22220 4782,22234 4893,22122 5005,22234 5018,22220 4907,22109 5018,21997 5005,21984 4893,22095 Z"/>
 <path fill="none" stroke="rgb(197,0,11)" stroke-linejoin="round" d="M 4893,22095 L 4782,21984 4768,21997 4880,22109 4768,22220 4782,22234 4893,22122 5005,22234 5018,22220 4907,22109 5018,21997 5005,21984 4893,22095 Z"/>
 <path fill="rgb(197,0,11)" stroke="none" d="M 6865,22095 L 6754,21984 6740,21997 6851,22109 6740,22220 6754,22234 6865,22122 6976,22234 6990,22220 6879,22109 6990,21997 6976,21984 6865,22095 Z"/>
 <path fill="none" stroke="rgb(197,0,11)" stroke-linejoin="round" d="M 6865,22095 L 6754,21984 6740,21997 6851,22109 6740,22220 6754,22234 6865,22122 6976,22234 6990,22220 6879,22109 6990,21997 6976,21984 6865,22095 Z"/>
 <path fill="rgb(197,0,11)" stroke="none" d="M 8837,22095 L 8726,21984 8712,21997 8823,22109 8712,22220 8726,22234 8837,22122 8948,22234 8962,22220 8851,22109 8962,21997 8948,21984 8837,22095 Z"/>
 <path fill="none" stroke="rgb(197,0,11)" stroke-linejoin="round" d="M 8837,22095 L 8726,21984 8712,21997 8823,22109 8712,22220 8726,22234 8837,22122 8948,22234 8962,22220 8851,22109 8962,21997 8948,21984 8837,22095 Z"/>
 <path fill="rgb(197,0,11)" stroke="none" d="M 10809,22095 L 10698,21984 10684,21997 10795,22109 10684,22220 10698,22234 10809,22122 10920,22234 10934,22220 10823,22109 10934,21997 10920,21984 10809,22095 Z"/>
 <path fill="none" stroke="rgb(197,0,11)" stroke-linejoin="round" d="M 10809,22095 L 10698,21984 10684,21997 10795,22109 10684,22220 10698,22234 10809,22122 10920,22234 10934,22220 10823,22109 10934,21997 10920,21984 10809,22095 Z"/>
 <path fill="rgb(197,0,11)" stroke="none" d="M 12781,22095 L 12670,21984 12656,21997 12767,22109 12656,22220 12670,22234 12781,22122 12892,22234 12906,22220 12795,22109 12906,21997 12892,21984 12781,22095 Z"/>
 <path fill="none" stroke="rgb(197,0,11)" stroke-linejoin="round" d="M 12781,22095 L 12670,21984 12656,21997 12767,22109 12656,22220 12670,22234 12781,22122 12892,22234 12906,22220 12795,22109 12906,21997 12892,21984 12781,22095 Z"/>
 <path fill="rgb(197,0,11)" stroke="none" d="M 14752,22095 L 14641,21984 14627,21997 14738,22109 14627,22220 14641,22234 14752,22122 14863,22234 14877,22220 14766,22109 14877,21997 14863,21984 14752,22095 Z"/>
 <path fill="none" stroke="rgb(197,0,11)" stroke-linejoin="round" d="M 14752,22095 L 14641,21984 14627,21997 14738,22109 14627,22220 14641,22234 14752,22122 14863,22234 14877,22220 14766,22109 14877,21997 14863,21984 14752,22095 Z"/>
 <path fill="rgb(197,0,11)" stroke="none" d="M 16724,22095 L 16613,21984 16599,21997 16710,22109 16599,22220 16613,22234 16724,22122 16835,22234 16849,22220 16738,22109 16849,21997 16835,21984 16724,22095 Z"/>
 <path fill="none" stroke="rgb(197,0,11)" stroke-linejoin="round" d="M 16724,22095 L 16613,21984 16599,21997 16710,22109 16599,22220 16613,22234 16724,22122 16835,22234 16849,22220 16738,22109 16849,21997 16835,21984 16724,22095 Z"/>
 <path fill="rgb(197,0,11)" stroke="none" d="M 18696,22095 L 18585,21984 18571,21997 18682,22109 18571,22220 18585,22234 18696,22122 18807,22234 18821,22220 18710,22109 18821,21997 18807,21984 18696,22095 Z"/>
 <path fill="none" stroke="rgb(197,0,11)" stroke-linejoin="round" d="M 18696,22095 L 18585,21984 18571,21997 18682,22109 18571,22220 18585,22234 18696,22122 18807,22234 18821,22220 18710,22109 18821,21997 18807,21984 18696,22095 Z"/>
 <path fill="rgb(197,0,11)" stroke="none" d="M 20668,22095 L 20556,21984 20543,21997 20654,22109 20543,22220 20556,22234 20668,22122 20779,22234 20793,22220 20681,22109 20793,21997 20779,21984 20668,22095 Z"/>
 <path fill="none" stroke="rgb(197,0,11)" stroke-linejoin="round" d="M 20668,22095 L 20556,21984 20543,21997 20654,22109 20543,22220 20556,22234 20668,22122 20779,22234 20793,22220 20681,22109 20793,21997 20779,21984 20668,22095 Z"/>
 <path fill="rgb(197,0,11)" stroke="none" d="M 22640,22099 L 22528,21988 22515,22002 22626,22113 22515,22224 22528,22238 22640,22127 22751,22238 22765,22224 22653,22113 22765,22002 22751,21988 22640,22099 Z"/>
 <path fill="none" stroke="rgb(197,0,11)" stroke-linejoin="round" d="M 22640,22099 L 22528,21988 22515,22002 22626,22113 22515,22224 22528,22238 22640,22127 22751,22238 22765,22224 22653,22113 22765,22002 22751,21988 22640,22099 Z"/>
 <text class="TextShape"><tspan class="TextParagraph" font-family="Liberation Sans, sans-serif" font-size="353px" font-weight="400"><tspan class="TextPosition" x="2340" y="25387"><tspan fill="rgb(0,0,0)" stroke="none">100kHz</tspan></tspan></tspan></text>
 <text class="TextShape"><tspan class="TextParagraph" font-family="Liberation Sans, sans-serif" font-size="353px" font-weight="400"><tspan class="TextPosition" x="4311" y="25387"><tspan fill="rgb(0,0,0)" stroke="none">200kHz</tspan></tspan></tspan></text>
 <text class="TextShape"><tspan class="TextParagraph" font-family="Liberation Sans, sans-serif" font-size="353px" font-weight="400"><tspan class="TextPosition" x="6283" y="25387"><tspan fill="rgb(0,0,0)" stroke="none">300kHz</tspan></tspan></tspan></text>
 <text class="TextShape"><tspan class="TextParagraph" font-family="Liberation Sans, sans-serif" font-size="353px" font-weight="400"><tspan class="TextPosition" x="8255" y="25387"><tspan fill="rgb(0,0,0)" stroke="none">600kHz</tspan></tspan></tspan></text>
 <text class="TextShape"><tspan class="TextParagraph" font-family="Liberation Sans, sans-serif" font-size="353px" font-weight="400"><tspan class="TextPosition" x="10134" y="25387"><tspan fill="rgb(0,0,0)" stroke="none">1200kHz</tspan></tspan></tspan></text>
 <text class="TextShape"><tspan class="TextParagraph" font-family="Liberation Sans, sans-serif" font-size="353px" font-weight="400"><tspan class="TextPosition" x="12106" y="25387"><tspan fill="rgb(0,0,0)" stroke="none">2400kHz</tspan></tspan></tspan></text>
 <text class="TextShape"><tspan class="TextParagraph" font-family="Liberation Sans, sans-serif" font-size="353px" font-weight="400"><tspan class="TextPosition" x="14078" y="25387"><tspan fill="rgb(0,0,0)" stroke="none">4800kHz</tspan></tspan></tspan></text>
 <text class="TextShape"><tspan class="TextParagraph" font-family="Liberation Sans, sans-serif" font-size="353px" font-weight="400"><tspan class="TextPosition" x="16182" y="25387"><tspan fill="rgb(0,0,0)" stroke="none">10MHz</tspan></tspan></tspan></text>
 <text class="TextShape"><tspan class="TextParagraph" font-family="Liberation Sans, sans-serif" font-size="353px" font-weight="400"><tspan class="TextPosition" x="18154" y="25387"><tspan fill="rgb(0,0,0)" stroke="none">20MHz</tspan></tspan></tspan></text>
 <text class="TextShape"><tspan class="TextParagraph" font-family="Liberation Sans, sans-serif" font-size="353px" font-weight="400"><tspan class="TextPosition" x="20126" y="25387"><tspan fill="rgb(0,0,0)" stroke="none">40MHz</tspan></tspan></tspan></text>
 <text class="TextShape"><tspan class="TextParagraph" font-family="Liberation Sans, sans-serif" font-size="353px" font-weight="400"><tspan class="TextPosition" x="22098" y="25387"><tspan fill="rgb(0,0,0)" stroke="none">80MHz</tspan></tspan></tspan></text>
 <text class="TextShape"><tspan class="TextParagraph" font-family="Liberation Sans, sans-serif" font-size="353px" font-weight="400"><tspan class="TextPosition" x="2487" y="24940"><tspan fill="rgb(0,0,0)" stroke="none">0</tspan></tspan></tspan></text>
 <text class="TextShape"><tspan class="TextParagraph" font-family="Liberation Sans, sans-serif" font-size="353px" font-weight="400"><tspan class="TextPosition" x="1746" y="22425"><tspan fill="rgb(0,0,0)" stroke="none">50000</tspan></tspan></tspan></text>
 <text class="TextShape"><tspan class="TextParagraph" font-family="Liberation Sans, sans-serif" font-size="353px" font-weight="400"><tspan class="TextPosition" x="1561" y="19911"><tspan fill="rgb(0,0,0)" stroke="none">100000</tspan></tspan></tspan></text>
 <text class="TextShape"><tspan class="TextParagraph" font-family="Liberation Sans, sans-serif" font-size="353px" font-weight="400"><tspan class="TextPosition" x="1561" y="17397"><tspan fill="rgb(0,0,0)" stroke="none">150000</tspan></tspan></tspan></text>
 <text class="TextShape"><tspan class="TextParagraph" font-family="Liberation Sans, sans-serif" font-size="353px" font-weight="400"><tspan class="TextPosition" x="1561" y="14882"><tspan fill="rgb(0,0,0)" stroke="none">200000</tspan></tspan></tspan></text>
 <text class="TextShape"><tspan class="TextParagraph" font-family="Liberation Sans, sans-serif" font-size="353px" font-weight="400"><tspan class="TextPosition" x="1561" y="12368"><tspan fill="rgb(0,0,0)" stroke="none">250000</tspan></tspan></tspan></text>
 <text class="TextShape"><tspan class="TextParagraph" font-family="Liberation Sans, sans-serif" font-size="353px" font-weight="400"><tspan class="TextPosition" x="1561" y="9853"><tspan fill="rgb(0,0,0)" stroke="none">300000</tspan></tspan></tspan></text>
 <text class="TextShape"><tspan class="TextParagraph" font-family="Liberation Sans, sans-serif" font-size="353px" font-weight="400"><tspan class="TextPosition" x="1561" y="7339"><tspan fill="rgb(0,0,0)" stroke="none">350000</tspan></tspan></tspan></text>
 <text class="TextShape"><tspan class="TextParagraph" font-family="Liberation Sans, sans-serif" font-size="353px" font-weight="400"><tspan class="TextPosition" x="1561" y="4825"><tspan fill="rgb(0,0,0)" stroke="none">400000</tspan></tspan></tspan></text>
 <text class="TextShape"><tspan class="TextParagraph" font-family="Liberation Sans, sans-serif" font-size="353px" font-weight="400"><tspan class="TextPosition" x="1561" y="2311"><tspan fill="rgb(0,0,0)" stroke="none">450000</tspan></tspan></tspan></text>
 <text class="TextShape"><tspan class="TextParagraph" font-family="Liberation Sans, sans-serif" font-size="459px" font-weight="400"><tspan class="TextPosition" x="12670" y="1210"><tspan fill="rgb(0,0,0)" stroke="none">SWD write</tspan></tspan></tspan></text>
 <path fill="none" stroke="rgb(0,69,134)" stroke-width="80" stroke-linejoin="round" d="M 23848,11003 L 24648,11003"/>
 <path fill="rgb(0,69,134)" stroke="none" d="M 24142,10898 L 24142,11109 24353,11109 24353,10898 24142,10898 Z"/>
 <path fill="none" stroke="rgb(0,69,134)" stroke-linejoin="round" d="M 24142,10898 L 24142,11109 24353,11109 24353,10898 24142,10898 Z"/>
 <path fill="none" stroke="rgb(255,66,14)" stroke-width="80" stroke-linejoin="round" d="M 23848,11501 L 24648,11501"/>
 <path fill="rgb(255,66,14)" stroke="none" d="M 24142,11501 L 24248,11607 24353,11501 24248,11396 24142,11501 Z"/>
 <path fill="none" stroke="rgb(255,66,14)" stroke-linejoin="round" d="M 24142,11501 L 24248,11607 24353,11501 24248,11396 24142,11501 Z"/>
 <path fill="none" stroke="rgb(255,211,32)" stroke-width="80" stroke-linejoin="round" d="M 23848,11999 L 24648,11999"/>
 <path fill="rgb(255,211,32)" stroke="none" d="M 24142,11894 L 24248,12105 24353,11894 24142,11894 Z"/>
 <path fill="none" stroke="rgb(255,211,32)" stroke-linejoin="round" d="M 24142,11894 L 24248,12105 24353,11894 24142,11894 Z"/>
 <path fill="none" stroke="rgb(87,157,28)" stroke-width="80" stroke-linejoin="round" d="M 23848,12497 L 24648,12497"/>
 <path fill="rgb(87,157,28)" stroke="none" d="M 24142,12603 L 24353,12603 24248,12392 24142,12603 Z"/>
 <path fill="none" stroke="rgb(87,157,28)" stroke-linejoin="round" d="M 24142,12603 L 24353,12603 24248,12392 24142,12603 Z"/>
 <path fill="none" stroke="rgb(126,0,33)" stroke-width="80" stroke-linejoin="round" d="M 23848,12995 L 24648,12995"/>
 <path fill="rgb(126,0,33)" stroke="none" d="M 24142,12890 L 24142,13101 24353,12995 24142,12890 Z"/>
 <path fill="none" stroke="rgb(126,0,33)" stroke-linejoin="round" d="M 24142,12890 L 24142,13101 24353,12995 24142,12890 Z"/>
 <path fill="none" stroke="rgb(131,202,255)" stroke-width="80" stroke-linejoin="round" d="M 23848,13493 L 24648,13493"/>
 <path fill="rgb(131,202,255)" stroke="none" d="M 24142,13493 L 24353,13598 24353,13388 24142,13493 Z"/>
 <path fill="none" stroke="rgb(131,202,255)" stroke-linejoin="round" d="M 24142,13493 L 24353,13598 24353,13388 24142,13493 Z"/>
 <path fill="none" stroke="rgb(49,64,4)" stroke-width="80" stroke-linejoin="round" d="M 23848,13990 L 24648,13990"/>
 <path fill="rgb(49,64,4)" stroke="none" d="M 24142,13885 L 24142,14096 24353,13885 24353,14096 24142,13885 Z"/>
 <path fill="none" stroke="rgb(49,64,4)" stroke-linejoin="round" d="M 24142,13885 L 24142,14096 24353,13885 24353,14096 24142,13885 Z"/>
 <path fill="none" stroke="rgb(174,207,0)" stroke-width="80" stroke-linejoin="round" d="M 23848,14488 L 24648,14488"/>
 <path fill="rgb(174,207,0)" stroke="none" d="M 24142,14594 L 24353,14594 24142,14383 24353,14383 24142,14594 Z"/>
 <path fill="none" stroke="rgb(174,207,0)" stroke-linejoin="round" d="M 24142,14594 L 24353,14594 24142,14383 24353,14383 24142,14594 Z"/>
 <path fill="none" stroke="rgb(75,31,111)" stroke-width="80" stroke-linejoin="round" d="M 23848,14986 L 24648,14986"/>
 <path fill="rgb(75,31,111)" stroke="none" d="M 24353,14986 L 24353,14981 24353,14977 24352,14972 24351,14968 24350,14963 24349,14959 24348,14954 24347,14950 24345,14946 24343,14941 24341,14937 24339,14933 24336,14929 24334,14925 24331,14922 24328,14918 24325,14915 24322,14911 24319,14908 24315,14905 24312,14902 24308,14900 24304,14897 24300,14895 24296,14892 24292,14890 24288,14889 24284,14887 24279,14885 24275,14884 24270,14883 24266,14882 24261,14881 24257,14881 24252,14881 24248,14881 24243,14881 24238,14881 24234,14881 24229,14882 24225,14883 24220,14884 24216,14885 24211,14887 24207,14889 24203,14890 24199,14892 24195,14895 24191,14897 24187,14900 24183,14902 24180,14905 24176,14908 24173,14911 24170,14915 24167,14918 24164,14922 24161,14925 24159,14929 24156,14933 24154,14937 24152,14941 24150,14946 24148,14950 24147,14954 24146,14959 24145,14963 24144,14968 24143,14972 24142,14977 24142,14981 24142,14986 24142,14991 24142,14995 24143,15000 24144,15004 24145,15009 24146,15013 24147,15018 24148,15022 24150,15026 24152,15031 24154,15035 24156,15039 24159,15043 24161,15047 24164,15050 24167,15054 24170,15057 24173,15061 24176,15064 24180,15067 24183,15070 24187,15072 24191,15075 24195,15077 24199,15080 24203,15082 24207,15083 24211,15085 24216,15087 24220,15088 24225,15089 24229,15090 24234,15091 24238,15091 24243,15091 24248,15092 24252,15091 24257,15091 24261,15091 24266,15090 24270,15089 24275,15088 24279,15087 24284,15085 24288,15083 24292,15082 24296,15080 24300,15077 24304,15075 24308,15072 24312,15070 24315,15067 24319,15064 24322,15061 24325,15057 24328,15054 24331,15050 24334,15047 24336,15043 24339,15039 24341,15035 24343,15031 24345,15026 24347,15022 24348,15018 24349,15013 24350,15009 24351,15004 24352,15000 24353,14995 24353,14991 24353,14986 Z"/>
 <path fill="none" stroke="rgb(75,31,111)" stroke-linejoin="round" d="M 24353,14986 L 24353,14981 24353,14977 24352,14972 24351,14968 24350,14963 24349,14959 24348,14954 24347,14950 24345,14946 24343,14941 24341,14937 24339,14933 24336,14929 24334,14925 24331,14922 24328,14918 24325,14915 24322,14911 24319,14908 24315,14905 24312,14902 24308,14900 24304,14897 24300,14895 24296,14892 24292,14890 24288,14889 24284,14887 24279,14885 24275,14884 24270,14883 24266,14882 24261,14881 24257,14881 24252,14881 24248,14881 24243,14881 24238,14881 24234,14881 24229,14882 24225,14883 24220,14884 24216,14885 24211,14887 24207,14889 24203,14890 24199,14892 24195,14895 24191,14897 24187,14900 24183,14902 24180,14905 24176,14908 24173,14911 24170,14915 24167,14918 24164,14922 24161,14925 24159,14929 24156,14933 24154,14937 24152,14941 24150,14946 24148,14950 24147,14954 24146,14959 24145,14963 24144,14968 24143,14972 24142,14977 24142,14981 24142,14986 24142,14991 24142,14995 24143,15000 24144,15004 24145,15009 24146,15013 24147,15018 24148,15022 24150,15026 24152,15031 24154,15035 24156,15039 24159,15043 24161,15047 24164,15050 24167,15054 24170,15057 24173,15061 24176,15064 24180,15067 24183,15070 24187,15072 24191,15075 24195,15077 24199,15080 24203,15082 24207,15083 24211,15085 24216,15087 24220,15088 24225,15089 24229,15090 24234,15091 24238,15091 24243,15091 24248,15092 24252,15091 24257,15091 24261,15091 24266,15090 24270,15089 24275,15088 24279,15087 24284,15085 24288,15083 24292,15082 24296,15080 24300,15077 24304,15075 24308,15072 24312,15070 24315,15067 24319,15064 24322,15061 24325,15057 24328,15054 24331,15050 24334,15047 24336,15043 24339,15039 24341,15035 24343,15031 24345,15026 24347,15022 24348,15018 24349,15013 24350,15009 24351,15004 24352,15000 24353,14995 24353,14991 24353,14986 Z"/>
 <path fill="none" stroke="rgb(255,149,14)" stroke-width="80" stroke-linejoin="round" d="M 23848,15484 L 24648,15484"/>
 <path fill="rgb(255,149,14)" stroke="none" d="M 24248,15379 L 24269,15463 24353,15484 24269,15505 24248,15590 24226,15505 24142,15484 24226,15463 24248,15379 Z"/>
 <path fill="none" stroke="rgb(255,149,14)" stroke-linejoin="round" d="M 24248,15379 L 24269,15463 24353,15484 24269,15505 24248,15590 24226,15505 24142,15484 24226,15463 24248,15379 Z"/>
 <path fill="none" stroke="rgb(197,0,11)" stroke-width="80" stroke-linejoin="round" d="M 23848,15982 L 24648,15982"/>
 <path fill="rgb(197,0,11)" stroke="none" d="M 24248,15970 L 24154,15877 24142,15888 24236,15982 24142,16076 24154,16088 24248,15994 24341,16088 24353,16076 24259,15982 24353,15888 24341,15877 24248,15970 Z"/>
 <path fill="none" stroke="rgb(197,0,11)" stroke-linejoin="round" d="M 24248,15970 L 24154,15877 24142,15888 24236,15982 24142,16076 24154,16088 24248,15994 24341,16088 24353,16076 24259,15982 24353,15888 24341,15877 24248,15970 Z"/>
 <text class="TextShape"><tspan class="TextParagraph" font-family="Liberation Sans, sans-serif" font-size="353px" font-weight="400"><tspan class="TextPosition" x="24748" y="11123"><tspan fill="rgb(0,0,0)" stroke="none">hsprobe (turbo)</tspan></tspan></tspan></text>
 <text class="TextShape"><tspan class="TextParagraph" font-family="Liberation Sans, sans-serif" font-size="353px" font-weight="400"><tspan class="TextPosition" x="24748" y="11621"><tspan fill="rgb(0,0,0)" stroke="none">hsprobe</tspan></tspan></tspan></text>
 <text class="TextShape"><tspan class="TextParagraph" font-family="Liberation Sans, sans-serif" font-size="353px" font-weight="400"><tspan class="TextPosition" x="24748" y="12119"><tspan fill="rgb(0,0,0)" stroke="none">lpclink2</tspan></tspan></tspan></text>
 <text class="TextShape"><tspan class="TextParagraph" font-family="Liberation Sans, sans-serif" font-size="353px" font-weight="400"><tspan class="TextPosition" x="24748" y="12617"><tspan fill="rgb(0,0,0)" stroke="none">mculink</tspan></tspan></tspan></text>
 <text class="TextShape"><tspan class="TextParagraph" font-family="Liberation Sans, sans-serif" font-size="353px" font-weight="400"><tspan class="TextPosition" x="24748" y="13115"><tspan fill="rgb(0,0,0)" stroke="none">mculink-daplink</tspan></tspan></tspan></text>
 <text class="TextShape"><tspan class="TextParagraph" font-family="Liberation Sans, sans-serif" font-size="353px" font-weight="400"><tspan class="TextPosition" x="24748" y="13612"><tspan fill="rgb(0,0,0)" stroke="none">usbc-pill</tspan></tspan></tspan></text>
 <text class="TextShape"><tspan class="TextParagraph" font-family="Liberation Sans, sans-serif" font-size="353px" font-weight="400"><tspan class="TextPosition" x="24748" y="14110"><tspan fill="rgb(0,0,0)" stroke="none">rustyprobe</tspan></tspan></tspan></text>
 <text class="TextShape"><tspan class="TextParagraph" font-family="Liberation Sans, sans-serif" font-size="353px" font-weight="400"><tspan class="TextPosition" x="24748" y="14608"><tspan fill="rgb(0,0,0)" stroke="none">dappermime</tspan></tspan></tspan></text>
 <text class="TextShape"><tspan class="TextParagraph" font-family="Liberation Sans, sans-serif" font-size="353px" font-weight="400"><tspan class="TextPosition" x="24748" y="15106"><tspan fill="rgb(0,0,0)" stroke="none">dap42</tspan></tspan></tspan></text>
 <text class="TextShape"><tspan class="TextParagraph" font-family="Liberation Sans, sans-serif" font-size="353px" font-weight="400"><tspan class="TextPosition" x="24748" y="15604"><tspan fill="rgb(0,0,0)" stroke="none">microbit_v2</tspan></tspan></tspan></text>
 <text class="TextShape"><tspan class="TextParagraph" font-family="Liberation Sans, sans-serif" font-size="353px" font-weight="400"><tspan class="TextPosition" x="24748" y="16102"><tspan fill="rgb(0,0,0)" stroke="none">rust-dap</tspan></tspan></tspan></text>
 <text class="TextShape"><tspan class="TextParagraph" font-family="Liberation Sans, sans-serif" font-size="318px" font-weight="400"><tspan class="TextPosition" x="11247" y="26393"><tspan fill="rgb(0,0,0)" stroke="none">SWD frequency</tspan></tspan></tspan></text>
 <text class="TextShape" transform="rotate(-90 837 14245)"><tspan class="TextParagraph" font-family="Liberation Sans, sans-serif" font-size="318px" font-weight="400"><tspan class="TextPosition" x="837" y="14245"><tspan fill="rgb(0,0,0)" stroke="none">Bytes/s</tspan></tspan></tspan></text>
</svg>