<?xml version="1.0" encoding="UTF-8"?>
<!DOCTYPE svg PUBLIC "-//W3C//DTD SVG 1.1//EN" "http://www.w3.org/Graphics/SVG/1.1/DTD/svg11.dtd">
<svg width="269mm" height="270mm" viewBox="0 0 26900 27000" version="1.1" xmlns="http://www.w3.org/2000/svg" xmlns:xlink="http://www.w3.org/1999/xlink" stroke-width="28.222" stroke-linejoin="round" xml:space="preserve">
 <path fill="rgb(255,255,255)" stroke="none" d="M 13461,27024 L 0,27024 0,0 26922,0 26922,27024 13461,27024 Z"/>
 <path fill="none" stroke="rgb(179,179,179)" stroke-linejoin="round" d="M 12460,24856 L 2911,24856 2911,2194 22009,2194 22009,24856 12460,24856 Z"/>
 <path fill="none" stroke="rgb(179,179,179)" stroke-linejoin="round" d="M 22008,24855 L 2911,24855"/>
 <path fill="none" stroke="rgb(179,179,179)" stroke-linejoin="round" d="M 22008,21077 L 2911,21077"/>
 <path fill="none" stroke="rgb(179,179,179)" stroke-linejoin="round" d="M 22008,17300 L 2911,17300"/>
 <path fill="none" stroke="rgb(179,179,179)" stroke-linejoin="round" d="M 22008,13523 L 2911,13523"/>
 <path fill="none" stroke="rgb(179,179,179)" stroke-linejoin="round" d="M 22008,9747 L 2911,9747"/>
 <path fill="none" stroke="rgb(179,179,179)" stroke-linejoin="round" d="M 22008,5970 L 2911,5970"/>
 <path fill="none" stroke="rgb(179,179,179)" stroke-linejoin="round" d="M 22008,2193 L 2911,2193"/>
 <path fill="none" stroke="rgb(179,179,179)" stroke-linejoin="round" d="M 2911,25005 L 2911,24855"/>
 <path fill="none" stroke="rgb(179,179,179)" stroke-linejoin="round" d="M 2911,25005 L 2911,24855"/>
 <path fill="none" stroke="rgb(179,179,179)" stroke-linejoin="round" d="M 4820,25005 L 4820,24855"/>
 <path fill="none" stroke="rgb(179,179,179)" stroke-linejoin="round" d="M 4820,25005 L 4820,24855"/>
 <path fill="none" stroke="rgb(179,179,179)" stroke-linejoin="round" d="M 6730,25005 L 6730,24855"/>
 <path fill="none" stroke="rgb(179,179,179)" stroke-linejoin="round" d="M 6730,25005 L 6730,24855"/>
 <path fill="none" stroke="rgb(179,179,179)" stroke-linejoin="round" d="M 8640,25005 L 8640,24855"/>
 <path fill="none" stroke="rgb(179,179,179)" stroke-linejoin="round" d="M 8640,25005 L 8640,24855"/>
 <path fill="none" stroke="rgb(179,179,179)" stroke-linejoin="round" d="M 10550,25005 L 10550,24855"/>
 <path fill="none" stroke="rgb(179,179,179)" stroke-linejoin="round" d="M 10550,25005 L 10550,24855"/>
 <path fill="none" stroke="rgb(179,179,179)" stroke-linejoin="round" d="M 12460,25005 L 12460,24855"/>
 <path fill="none" stroke="rgb(179,179,179)" stroke-linejoin="round" d="M 12460,25005 L 12460,24855"/>
 <path fill="none" stroke="rgb(179,179,179)" stroke-linejoin="round" d="M 14369,25005 L 14369,24855"/>
 <path fill="none" stroke="rgb(179,179,179)" stroke-linejoin="round" d="M 14369,25005 L 14369,24855"/>
 <path fill="none" stroke="rgb(179,179,179)" stroke-linejoin="round" d="M 16279,25005 L 16279,24855"/>
 <path fill="none" stroke="rgb(179,179,179)" stroke-linejoin="round" d="M 16279,25005 L 16279,24855"/>
 <path fill="none" stroke="rgb(179,179,179)" stroke-linejoin="round" d="M 18189,25005 L 18189,24855"/>
 <path fill="none" stroke="rgb(179,179,179)" stroke-linejoin="round" d="M 18189,25005 L 18189,24855"/>
 <path fill="none" stroke="rgb(179,179,179)" stroke-linejoin="round" d="M 20099,25005 L 20099,24855"/>
 <path fill="none" stroke="rgb(179,179,179)" stroke-linejoin="round" d="M 20099,25005 L 20099,24855"/>
 <path fill="none" stroke="rgb(179,179,179)" stroke-linejoin="round" d="M 22008,25005 L 22008,24855"/>
 <path fill="none" stroke="rgb(179,179,179)" stroke-linejoin="round" d="M 22008,25005 L 22008,24855"/>
 <path fill="none" stroke="rgb(179,179,179)" stroke-linejoin="round" d="M 2911,24855 L 22008,24855"/>
 <path fill="none" stroke="rgb(179,179,179)" stroke-linejoin="round" d="M 2761,24855 L 2911,24855"/>
 <path fill="none" stroke="rgb(179,179,179)" stroke-linejoin="round" d="M 2761,24855 L 2911,24855"/>
 <path fill="none" stroke="rgb(179,179,179)" stroke-linejoin="round" d="M 2761,21077 L 2911,21077"/>
 <path fill="none" stroke="rgb(179,179,179)" stroke-linejoin="round" d="M 2761,21077 L 2911,21077"/>
 <path fill="none" stroke="rgb(179,179,179)" stroke-linejoin="round" d="M 2761,17300 L 2911,17300"/>
 <path fill="none" stroke="rgb(179,179,179)" stroke-linejoin="round" d="M 2761,17300 L 2911,17300"/>
 <path fill="none" stroke="rgb(179,179,179)" stroke-linejoin="round" d="M 2761,13523 L 2911,13523"/>
 <path fill="none" stroke="rgb(179,179,179)" stroke-linejoin="round" d="M 2761,13523 L 2911,13523"/>
 <path fill="none" stroke="rgb(179,179,179)" stroke-linejoin="round" d="M 2761,9747 L 2911,9747"/>
 <path fill="none" stroke="rgb(179,179,179)" stroke-linejoin="round" d="M 2761,9747 L 2911,9747"/>
 <path fill="none" stroke="rgb(179,179,179)" stroke-linejoin="round" d="M 2761,5970 L 2911,5970"/>
 <path fill="none" stroke="rgb(179,179,179)" stroke-linejoin="round" d="M 2761,5970 L 2911,5970"/>
 <path fill="none" stroke="rgb(179,179,179)" stroke-linejoin="round" d="M 2761,2193 L 2911,2193"/>
 <path fill="none" stroke="rgb(179,179,179)" stroke-linejoin="round" d="M 2761,2193 L 2911,2193"/>
 <path fill="none" stroke="rgb(179,179,179)" stroke-linejoin="round" d="M 2911,24855 L 2911,2193"/>
 <path fill="none" stroke="rgb(0,69,134)" stroke-width="80" stroke-linejoin="round" d="M 6730,24472 L 8640,24121 10550,23500 12460,22501 14369,21125 16279,19667 18189,18201 20099,17226 22008,17237"/>
 <path fill="rgb(0,69,134)" stroke="none" d="M 6605,24347 L 6605,24597 6855,24597 6855,24347 6605,24347 Z"/>
 <path fill="none" stroke="rgb(0,69,134)" stroke-linejoin="round" d="M 6605,24347 L 6605,24597 6855,24597 6855,24347 6605,24347 Z"/>
 <path fill="rgb(0,69,134)" stroke="none" d="M 8515,23996 L 8515,24246 8765,24246 8765,23996 8515,23996 Z"/>
 <path fill="none" stroke="rgb(0,69,134)" stroke-linejoin="round" d="M 8515,23996 L 8515,24246 8765,24246 8765,23996 8515,23996 Z"/>
 <path fill="rgb(0,69,134)" stroke="none" d="M 10425,23375 L 10425,23625 10675,23625 10675,23375 10425,23375 Z"/>
 <path fill="none" stroke="rgb(0,69,134)" stroke-linejoin="round" d="M 10425,23375 L 10425,23625 10675,23625 10675,23375 10425,23375 Z"/>
 <path fill="rgb(0,69,134)" stroke="none" d="M 12335,22376 L 12335,22626 12585,22626 12585,22376 12335,22376 Z"/>
 <path fill="none" stroke="rgb(0,69,134)" stroke-linejoin="round" d="M 12335,22376 L 12335,22626 12585,22626 12585,22376 12335,22376 Z"/>
 <path fill="rgb(0,69,134)" stroke="none" d="M 14244,21000 L 14244,21250 14494,21250 14494,21000 14244,21000 Z"/>
 <path fill="none" stroke="rgb(0,69,134)" stroke-linejoin="round" d="M 14244,21000 L 14244,21250 14494,21250 14494,21000 14244,21000 Z"/>
 <path fill="rgb(0,69,134)" stroke="none" d="M 16154,19542 L 16154,19792 16404,19792 16404,19542 16154,19542 Z"/>
 <path fill="none" stroke="rgb(0,69,134)" stroke-linejoin="round" d="M 16154,19542 L 16154,19792 16404,19792 16404,19542 16154,19542 Z"/>
 <path fill="rgb(0,69,134)" stroke="none" d="M 18064,18076 L 18064,18326 18314,18326 18314,18076 18064,18076 Z"/>
 <path fill="none" stroke="rgb(0,69,134)" stroke-linejoin="round" d="M 18064,18076 L 18064,18326 18314,18326 18314,18076 18064,18076 Z"/>
 <path fill="rgb(0,69,134)" stroke="none" d="M 19974,17101 L 19974,17351 20224,17351 20224,17101 19974,17101 Z"/>
 <path fill="none" stroke="rgb(0,69,134)" stroke-linejoin="round" d="M 19974,17101 L 19974,17351 20224,17351 20224,17101 19974,17101 Z"/>
 <path fill="rgb(0,69,134)" stroke="none" d="M 21883,17112 L 21883,17362 22133,17362 22133,17112 21883,17112 Z"/>
 <path fill="none" stroke="rgb(0,69,134)" stroke-linejoin="round" d="M 21883,17112 L 21883,17362 22133,17362 22133,17112 21883,17112 Z"/>
 <path fill="none" stroke="rgb(255,66,14)" stroke-width="80" stroke-linejoin="round" d="M 2911,24711 L 4820,24576 6730,24450 8640,24117 10550,23593 12460,22712"/>
 <path fill="rgb(255,66,14)" stroke="none" d="M 2786,24711 L 2911,24836 3036,24711 2911,24586 2786,24711 Z"/>
 <path fill="none" stroke="rgb(255,66,14)" stroke-linejoin="round" d="M 2786,24711 L 2911,24836 3036,24711 2911,24586 2786,24711 Z"/>
 <path fill="rgb(255,66,14)" stroke="none" d="M 4695,24576 L 4820,24701 4945,24576 4820,24451 4695,24576 Z"/>
 <path fill="none" stroke="rgb(255,66,14)" stroke-linejoin="round" d="M 4695,24576 L 4820,24701 4945,24576 4820,24451 4695,24576 Z"/>
 <path fill="rgb(255,66,14)" stroke="none" d="M 6605,24450 L 6730,24575 6855,24450 6730,24325 6605,24450 Z"/>
 <path fill="none" stroke="rgb(255,66,14)" stroke-linejoin="round" d="M 6605,24450 L 6730,24575 6855,24450 6730,24325 6605,24450 Z"/>
 <path fill="rgb(255,66,14)" stroke="none" d="M 8515,24117 L 8640,24242 8765,24117 8640,23992 8515,24117 Z"/>
 <path fill="none" stroke="rgb(255,66,14)" stroke-linejoin="round" d="M 8515,24117 L 8640,24242 8765,24117 8640,23992 8515,24117 Z"/>
 <path fill="rgb(255,66,14)" stroke="none" d="M 10425,23593 L 10550,23718 10675,23593 10550,23468 10425,23593 Z"/>
 <path fill="none" stroke="rgb(255,66,14)" stroke-linejoin="round" d="M 10425,23593 L 10550,23718 10675,23593 10550,23468 10425,23593 Z"/>
 <path fill="rgb(255,66,14)" stroke="none" d="M 12335,22712 L 12460,22837 12585,22712 12460,22587 12335,22712 Z"/>
 <path fill="none" stroke="rgb(255,66,14)" stroke-linejoin="round" d="M 12335,22712 L 12460,22837 12585,22712 12460,22587 12335,22712 Z"/>
 <path fill="none" stroke="rgb(255,211,32)" stroke-width="80" stroke-linejoin="round" d="M 2911,24724 L 4820,24650 6730,24528 8640,24232 10550,23395 12460,22987 14369,21822 16279,21834 18189,21828 20099,21832 22008,21821"/>
 <path fill="rgb(255,211,32)" stroke="none" d="M 2786,24599 L 2911,24849 3036,24599 2786,24599 Z"/>
 <path fill="none" stroke="rgb(255,211,32)" stroke-linejoin="round" d="M 2786,24599 L 2911,24849 3036,24599 2786,24599 Z"/>
 <path fill="rgb(255,211,32)" stroke="none" d="M 4695,24525 L 4820,24775 4945,24525 4695,24525 Z"/>
 <path fill="none" stroke="rgb(255,211,32)" stroke-linejoin="round" d="M 4695,24525 L 4820,24775 4945,24525 4695,24525 Z"/>
 <path fill="rgb(255,211,32)" stroke="none" d="M 6605,24403 L 6730,24653 6855,24403 6605,24403 Z"/>
 <path fill="none" stroke="rgb(255,211,32)" stroke-linejoin="round" d="M 6605,24403 L 6730,24653 6855,24403 6605,24403 Z"/>
 <path fill="rgb(255,211,32)" stroke="none" d="M 8515,24107 L 8640,24357 8765,24107 8515,24107 Z"/>
 <path fill="none" stroke="rgb(255,211,32)" stroke-linejoin="round" d="M 8515,24107 L 8640,24357 8765,24107 8515,24107 Z"/>
 <path fill="rgb(255,211,32)" stroke="none" d="M 10425,23270 L 10550,23520 10675,23270 10425,23270 Z"/>
 <path fill="none" stroke="rgb(255,211,32)" stroke-linejoin="round" d="M 10425,23270 L 10550,23520 10675,23270 10425,23270 Z"/>
 <path fill="rgb(255,211,32)" stroke="none" d="M 12335,22862 L 12460,23112 12585,22862 12335,22862 Z"/>
 <path fill="none" stroke="rgb(255,211,32)" stroke-linejoin="round" d="M 12335,22862 L 12460,23112 12585,22862 12335,22862 Z"/>
 <path fill="rgb(255,211,32)" stroke="none" d="M 14244,21697 L 14369,21947 14494,21697 14244,21697 Z"/>
 <path fill="none" stroke="rgb(255,211,32)" stroke-linejoin="round" d="M 14244,21697 L 14369,21947 14494,21697 14244,21697 Z"/>
 <path fill="rgb(255,211,32)" stroke="none" d="M 16154,21709 L 16279,21959 16404,21709 16154,21709 Z"/>
 <path fill="none" stroke="rgb(255,211,32)" stroke-linejoin="round" d="M 16154,21709 L 16279,21959 16404,21709 16154,21709 Z"/>
 <path fill="rgb(255,211,32)" stroke="none" d="M 18064,21703 L 18189,21953 18314,21703 18064,21703 Z"/>
 <path fill="none" stroke="rgb(255,211,32)" stroke-linejoin="round" d="M 18064,21703 L 18189,21953 18314,21703 18064,21703 Z"/>
 <path fill="rgb(255,211,32)" stroke="none" d="M 19974,21707 L 20099,21957 20224,21707 19974,21707 Z"/>
 <path fill="none" stroke="rgb(255,211,32)" stroke-linejoin="round" d="M 19974,21707 L 20099,21957 20224,21707 19974,21707 Z"/>
 <path fill="rgb(255,211,32)" stroke="none" d="M 21883,21696 L 22008,21946 22133,21696 21883,21696 Z"/>
 <path fill="none" stroke="rgb(255,211,32)" stroke-linejoin="round" d="M 21883,21696 L 22008,21946 22133,21696 21883,21696 Z"/>
 <path fill="none" stroke="rgb(87,157,28)" stroke-width="80" stroke-linejoin="round" d="M 6730,24528 L 8640,24528 10550,23285 12460,23285 14369,20024 16279,15392 18189,15398 20099,3957 22008,3932"/>
 <path fill="rgb(87,157,28)" stroke="none" d="M 6605,24653 L 6855,24653 6730,24403 6605,24653 Z"/>
 <path fill="none" stroke="rgb(87,157,28)" stroke-linejoin="round" d="M 6605,24653 L 6855,24653 6730,24403 6605,24653 Z"/>
 <path fill="rgb(87,157,28)" stroke="none" d="M 8515,24653 L 8765,24653 8640,24403 8515,24653 Z"/>
 <path fill="none" stroke="rgb(87,157,28)" stroke-linejoin="round" d="M 8515,24653 L 8765,24653 8640,24403 8515,24653 Z"/>
 <path fill="rgb(87,157,28)" stroke="none" d="M 10425,23410 L 10675,23410 10550,23160 10425,23410 Z"/>
 <path fill="none" stroke="rgb(87,157,28)" stroke-linejoin="round" d="M 10425,23410 L 10675,23410 10550,23160 10425,23410 Z"/>
 <path fill="rgb(87,157,28)" stroke="none" d="M 12335,23410 L 12585,23410 12460,23160 12335,23410 Z"/>
 <path fill="none" stroke="rgb(87,157,28)" stroke-linejoin="round" d="M 12335,23410 L 12585,23410 12460,23160 12335,23410 Z"/>
 <path fill="rgb(87,157,28)" stroke="none" d="M 14244,20149 L 14494,20149 14369,19899 14244,20149 Z"/>
 <path fill="none" stroke="rgb(87,157,28)" stroke-linejoin="round" d="M 14244,20149 L 14494,20149 14369,19899 14244,20149 Z"/>
 <path fill="rgb(87,157,28)" stroke="none" d="M 16154,15517 L 16404,15517 16279,15267 16154,15517 Z"/>
 <path fill="none" stroke="rgb(87,157,28)" stroke-linejoin="round" d="M 16154,15517 L 16404,15517 16279,15267 16154,15517 Z"/>
 <path fill="rgb(87,157,28)" stroke="none" d="M 18064,15523 L 18314,15523 18189,15273 18064,15523 Z"/>
 <path fill="none" stroke="rgb(87,157,28)" stroke-linejoin="round" d="M 18064,15523 L 18314,15523 18189,15273 18064,15523 Z"/>
 <path fill="rgb(87,157,28)" stroke="none" d="M 19974,4082 L 20224,4082 20099,3832 19974,4082 Z"/>
 <path fill="none" stroke="rgb(87,157,28)" stroke-linejoin="round" d="M 19974,4082 L 20224,4082 20099,3832 19974,4082 Z"/>
 <path fill="rgb(87,157,28)" stroke="none" d="M 21883,4057 L 22133,4057 22008,3807 21883,4057 Z"/>
 <path fill="none" stroke="rgb(87,157,28)" stroke-linejoin="round" d="M 21883,4057 L 22133,4057 22008,3807 21883,4057 Z"/>
 <text class="TextShape"><tspan class="TextParagraph" font-family="Liberation Sans, sans-serif" font-size="353px" font-weight="400"><tspan class="TextPosition" x="2329" y="25423"><tspan fill="rgb(0,0,0)" stroke="none">100kHz</tspan></tspan></tspan></text>
 <text class="TextShape"><tspan class="TextParagraph" font-family="Liberation Sans, sans-serif" font-size="353px" font-weight="400"><tspan class="TextPosition" x="4238" y="25423"><tspan fill="rgb(0,0,0)" stroke="none">200kHz</tspan></tspan></tspan></text>
 <text class="TextShape"><tspan class="TextParagraph" font-family="Liberation Sans, sans-serif" font-size="353px" font-weight="400"><tspan class="TextPosition" x="6148" y="25423"><tspan fill="rgb(0,0,0)" stroke="none">300kHz</tspan></tspan></tspan></text>
 <text class="TextShape"><tspan class="TextParagraph" font-family="Liberation Sans, sans-serif" font-size="353px" font-weight="400"><tspan class="TextPosition" x="8058" y="25423"><tspan fill="rgb(0,0,0)" stroke="none">600kHz</tspan></tspan></tspan></text>
 <text class="TextShape"><tspan class="TextParagraph" font-family="Liberation Sans, sans-serif" font-size="353px" font-weight="400"><tspan class="TextPosition" x="9875" y="25423"><tspan fill="rgb(0,0,0)" stroke="none">1200kHz</tspan></tspan></tspan></text>
 <text class="TextShape"><tspan class="TextParagraph" font-family="Liberation Sans, sans-serif" font-size="353px" font-weight="400"><tspan class="TextPosition" x="11785" y="25423"><tspan fill="rgb(0,0,0)" stroke="none">2400kHz</tspan></tspan></tspan></text>
 <text class="TextShape"><tspan class="TextParagraph" font-family="Liberation Sans, sans-serif" font-size="353px" font-weight="400"><tspan class="TextPosition" x="13695" y="25423"><tspan fill="rgb(0,0,0)" stroke="none">4800kHz</tspan></tspan></tspan></text>
 <text class="TextShape"><tspan class="TextParagraph" font-family="Liberation Sans, sans-serif" font-size="353px" font-weight="400"><tspan class="TextPosition" x="15737" y="25423"><tspan fill="rgb(0,0,0)" stroke="none">10MHz</tspan></tspan></tspan></text>
 <text class="TextShape"><tspan class="TextParagraph" font-family="Liberation Sans, sans-serif" font-size="353px" font-weight="400"><tspan class="TextPosition" x="17647" y="25423"><tspan fill="rgb(0,0,0)" stroke="none">20MHz</tspan></tspan></tspan></text>
 <text class="TextShape"><tspan class="TextParagraph" font-family="Liberation Sans, sans-serif" font-size="353px" font-weight="400"><tspan class="TextPosition" x="19557" y="25423"><tspan fill="rgb(0,0,0)" stroke="none">40MHz</tspan></tspan></tspan></text>
 <text class="TextShape"><tspan class="TextParagraph" font-family="Liberation Sans, sans-serif" font-size="353px" font-weight="400"><tspan class="TextPosition" x="21466" y="25423"><tspan fill="rgb(0,0,0)" stroke="none">80MHz</tspan></tspan></tspan></text>
 <text class="TextShape"><tspan class="TextParagraph" font-family="Liberation Sans, sans-serif" font-size="353px" font-weight="400"><tspan class="TextPosition" x="2476" y="24976"><tspan fill="rgb(0,0,0)" stroke="none">0</tspan></tspan></tspan></text>
 <text class="TextShape"><tspan class="TextParagraph" font-family="Liberation Sans, sans-serif" font-size="353px" font-weight="400"><tspan class="TextPosition" x="1550" y="21198"><tspan fill="rgb(0,0,0)" stroke="none">200000</tspan></tspan></tspan></text>
 <text class="TextShape"><tspan class="TextParagraph" font-family="Liberation Sans, sans-serif" font-size="353px" font-weight="400"><tspan class="TextPosition" x="1550" y="17421"><tspan fill="rgb(0,0,0)" stroke="none">400000</tspan></tspan></tspan></text>
 <text class="TextShape"><tspan class="TextParagraph" font-family="Liberation Sans, sans-serif" font-size="353px" font-weight="400"><tspan class="TextPosition" x="1550" y="13644"><tspan fill="rgb(0,0,0)" stroke="none">600000</tspan></tspan></tspan></text>
 <text class="TextShape"><tspan class="TextParagraph" font-family="Liberation Sans, sans-serif" font-size="353px" font-weight="400"><tspan class="TextPosition" x="1550" y="9867"><tspan fill="rgb(0,0,0)" stroke="none">800000</tspan></tspan></tspan></text>
 <text class="TextShape"><tspan class="TextParagraph" font-family="Liberation Sans, sans-serif" font-size="353px" font-weight="400"><tspan class="TextPosition" x="1365" y="6090"><tspan fill="rgb(0,0,0)" stroke="none">1000000</tspan></tspan></tspan></text>
 <text class="TextShape"><tspan class="TextParagraph" font-family="Liberation Sans, sans-serif" font-size="353px" font-weight="400"><tspan class="TextPosition" x="1365" y="2313"><tspan fill="rgb(0,0,0)" stroke="none">1200000</tspan></tspan></tspan></text>
 <text class="TextShape"><tspan class="TextParagraph" font-family="Liberation Sans, sans-serif" font-size="459px" font-weight="400"><tspan class="TextPosition" x="8976" y="1211"><tspan fill="rgb(0,0,0)" stroke="none">HS-Probe vs Non-CMSIS-DAP probes (write)</tspan></tspan></tspan></text>
 <path fill="none" stroke="rgb(0,69,134)" stroke-width="80" stroke-linejoin="round" d="M 23392,12764 L 24192,12764"/>
 <path fill="rgb(0,69,134)" stroke="none" d="M 23686,12659 L 23686,12870 23897,12870 23897,12659 23686,12659 Z"/>
 <path fill="none" stroke="rgb(0,69,134)" stroke-linejoin="round" d="M 23686,12659 L 23686,12870 23897,12870 23897,12659 23686,12659 Z"/>
 <path fill="none" stroke="rgb(255,66,14)" stroke-width="80" stroke-linejoin="round" d="M 23392,13262 L 24192,13262"/>
 <path fill="rgb(255,66,14)" stroke="none" d="M 23686,13262 L 23792,13368 23897,13262 23792,13157 23686,13262 Z"/>
 <path fill="none" stroke="rgb(255,66,14)" stroke-linejoin="round" d="M 23686,13262 L 23792,13368 23897,13262 23792,13157 23686,13262 Z"/>
 <path fill="none" stroke="rgb(255,211,32)" stroke-width="80" stroke-linejoin="round" d="M 23392,13759 L 24192,13759"/>
 <path fill="rgb(255,211,32)" stroke="none" d="M 23686,13654 L 23792,13865 23897,13654 23686,13654 Z"/>
 <path fill="none" stroke="rgb(255,211,32)" stroke-linejoin="round" d="M 23686,13654 L 23792,13865 23897,13654 23686,13654 Z"/>
 <path fill="none" stroke="rgb(87,157,28)" stroke-width="80" stroke-linejoin="round" d="M 23392,14257 L 24192,14257"/>
 <path fill="rgb(87,157,28)" stroke="none" d="M 23686,14363 L 23897,14363 23792,14152 23686,14363 Z"/>
 <path fill="none" stroke="rgb(87,157,28)" stroke-linejoin="round" d="M 23686,14363 L 23897,14363 23792,14152 23686,14363 Z"/>
 <text class="TextShape"><tspan class="TextParagraph" font-family="Liberation Sans, sans-serif" font-size="353px" font-weight="400"><tspan class="TextPosition" x="24292" y="12884"><tspan fill="rgb(0,0,0)" stroke="none">hsprobe (turbo)</tspan></tspan></tspan></text>
 <text class="TextShape"><tspan class="TextParagraph" font-family="Liberation Sans, sans-serif" font-size="353px" font-weight="400"><tspan class="TextPosition" x="24292" y="13382"><tspan fill="rgb(0,0,0)" stroke="none">jlink</tspan></tspan></tspan></text>
 <text class="TextShape"><tspan class="TextParagraph" font-family="Liberation Sans, sans-serif" font-size="353px" font-weight="400"><tspan class="TextPosition" x="24292" y="13879"><tspan fill="rgb(0,0,0)" stroke="none">stlink v2</tspan></tspan></tspan></text>
 <text class="TextShape"><tspan class="TextParagraph" font-family="Liberation Sans, sans-serif" font-size="353px" font-weight="400"><tspan class="TextPosition" x="24292" y="14377"><tspan fill="rgb(0,0,0)" stroke="none">stlink v3</tspan></tspan></tspan></text>
 <text class="TextShape"><tspan class="TextParagraph" font-family="Liberation Sans, sans-serif" font-size="318px" font-weight="400"><tspan class="TextPosition" x="10966" y="26430"><tspan fill="rgb(0,0,0)" stroke="none">SWD Frequency</tspan></tspan></tspan></text>
 <text class="TextShape" transform="rotate(-90 837 15971)"><tspan class="TextParagraph" font-family="Liberation Sans, sans-serif" font-size="318px" font-weight="400"><tspan class="TextPosition" x="837" y="15971"><tspan fill="rgb(0,0,0)" stroke="none">Throughput (Bytes per second)</tspan></tspan></tspan></text>
</svg>