<?xml version="1.0" encoding="UTF-8"?>
<!DOCTYPE svg PUBLIC "-//W3C//DTD SVG 1.1//EN" "http://www.w3.org/Graphics/SVG/1.1/DTD/svg11.dtd">
<svg width="269mm" height="269mm" viewBox="0 0 26900 26900" version="1.1" xmlns="http://www.w3.org/2000/svg" xmlns:xlink="http://www.w3.org/1999/xlink" stroke-width="28.222" stroke-linejoin="round" xml:space="preserve">
 <path fill="rgb(255,255,255)" stroke="none" d="M 13445,26919 L 0,26919 0,0 26889,0 26889,26919 13445,26919 Z"/>
 <path fill="none" stroke="rgb(179,179,179)" stroke-linejoin="round" d="M 12589,24753 L 2725,24753 2725,2190 22453,2190 22453,24753 12589,24753 Z"/>
 <path fill="none" stroke="rgb(179,179,179)" stroke-linejoin="round" d="M 22453,24752 L 2725,24752"/>
 <path fill="none" stroke="rgb(179,179,179)" stroke-linejoin="round" d="M 22453,20991 L 2725,20991"/>
 <path fill="none" stroke="rgb(179,179,179)" stroke-linejoin="round" d="M 22453,17230 L 2725,17230"/>
 <path fill="none" stroke="rgb(179,179,179)" stroke-linejoin="round" d="M 22453,13470 L 2725,13470"/>
 <path fill="none" stroke="rgb(179,179,179)" stroke-linejoin="round" d="M 22453,9710 L 2725,9710"/>
 <path fill="none" stroke="rgb(179,179,179)" stroke-linejoin="round" d="M 22453,5949 L 2725,5949"/>
 <path fill="none" stroke="rgb(179,179,179)" stroke-linejoin="round" d="M 22453,2189 L 2725,2189"/>
 <path fill="none" stroke="rgb(179,179,179)" stroke-linejoin="round" d="M 2725,24902 L 2725,24752"/>
 <path fill="none" stroke="rgb(179,179,179)" stroke-linejoin="round" d="M 2725,24902 L 2725,24752"/>
 <path fill="none" stroke="rgb(179,179,179)" stroke-linejoin="round" d="M 7657,24902 L 7657,24752"/>
 <path fill="none" stroke="rgb(179,179,179)" stroke-linejoin="round" d="M 7657,24902 L 7657,24752"/>
 <path fill="none" stroke="rgb(179,179,179)" stroke-linejoin="round" d="M 12589,24902 L 12589,24752"/>
 <path fill="none" stroke="rgb(179,179,179)" stroke-linejoin="round" d="M 12589,24902 L 12589,24752"/>
 <path fill="none" stroke="rgb(179,179,179)" stroke-linejoin="round" d="M 17520,24902 L 17520,24752"/>
 <path fill="none" stroke="rgb(179,179,179)" stroke-linejoin="round" d="M 17520,24902 L 17520,24752"/>
 <path fill="none" stroke="rgb(179,179,179)" stroke-linejoin="round" d="M 22453,24902 L 22453,24752"/>
 <path fill="none" stroke="rgb(179,179,179)" stroke-linejoin="round" d="M 22453,24902 L 22453,24752"/>
 <path fill="none" stroke="rgb(179,179,179)" stroke-linejoin="round" d="M 2725,24752 L 22453,24752"/>
 <path fill="none" stroke="rgb(179,179,179)" stroke-linejoin="round" d="M 2575,24752 L 2725,24752"/>
 <path fill="none" stroke="rgb(179,179,179)" stroke-linejoin="round" d="M 2575,24752 L 2725,24752"/>
 <path fill="none" stroke="rgb(179,179,179)" stroke-linejoin="round" d="M 2575,20991 L 2725,20991"/>
 <path fill="none" stroke="rgb(179,179,179)" stroke-linejoin="round" d="M 2575,20991 L 2725,20991"/>
 <path fill="none" stroke="rgb(179,179,179)" stroke-linejoin="round" d="M 2575,17230 L 2725,17230"/>
 <path fill="none" stroke="rgb(179,179,179)" stroke-linejoin="round" d="M 2575,17230 L 2725,17230"/>
 <path fill="none" stroke="rgb(179,179,179)" stroke-linejoin="round" d="M 2575,13470 L 2725,13470"/>
 <path fill="none" stroke="rgb(179,179,179)" stroke-linejoin="round" d="M 2575,13470 L 2725,13470"/>
 <path fill="none" stroke="rgb(179,179,179)" stroke-linejoin="round" d="M 2575,9710 L 2725,9710"/>
 <path fill="none" stroke="rgb(179,179,179)" stroke-linejoin="round" d="M 2575,9710 L 2725,9710"/>
 <path fill="none" stroke="rgb(179,179,179)" stroke-linejoin="round" d="M 2575,5949 L 2725,5949"/>
 <path fill="none" stroke="rgb(179,179,179)" stroke-linejoin="round" d="M 2575,5949 L 2725,5949"/>
 <path fill="none" stroke="rgb(179,179,179)" stroke-linejoin="round" d="M 2575,2189 L 2725,2189"/>
 <path fill="none" stroke="rgb(179,179,179)" stroke-linejoin="round" d="M 2575,2189 L 2725,2189"/>
 <path fill="none" stroke="rgb(179,179,179)" stroke-linejoin="round" d="M 2725,24752 L 2725,2189"/>
 <path fill="none" stroke="rgb(0,69,134)" stroke-width="80" stroke-linejoin="round" d="M 2725,20195 L 7657,16645 12589,14618 17520,11474 22453,5499"/>
 <path fill="rgb(0,69,134)" stroke="none" d="M 2600,20070 L 2600,20320 2850,20320 2850,20070 2600,20070 Z"/>
 <path fill="none" stroke="rgb(0,69,134)" stroke-linejoin="round" d="M 2600,20070 L 2600,20320 2850,20320 2850,20070 2600,20070 Z"/>
 <path fill="rgb(0,69,134)" stroke="none" d="M 7532,16520 L 7532,16770 7782,16770 7782,16520 7532,16520 Z"/>
 <path fill="none" stroke="rgb(0,69,134)" stroke-linejoin="round" d="M 7532,16520 L 7532,16770 7782,16770 7782,16520 7532,16520 Z"/>
 <path fill="rgb(0,69,134)" stroke="none" d="M 12464,14493 L 12464,14743 12714,14743 12714,14493 12464,14493 Z"/>
 <path fill="none" stroke="rgb(0,69,134)" stroke-linejoin="round" d="M 12464,14493 L 12464,14743 12714,14743 12714,14493 12464,14493 Z"/>
 <path fill="rgb(0,69,134)" stroke="none" d="M 17395,11349 L 17395,11599 17645,11599 17645,11349 17395,11349 Z"/>
 <path fill="none" stroke="rgb(0,69,134)" stroke-linejoin="round" d="M 17395,11349 L 17395,11599 17645,11599 17645,11349 17395,11349 Z"/>
 <path fill="rgb(0,69,134)" stroke="none" d="M 22328,5374 L 22328,5624 22578,5624 22578,5374 22328,5374 Z"/>
 <path fill="none" stroke="rgb(0,69,134)" stroke-linejoin="round" d="M 22328,5374 L 22328,5624 22578,5624 22578,5374 22328,5374 Z"/>
 <path fill="none" stroke="rgb(255,66,14)" stroke-width="80" stroke-linejoin="round" d="M 2725,20611 L 7657,17936 12589,14726 17520,11474 22453,5499"/>
 <path fill="rgb(255,66,14)" stroke="none" d="M 2600,20611 L 2725,20736 2850,20611 2725,20486 2600,20611 Z"/>
 <path fill="none" stroke="rgb(255,66,14)" stroke-linejoin="round" d="M 2600,20611 L 2725,20736 2850,20611 2725,20486 2600,20611 Z"/>
 <path fill="rgb(255,66,14)" stroke="none" d="M 7532,17936 L 7657,18061 7782,17936 7657,17811 7532,17936 Z"/>
 <path fill="none" stroke="rgb(255,66,14)" stroke-linejoin="round" d="M 7532,17936 L 7657,18061 7782,17936 7657,17811 7532,17936 Z"/>
 <path fill="rgb(255,66,14)" stroke="none" d="M 12464,14726 L 12589,14851 12714,14726 12589,14601 12464,14726 Z"/>
 <path fill="none" stroke="rgb(255,66,14)" stroke-linejoin="round" d="M 12464,14726 L 12589,14851 12714,14726 12589,14601 12464,14726 Z"/>
 <path fill="rgb(255,66,14)" stroke="none" d="M 17395,11474 L 17520,11599 17645,11474 17520,11349 17395,11474 Z"/>
 <path fill="none" stroke="rgb(255,66,14)" stroke-linejoin="round" d="M 17395,11474 L 17520,11599 17645,11474 17520,11349 17395,11474 Z"/>
 <path fill="rgb(255,66,14)" stroke="none" d="M 22328,5499 L 22453,5624 22578,5499 22453,5374 22328,5499 Z"/>
 <path fill="none" stroke="rgb(255,66,14)" stroke-linejoin="round" d="M 22328,5499 L 22453,5624 22578,5499 22453,5374 22328,5499 Z"/>
 <path fill="none" stroke="rgb(255,211,32)" stroke-width="80" stroke-linejoin="round" d="M 2725,14618 L 7657,11473 12589,11473 17520,5497 22453,5497"/>
 <path fill="rgb(255,211,32)" stroke="none" d="M 2600,14493 L 2725,14743 2850,14493 2600,14493 Z"/>
 <path fill="none" stroke="rgb(255,211,32)" stroke-linejoin="round" d="M 2600,14493 L 2725,14743 2850,14493 2600,14493 Z"/>
 <path fill="rgb(255,211,32)" stroke="none" d="M 7532,11348 L 7657,11598 7782,11348 7532,11348 Z"/>
 <path fill="none" stroke="rgb(255,211,32)" stroke-linejoin="round" d="M 7532,11348 L 7657,11598 7782,11348 7532,11348 Z"/>
 <path fill="rgb(255,211,32)" stroke="none" d="M 12464,11348 L 12589,11598 12714,11348 12464,11348 Z"/>
 <path fill="none" stroke="rgb(255,211,32)" stroke-linejoin="round" d="M 12464,11348 L 12589,11598 12714,11348 12464,11348 Z"/>
 <path fill="rgb(255,211,32)" stroke="none" d="M 17395,5372 L 17520,5622 17645,5372 17395,5372 Z"/>
 <path fill="none" stroke="rgb(255,211,32)" stroke-linejoin="round" d="M 17395,5372 L 17520,5622 17645,5372 17395,5372 Z"/>
 <path fill="rgb(255,211,32)" stroke="none" d="M 22328,5372 L 22453,5622 22578,5372 22328,5372 Z"/>
 <path fill="none" stroke="rgb(255,211,32)" stroke-linejoin="round" d="M 22328,5372 L 22453,5622 22578,5372 22328,5372 Z"/>
 <path fill="none" stroke="rgb(87,157,28)" stroke-width="80" stroke-linejoin="round" d="M 2725,5497 L 7657,5497 12589,5497 17520,5497 22453,5497"/>
 <path fill="rgb(87,157,28)" stroke="none" d="M 2600,5622 L 2850,5622 2725,5372 2600,5622 Z"/>
 <path fill="none" stroke="rgb(87,157,28)" stroke-linejoin="round" d="M 2600,5622 L 2850,5622 2725,5372 2600,5622 Z"/>
 <path fill="rgb(87,157,28)" stroke="none" d="M 7532,5622 L 7782,5622 7657,5372 7532,5622 Z"/>
 <path fill="none" stroke="rgb(87,157,28)" stroke-linejoin="round" d="M 7532,5622 L 7782,5622 7657,5372 7532,5622 Z"/>
 <path fill="rgb(87,157,28)" stroke="none" d="M 12464,5622 L 12714,5622 12589,5372 12464,5622 Z"/>
 <path fill="none" stroke="rgb(87,157,28)" stroke-linejoin="round" d="M 12464,5622 L 12714,5622 12589,5372 12464,5622 Z"/>
 <path fill="rgb(87,157,28)" stroke="none" d="M 17395,5622 L 17645,5622 17520,5372 17395,5622 Z"/>
 <path fill="none" stroke="rgb(87,157,28)" stroke-linejoin="round" d="M 17395,5622 L 17645,5622 17520,5372 17395,5622 Z"/>
 <path fill="rgb(87,157,28)" stroke="none" d="M 22328,5622 L 22578,5622 22453,5372 22328,5622 Z"/>
 <path fill="none" stroke="rgb(87,157,28)" stroke-linejoin="round" d="M 22328,5622 L 22578,5622 22453,5372 22328,5622 Z"/>
 <text class="TextShape"><tspan class="TextParagraph" font-family="Liberation Sans, sans-serif" font-size="353px" font-weight="400"><tspan class="TextPosition" x="2143" y="25320"><tspan fill="rgb(0,0,0)" stroke="none">100kHz</tspan></tspan></tspan></text>
 <text class="TextShape"><tspan class="TextParagraph" font-family="Liberation Sans, sans-serif" font-size="353px" font-weight="400"><tspan class="TextPosition" x="7075" y="25320"><tspan fill="rgb(0,0,0)" stroke="none">200kHz</tspan></tspan></tspan></text>
 <text class="TextShape"><tspan class="TextParagraph" font-family="Liberation Sans, sans-serif" font-size="353px" font-weight="400"><tspan class="TextPosition" x="12007" y="25320"><tspan fill="rgb(0,0,0)" stroke="none">300kHz</tspan></tspan></tspan></text>
 <text class="TextShape"><tspan class="TextParagraph" font-family="Liberation Sans, sans-serif" font-size="353px" font-weight="400"><tspan class="TextPosition" x="16939" y="25320"><tspan fill="rgb(0,0,0)" stroke="none">600kHz</tspan></tspan></tspan></text>
 <text class="TextShape"><tspan class="TextParagraph" font-family="Liberation Sans, sans-serif" font-size="353px" font-weight="400"><tspan class="TextPosition" x="21779" y="25320"><tspan fill="rgb(0,0,0)" stroke="none">1200kHz</tspan></tspan></tspan></text>
 <text class="TextShape"><tspan class="TextParagraph" font-family="Liberation Sans, sans-serif" font-size="353px" font-weight="400"><tspan class="TextPosition" x="2290" y="24873"><tspan fill="rgb(0,0,0)" stroke="none">0</tspan></tspan></tspan></text>
 <text class="TextShape"><tspan class="TextParagraph" font-family="Liberation Sans, sans-serif" font-size="353px" font-weight="400"><tspan class="TextPosition" x="1734" y="21112"><tspan fill="rgb(0,0,0)" stroke="none">5000</tspan></tspan></tspan></text>
 <text class="TextShape"><tspan class="TextParagraph" font-family="Liberation Sans, sans-serif" font-size="353px" font-weight="400"><tspan class="TextPosition" x="1549" y="17351"><tspan fill="rgb(0,0,0)" stroke="none">10000</tspan></tspan></tspan></text>
 <text class="TextShape"><tspan class="TextParagraph" font-family="Liberation Sans, sans-serif" font-size="353px" font-weight="400"><tspan class="TextPosition" x="1549" y="13591"><tspan fill="rgb(0,0,0)" stroke="none">15000</tspan></tspan></tspan></text>
 <text class="TextShape"><tspan class="TextParagraph" font-family="Liberation Sans, sans-serif" font-size="353px" font-weight="400"><tspan class="TextPosition" x="1549" y="9830"><tspan fill="rgb(0,0,0)" stroke="none">20000</tspan></tspan></tspan></text>
 <text class="TextShape"><tspan class="TextParagraph" font-family="Liberation Sans, sans-serif" font-size="353px" font-weight="400"><tspan class="TextPosition" x="1549" y="6069"><tspan fill="rgb(0,0,0)" stroke="none">25000</tspan></tspan></tspan></text>
 <text class="TextShape"><tspan class="TextParagraph" font-family="Liberation Sans, sans-serif" font-size="353px" font-weight="400"><tspan class="TextPosition" x="1549" y="2309"><tspan fill="rgb(0,0,0)" stroke="none">30000</tspan></tspan></tspan></text>
 <text class="TextShape"><tspan class="TextParagraph" font-family="Liberation Sans, sans-serif" font-size="459px" font-weight="400"><tspan class="TextPosition" x="10772" y="1209"><tspan fill="rgb(0,0,0)" stroke="none">USB Full-speed probe read</tspan></tspan></tspan></text>
 <path fill="none" stroke="rgb(0,69,134)" stroke-width="80" stroke-linejoin="round" d="M 23782,12712 L 24582,12712"/>
 <path fill="rgb(0,69,134)" stroke="none" d="M 24076,12607 L 24076,12818 24287,12818 24287,12607 24076,12607 Z"/>
 <path fill="none" stroke="rgb(0,69,134)" stroke-linejoin="round" d="M 24076,12607 L 24076,12818 24287,12818 24287,12607 24076,12607 Z"/>
 <path fill="none" stroke="rgb(255,66,14)" stroke-width="80" stroke-linejoin="round" d="M 23782,13210 L 24582,13210"/>
 <path fill="rgb(255,66,14)" stroke="none" d="M 24076,13210 L 24182,13316 24287,13210 24182,13105 24076,13210 Z"/>
 <path fill="none" stroke="rgb(255,66,14)" stroke-linejoin="round" d="M 24076,13210 L 24182,13316 24287,13210 24182,13105 24076,13210 Z"/>
 <path fill="none" stroke="rgb(255,211,32)" stroke-width="80" stroke-linejoin="round" d="M 23782,13707 L 24582,13707"/>
 <path fill="rgb(255,211,32)" stroke="none" d="M 24076,13602 L 24182,13813 24287,13602 24076,13602 Z"/>
 <path fill="none" stroke="rgb(255,211,32)" stroke-linejoin="round" d="M 24076,13602 L 24182,13813 24287,13602 24076,13602 Z"/>
 <path fill="none" stroke="rgb(87,157,28)" stroke-width="80" stroke-linejoin="round" d="M 23782,14205 L 24582,14205"/>
 <path fill="rgb(87,157,28)" stroke="none" d="M 24076,14311 L 24287,14311 24182,14100 24076,14311 Z"/>
 <path fill="none" stroke="rgb(87,157,28)" stroke-linejoin="round" d="M 24076,14311 L 24287,14311 24182,14100 24076,14311 Z"/>
 <text class="TextShape"><tspan class="TextParagraph" font-family="Liberation Sans, sans-serif" font-size="353px" font-weight="400"><tspan class="TextPosition" x="24682" y="12832"><tspan fill="rgb(0,0,0)" stroke="none">usbc-pill</tspan></tspan></tspan></text>
 <text class="TextShape"><tspan class="TextParagraph" font-family="Liberation Sans, sans-serif" font-size="353px" font-weight="400"><tspan class="TextPosition" x="24682" y="13330"><tspan fill="rgb(0,0,0)" stroke="none">rustyprobe</tspan></tspan></tspan></text>
 <text class="TextShape"><tspan class="TextParagraph" font-family="Liberation Sans, sans-serif" font-size="353px" font-weight="400"><tspan class="TextPosition" x="24682" y="13827"><tspan fill="rgb(0,0,0)" stroke="none">dappermime</tspan></tspan></tspan></text>
 <text class="TextShape"><tspan class="TextParagraph" font-family="Liberation Sans, sans-serif" font-size="353px" font-weight="400"><tspan class="TextPosition" x="24682" y="14325"><tspan fill="rgb(0,0,0)" stroke="none">dap42</tspan></tspan></tspan></text>
 <text class="TextShape"><tspan class="TextParagraph" font-family="Liberation Sans, sans-serif" font-size="318px" font-weight="400"><tspan class="TextPosition" x="11730" y="25655"><tspan fill="rgb(0,0,0)" stroke="none">SWD Frequency</tspan></tspan></tspan></text>
 <text class="TextShape" transform="rotate(-90 837 14410)"><tspan class="TextParagraph" font-family="Liberation Sans, sans-serif" font-size="318px" font-weight="400"><tspan class="TextPosition" x="837" y="14410"><tspan fill="rgb(0,0,0)" stroke="none">Bytes/Sec</tspan></tspan></tspan></text>
</svg>