<?xml version="1.0" encoding="UTF-8"?>
<!DOCTYPE svg PUBLIC "-//W3C//DTD SVG 1.1//EN" "http://www.w3.org/Graphics/SVG/1.1/DTD/svg11.dtd">
<svg width="275mm" height="270mm" viewBox="0 0 27500 27000" version="1.1" xmlns="http://www.w3.org/2000/svg" xmlns:xlink="http://www.w3.org/1999/xlink" stroke-width="28.222" stroke-linejoin="round" xml:space="preserve">
 <path fill="rgb(255,255,255)" stroke="none" d="M 13746,26989 L 0,26989 0,0 27492,0 27492,26989 13746,26989 Z"/>
 <path fill="none" stroke="rgb(179,179,179)" stroke-linejoin="round" d="M 12798,24822 L 2922,24822 2922,2192 22674,2192 22674,24822 12798,24822 Z"/>
 <path fill="none" stroke="rgb(179,179,179)" stroke-linejoin="round" d="M 22674,24821 L 2922,24821"/>
 <path fill="none" stroke="rgb(179,179,179)" stroke-linejoin="round" d="M 22674,21588 L 2922,21588"/>
 <path fill="none" stroke="rgb(179,179,179)" stroke-linejoin="round" d="M 22674,18355 L 2922,18355"/>
 <path fill="none" stroke="rgb(179,179,179)" stroke-linejoin="round" d="M 22674,15122 L 2922,15122"/>
 <path fill="none" stroke="rgb(179,179,179)" stroke-linejoin="round" d="M 22674,11890 L 2922,11890"/>
 <path fill="none" stroke="rgb(179,179,179)" stroke-linejoin="round" d="M 22674,8657 L 2922,8657"/>
 <path fill="none" stroke="rgb(179,179,179)" stroke-linejoin="round" d="M 22674,5424 L 2922,5424"/>
 <path fill="none" stroke="rgb(179,179,179)" stroke-linejoin="round" d="M 22674,2191 L 2922,2191"/>
 <path fill="none" stroke="rgb(179,179,179)" stroke-linejoin="round" d="M 2922,24971 L 2922,24821"/>
 <path fill="none" stroke="rgb(179,179,179)" stroke-linejoin="round" d="M 2922,24971 L 2922,24821"/>
 <path fill="none" stroke="rgb(179,179,179)" stroke-linejoin="round" d="M 4897,24971 L 4897,24821"/>
 <path fill="none" stroke="rgb(179,179,179)" stroke-linejoin="round" d="M 4897,24971 L 4897,24821"/>
 <path fill="none" stroke="rgb(179,179,179)" stroke-linejoin="round" d="M 6872,24971 L 6872,24821"/>
 <path fill="none" stroke="rgb(179,179,179)" stroke-linejoin="round" d="M 6872,24971 L 6872,24821"/>
 <path fill="none" stroke="rgb(179,179,179)" stroke-linejoin="round" d="M 8847,24971 L 8847,24821"/>
 <path fill="none" stroke="rgb(179,179,179)" stroke-linejoin="round" d="M 8847,24971 L 8847,24821"/>
 <path fill="none" stroke="rgb(179,179,179)" stroke-linejoin="round" d="M 10823,24971 L 10823,24821"/>
 <path fill="none" stroke="rgb(179,179,179)" stroke-linejoin="round" d="M 10823,24971 L 10823,24821"/>
 <path fill="none" stroke="rgb(179,179,179)" stroke-linejoin="round" d="M 12798,24971 L 12798,24821"/>
 <path fill="none" stroke="rgb(179,179,179)" stroke-linejoin="round" d="M 12798,24971 L 12798,24821"/>
 <path fill="none" stroke="rgb(179,179,179)" stroke-linejoin="round" d="M 14772,24971 L 14772,24821"/>
 <path fill="none" stroke="rgb(179,179,179)" stroke-linejoin="round" d="M 14772,24971 L 14772,24821"/>
 <path fill="none" stroke="rgb(179,179,179)" stroke-linejoin="round" d="M 16748,24971 L 16748,24821"/>
 <path fill="none" stroke="rgb(179,179,179)" stroke-linejoin="round" d="M 16748,24971 L 16748,24821"/>
 <path fill="none" stroke="rgb(179,179,179)" stroke-linejoin="round" d="M 18723,24971 L 18723,24821"/>
 <path fill="none" stroke="rgb(179,179,179)" stroke-linejoin="round" d="M 18723,24971 L 18723,24821"/>
 <path fill="none" stroke="rgb(179,179,179)" stroke-linejoin="round" d="M 20698,24971 L 20698,24821"/>
 <path fill="none" stroke="rgb(179,179,179)" stroke-linejoin="round" d="M 20698,24971 L 20698,24821"/>
 <path fill="none" stroke="rgb(179,179,179)" stroke-linejoin="round" d="M 22674,24971 L 22674,24821"/>
 <path fill="none" stroke="rgb(179,179,179)" stroke-linejoin="round" d="M 22674,24971 L 22674,24821"/>
 <path fill="none" stroke="rgb(179,179,179)" stroke-linejoin="round" d="M 2922,24821 L 22674,24821"/>
 <path fill="none" stroke="rgb(179,179,179)" stroke-linejoin="round" d="M 2772,24821 L 2922,24821"/>
 <path fill="none" stroke="rgb(179,179,179)" stroke-linejoin="round" d="M 2772,24821 L 2922,24821"/>
 <path fill="none" stroke="rgb(179,179,179)" stroke-linejoin="round" d="M 2772,21588 L 2922,21588"/>
 <path fill="none" stroke="rgb(179,179,179)" stroke-linejoin="round" d="M 2772,21588 L 2922,21588"/>
 <path fill="none" stroke="rgb(179,179,179)" stroke-linejoin="round" d="M 2772,18355 L 2922,18355"/>
 <path fill="none" stroke="rgb(179,179,179)" stroke-linejoin="round" d="M 2772,18355 L 2922,18355"/>
 <path fill="none" stroke="rgb(179,179,179)" stroke-linejoin="round" d="M 2772,15122 L 2922,15122"/>
 <path fill="none" stroke="rgb(179,179,179)" stroke-linejoin="round" d="M 2772,15122 L 2922,15122"/>
 <path fill="none" stroke="rgb(179,179,179)" stroke-linejoin="round" d="M 2772,11890 L 2922,11890"/>
 <path fill="none" stroke="rgb(179,179,179)" stroke-linejoin="round" d="M 2772,11890 L 2922,11890"/>
 <path fill="none" stroke="rgb(179,179,179)" stroke-linejoin="round" d="M 2772,8657 L 2922,8657"/>
 <path fill="none" stroke="rgb(179,179,179)" stroke-linejoin="round" d="M 2772,8657 L 2922,8657"/>
 <path fill="none" stroke="rgb(179,179,179)" stroke-linejoin="round" d="M 2772,5424 L 2922,5424"/>
 <path fill="none" stroke="rgb(179,179,179)" stroke-linejoin="round" d="M 2772,5424 L 2922,5424"/>
 <path fill="none" stroke="rgb(179,179,179)" stroke-linejoin="round" d="M 2772,2191 L 2922,2191"/>
 <path fill="none" stroke="rgb(179,179,179)" stroke-linejoin="round" d="M 2772,2191 L 2922,2191"/>
 <path fill="none" stroke="rgb(179,179,179)" stroke-linejoin="round" d="M 2922,24821 L 2922,2191"/>
 <path fill="none" stroke="rgb(0,69,134)" stroke-width="80" stroke-linejoin="round" d="M 6872,23499 L 8847,22285 10823,19840 12798,16741 14772,13152 16748,9673 18723,7126 20698,5611 22674,5678"/>
 <path fill="rgb(0,69,134)" stroke="none" d="M 6747,23374 L 6747,23624 6997,23624 6997,23374 6747,23374 Z"/>
 <path fill="none" stroke="rgb(0,69,134)" stroke-linejoin="round" d="M 6747,23374 L 6747,23624 6997,23624 6997,23374 6747,23374 Z"/>
 <path fill="rgb(0,69,134)" stroke="none" d="M 8722,22160 L 8722,22410 8972,22410 8972,22160 8722,22160 Z"/>
 <path fill="none" stroke="rgb(0,69,134)" stroke-linejoin="round" d="M 8722,22160 L 8722,22410 8972,22410 8972,22160 8722,22160 Z"/>
 <path fill="rgb(0,69,134)" stroke="none" d="M 10698,19715 L 10698,19965 10948,19965 10948,19715 10698,19715 Z"/>
 <path fill="none" stroke="rgb(0,69,134)" stroke-linejoin="round" d="M 10698,19715 L 10698,19965 10948,19965 10948,19715 10698,19715 Z"/>
 <path fill="rgb(0,69,134)" stroke="none" d="M 12673,16616 L 12673,16866 12923,16866 12923,16616 12673,16616 Z"/>
 <path fill="none" stroke="rgb(0,69,134)" stroke-linejoin="round" d="M 12673,16616 L 12673,16866 12923,16866 12923,16616 12673,16616 Z"/>
 <path fill="rgb(0,69,134)" stroke="none" d="M 14647,13027 L 14647,13277 14897,13277 14897,13027 14647,13027 Z"/>
 <path fill="none" stroke="rgb(0,69,134)" stroke-linejoin="round" d="M 14647,13027 L 14647,13277 14897,13277 14897,13027 14647,13027 Z"/>
 <path fill="rgb(0,69,134)" stroke="none" d="M 16623,9548 L 16623,9798 16873,9798 16873,9548 16623,9548 Z"/>
 <path fill="none" stroke="rgb(0,69,134)" stroke-linejoin="round" d="M 16623,9548 L 16623,9798 16873,9798 16873,9548 16623,9548 Z"/>
 <path fill="rgb(0,69,134)" stroke="none" d="M 18598,7001 L 18598,7251 18848,7251 18848,7001 18598,7001 Z"/>
 <path fill="none" stroke="rgb(0,69,134)" stroke-linejoin="round" d="M 18598,7001 L 18598,7251 18848,7251 18848,7001 18598,7001 Z"/>
 <path fill="rgb(0,69,134)" stroke="none" d="M 20573,5486 L 20573,5736 20823,5736 20823,5486 20573,5486 Z"/>
 <path fill="none" stroke="rgb(0,69,134)" stroke-linejoin="round" d="M 20573,5486 L 20573,5736 20823,5736 20823,5486 20573,5486 Z"/>
 <path fill="rgb(0,69,134)" stroke="none" d="M 22549,5553 L 22549,5803 22799,5803 22799,5553 22549,5553 Z"/>
 <path fill="none" stroke="rgb(0,69,134)" stroke-linejoin="round" d="M 22549,5553 L 22549,5803 22799,5803 22799,5553 22549,5553 Z"/>
 <path fill="none" stroke="rgb(255,66,14)" stroke-width="80" stroke-linejoin="round" d="M 2922,24019 L 4897,23277 6872,22561 8847,20631 10823,17962 12798,13582 14772,6022 16748,5980 18723,5898 20698,5974 22674,5895"/>
 <path fill="rgb(255,66,14)" stroke="none" d="M 2797,24019 L 2922,24144 3047,24019 2922,23894 2797,24019 Z"/>
 <path fill="none" stroke="rgb(255,66,14)" stroke-linejoin="round" d="M 2797,24019 L 2922,24144 3047,24019 2922,23894 2797,24019 Z"/>
 <path fill="rgb(255,66,14)" stroke="none" d="M 4772,23277 L 4897,23402 5022,23277 4897,23152 4772,23277 Z"/>
 <path fill="none" stroke="rgb(255,66,14)" stroke-linejoin="round" d="M 4772,23277 L 4897,23402 5022,23277 4897,23152 4772,23277 Z"/>
 <path fill="rgb(255,66,14)" stroke="none" d="M 6747,22561 L 6872,22686 6997,22561 6872,22436 6747,22561 Z"/>
 <path fill="none" stroke="rgb(255,66,14)" stroke-linejoin="round" d="M 6747,22561 L 6872,22686 6997,22561 6872,22436 6747,22561 Z"/>
 <path fill="rgb(255,66,14)" stroke="none" d="M 8722,20631 L 8847,20756 8972,20631 8847,20506 8722,20631 Z"/>
 <path fill="none" stroke="rgb(255,66,14)" stroke-linejoin="round" d="M 8722,20631 L 8847,20756 8972,20631 8847,20506 8722,20631 Z"/>
 <path fill="rgb(255,66,14)" stroke="none" d="M 10698,17962 L 10823,18087 10948,17962 10823,17837 10698,17962 Z"/>
 <path fill="none" stroke="rgb(255,66,14)" stroke-linejoin="round" d="M 10698,17962 L 10823,18087 10948,17962 10823,17837 10698,17962 Z"/>
 <path fill="rgb(255,66,14)" stroke="none" d="M 12673,13582 L 12798,13707 12923,13582 12798,13458 12673,13582 Z"/>
 <path fill="none" stroke="rgb(255,66,14)" stroke-linejoin="round" d="M 12673,13582 L 12798,13707 12923,13582 12798,13458 12673,13582 Z"/>
 <path fill="rgb(255,66,14)" stroke="none" d="M 14647,6022 L 14772,6147 14897,6022 14772,5897 14647,6022 Z"/>
 <path fill="none" stroke="rgb(255,66,14)" stroke-linejoin="round" d="M 14647,6022 L 14772,6147 14897,6022 14772,5897 14647,6022 Z"/>
 <path fill="rgb(255,66,14)" stroke="none" d="M 16623,5980 L 16748,6105 16873,5980 16748,5855 16623,5980 Z"/>
 <path fill="none" stroke="rgb(255,66,14)" stroke-linejoin="round" d="M 16623,5980 L 16748,6105 16873,5980 16748,5855 16623,5980 Z"/>
 <path fill="rgb(255,66,14)" stroke="none" d="M 18598,5898 L 18723,6023 18848,5898 18723,5773 18598,5898 Z"/>
 <path fill="none" stroke="rgb(255,66,14)" stroke-linejoin="round" d="M 18598,5898 L 18723,6023 18848,5898 18723,5773 18598,5898 Z"/>
 <path fill="rgb(255,66,14)" stroke="none" d="M 20573,5974 L 20698,6099 20823,5974 20698,5849 20573,5974 Z"/>
 <path fill="none" stroke="rgb(255,66,14)" stroke-linejoin="round" d="M 20573,5974 L 20698,6099 20823,5974 20698,5849 20573,5974 Z"/>
 <path fill="rgb(255,66,14)" stroke="none" d="M 22549,5895 L 22674,6020 22799,5895 22674,5770 22549,5895 Z"/>
 <path fill="none" stroke="rgb(255,66,14)" stroke-linejoin="round" d="M 22549,5895 L 22674,6020 22799,5895 22674,5770 22549,5895 Z"/>
 <path fill="none" stroke="rgb(255,211,32)" stroke-width="80" stroke-linejoin="round" d="M 4897,23802 L 6872,23316 8847,22062 10823,19727 12798,17463 14772,13781 16748,11576 18723,8264 20698,8262 22674,8262"/>
 <path fill="rgb(255,211,32)" stroke="none" d="M 4772,23677 L 4897,23927 5022,23677 4772,23677 Z"/>
 <path fill="none" stroke="rgb(255,211,32)" stroke-linejoin="round" d="M 4772,23677 L 4897,23927 5022,23677 4772,23677 Z"/>
 <path fill="rgb(255,211,32)" stroke="none" d="M 6747,23191 L 6872,23441 6997,23191 6747,23191 Z"/>
 <path fill="none" stroke="rgb(255,211,32)" stroke-linejoin="round" d="M 6747,23191 L 6872,23441 6997,23191 6747,23191 Z"/>
 <path fill="rgb(255,211,32)" stroke="none" d="M 8722,21937 L 8847,22187 8972,21937 8722,21937 Z"/>
 <path fill="none" stroke="rgb(255,211,32)" stroke-linejoin="round" d="M 8722,21937 L 8847,22187 8972,21937 8722,21937 Z"/>
 <path fill="rgb(255,211,32)" stroke="none" d="M 10698,19602 L 10823,19852 10948,19602 10698,19602 Z"/>
 <path fill="none" stroke="rgb(255,211,32)" stroke-linejoin="round" d="M 10698,19602 L 10823,19852 10948,19602 10698,19602 Z"/>
 <path fill="rgb(255,211,32)" stroke="none" d="M 12673,17338 L 12798,17588 12923,17338 12673,17338 Z"/>
 <path fill="none" stroke="rgb(255,211,32)" stroke-linejoin="round" d="M 12673,17338 L 12798,17588 12923,17338 12673,17338 Z"/>
 <path fill="rgb(255,211,32)" stroke="none" d="M 14647,13656 L 14772,13906 14897,13656 14647,13656 Z"/>
 <path fill="none" stroke="rgb(255,211,32)" stroke-linejoin="round" d="M 14647,13656 L 14772,13906 14897,13656 14647,13656 Z"/>
 <path fill="rgb(255,211,32)" stroke="none" d="M 16623,11451 L 16748,11701 16873,11451 16623,11451 Z"/>
 <path fill="none" stroke="rgb(255,211,32)" stroke-linejoin="round" d="M 16623,11451 L 16748,11701 16873,11451 16623,11451 Z"/>
 <path fill="rgb(255,211,32)" stroke="none" d="M 18598,8139 L 18723,8389 18848,8139 18598,8139 Z"/>
 <path fill="none" stroke="rgb(255,211,32)" stroke-linejoin="round" d="M 18598,8139 L 18723,8389 18848,8139 18598,8139 Z"/>
 <path fill="rgb(255,211,32)" stroke="none" d="M 20573,8137 L 20698,8387 20823,8137 20573,8137 Z"/>
 <path fill="none" stroke="rgb(255,211,32)" stroke-linejoin="round" d="M 20573,8137 L 20698,8387 20823,8137 20573,8137 Z"/>
 <path fill="rgb(255,211,32)" stroke="none" d="M 22549,8137 L 22674,8387 22799,8137 22549,8137 Z"/>
 <path fill="none" stroke="rgb(255,211,32)" stroke-linejoin="round" d="M 22549,8137 L 22674,8387 22799,8137 22549,8137 Z"/>
 <path fill="none" stroke="rgb(87,157,28)" stroke-width="80" stroke-linejoin="round" d="M 2922,24318 L 4897,23846 6872,23396 8847,22171 10823,20301 12798,17539 14772,14927 16748,10569 18723,10553"/>
 <path fill="rgb(87,157,28)" stroke="none" d="M 2797,24443 L 3047,24443 2922,24193 2797,24443 Z"/>
 <path fill="none" stroke="rgb(87,157,28)" stroke-linejoin="round" d="M 2797,24443 L 3047,24443 2922,24193 2797,24443 Z"/>
 <path fill="rgb(87,157,28)" stroke="none" d="M 4772,23971 L 5022,23971 4897,23721 4772,23971 Z"/>
 <path fill="none" stroke="rgb(87,157,28)" stroke-linejoin="round" d="M 4772,23971 L 5022,23971 4897,23721 4772,23971 Z"/>
 <path fill="rgb(87,157,28)" stroke="none" d="M 6747,23521 L 6997,23521 6872,23271 6747,23521 Z"/>
 <path fill="none" stroke="rgb(87,157,28)" stroke-linejoin="round" d="M 6747,23521 L 6997,23521 6872,23271 6747,23521 Z"/>
 <path fill="rgb(87,157,28)" stroke="none" d="M 8722,22296 L 8972,22296 8847,22046 8722,22296 Z"/>
 <path fill="none" stroke="rgb(87,157,28)" stroke-linejoin="round" d="M 8722,22296 L 8972,22296 8847,22046 8722,22296 Z"/>
 <path fill="rgb(87,157,28)" stroke="none" d="M 10698,20426 L 10948,20426 10823,20176 10698,20426 Z"/>
 <path fill="none" stroke="rgb(87,157,28)" stroke-linejoin="round" d="M 10698,20426 L 10948,20426 10823,20176 10698,20426 Z"/>
 <path fill="rgb(87,157,28)" stroke="none" d="M 12673,17664 L 12923,17664 12798,17414 12673,17664 Z"/>
 <path fill="none" stroke="rgb(87,157,28)" stroke-linejoin="round" d="M 12673,17664 L 12923,17664 12798,17414 12673,17664 Z"/>
 <path fill="rgb(87,157,28)" stroke="none" d="M 14647,15052 L 14897,15052 14772,14802 14647,15052 Z"/>
 <path fill="none" stroke="rgb(87,157,28)" stroke-linejoin="round" d="M 14647,15052 L 14897,15052 14772,14802 14647,15052 Z"/>
 <path fill="rgb(87,157,28)" stroke="none" d="M 16623,10694 L 16873,10694 16748,10444 16623,10694 Z"/>
 <path fill="none" stroke="rgb(87,157,28)" stroke-linejoin="round" d="M 16623,10694 L 16873,10694 16748,10444 16623,10694 Z"/>
 <path fill="rgb(87,157,28)" stroke="none" d="M 18598,10678 L 18848,10678 18723,10428 18598,10678 Z"/>
 <path fill="none" stroke="rgb(87,157,28)" stroke-linejoin="round" d="M 18598,10678 L 18848,10678 18723,10428 18598,10678 Z"/>
 <path fill="none" stroke="rgb(126,0,33)" stroke-width="80" stroke-linejoin="round" d="M 2922,24429 L 4897,24124 6872,23949 8847,23679 10823,23165 12798,23165 14772,23165 16748,23165 18723,23166 20698,23165 22674,23165"/>
 <path fill="rgb(126,0,33)" stroke="none" d="M 2797,24304 L 2797,24554 3047,24429 2797,24304 Z"/>
 <path fill="none" stroke="rgb(126,0,33)" stroke-linejoin="round" d="M 2797,24304 L 2797,24554 3047,24429 2797,24304 Z"/>
 <path fill="rgb(126,0,33)" stroke="none" d="M 4772,23999 L 4772,24249 5022,24124 4772,23999 Z"/>
 <path fill="none" stroke="rgb(126,0,33)" stroke-linejoin="round" d="M 4772,23999 L 4772,24249 5022,24124 4772,23999 Z"/>
 <path fill="rgb(126,0,33)" stroke="none" d="M 6747,23824 L 6747,24074 6997,23949 6747,23824 Z"/>
 <path fill="none" stroke="rgb(126,0,33)" stroke-linejoin="round" d="M 6747,23824 L 6747,24074 6997,23949 6747,23824 Z"/>
 <path fill="rgb(126,0,33)" stroke="none" d="M 8722,23554 L 8722,23804 8972,23679 8722,23554 Z"/>
 <path fill="none" stroke="rgb(126,0,33)" stroke-linejoin="round" d="M 8722,23554 L 8722,23804 8972,23679 8722,23554 Z"/>
 <path fill="rgb(126,0,33)" stroke="none" d="M 10698,23040 L 10698,23290 10948,23165 10698,23040 Z"/>
 <path fill="none" stroke="rgb(126,0,33)" stroke-linejoin="round" d="M 10698,23040 L 10698,23290 10948,23165 10698,23040 Z"/>
 <path fill="rgb(126,0,33)" stroke="none" d="M 12673,23040 L 12673,23290 12923,23165 12673,23040 Z"/>
 <path fill="none" stroke="rgb(126,0,33)" stroke-linejoin="round" d="M 12673,23040 L 12673,23290 12923,23165 12673,23040 Z"/>
 <path fill="rgb(126,0,33)" stroke="none" d="M 14647,23040 L 14647,23290 14897,23165 14647,23040 Z"/>
 <path fill="none" stroke="rgb(126,0,33)" stroke-linejoin="round" d="M 14647,23040 L 14647,23290 14897,23165 14647,23040 Z"/>
 <path fill="rgb(126,0,33)" stroke="none" d="M 16623,23040 L 16623,23290 16873,23165 16623,23040 Z"/>
 <path fill="none" stroke="rgb(126,0,33)" stroke-linejoin="round" d="M 16623,23040 L 16623,23290 16873,23165 16623,23040 Z"/>
 <path fill="rgb(126,0,33)" stroke="none" d="M 18598,23041 L 18598,23291 18848,23166 18598,23041 Z"/>
 <path fill="none" stroke="rgb(126,0,33)" stroke-linejoin="round" d="M 18598,23041 L 18598,23291 18848,23166 18598,23041 Z"/>
 <path fill="rgb(126,0,33)" stroke="none" d="M 20573,23040 L 20573,23290 20823,23165 20573,23040 Z"/>
 <path fill="none" stroke="rgb(126,0,33)" stroke-linejoin="round" d="M 20573,23040 L 20573,23290 20823,23165 20573,23040 Z"/>
 <path fill="rgb(126,0,33)" stroke="none" d="M 22549,23040 L 22549,23290 22799,23165 22549,23040 Z"/>
 <path fill="none" stroke="rgb(126,0,33)" stroke-linejoin="round" d="M 22549,23040 L 22549,23290 22799,23165 22549,23040 Z"/>
 <path fill="none" stroke="rgb(131,202,255)" stroke-width="80" stroke-linejoin="round" d="M 2922,24465 L 4897,24235 6872,23959 8847,23679 10823,23165 12798,23165 14772,23165 16748,23165 18723,23165 20698,23165 22674,23165"/>
 <path fill="rgb(131,202,255)" stroke="none" d="M 2797,24465 L 3047,24590 3047,24340 2797,24465 Z"/>
 <path fill="none" stroke="rgb(131,202,255)" stroke-linejoin="round" d="M 2797,24465 L 3047,24590 3047,24340 2797,24465 Z"/>
 <path fill="rgb(131,202,255)" stroke="none" d="M 4772,24235 L 5022,24360 5022,24110 4772,24235 Z"/>
 <path fill="none" stroke="rgb(131,202,255)" stroke-linejoin="round" d="M 4772,24235 L 5022,24360 5022,24110 4772,24235 Z"/>
 <path fill="rgb(131,202,255)" stroke="none" d="M 6747,23959 L 6997,24084 6997,23834 6747,23959 Z"/>
 <path fill="none" stroke="rgb(131,202,255)" stroke-linejoin="round" d="M 6747,23959 L 6997,24084 6997,23834 6747,23959 Z"/>
 <path fill="rgb(131,202,255)" stroke="none" d="M 8722,23679 L 8972,23804 8972,23554 8722,23679 Z"/>
 <path fill="none" stroke="rgb(131,202,255)" stroke-linejoin="round" d="M 8722,23679 L 8972,23804 8972,23554 8722,23679 Z"/>
 <path fill="rgb(131,202,255)" stroke="none" d="M 10698,23165 L 10948,23290 10948,23040 10698,23165 Z"/>
 <path fill="none" stroke="rgb(131,202,255)" stroke-linejoin="round" d="M 10698,23165 L 10948,23290 10948,23040 10698,23165 Z"/>
 <path fill="rgb(131,202,255)" stroke="none" d="M 12673,23165 L 12923,23290 12923,23040 12673,23165 Z"/>
 <path fill="none" stroke="rgb(131,202,255)" stroke-linejoin="round" d="M 12673,23165 L 12923,23290 12923,23040 12673,23165 Z"/>
 <path fill="rgb(131,202,255)" stroke="none" d="M 14647,23165 L 14897,23290 14897,23040 14647,23165 Z"/>
 <path fill="none" stroke="rgb(131,202,255)" stroke-linejoin="round" d="M 14647,23165 L 14897,23290 14897,23040 14647,23165 Z"/>
 <path fill="rgb(131,202,255)" stroke="none" d="M 16623,23165 L 16873,23290 16873,23040 16623,23165 Z"/>
 <path fill="none" stroke="rgb(131,202,255)" stroke-linejoin="round" d="M 16623,23165 L 16873,23290 16873,23040 16623,23165 Z"/>
 <path fill="rgb(131,202,255)" stroke="none" d="M 18598,23165 L 18848,23290 18848,23040 18598,23165 Z"/>
 <path fill="none" stroke="rgb(131,202,255)" stroke-linejoin="round" d="M 18598,23165 L 18848,23290 18848,23040 18598,23165 Z"/>
 <path fill="rgb(131,202,255)" stroke="none" d="M 20573,23165 L 20823,23290 20823,23040 20573,23165 Z"/>
 <path fill="none" stroke="rgb(131,202,255)" stroke-linejoin="round" d="M 20573,23165 L 20823,23290 20823,23040 20573,23165 Z"/>
 <path fill="rgb(131,202,255)" stroke="none" d="M 22549,23165 L 22799,23290 22799,23040 22549,23165 Z"/>
 <path fill="none" stroke="rgb(131,202,255)" stroke-linejoin="round" d="M 22549,23165 L 22799,23290 22799,23040 22549,23165 Z"/>
 <path fill="none" stroke="rgb(49,64,4)" stroke-width="80" stroke-linejoin="round" d="M 2922,23949 L 4897,23679 6872,23679 8847,23165 10823,23165 12798,23165 14772,23165 16748,23165"/>
 <path fill="rgb(49,64,4)" stroke="none" d="M 2797,23824 L 2797,24074 3047,23824 3047,24074 2797,23824 Z"/>
 <path fill="none" stroke="rgb(49,64,4)" stroke-linejoin="round" d="M 2797,23824 L 2797,24074 3047,23824 3047,24074 2797,23824 Z"/>
 <path fill="rgb(49,64,4)" stroke="none" d="M 4772,23554 L 4772,23804 5022,23554 5022,23804 4772,23554 Z"/>
 <path fill="none" stroke="rgb(49,64,4)" stroke-linejoin="round" d="M 4772,23554 L 4772,23804 5022,23554 5022,23804 4772,23554 Z"/>
 <path fill="rgb(49,64,4)" stroke="none" d="M 6747,23554 L 6747,23804 6997,23554 6997,23804 6747,23554 Z"/>
 <path fill="none" stroke="rgb(49,64,4)" stroke-linejoin="round" d="M 6747,23554 L 6747,23804 6997,23554 6997,23804 6747,23554 Z"/>
 <path fill="rgb(49,64,4)" stroke="none" d="M 8722,23040 L 8722,23290 8972,23040 8972,23290 8722,23040 Z"/>
 <path fill="none" stroke="rgb(49,64,4)" stroke-linejoin="round" d="M 8722,23040 L 8722,23290 8972,23040 8972,23290 8722,23040 Z"/>
 <path fill="rgb(49,64,4)" stroke="none" d="M 10698,23040 L 10698,23290 10948,23040 10948,23290 10698,23040 Z"/>
 <path fill="none" stroke="rgb(49,64,4)" stroke-linejoin="round" d="M 10698,23040 L 10698,23290 10948,23040 10948,23290 10698,23040 Z"/>
 <path fill="rgb(49,64,4)" stroke="none" d="M 12673,23040 L 12673,23290 12923,23040 12923,23290 12673,23040 Z"/>
 <path fill="none" stroke="rgb(49,64,4)" stroke-linejoin="round" d="M 12673,23040 L 12673,23290 12923,23040 12923,23290 12673,23040 Z"/>
 <path fill="rgb(49,64,4)" stroke="none" d="M 14647,23040 L 14647,23290 14897,23040 14897,23290 14647,23040 Z"/>
 <path fill="none" stroke="rgb(49,64,4)" stroke-linejoin="round" d="M 14647,23040 L 14647,23290 14897,23040 14897,23290 14647,23040 Z"/>
 <path fill="rgb(49,64,4)" stroke="none" d="M 16623,23040 L 16623,23290 16873,23040 16873,23290 16623,23040 Z"/>
 <path fill="none" stroke="rgb(49,64,4)" stroke-linejoin="round" d="M 16623,23040 L 16623,23290 16873,23040 16873,23290 16623,23040 Z"/>
 <path fill="none" stroke="rgb(174,207,0)" stroke-width="80" stroke-linejoin="round" d="M 2922,23165 L 4897,23165 6872,23165 8847,23165 10823,23165 12798,23165 14772,23165 16748,23165 18723,23165 20698,23165 22674,23165"/>
 <path fill="rgb(174,207,0)" stroke="none" d="M 2797,23290 L 3047,23290 2797,23040 3047,23040 2797,23290 Z"/>
 <path fill="none" stroke="rgb(174,207,0)" stroke-linejoin="round" d="M 2797,23290 L 3047,23290 2797,23040 3047,23040 2797,23290 Z"/>
 <path fill="rgb(174,207,0)" stroke="none" d="M 4772,23290 L 5022,23290 4772,23040 5022,23040 4772,23290 Z"/>
 <path fill="none" stroke="rgb(174,207,0)" stroke-linejoin="round" d="M 4772,23290 L 5022,23290 4772,23040 5022,23040 4772,23290 Z"/>
 <path fill="rgb(174,207,0)" stroke="none" d="M 6747,23290 L 6997,23290 6747,23040 6997,23040 6747,23290 Z"/>
 <path fill="none" stroke="rgb(174,207,0)" stroke-linejoin="round" d="M 6747,23290 L 6997,23290 6747,23040 6997,23040 6747,23290 Z"/>
 <path fill="rgb(174,207,0)" stroke="none" d="M 8722,23290 L 8972,23290 8722,23040 8972,23040 8722,23290 Z"/>
 <path fill="none" stroke="rgb(174,207,0)" stroke-linejoin="round" d="M 8722,23290 L 8972,23290 8722,23040 8972,23040 8722,23290 Z"/>
 <path fill="rgb(174,207,0)" stroke="none" d="M 10698,23290 L 10948,23290 10698,23040 10948,23040 10698,23290 Z"/>
 <path fill="none" stroke="rgb(174,207,0)" stroke-linejoin="round" d="M 10698,23290 L 10948,23290 10698,23040 10948,23040 10698,23290 Z"/>
 <path fill="rgb(174,207,0)" stroke="none" d="M 12673,23290 L 12923,23290 12673,23040 12923,23040 12673,23290 Z"/>
 <path fill="none" stroke="rgb(174,207,0)" stroke-linejoin="round" d="M 12673,23290 L 12923,23290 12673,23040 12923,23040 12673,23290 Z"/>
 <path fill="rgb(174,207,0)" stroke="none" d="M 14647,23290 L 14897,23290 14647,23040 14897,23040 14647,23290 Z"/>
 <path fill="none" stroke="rgb(174,207,0)" stroke-linejoin="round" d="M 14647,23290 L 14897,23290 14647,23040 14897,23040 14647,23290 Z"/>
 <path fill="rgb(174,207,0)" stroke="none" d="M 16623,23290 L 16873,23290 16623,23040 16873,23040 16623,23290 Z"/>
 <path fill="none" stroke="rgb(174,207,0)" stroke-linejoin="round" d="M 16623,23290 L 16873,23290 16623,23040 16873,23040 16623,23290 Z"/>
 <path fill="rgb(174,207,0)" stroke="none" d="M 18598,23290 L 18848,23290 18598,23040 18848,23040 18598,23290 Z"/>
 <path fill="none" stroke="rgb(174,207,0)" stroke-linejoin="round" d="M 18598,23290 L 18848,23290 18598,23040 18848,23040 18598,23290 Z"/>
 <path fill="rgb(174,207,0)" stroke="none" d="M 20573,23290 L 20823,23290 20573,23040 20823,23040 20573,23290 Z"/>
 <path fill="none" stroke="rgb(174,207,0)" stroke-linejoin="round" d="M 20573,23290 L 20823,23290 20573,23040 20823,23040 20573,23290 Z"/>
 <path fill="rgb(174,207,0)" stroke="none" d="M 22549,23290 L 22799,23290 22549,23040 22799,23040 22549,23290 Z"/>
 <path fill="none" stroke="rgb(174,207,0)" stroke-linejoin="round" d="M 22549,23290 L 22799,23290 22549,23040 22799,23040 22549,23290 Z"/>
 <path fill="none" stroke="rgb(75,31,111)" stroke-width="80" stroke-linejoin="round" d="M 2922,24336 L 4897,23902 6872,23524 8847,22494 10823,21277 12798,19442 14772,18561 16748,16094 18723,16183 20698,16060 22674,16097"/>
 <path fill="rgb(75,31,111)" stroke="none" d="M 3047,24336 L 3046,24331 3046,24325 3045,24320 3045,24315 3044,24309 3042,24304 3041,24299 3039,24294 3037,24288 3035,24283 3032,24279 3030,24274 3027,24269 3024,24265 3021,24260 3017,24256 3014,24252 3010,24248 3006,24244 3002,24241 2998,24237 2993,24234 2989,24231 2984,24228 2979,24225 2974,24223 2969,24221 2964,24219 2959,24217 2954,24216 2949,24214 2943,24213 2938,24212 2932,24212 2927,24211 2922,24211 2916,24211 2911,24212 2905,24212 2900,24213 2894,24214 2889,24216 2884,24217 2879,24219 2874,24221 2869,24223 2864,24225 2859,24228 2854,24231 2850,24234 2845,24237 2841,24241 2837,24244 2833,24248 2829,24252 2826,24256 2822,24260 2819,24265 2816,24269 2813,24274 2811,24279 2808,24283 2806,24288 2804,24294 2802,24299 2801,24304 2799,24309 2798,24315 2798,24320 2797,24325 2797,24331 2797,24336 2797,24342 2797,24347 2798,24353 2798,24358 2799,24363 2801,24369 2802,24374 2804,24379 2806,24384 2808,24389 2811,24394 2813,24399 2816,24403 2819,24408 2822,24412 2826,24417 2829,24421 2833,24425 2837,24428 2841,24432 2845,24435 2850,24439 2854,24442 2859,24445 2864,24447 2869,24450 2874,24452 2879,24454 2884,24456 2889,24457 2894,24458 2900,24459 2905,24460 2911,24461 2916,24461 2922,24461 2927,24461 2932,24461 2938,24460 2943,24459 2949,24458 2954,24457 2959,24456 2964,24454 2969,24452 2974,24450 2979,24447 2984,24445 2989,24442 2993,24439 2998,24435 3002,24432 3006,24428 3010,24425 3014,24421 3017,24417 3021,24412 3024,24408 3027,24403 3030,24399 3032,24394 3035,24389 3037,24384 3039,24379 3041,24374 3042,24369 3044,24363 3045,24358 3045,24353 3046,24347 3046,24342 3047,24336 Z"/>
 <path fill="none" stroke="rgb(75,31,111)" stroke-linejoin="round" d="M 3047,24336 L 3046,24331 3046,24325 3045,24320 3045,24315 3044,24309 3042,24304 3041,24299 3039,24294 3037,24288 3035,24283 3032,24279 3030,24274 3027,24269 3024,24265 3021,24260 3017,24256 3014,24252 3010,24248 3006,24244 3002,24241 2998,24237 2993,24234 2989,24231 2984,24228 2979,24225 2974,24223 2969,24221 2964,24219 2959,24217 2954,24216 2949,24214 2943,24213 2938,24212 2932,24212 2927,24211 2922,24211 2916,24211 2911,24212 2905,24212 2900,24213 2894,24214 2889,24216 2884,24217 2879,24219 2874,24221 2869,24223 2864,24225 2859,24228 2854,24231 2850,24234 2845,24237 2841,24241 2837,24244 2833,24248 2829,24252 2826,24256 2822,24260 2819,24265 2816,24269 2813,24274 2811,24279 2808,24283 2806,24288 2804,24294 2802,24299 2801,24304 2799,24309 2798,24315 2798,24320 2797,24325 2797,24331 2797,24336 2797,24342 2797,24347 2798,24353 2798,24358 2799,24363 2801,24369 2802,24374 2804,24379 2806,24384 2808,24389 2811,24394 2813,24399 2816,24403 2819,24408 2822,24412 2826,24417 2829,24421 2833,24425 2837,24428 2841,24432 2845,24435 2850,24439 2854,24442 2859,24445 2864,24447 2869,24450 2874,24452 2879,24454 2884,24456 2889,24457 2894,24458 2900,24459 2905,24460 2911,24461 2916,24461 2922,24461 2927,24461 2932,24461 2938,24460 2943,24459 2949,24458 2954,24457 2959,24456 2964,24454 2969,24452 2974,24450 2979,24447 2984,24445 2989,24442 2993,24439 2998,24435 3002,24432 3006,24428 3010,24425 3014,24421 3017,24417 3021,24412 3024,24408 3027,24403 3030,24399 3032,24394 3035,24389 3037,24384 3039,24379 3041,24374 3042,24369 3044,24363 3045,24358 3045,24353 3046,24347 3046,24342 3047,24336 Z"/>
 <path fill="rgb(75,31,111)" stroke="none" d="M 5022,23902 L 5022,23897 5021,23891 5021,23886 5020,23880 5019,23875 5018,23870 5016,23864 5014,23859 5012,23854 5010,23849 5008,23844 5005,23840 5002,23835 4999,23830 4996,23826 4993,23822 4989,23818 4985,23814 4981,23810 4977,23806 4973,23803 4968,23800 4964,23797 4959,23794 4955,23791 4950,23789 4945,23787 4940,23785 4934,23783 4929,23781 4924,23780 4919,23779 4913,23778 4908,23778 4902,23777 4897,23777 4891,23777 4886,23778 4880,23778 4875,23779 4870,23780 4864,23781 4859,23783 4854,23785 4849,23787 4844,23789 4839,23791 4834,23794 4830,23797 4825,23800 4821,23803 4816,23806 4812,23810 4808,23814 4805,23818 4801,23822 4798,23826 4794,23830 4791,23835 4789,23840 4786,23844 4784,23849 4781,23854 4779,23859 4778,23864 4776,23870 4775,23875 4774,23880 4773,23886 4772,23891 4772,23897 4772,23902 4772,23908 4772,23913 4773,23918 4774,23924 4775,23929 4776,23934 4778,23940 4779,23945 4781,23950 4784,23955 4786,23960 4789,23965 4791,23969 4794,23974 4798,23978 4801,23982 4805,23987 4808,23990 4812,23994 4816,23998 4821,24001 4825,24004 4830,24007 4834,24010 4839,24013 4844,24015 4849,24018 4854,24020 4859,24021 4864,24023 4870,24024 4875,24025 4880,24026 4886,24027 4891,24027 4897,24027 4902,24027 4908,24027 4913,24026 4919,24025 4924,24024 4929,24023 4934,24021 4940,24020 4945,24018 4950,24015 4955,24013 4959,24010 4964,24007 4968,24004 4973,24001 4977,23998 4981,23994 4985,23990 4989,23987 4993,23982 4996,23978 4999,23974 5002,23969 5005,23965 5008,23960 5010,23955 5012,23950 5014,23945 5016,23940 5018,23934 5019,23929 5020,23924 5021,23918 5021,23913 5022,23908 5022,23902 Z"/>
 <path fill="none" stroke="rgb(75,31,111)" stroke-linejoin="round" d="M 5022,23902 L 5022,23897 5021,23891 5021,23886 5020,23880 5019,23875 5018,23870 5016,23864 5014,23859 5012,23854 5010,23849 5008,23844 5005,23840 5002,23835 4999,23830 4996,23826 4993,23822 4989,23818 4985,23814 4981,23810 4977,23806 4973,23803 4968,23800 4964,23797 4959,23794 4955,23791 4950,23789 4945,23787 4940,23785 4934,23783 4929,23781 4924,23780 4919,23779 4913,23778 4908,23778 4902,23777 4897,23777 4891,23777 4886,23778 4880,23778 4875,23779 4870,23780 4864,23781 4859,23783 4854,23785 4849,23787 4844,23789 4839,23791 4834,23794 4830,23797 4825,23800 4821,23803 4816,23806 4812,23810 4808,23814 4805,23818 4801,23822 4798,23826 4794,23830 4791,23835 4789,23840 4786,23844 4784,23849 4781,23854 4779,23859 4778,23864 4776,23870 4775,23875 4774,23880 4773,23886 4772,23891 4772,23897 4772,23902 4772,23908 4772,23913 4773,23918 4774,23924 4775,23929 4776,23934 4778,23940 4779,23945 4781,23950 4784,23955 4786,23960 4789,23965 4791,23969 4794,23974 4798,23978 4801,23982 4805,23987 4808,23990 4812,23994 4816,23998 4821,24001 4825,24004 4830,24007 4834,24010 4839,24013 4844,24015 4849,24018 4854,24020 4859,24021 4864,24023 4870,24024 4875,24025 4880,24026 4886,24027 4891,24027 4897,24027 4902,24027 4908,24027 4913,24026 4919,24025 4924,24024 4929,24023 4934,24021 4940,24020 4945,24018 4950,24015 4955,24013 4959,24010 4964,24007 4968,24004 4973,24001 4977,23998 4981,23994 4985,23990 4989,23987 4993,23982 4996,23978 4999,23974 5002,23969 5005,23965 5008,23960 5010,23955 5012,23950 5014,23945 5016,23940 5018,23934 5019,23929 5020,23924 5021,23918 5021,23913 5022,23908 5022,23902 Z"/>
 <path fill="rgb(75,31,111)" stroke="none" d="M 6997,23524 L 6997,23518 6997,23513 6996,23507 6995,23502 6994,23497 6993,23491 6991,23486 6990,23481 6988,23476 6985,23471 6983,23466 6980,23461 6978,23457 6974,23452 6971,23448 6968,23443 6964,23439 6960,23435 6957,23432 6952,23428 6948,23425 6944,23421 6939,23418 6935,23415 6930,23413 6925,23410 6920,23408 6915,23406 6910,23405 6904,23403 6899,23402 6894,23401 6888,23400 6883,23399 6878,23399 6872,23399 6867,23399 6861,23399 6856,23400 6850,23401 6845,23402 6840,23403 6835,23405 6829,23406 6824,23408 6819,23410 6814,23413 6810,23415 6805,23418 6800,23421 6796,23425 6792,23428 6788,23432 6784,23435 6780,23439 6776,23443 6773,23448 6770,23452 6767,23457 6764,23461 6761,23466 6759,23471 6757,23476 6755,23481 6753,23486 6751,23491 6750,23497 6749,23502 6748,23507 6748,23513 6747,23518 6747,23524 6747,23529 6748,23535 6748,23540 6749,23545 6750,23551 6751,23556 6753,23561 6755,23567 6757,23572 6759,23577 6761,23581 6764,23586 6767,23591 6770,23595 6773,23600 6776,23604 6780,23608 6784,23612 6788,23616 6792,23620 6796,23623 6800,23626 6805,23629 6810,23632 6814,23635 6819,23637 6824,23639 6829,23641 6835,23643 6840,23644 6845,23646 6850,23647 6856,23648 6861,23648 6867,23649 6872,23649 6878,23649 6883,23648 6888,23648 6894,23647 6899,23646 6904,23644 6910,23643 6915,23641 6920,23639 6925,23637 6930,23635 6935,23632 6939,23629 6944,23626 6948,23623 6952,23620 6957,23616 6960,23612 6964,23608 6968,23604 6971,23600 6974,23595 6978,23591 6980,23586 6983,23581 6985,23577 6988,23572 6990,23567 6991,23561 6993,23556 6994,23551 6995,23545 6996,23540 6997,23535 6997,23529 6997,23524 Z"/>
 <path fill="none" stroke="rgb(75,31,111)" stroke-linejoin="round" d="M 6997,23524 L 6997,23518 6997,23513 6996,23507 6995,23502 6994,23497 6993,23491 6991,23486 6990,23481 6988,23476 6985,23471 6983,23466 6980,23461 6978,23457 6974,23452 6971,23448 6968,23443 6964,23439 6960,23435 6957,23432 6952,23428 6948,23425 6944,23421 6939,23418 6935,23415 6930,23413 6925,23410 6920,23408 6915,23406 6910,23405 6904,23403 6899,23402 6894,23401 6888,23400 6883,23399 6878,23399 6872,23399 6867,23399 6861,23399 6856,23400 6850,23401 6845,23402 6840,23403 6835,23405 6829,23406 6824,23408 6819,23410 6814,23413 6810,23415 6805,23418 6800,23421 6796,23425 6792,23428 6788,23432 6784,23435 6780,23439 6776,23443 6773,23448 6770,23452 6767,23457 6764,23461 6761,23466 6759,23471 6757,23476 6755,23481 6753,23486 6751,23491 6750,23497 6749,23502 6748,23507 6748,23513 6747,23518 6747,23524 6747,23529 6748,23535 6748,23540 6749,23545 6750,23551 6751,23556 6753,23561 6755,23567 6757,23572 6759,23577 6761,23581 6764,23586 6767,23591 6770,23595 6773,23600 6776,23604 6780,23608 6784,23612 6788,23616 6792,23620 6796,23623 6800,23626 6805,23629 6810,23632 6814,23635 6819,23637 6824,23639 6829,23641 6835,23643 6840,23644 6845,23646 6850,23647 6856,23648 6861,23648 6867,23649 6872,23649 6878,23649 6883,23648 6888,23648 6894,23647 6899,23646 6904,23644 6910,23643 6915,23641 6920,23639 6925,23637 6930,23635 6935,23632 6939,23629 6944,23626 6948,23623 6952,23620 6957,23616 6960,23612 6964,23608 6968,23604 6971,23600 6974,23595 6978,23591 6980,23586 6983,23581 6985,23577 6988,23572 6990,23567 6991,23561 6993,23556 6994,23551 6995,23545 6996,23540 6997,23535 6997,23529 6997,23524 Z"/>
 <path fill="rgb(75,31,111)" stroke="none" d="M 8972,22494 L 8972,22488 8972,22483 8971,22478 8971,22472 8969,22467 8968,22462 8967,22456 8965,22451 8963,22446 8961,22441 8958,22436 8956,22431 8953,22427 8950,22422 8947,22418 8943,22414 8940,22409 8936,22406 8932,22402 8928,22398 8923,22395 8919,22392 8915,22388 8910,22386 8905,22383 8900,22381 8895,22378 8890,22376 8885,22375 8880,22373 8874,22372 8869,22371 8864,22370 8858,22369 8853,22369 8847,22369 8842,22369 8837,22369 8831,22370 8826,22371 8820,22372 8815,22373 8810,22375 8805,22376 8800,22378 8795,22381 8790,22383 8785,22386 8780,22388 8776,22392 8771,22395 8767,22398 8763,22402 8759,22406 8755,22409 8752,22414 8748,22418 8745,22422 8742,22427 8739,22431 8737,22436 8734,22441 8732,22446 8730,22451 8728,22456 8727,22462 8725,22467 8724,22472 8723,22478 8723,22483 8723,22488 8722,22494 8723,22499 8723,22505 8723,22510 8724,22516 8725,22521 8727,22526 8728,22532 8730,22537 8732,22542 8734,22547 8737,22552 8739,22556 8742,22561 8745,22566 8748,22570 8752,22574 8755,22578 8759,22582 8763,22586 8767,22590 8771,22593 8776,22596 8780,22599 8785,22602 8790,22605 8795,22607 8800,22609 8805,22611 8810,22613 8815,22615 8820,22616 8826,22617 8831,22618 8837,22618 8842,22619 8847,22619 8853,22619 8858,22618 8864,22618 8869,22617 8874,22616 8880,22615 8885,22613 8890,22611 8895,22609 8900,22607 8905,22605 8910,22602 8915,22599 8919,22596 8923,22593 8928,22590 8932,22586 8936,22582 8940,22578 8943,22574 8947,22570 8950,22566 8953,22561 8956,22556 8958,22552 8961,22547 8963,22542 8965,22537 8967,22532 8968,22526 8969,22521 8971,22516 8971,22510 8972,22505 8972,22499 8972,22494 Z"/>
 <path fill="none" stroke="rgb(75,31,111)" stroke-linejoin="round" d="M 8972,22494 L 8972,22488 8972,22483 8971,22478 8971,22472 8969,22467 8968,22462 8967,22456 8965,22451 8963,22446 8961,22441 8958,22436 8956,22431 8953,22427 8950,22422 8947,22418 8943,22414 8940,22409 8936,22406 8932,22402 8928,22398 8923,22395 8919,22392 8915,22388 8910,22386 8905,22383 8900,22381 8895,22378 8890,22376 8885,22375 8880,22373 8874,22372 8869,22371 8864,22370 8858,22369 8853,22369 8847,22369 8842,22369 8837,22369 8831,22370 8826,22371 8820,22372 8815,22373 8810,22375 8805,22376 8800,22378 8795,22381 8790,22383 8785,22386 8780,22388 8776,22392 8771,22395 8767,22398 8763,22402 8759,22406 8755,22409 8752,22414 8748,22418 8745,22422 8742,22427 8739,22431 8737,22436 8734,22441 8732,22446 8730,22451 8728,22456 8727,22462 8725,22467 8724,22472 8723,22478 8723,22483 8723,22488 8722,22494 8723,22499 8723,22505 8723,22510 8724,22516 8725,22521 8727,22526 8728,22532 8730,22537 8732,22542 8734,22547 8737,22552 8739,22556 8742,22561 8745,22566 8748,22570 8752,22574 8755,22578 8759,22582 8763,22586 8767,22590 8771,22593 8776,22596 8780,22599 8785,22602 8790,22605 8795,22607 8800,22609 8805,22611 8810,22613 8815,22615 8820,22616 8826,22617 8831,22618 8837,22618 8842,22619 8847,22619 8853,22619 8858,22618 8864,22618 8869,22617 8874,22616 8880,22615 8885,22613 8890,22611 8895,22609 8900,22607 8905,22605 8910,22602 8915,22599 8919,22596 8923,22593 8928,22590 8932,22586 8936,22582 8940,22578 8943,22574 8947,22570 8950,22566 8953,22561 8956,22556 8958,22552 8961,22547 8963,22542 8965,22537 8967,22532 8968,22526 8969,22521 8971,22516 8971,22510 8972,22505 8972,22499 8972,22494 Z"/>
 <path fill="rgb(75,31,111)" stroke="none" d="M 10948,21277 L 10948,21272 10947,21266 10947,21261 10946,21255 10945,21250 10943,21245 10942,21239 10940,21234 10938,21229 10936,21224 10934,21219 10931,21215 10928,21210 10925,21205 10922,21201 10918,21197 10915,21193 10911,21189 10907,21185 10903,21181 10899,21178 10894,21175 10890,21172 10885,21169 10880,21166 10876,21164 10871,21162 10865,21160 10860,21158 10855,21156 10850,21155 10844,21154 10839,21153 10834,21152 10828,21152 10823,21152 10817,21152 10812,21152 10806,21153 10801,21154 10796,21155 10790,21156 10785,21158 10780,21160 10775,21162 10770,21164 10765,21166 10760,21169 10756,21172 10751,21175 10747,21178 10742,21181 10738,21185 10734,21189 10731,21193 10727,21197 10724,21201 10720,21205 10717,21210 10714,21215 10712,21219 10709,21224 10707,21229 10705,21234 10703,21239 10702,21245 10701,21250 10700,21255 10699,21261 10698,21266 10698,21272 10698,21277 10698,21282 10698,21288 10699,21293 10700,21299 10701,21304 10702,21309 10703,21315 10705,21320 10707,21325 10709,21330 10712,21335 10714,21340 10717,21344 10720,21349 10724,21353 10727,21357 10731,21361 10734,21365 10738,21369 10742,21373 10747,21376 10751,21379 10756,21382 10760,21385 10765,21388 10770,21390 10775,21393 10780,21394 10785,21396 10790,21398 10796,21399 10801,21400 10806,21401 10812,21402 10817,21402 10823,21402 10828,21402 10834,21402 10839,21401 10844,21400 10850,21399 10855,21398 10860,21396 10865,21394 10871,21393 10876,21390 10880,21388 10885,21385 10890,21382 10894,21379 10899,21376 10903,21373 10907,21369 10911,21365 10915,21361 10918,21357 10922,21353 10925,21349 10928,21344 10931,21340 10934,21335 10936,21330 10938,21325 10940,21320 10942,21315 10943,21309 10945,21304 10946,21299 10947,21293 10947,21288 10948,21282 10948,21277 Z"/>
 <path fill="none" stroke="rgb(75,31,111)" stroke-linejoin="round" d="M 10948,21277 L 10948,21272 10947,21266 10947,21261 10946,21255 10945,21250 10943,21245 10942,21239 10940,21234 10938,21229 10936,21224 10934,21219 10931,21215 10928,21210 10925,21205 10922,21201 10918,21197 10915,21193 10911,21189 10907,21185 10903,21181 10899,21178 10894,21175 10890,21172 10885,21169 10880,21166 10876,21164 10871,21162 10865,21160 10860,21158 10855,21156 10850,21155 10844,21154 10839,21153 10834,21152 10828,21152 10823,21152 10817,21152 10812,21152 10806,21153 10801,21154 10796,21155 10790,21156 10785,21158 10780,21160 10775,21162 10770,21164 10765,21166 10760,21169 10756,21172 10751,21175 10747,21178 10742,21181 10738,21185 10734,21189 10731,21193 10727,21197 10724,21201 10720,21205 10717,21210 10714,21215 10712,21219 10709,21224 10707,21229 10705,21234 10703,21239 10702,21245 10701,21250 10700,21255 10699,21261 10698,21266 10698,21272 10698,21277 10698,21282 10698,21288 10699,21293 10700,21299 10701,21304 10702,21309 10703,21315 10705,21320 10707,21325 10709,21330 10712,21335 10714,21340 10717,21344 10720,21349 10724,21353 10727,21357 10731,21361 10734,21365 10738,21369 10742,21373 10747,21376 10751,21379 10756,21382 10760,21385 10765,21388 10770,21390 10775,21393 10780,21394 10785,21396 10790,21398 10796,21399 10801,21400 10806,21401 10812,21402 10817,21402 10823,21402 10828,21402 10834,21402 10839,21401 10844,21400 10850,21399 10855,21398 10860,21396 10865,21394 10871,21393 10876,21390 10880,21388 10885,21385 10890,21382 10894,21379 10899,21376 10903,21373 10907,21369 10911,21365 10915,21361 10918,21357 10922,21353 10925,21349 10928,21344 10931,21340 10934,21335 10936,21330 10938,21325 10940,21320 10942,21315 10943,21309 10945,21304 10946,21299 10947,21293 10947,21288 10948,21282 10948,21277 Z"/>
 <path fill="rgb(75,31,111)" stroke="none" d="M 12923,19442 L 12923,19437 12923,19432 12922,19426 12921,19421 12920,19415 12919,19410 12917,19405 12915,19400 12913,19395 12911,19390 12909,19385 12906,19380 12903,19375 12900,19371 12897,19366 12894,19362 12890,19358 12886,19354 12882,19350 12878,19347 12874,19343 12870,19340 12865,19337 12861,19334 12856,19332 12851,19329 12846,19327 12841,19325 12836,19323 12830,19322 12825,19320 12820,19319 12814,19319 12809,19318 12803,19318 12798,19317 12793,19318 12787,19318 12782,19319 12776,19319 12771,19320 12766,19322 12760,19323 12755,19325 12750,19327 12745,19329 12740,19332 12736,19334 12731,19337 12726,19340 12722,19343 12718,19347 12714,19350 12710,19354 12706,19358 12702,19362 12699,19366 12696,19371 12693,19375 12690,19380 12687,19385 12685,19390 12683,19395 12681,19400 12679,19405 12677,19410 12676,19415 12675,19421 12674,19426 12673,19432 12673,19437 12673,19442 12673,19448 12673,19453 12674,19459 12675,19464 12676,19470 12677,19475 12679,19480 12681,19485 12683,19490 12685,19495 12687,19500 12690,19505 12693,19510 12696,19514 12699,19519 12702,19523 12706,19527 12710,19531 12714,19535 12718,19538 12722,19542 12726,19545 12731,19548 12736,19551 12740,19553 12745,19556 12750,19558 12755,19560 12760,19562 12766,19563 12771,19565 12776,19566 12782,19566 12787,19567 12793,19567 12798,19567 12803,19567 12809,19567 12814,19566 12820,19566 12825,19565 12830,19563 12836,19562 12841,19560 12846,19558 12851,19556 12856,19553 12861,19551 12865,19548 12870,19545 12874,19542 12878,19538 12882,19535 12886,19531 12890,19527 12894,19523 12897,19519 12900,19514 12903,19510 12906,19505 12909,19500 12911,19495 12913,19490 12915,19485 12917,19480 12919,19475 12920,19470 12921,19464 12922,19459 12923,19453 12923,19448 12923,19442 Z"/>
 <path fill="none" stroke="rgb(75,31,111)" stroke-linejoin="round" d="M 12923,19442 L 12923,19437 12923,19432 12922,19426 12921,19421 12920,19415 12919,19410 12917,19405 12915,19400 12913,19395 12911,19390 12909,19385 12906,19380 12903,19375 12900,19371 12897,19366 12894,19362 12890,19358 12886,19354 12882,19350 12878,19347 12874,19343 12870,19340 12865,19337 12861,19334 12856,19332 12851,19329 12846,19327 12841,19325 12836,19323 12830,19322 12825,19320 12820,19319 12814,19319 12809,19318 12803,19318 12798,19317 12793,19318 12787,19318 12782,19319 12776,19319 12771,19320 12766,19322 12760,19323 12755,19325 12750,19327 12745,19329 12740,19332 12736,19334 12731,19337 12726,19340 12722,19343 12718,19347 12714,19350 12710,19354 12706,19358 12702,19362 12699,19366 12696,19371 12693,19375 12690,19380 12687,19385 12685,19390 12683,19395 12681,19400 12679,19405 12677,19410 12676,19415 12675,19421 12674,19426 12673,19432 12673,19437 12673,19442 12673,19448 12673,19453 12674,19459 12675,19464 12676,19470 12677,19475 12679,19480 12681,19485 12683,19490 12685,19495 12687,19500 12690,19505 12693,19510 12696,19514 12699,19519 12702,19523 12706,19527 12710,19531 12714,19535 12718,19538 12722,19542 12726,19545 12731,19548 12736,19551 12740,19553 12745,19556 12750,19558 12755,19560 12760,19562 12766,19563 12771,19565 12776,19566 12782,19566 12787,19567 12793,19567 12798,19567 12803,19567 12809,19567 12814,19566 12820,19566 12825,19565 12830,19563 12836,19562 12841,19560 12846,19558 12851,19556 12856,19553 12861,19551 12865,19548 12870,19545 12874,19542 12878,19538 12882,19535 12886,19531 12890,19527 12894,19523 12897,19519 12900,19514 12903,19510 12906,19505 12909,19500 12911,19495 12913,19490 12915,19485 12917,19480 12919,19475 12920,19470 12921,19464 12922,19459 12923,19453 12923,19448 12923,19442 Z"/>
 <path fill="rgb(75,31,111)" stroke="none" d="M 14897,18561 L 14897,18555 14897,18550 14896,18544 14895,18539 14894,18534 14893,18528 14892,18523 14890,18518 14888,18513 14886,18508 14883,18503 14881,18498 14878,18494 14875,18489 14871,18485 14868,18480 14864,18476 14861,18472 14857,18469 14853,18465 14848,18462 14844,18458 14839,18455 14835,18452 14830,18450 14825,18447 14820,18445 14815,18443 14810,18441 14805,18440 14799,18439 14794,18438 14789,18437 14783,18436 14778,18436 14772,18436 14767,18436 14761,18436 14756,18437 14751,18438 14745,18439 14740,18440 14735,18441 14730,18443 14724,18445 14719,18447 14715,18450 14710,18452 14705,18455 14701,18458 14696,18462 14692,18465 14688,18469 14684,18472 14680,18476 14677,18480 14673,18485 14670,18489 14667,18494 14664,18498 14661,18503 14659,18508 14657,18513 14655,18518 14653,18523 14652,18528 14650,18534 14649,18539 14648,18544 14648,18550 14647,18555 14647,18561 14647,18566 14648,18572 14648,18577 14649,18582 14650,18588 14652,18593 14653,18598 14655,18603 14657,18609 14659,18614 14661,18618 14664,18623 14667,18628 14670,18632 14673,18637 14677,18641 14680,18645 14684,18649 14688,18653 14692,18656 14696,18660 14701,18663 14705,18666 14710,18669 14715,18672 14719,18674 14724,18676 14730,18678 14735,18680 14740,18681 14745,18683 14751,18684 14756,18685 14761,18685 14767,18686 14772,18686 14778,18686 14783,18685 14789,18685 14794,18684 14799,18683 14805,18681 14810,18680 14815,18678 14820,18676 14825,18674 14830,18672 14835,18669 14839,18666 14844,18663 14848,18660 14853,18656 14857,18653 14861,18649 14864,18645 14868,18641 14871,18637 14875,18632 14878,18628 14881,18623 14883,18618 14886,18614 14888,18609 14890,18603 14892,18598 14893,18593 14894,18588 14895,18582 14896,18577 14897,18572 14897,18566 14897,18561 Z"/>
 <path fill="none" stroke="rgb(75,31,111)" stroke-linejoin="round" d="M 14897,18561 L 14897,18555 14897,18550 14896,18544 14895,18539 14894,18534 14893,18528 14892,18523 14890,18518 14888,18513 14886,18508 14883,18503 14881,18498 14878,18494 14875,18489 14871,18485 14868,18480 14864,18476 14861,18472 14857,18469 14853,18465 14848,18462 14844,18458 14839,18455 14835,18452 14830,18450 14825,18447 14820,18445 14815,18443 14810,18441 14805,18440 14799,18439 14794,18438 14789,18437 14783,18436 14778,18436 14772,18436 14767,18436 14761,18436 14756,18437 14751,18438 14745,18439 14740,18440 14735,18441 14730,18443 14724,18445 14719,18447 14715,18450 14710,18452 14705,18455 14701,18458 14696,18462 14692,18465 14688,18469 14684,18472 14680,18476 14677,18480 14673,18485 14670,18489 14667,18494 14664,18498 14661,18503 14659,18508 14657,18513 14655,18518 14653,18523 14652,18528 14650,18534 14649,18539 14648,18544 14648,18550 14647,18555 14647,18561 14647,18566 14648,18572 14648,18577 14649,18582 14650,18588 14652,18593 14653,18598 14655,18603 14657,18609 14659,18614 14661,18618 14664,18623 14667,18628 14670,18632 14673,18637 14677,18641 14680,18645 14684,18649 14688,18653 14692,18656 14696,18660 14701,18663 14705,18666 14710,18669 14715,18672 14719,18674 14724,18676 14730,18678 14735,18680 14740,18681 14745,18683 14751,18684 14756,18685 14761,18685 14767,18686 14772,18686 14778,18686 14783,18685 14789,18685 14794,18684 14799,18683 14805,18681 14810,18680 14815,18678 14820,18676 14825,18674 14830,18672 14835,18669 14839,18666 14844,18663 14848,18660 14853,18656 14857,18653 14861,18649 14864,18645 14868,18641 14871,18637 14875,18632 14878,18628 14881,18623 14883,18618 14886,18614 14888,18609 14890,18603 14892,18598 14893,18593 14894,18588 14895,18582 14896,18577 14897,18572 14897,18566 14897,18561 Z"/>
 <path fill="rgb(75,31,111)" stroke="none" d="M 16873,16094 L 16872,16088 16872,16083 16872,16078 16871,16072 16870,16067 16868,16062 16867,16056 16865,16051 16863,16046 16861,16041 16858,16036 16856,16031 16853,16027 16850,16022 16847,16018 16843,16014 16840,16009 16836,16006 16832,16002 16828,15998 16824,15995 16819,15992 16815,15988 16810,15986 16805,15983 16800,15981 16795,15978 16790,15976 16785,15975 16780,15973 16775,15972 16769,15971 16764,15970 16758,15969 16753,15969 16748,15969 16742,15969 16737,15969 16731,15970 16726,15971 16721,15972 16715,15973 16710,15975 16705,15976 16700,15978 16695,15981 16690,15983 16685,15986 16680,15988 16676,15992 16672,15995 16667,15998 16663,16002 16659,16006 16655,16009 16652,16014 16648,16018 16645,16022 16642,16027 16639,16031 16637,16036 16634,16041 16632,16046 16630,16051 16628,16056 16627,16062 16626,16067 16624,16072 16624,16078 16623,16083 16623,16088 16623,16094 16623,16099 16623,16105 16624,16110 16624,16116 16626,16121 16627,16126 16628,16131 16630,16137 16632,16142 16634,16147 16637,16152 16639,16156 16642,16161 16645,16166 16648,16170 16652,16174 16655,16178 16659,16182 16663,16186 16667,16190 16672,16193 16676,16196 16680,16199 16685,16202 16690,16205 16695,16207 16700,16209 16705,16211 16710,16213 16715,16215 16721,16216 16726,16217 16731,16218 16737,16218 16742,16219 16748,16219 16753,16219 16758,16218 16764,16218 16769,16217 16775,16216 16780,16215 16785,16213 16790,16211 16795,16209 16800,16207 16805,16205 16810,16202 16815,16199 16819,16196 16824,16193 16828,16190 16832,16186 16836,16182 16840,16178 16843,16174 16847,16170 16850,16166 16853,16161 16856,16156 16858,16152 16861,16147 16863,16142 16865,16137 16867,16131 16868,16126 16870,16121 16871,16116 16872,16110 16872,16105 16872,16099 16873,16094 Z"/>
 <path fill="none" stroke="rgb(75,31,111)" stroke-linejoin="round" d="M 16873,16094 L 16872,16088 16872,16083 16872,16078 16871,16072 16870,16067 16868,16062 16867,16056 16865,16051 16863,16046 16861,16041 16858,16036 16856,16031 16853,16027 16850,16022 16847,16018 16843,16014 16840,16009 16836,16006 16832,16002 16828,15998 16824,15995 16819,15992 16815,15988 16810,15986 16805,15983 16800,15981 16795,15978 16790,15976 16785,15975 16780,15973 16775,15972 16769,15971 16764,15970 16758,15969 16753,15969 16748,15969 16742,15969 16737,15969 16731,15970 16726,15971 16721,15972 16715,15973 16710,15975 16705,15976 16700,15978 16695,15981 16690,15983 16685,15986 16680,15988 16676,15992 16672,15995 16667,15998 16663,16002 16659,16006 16655,16009 16652,16014 16648,16018 16645,16022 16642,16027 16639,16031 16637,16036 16634,16041 16632,16046 16630,16051 16628,16056 16627,16062 16626,16067 16624,16072 16624,16078 16623,16083 16623,16088 16623,16094 16623,16099 16623,16105 16624,16110 16624,16116 16626,16121 16627,16126 16628,16131 16630,16137 16632,16142 16634,16147 16637,16152 16639,16156 16642,16161 16645,16166 16648,16170 16652,16174 16655,16178 16659,16182 16663,16186 16667,16190 16672,16193 16676,16196 16680,16199 16685,16202 16690,16205 16695,16207 16700,16209 16705,16211 16710,16213 16715,16215 16721,16216 16726,16217 16731,16218 16737,16218 16742,16219 16748,16219 16753,16219 16758,16218 16764,16218 16769,16217 16775,16216 16780,16215 16785,16213 16790,16211 16795,16209 16800,16207 16805,16205 16810,16202 16815,16199 16819,16196 16824,16193 16828,16190 16832,16186 16836,16182 16840,16178 16843,16174 16847,16170 16850,16166 16853,16161 16856,16156 16858,16152 16861,16147 16863,16142 16865,16137 16867,16131 16868,16126 16870,16121 16871,16116 16872,16110 16872,16105 16872,16099 16873,16094 Z"/>
 <path fill="rgb(75,31,111)" stroke="none" d="M 18848,16183 L 18848,16177 18847,16172 18847,16166 18846,16161 18845,16156 18844,16150 18842,16145 18840,16140 18838,16135 18836,16130 18834,16125 18831,16120 18828,16115 18825,16111 18822,16106 18819,16102 18815,16098 18811,16094 18807,16090 18803,16087 18799,16083 18795,16080 18790,16077 18785,16074 18781,16072 18776,16069 18771,16067 18766,16065 18760,16063 18755,16062 18750,16061 18745,16059 18739,16059 18734,16058 18728,16058 18723,16058 18717,16058 18712,16058 18707,16059 18701,16059 18696,16061 18691,16062 18685,16063 18680,16065 18675,16067 18670,16069 18665,16072 18660,16074 18656,16077 18651,16080 18647,16083 18643,16087 18638,16090 18635,16094 18631,16098 18627,16102 18624,16106 18621,16111 18617,16115 18615,16120 18612,16125 18610,16130 18607,16135 18605,16140 18604,16145 18602,16150 18601,16156 18600,16161 18599,16166 18598,16172 18598,16177 18598,16183 18598,16188 18598,16193 18599,16199 18600,16204 18601,16210 18602,16215 18604,16220 18605,16225 18607,16230 18610,16235 18612,16240 18615,16245 18617,16250 18621,16254 18624,16259 18627,16263 18631,16267 18635,16271 18638,16275 18643,16278 18647,16282 18651,16285 18656,16288 18660,16291 18665,16293 18670,16296 18675,16298 18680,16300 18685,16302 18691,16303 18696,16305 18701,16306 18707,16306 18712,16307 18717,16307 18723,16308 18728,16307 18734,16307 18739,16306 18745,16306 18750,16305 18755,16303 18760,16302 18766,16300 18771,16298 18776,16296 18781,16293 18785,16291 18790,16288 18795,16285 18799,16282 18803,16278 18807,16275 18811,16271 18815,16267 18819,16263 18822,16259 18825,16254 18828,16250 18831,16245 18834,16240 18836,16235 18838,16230 18840,16225 18842,16220 18844,16215 18845,16210 18846,16204 18847,16199 18847,16193 18848,16188 18848,16183 Z"/>
 <path fill="none" stroke="rgb(75,31,111)" stroke-linejoin="round" d="M 18848,16183 L 18848,16177 18847,16172 18847,16166 18846,16161 18845,16156 18844,16150 18842,16145 18840,16140 18838,16135 18836,16130 18834,16125 18831,16120 18828,16115 18825,16111 18822,16106 18819,16102 18815,16098 18811,16094 18807,16090 18803,16087 18799,16083 18795,16080 18790,16077 18785,16074 18781,16072 18776,16069 18771,16067 18766,16065 18760,16063 18755,16062 18750,16061 18745,16059 18739,16059 18734,16058 18728,16058 18723,16058 18717,16058 18712,16058 18707,16059 18701,16059 18696,16061 18691,16062 18685,16063 18680,16065 18675,16067 18670,16069 18665,16072 18660,16074 18656,16077 18651,16080 18647,16083 18643,16087 18638,16090 18635,16094 18631,16098 18627,16102 18624,16106 18621,16111 18617,16115 18615,16120 18612,16125 18610,16130 18607,16135 18605,16140 18604,16145 18602,16150 18601,16156 18600,16161 18599,16166 18598,16172 18598,16177 18598,16183 18598,16188 18598,16193 18599,16199 18600,16204 18601,16210 18602,16215 18604,16220 18605,16225 18607,16230 18610,16235 18612,16240 18615,16245 18617,16250 18621,16254 18624,16259 18627,16263 18631,16267 18635,16271 18638,16275 18643,16278 18647,16282 18651,16285 18656,16288 18660,16291 18665,16293 18670,16296 18675,16298 18680,16300 18685,16302 18691,16303 18696,16305 18701,16306 18707,16306 18712,16307 18717,16307 18723,16308 18728,16307 18734,16307 18739,16306 18745,16306 18750,16305 18755,16303 18760,16302 18766,16300 18771,16298 18776,16296 18781,16293 18785,16291 18790,16288 18795,16285 18799,16282 18803,16278 18807,16275 18811,16271 18815,16267 18819,16263 18822,16259 18825,16254 18828,16250 18831,16245 18834,16240 18836,16235 18838,16230 18840,16225 18842,16220 18844,16215 18845,16210 18846,16204 18847,16199 18847,16193 18848,16188 18848,16183 Z"/>
 <path fill="rgb(75,31,111)" stroke="none" d="M 20823,16060 L 20823,16054 20823,16049 20822,16043 20821,16038 20820,16033 20819,16027 20817,16022 20816,16017 20814,16012 20811,16007 20809,16002 20806,15997 20804,15993 20801,15988 20797,15984 20794,15979 20790,15975 20787,15971 20783,15968 20779,15964 20774,15961 20770,15957 20765,15954 20761,15952 20756,15949 20751,15946 20746,15944 20741,15942 20736,15941 20731,15939 20725,15938 20720,15937 20715,15936 20709,15935 20704,15935 20698,15935 20693,15935 20687,15935 20682,15936 20676,15937 20671,15938 20666,15939 20661,15941 20655,15942 20650,15944 20645,15946 20640,15949 20636,15952 20631,15954 20627,15957 20622,15961 20618,15964 20614,15968 20610,15971 20606,15975 20602,15979 20599,15984 20596,15988 20593,15993 20590,15997 20587,16002 20585,16007 20583,16012 20581,16017 20579,16022 20577,16027 20576,16033 20575,16038 20574,16043 20574,16049 20573,16054 20573,16060 20573,16065 20574,16071 20574,16076 20575,16081 20576,16087 20577,16092 20579,16097 20581,16103 20583,16108 20585,16113 20587,16117 20590,16122 20593,16127 20596,16131 20599,16136 20602,16140 20606,16144 20610,16148 20614,16152 20618,16156 20622,16159 20627,16162 20631,16165 20636,16168 20640,16171 20645,16173 20650,16175 20655,16177 20661,16179 20666,16181 20671,16182 20676,16183 20682,16184 20687,16184 20693,16185 20698,16185 20704,16185 20709,16184 20715,16184 20720,16183 20725,16182 20731,16181 20736,16179 20741,16177 20746,16175 20751,16173 20756,16171 20761,16168 20765,16165 20770,16162 20774,16159 20779,16156 20783,16152 20787,16148 20790,16144 20794,16140 20797,16136 20801,16131 20804,16127 20806,16122 20809,16117 20811,16113 20814,16108 20816,16103 20817,16097 20819,16092 20820,16087 20821,16081 20822,16076 20823,16071 20823,16065 20823,16060 Z"/>
 <path fill="none" stroke="rgb(75,31,111)" stroke-linejoin="round" d="M 20823,16060 L 20823,16054 20823,16049 20822,16043 20821,16038 20820,16033 20819,16027 20817,16022 20816,16017 20814,16012 20811,16007 20809,16002 20806,15997 20804,15993 20801,15988 20797,15984 20794,15979 20790,15975 20787,15971 20783,15968 20779,15964 20774,15961 20770,15957 20765,15954 20761,15952 20756,15949 20751,15946 20746,15944 20741,15942 20736,15941 20731,15939 20725,15938 20720,15937 20715,15936 20709,15935 20704,15935 20698,15935 20693,15935 20687,15935 20682,15936 20676,15937 20671,15938 20666,15939 20661,15941 20655,15942 20650,15944 20645,15946 20640,15949 20636,15952 20631,15954 20627,15957 20622,15961 20618,15964 20614,15968 20610,15971 20606,15975 20602,15979 20599,15984 20596,15988 20593,15993 20590,15997 20587,16002 20585,16007 20583,16012 20581,16017 20579,16022 20577,16027 20576,16033 20575,16038 20574,16043 20574,16049 20573,16054 20573,16060 20573,16065 20574,16071 20574,16076 20575,16081 20576,16087 20577,16092 20579,16097 20581,16103 20583,16108 20585,16113 20587,16117 20590,16122 20593,16127 20596,16131 20599,16136 20602,16140 20606,16144 20610,16148 20614,16152 20618,16156 20622,16159 20627,16162 20631,16165 20636,16168 20640,16171 20645,16173 20650,16175 20655,16177 20661,16179 20666,16181 20671,16182 20676,16183 20682,16184 20687,16184 20693,16185 20698,16185 20704,16185 20709,16184 20715,16184 20720,16183 20725,16182 20731,16181 20736,16179 20741,16177 20746,16175 20751,16173 20756,16171 20761,16168 20765,16165 20770,16162 20774,16159 20779,16156 20783,16152 20787,16148 20790,16144 20794,16140 20797,16136 20801,16131 20804,16127 20806,16122 20809,16117 20811,16113 20814,16108 20816,16103 20817,16097 20819,16092 20820,16087 20821,16081 20822,16076 20823,16071 20823,16065 20823,16060 Z"/>
 <path fill="rgb(75,31,111)" stroke="none" d="M 22799,16097 L 22798,16092 22798,16086 22797,16081 22797,16076 22796,16070 22794,16065 22793,16060 22791,16055 22789,16050 22787,16045 22784,16040 22782,16035 22779,16030 22776,16026 22773,16021 22769,16017 22766,16013 22762,16009 22758,16005 22754,16002 22750,15998 22745,15995 22741,15992 22736,15989 22731,15986 22726,15984 22721,15982 22716,15980 22711,15978 22706,15977 22701,15975 22695,15974 22690,15973 22684,15973 22679,15972 22674,15972 22668,15972 22663,15973 22657,15973 22652,15974 22646,15975 22641,15977 22636,15978 22631,15980 22626,15982 22621,15984 22616,15986 22611,15989 22606,15992 22602,15995 22597,15998 22593,16002 22589,16005 22585,16009 22581,16013 22578,16017 22574,16021 22571,16026 22568,16030 22565,16035 22563,16040 22560,16045 22558,16050 22556,16055 22554,16060 22553,16065 22551,16070 22550,16076 22550,16081 22549,16086 22549,16092 22549,16097 22549,16103 22549,16108 22550,16114 22550,16119 22551,16124 22553,16130 22554,16135 22556,16140 22558,16145 22560,16150 22563,16155 22565,16160 22568,16165 22571,16169 22574,16173 22578,16178 22581,16182 22585,16186 22589,16190 22593,16193 22597,16197 22602,16200 22606,16203 22611,16206 22616,16208 22621,16211 22626,16213 22631,16215 22636,16217 22641,16218 22646,16219 22652,16220 22657,16221 22663,16222 22668,16222 22674,16222 22679,16222 22684,16222 22690,16221 22695,16220 22701,16219 22706,16218 22711,16217 22716,16215 22721,16213 22726,16211 22731,16208 22736,16206 22741,16203 22745,16200 22750,16197 22754,16193 22758,16190 22762,16186 22766,16182 22769,16178 22773,16173 22776,16169 22779,16165 22782,16160 22784,16155 22787,16150 22789,16145 22791,16140 22793,16135 22794,16130 22796,16124 22797,16119 22797,16114 22798,16108 22798,16103 22799,16097 Z"/>
 <path fill="none" stroke="rgb(75,31,111)" stroke-linejoin="round" d="M 22799,16097 L 22798,16092 22798,16086 22797,16081 22797,16076 22796,16070 22794,16065 22793,16060 22791,16055 22789,16050 22787,16045 22784,16040 22782,16035 22779,16030 22776,16026 22773,16021 22769,16017 22766,16013 22762,16009 22758,16005 22754,16002 22750,15998 22745,15995 22741,15992 22736,15989 22731,15986 22726,15984 22721,15982 22716,15980 22711,15978 22706,15977 22701,15975 22695,15974 22690,15973 22684,15973 22679,15972 22674,15972 22668,15972 22663,15973 22657,15973 22652,15974 22646,15975 22641,15977 22636,15978 22631,15980 22626,15982 22621,15984 22616,15986 22611,15989 22606,15992 22602,15995 22597,15998 22593,16002 22589,16005 22585,16009 22581,16013 22578,16017 22574,16021 22571,16026 22568,16030 22565,16035 22563,16040 22560,16045 22558,16050 22556,16055 22554,16060 22553,16065 22551,16070 22550,16076 22550,16081 22549,16086 22549,16092 22549,16097 22549,16103 22549,16108 22550,16114 22550,16119 22551,16124 22553,16130 22554,16135 22556,16140 22558,16145 22560,16150 22563,16155 22565,16160 22568,16165 22571,16169 22574,16173 22578,16178 22581,16182 22585,16186 22589,16190 22593,16193 22597,16197 22602,16200 22606,16203 22611,16206 22616,16208 22621,16211 22626,16213 22631,16215 22636,16217 22641,16218 22646,16219 22652,16220 22657,16221 22663,16222 22668,16222 22674,16222 22679,16222 22684,16222 22690,16221 22695,16220 22701,16219 22706,16218 22711,16217 22716,16215 22721,16213 22726,16211 22731,16208 22736,16206 22741,16203 22745,16200 22750,16197 22754,16193 22758,16190 22762,16186 22766,16182 22769,16178 22773,16173 22776,16169 22779,16165 22782,16160 22784,16155 22787,16150 22789,16145 22791,16140 22793,16135 22794,16130 22796,16124 22797,16119 22797,16114 22798,16108 22798,16103 22799,16097 Z"/>
 <text class="TextShape"><tspan class="TextParagraph" font-family="Liberation Sans, sans-serif" font-size="353px" font-weight="400"><tspan class="TextPosition" x="2340" y="25389"><tspan fill="rgb(0,0,0)" stroke="none">100kHz</tspan></tspan></tspan></text>
 <text class="TextShape"><tspan class="TextParagraph" font-family="Liberation Sans, sans-serif" font-size="353px" font-weight="400"><tspan class="TextPosition" x="4315" y="25389"><tspan fill="rgb(0,0,0)" stroke="none">200kHz</tspan></tspan></tspan></text>
 <text class="TextShape"><tspan class="TextParagraph" font-family="Liberation Sans, sans-serif" font-size="353px" font-weight="400"><tspan class="TextPosition" x="6290" y="25389"><tspan fill="rgb(0,0,0)" stroke="none">300kHz</tspan></tspan></tspan></text>
 <text class="TextShape"><tspan class="TextParagraph" font-family="Liberation Sans, sans-serif" font-size="353px" font-weight="400"><tspan class="TextPosition" x="8265" y="25389"><tspan fill="rgb(0,0,0)" stroke="none">600kHz</tspan></tspan></tspan></text>
 <text class="TextShape"><tspan class="TextParagraph" font-family="Liberation Sans, sans-serif" font-size="353px" font-weight="400"><tspan class="TextPosition" x="10148" y="25389"><tspan fill="rgb(0,0,0)" stroke="none">1200kHz</tspan></tspan></tspan></text>
 <text class="TextShape"><tspan class="TextParagraph" font-family="Liberation Sans, sans-serif" font-size="353px" font-weight="400"><tspan class="TextPosition" x="12123" y="25389"><tspan fill="rgb(0,0,0)" stroke="none">2400kHz</tspan></tspan></tspan></text>
 <text class="TextShape"><tspan class="TextParagraph" font-family="Liberation Sans, sans-serif" font-size="353px" font-weight="400"><tspan class="TextPosition" x="14098" y="25389"><tspan fill="rgb(0,0,0)" stroke="none">4800kHz</tspan></tspan></tspan></text>
 <text class="TextShape"><tspan class="TextParagraph" font-family="Liberation Sans, sans-serif" font-size="353px" font-weight="400"><tspan class="TextPosition" x="16206" y="25389"><tspan fill="rgb(0,0,0)" stroke="none">10MHz</tspan></tspan></tspan></text>
 <text class="TextShape"><tspan class="TextParagraph" font-family="Liberation Sans, sans-serif" font-size="353px" font-weight="400"><tspan class="TextPosition" x="18181" y="25389"><tspan fill="rgb(0,0,0)" stroke="none">20MHz</tspan></tspan></tspan></text>
 <text class="TextShape"><tspan class="TextParagraph" font-family="Liberation Sans, sans-serif" font-size="353px" font-weight="400"><tspan class="TextPosition" x="20156" y="25389"><tspan fill="rgb(0,0,0)" stroke="none">40MHz</tspan></tspan></tspan></text>
 <text class="TextShape"><tspan class="TextParagraph" font-family="Liberation Sans, sans-serif" font-size="353px" font-weight="400"><tspan class="TextPosition" x="22132" y="25389"><tspan fill="rgb(0,0,0)" stroke="none">80MHz</tspan></tspan></tspan></text>
 <text class="TextShape"><tspan class="TextParagraph" font-family="Liberation Sans, sans-serif" font-size="353px" font-weight="400"><tspan class="TextPosition" x="2487" y="24942"><tspan fill="rgb(0,0,0)" stroke="none">0</tspan></tspan></tspan></text>
 <text class="TextShape"><tspan class="TextParagraph" font-family="Liberation Sans, sans-serif" font-size="353px" font-weight="400"><tspan class="TextPosition" x="1746" y="21709"><tspan fill="rgb(0,0,0)" stroke="none">50000</tspan></tspan></tspan></text>
 <text class="TextShape"><tspan class="TextParagraph" font-family="Liberation Sans, sans-serif" font-size="353px" font-weight="400"><tspan class="TextPosition" x="1561" y="18476"><tspan fill="rgb(0,0,0)" stroke="none">100000</tspan></tspan></tspan></text>
 <text class="TextShape"><tspan class="TextParagraph" font-family="Liberation Sans, sans-serif" font-size="353px" font-weight="400"><tspan class="TextPosition" x="1561" y="15243"><tspan fill="rgb(0,0,0)" stroke="none">150000</tspan></tspan></tspan></text>
 <text class="TextShape"><tspan class="TextParagraph" font-family="Liberation Sans, sans-serif" font-size="353px" font-weight="400"><tspan class="TextPosition" x="1561" y="12010"><tspan fill="rgb(0,0,0)" stroke="none">200000</tspan></tspan></tspan></text>
 <text class="TextShape"><tspan class="TextParagraph" font-family="Liberation Sans, sans-serif" font-size="353px" font-weight="400"><tspan class="TextPosition" x="1561" y="8777"><tspan fill="rgb(0,0,0)" stroke="none">250000</tspan></tspan></tspan></text>
 <text class="TextShape"><tspan class="TextParagraph" font-family="Liberation Sans, sans-serif" font-size="353px" font-weight="400"><tspan class="TextPosition" x="1561" y="5544"><tspan fill="rgb(0,0,0)" stroke="none">300000</tspan></tspan></tspan></text>
 <text class="TextShape"><tspan class="TextParagraph" font-family="Liberation Sans, sans-serif" font-size="353px" font-weight="400"><tspan class="TextPosition" x="1561" y="2311"><tspan fill="rgb(0,0,0)" stroke="none">350000</tspan></tspan></tspan></text>
 <text class="TextShape"><tspan class="TextParagraph" font-family="Liberation Sans, sans-serif" font-size="459px" font-weight="400"><tspan class="TextPosition" x="12727" y="1210"><tspan fill="rgb(0,0,0)" stroke="none">SWD read</tspan></tspan></tspan></text>
 <path fill="none" stroke="rgb(0,69,134)" stroke-width="80" stroke-linejoin="round" d="M 23883,11502 L 24683,11502"/>
 <path fill="rgb(0,69,134)" stroke="none" d="M 24177,11397 L 24177,11608 24388,11608 24388,11397 24177,11397 Z"/>
 <path fill="none" stroke="rgb(0,69,134)" stroke-linejoin="round" d="M 24177,11397 L 24177,11608 24388,11608 24388,11397 24177,11397 Z"/>
 <path fill="none" stroke="rgb(255,66,14)" stroke-width="80" stroke-linejoin="round" d="M 23883,12000 L 24683,12000"/>
 <path fill="rgb(255,66,14)" stroke="none" d="M 24177,12000 L 24283,12106 24388,12000 24283,11895 24177,12000 Z"/>
 <path fill="none" stroke="rgb(255,66,14)" stroke-linejoin="round" d="M 24177,12000 L 24283,12106 24388,12000 24283,11895 24177,12000 Z"/>
 <path fill="none" stroke="rgb(255,211,32)" stroke-width="80" stroke-linejoin="round" d="M 23883,12498 L 24683,12498"/>
 <path fill="rgb(255,211,32)" stroke="none" d="M 24177,12393 L 24283,12604 24388,12393 24177,12393 Z"/>
 <path fill="none" stroke="rgb(255,211,32)" stroke-linejoin="round" d="M 24177,12393 L 24283,12604 24388,12393 24177,12393 Z"/>
 <path fill="none" stroke="rgb(87,157,28)" stroke-width="80" stroke-linejoin="round" d="M 23883,12996 L 24683,12996"/>
 <path fill="rgb(87,157,28)" stroke="none" d="M 24177,13102 L 24388,13102 24283,12891 24177,13102 Z"/>
 <path fill="none" stroke="rgb(87,157,28)" stroke-linejoin="round" d="M 24177,13102 L 24388,13102 24283,12891 24177,13102 Z"/>
 <path fill="none" stroke="rgb(126,0,33)" stroke-width="80" stroke-linejoin="round" d="M 23883,13494 L 24683,13494"/>
 <path fill="rgb(126,0,33)" stroke="none" d="M 24177,13389 L 24177,13599 24388,13494 24177,13389 Z"/>
 <path fill="none" stroke="rgb(126,0,33)" stroke-linejoin="round" d="M 24177,13389 L 24177,13599 24388,13494 24177,13389 Z"/>
 <path fill="none" stroke="rgb(131,202,255)" stroke-width="80" stroke-linejoin="round" d="M 23883,13991 L 24683,13991"/>
 <path fill="rgb(131,202,255)" stroke="none" d="M 24177,13991 L 24388,14097 24388,13886 24177,13991 Z"/>
 <path fill="none" stroke="rgb(131,202,255)" stroke-linejoin="round" d="M 24177,13991 L 24388,14097 24388,13886 24177,13991 Z"/>
 <path fill="none" stroke="rgb(49,64,4)" stroke-width="80" stroke-linejoin="round" d="M 23883,14489 L 24683,14489"/>
 <path fill="rgb(49,64,4)" stroke="none" d="M 24177,14384 L 24177,14595 24388,14384 24388,14595 24177,14384 Z"/>
 <path fill="none" stroke="rgb(49,64,4)" stroke-linejoin="round" d="M 24177,14384 L 24177,14595 24388,14384 24388,14595 24177,14384 Z"/>
 <path fill="none" stroke="rgb(174,207,0)" stroke-width="80" stroke-linejoin="round" d="M 23883,14987 L 24683,14987"/>
 <path fill="rgb(174,207,0)" stroke="none" d="M 24177,15093 L 24388,15093 24177,14882 24388,14882 24177,15093 Z"/>
 <path fill="none" stroke="rgb(174,207,0)" stroke-linejoin="round" d="M 24177,15093 L 24388,15093 24177,14882 24388,14882 24177,15093 Z"/>
 <path fill="none" stroke="rgb(75,31,111)" stroke-width="80" stroke-linejoin="round" d="M 23883,15485 L 24683,15485"/>
 <path fill="rgb(75,31,111)" stroke="none" d="M 24388,15485 L 24388,15480 24388,15476 24387,15471 24386,15467 24385,15462 24384,15458 24383,15453 24382,15449 24380,15445 24378,15440 24376,15436 24374,15432 24371,15428 24369,15424 24366,15421 24363,15417 24360,15414 24357,15410 24354,15407 24350,15404 24347,15401 24343,15399 24339,15396 24335,15394 24331,15391 24327,15389 24323,15388 24319,15386 24314,15384 24310,15383 24305,15382 24301,15381 24296,15380 24292,15380 24287,15380 24283,15380 24278,15380 24273,15380 24269,15380 24264,15381 24260,15382 24255,15383 24251,15384 24246,15386 24242,15388 24238,15389 24234,15391 24230,15394 24226,15396 24222,15399 24218,15401 24215,15404 24211,15407 24208,15410 24205,15414 24202,15417 24199,15421 24196,15424 24194,15428 24191,15432 24189,15436 24187,15440 24185,15445 24183,15449 24182,15453 24181,15458 24180,15462 24179,15467 24178,15471 24177,15476 24177,15480 24177,15485 24177,15490 24177,15494 24178,15499 24179,15503 24180,15508 24181,15512 24182,15517 24183,15521 24185,15525 24187,15530 24189,15534 24191,15538 24194,15542 24196,15546 24199,15549 24202,15553 24205,15556 24208,15560 24211,15563 24215,15566 24218,15569 24222,15571 24226,15574 24230,15576 24234,15579 24238,15581 24242,15582 24246,15584 24251,15586 24255,15587 24260,15588 24264,15589 24269,15590 24273,15590 24278,15590 24283,15591 24287,15590 24292,15590 24296,15590 24301,15589 24305,15588 24310,15587 24314,15586 24319,15584 24323,15582 24327,15581 24331,15579 24335,15576 24339,15574 24343,15571 24347,15569 24350,15566 24354,15563 24357,15560 24360,15556 24363,15553 24366,15549 24369,15546 24371,15542 24374,15538 24376,15534 24378,15530 24380,15525 24382,15521 24383,15517 24384,15512 24385,15508 24386,15503 24387,15499 24388,15494 24388,15490 24388,15485 Z"/>
 <path fill="none" stroke="rgb(75,31,111)" stroke-linejoin="round" d="M 24388,15485 L 24388,15480 24388,15476 24387,15471 24386,15467 24385,15462 24384,15458 24383,15453 24382,15449 24380,15445 24378,15440 24376,15436 24374,15432 24371,15428 24369,15424 24366,15421 24363,15417 24360,15414 24357,15410 24354,15407 24350,15404 24347,15401 24343,15399 24339,15396 24335,15394 24331,15391 24327,15389 24323,15388 24319,15386 24314,15384 24310,15383 24305,15382 24301,15381 24296,15380 24292,15380 24287,15380 24283,15380 24278,15380 24273,15380 24269,15380 24264,15381 24260,15382 24255,15383 24251,15384 24246,15386 24242,15388 24238,15389 24234,15391 24230,15394 24226,15396 24222,15399 24218,15401 24215,15404 24211,15407 24208,15410 24205,15414 24202,15417 24199,15421 24196,15424 24194,15428 24191,15432 24189,15436 24187,15440 24185,15445 24183,15449 24182,15453 24181,15458 24180,15462 24179,15467 24178,15471 24177,15476 24177,15480 24177,15485 24177,15490 24177,15494 24178,15499 24179,15503 24180,15508 24181,15512 24182,15517 24183,15521 24185,15525 24187,15530 24189,15534 24191,15538 24194,15542 24196,15546 24199,15549 24202,15553 24205,15556 24208,15560 24211,15563 24215,15566 24218,15569 24222,15571 24226,15574 24230,15576 24234,15579 24238,15581 24242,15582 24246,15584 24251,15586 24255,15587 24260,15588 24264,15589 24269,15590 24273,15590 24278,15590 24283,15591 24287,15590 24292,15590 24296,15590 24301,15589 24305,15588 24310,15587 24314,15586 24319,15584 24323,15582 24327,15581 24331,15579 24335,15576 24339,15574 24343,15571 24347,15569 24350,15566 24354,15563 24357,15560 24360,15556 24363,15553 24366,15549 24369,15546 24371,15542 24374,15538 24376,15534 24378,15530 24380,15525 24382,15521 24383,15517 24384,15512 24385,15508 24386,15503 24387,15499 24388,15494 24388,15490 24388,15485 Z"/>
 <text class="TextShape"><tspan class="TextParagraph" font-family="Liberation Sans, sans-serif" font-size="353px" font-weight="400"><tspan class="TextPosition" x="24783" y="11622"><tspan fill="rgb(0,0,0)" stroke="none">hsprobe</tspan></tspan></tspan></text>
 <text class="TextShape"><tspan class="TextParagraph" font-family="Liberation Sans, sans-serif" font-size="353px" font-weight="400"><tspan class="TextPosition" x="24783" y="12120"><tspan fill="rgb(0,0,0)" stroke="none">lpclink2</tspan></tspan></tspan></text>
 <text class="TextShape"><tspan class="TextParagraph" font-family="Liberation Sans, sans-serif" font-size="353px" font-weight="400"><tspan class="TextPosition" x="24783" y="12618"><tspan fill="rgb(0,0,0)" stroke="none">mculink</tspan></tspan></tspan></text>
 <text class="TextShape"><tspan class="TextParagraph" font-family="Liberation Sans, sans-serif" font-size="353px" font-weight="400"><tspan class="TextPosition" x="24783" y="13116"><tspan fill="rgb(0,0,0)" stroke="none">mculink-daplink</tspan></tspan></tspan></text>
 <text class="TextShape"><tspan class="TextParagraph" font-family="Liberation Sans, sans-serif" font-size="353px" font-weight="400"><tspan class="TextPosition" x="24783" y="13613"><tspan fill="rgb(0,0,0)" stroke="none">usbc-pill</tspan></tspan></tspan></text>
 <text class="TextShape"><tspan class="TextParagraph" font-family="Liberation Sans, sans-serif" font-size="353px" font-weight="400"><tspan class="TextPosition" x="24783" y="14111"><tspan fill="rgb(0,0,0)" stroke="none">rustyprobe</tspan></tspan></tspan></text>
 <text class="TextShape"><tspan class="TextParagraph" font-family="Liberation Sans, sans-serif" font-size="353px" font-weight="400"><tspan class="TextPosition" x="24783" y="14609"><tspan fill="rgb(0,0,0)" stroke="none">dappermime</tspan></tspan></tspan></text>
 <text class="TextShape"><tspan class="TextParagraph" font-family="Liberation Sans, sans-serif" font-size="353px" font-weight="400"><tspan class="TextPosition" x="24783" y="15107"><tspan fill="rgb(0,0,0)" stroke="none">dap42</tspan></tspan></tspan></text>
 <text class="TextShape"><tspan class="TextParagraph" font-family="Liberation Sans, sans-serif" font-size="353px" font-weight="400"><tspan class="TextPosition" x="24783" y="15605"><tspan fill="rgb(0,0,0)" stroke="none">microbit_v2</tspan></tspan></tspan></text>
 <text class="TextShape"><tspan class="TextParagraph" font-family="Liberation Sans, sans-serif" font-size="318px" font-weight="400"><tspan class="TextPosition" x="11264" y="26395"><tspan fill="rgb(0,0,0)" stroke="none">SWD frequency</tspan></tspan></tspan></text>
 <text class="TextShape" transform="rotate(-90 837 14246)"><tspan class="TextParagraph" font-family="Liberation Sans, sans-serif" font-size="318px" font-weight="400"><tspan class="TextPosition" x="837" y="14246"><tspan fill="rgb(0,0,0)" stroke="none">Bytes/s</tspan></tspan></tspan></text>
</svg>