<?xml version="1.0" encoding="UTF-8"?>
<!DOCTYPE svg PUBLIC "-//W3C//DTD SVG 1.1//EN" "http://www.w3.org/Graphics/SVG/1.1/DTD/svg11.dtd">
<svg width="268mm" height="270mm" viewBox="0 0 26800 27000" version="1.1" xmlns="http://www.w3.org/2000/svg" xmlns:xlink="http://www.w3.org/1999/xlink" stroke-width="28.222" stroke-linejoin="round" xml:space="preserve">
 <path fill="rgb(255,255,255)" stroke="none" d="M 13376,27024 L 0,27024 0,0 26751,0 26751,27024 13376,27024 Z"/>
 <path fill="none" stroke="rgb(179,179,179)" stroke-linejoin="round" d="M 12970,24856 L 2908,24856 2908,2194 23032,2194 23032,24856 12970,24856 Z"/>
 <path fill="none" stroke="rgb(179,179,179)" stroke-linejoin="round" d="M 23032,24855 L 2908,24855"/>
 <path fill="none" stroke="rgb(179,179,179)" stroke-linejoin="round" d="M 23032,22336 L 2908,22336"/>
 <path fill="none" stroke="rgb(179,179,179)" stroke-linejoin="round" d="M 23032,19818 L 2908,19818"/>
 <path fill="none" stroke="rgb(179,179,179)" stroke-linejoin="round" d="M 23032,17300 L 2908,17300"/>
 <path fill="none" stroke="rgb(179,179,179)" stroke-linejoin="round" d="M 23032,14782 L 2908,14782"/>
 <path fill="none" stroke="rgb(179,179,179)" stroke-linejoin="round" d="M 23032,12265 L 2908,12265"/>
 <path fill="none" stroke="rgb(179,179,179)" stroke-linejoin="round" d="M 23032,9747 L 2908,9747"/>
 <path fill="none" stroke="rgb(179,179,179)" stroke-linejoin="round" d="M 23032,7229 L 2908,7229"/>
 <path fill="none" stroke="rgb(179,179,179)" stroke-linejoin="round" d="M 23032,4711 L 2908,4711"/>
 <path fill="none" stroke="rgb(179,179,179)" stroke-linejoin="round" d="M 23032,2192 L 2908,2192"/>
 <path fill="none" stroke="rgb(179,179,179)" stroke-linejoin="round" d="M 2908,25005 L 2908,24855"/>
 <path fill="none" stroke="rgb(179,179,179)" stroke-linejoin="round" d="M 2908,25005 L 2908,24855"/>
 <path fill="none" stroke="rgb(179,179,179)" stroke-linejoin="round" d="M 4920,25005 L 4920,24855"/>
 <path fill="none" stroke="rgb(179,179,179)" stroke-linejoin="round" d="M 4920,25005 L 4920,24855"/>
 <path fill="none" stroke="rgb(179,179,179)" stroke-linejoin="round" d="M 6933,25005 L 6933,24855"/>
 <path fill="none" stroke="rgb(179,179,179)" stroke-linejoin="round" d="M 6933,25005 L 6933,24855"/>
 <path fill="none" stroke="rgb(179,179,179)" stroke-linejoin="round" d="M 8945,25005 L 8945,24855"/>
 <path fill="none" stroke="rgb(179,179,179)" stroke-linejoin="round" d="M 8945,25005 L 8945,24855"/>
 <path fill="none" stroke="rgb(179,179,179)" stroke-linejoin="round" d="M 10958,25005 L 10958,24855"/>
 <path fill="none" stroke="rgb(179,179,179)" stroke-linejoin="round" d="M 10958,25005 L 10958,24855"/>
 <path fill="none" stroke="rgb(179,179,179)" stroke-linejoin="round" d="M 12970,25005 L 12970,24855"/>
 <path fill="none" stroke="rgb(179,179,179)" stroke-linejoin="round" d="M 12970,25005 L 12970,24855"/>
 <path fill="none" stroke="rgb(179,179,179)" stroke-linejoin="round" d="M 14982,25005 L 14982,24855"/>
 <path fill="none" stroke="rgb(179,179,179)" stroke-linejoin="round" d="M 14982,25005 L 14982,24855"/>
 <path fill="none" stroke="rgb(179,179,179)" stroke-linejoin="round" d="M 16994,25005 L 16994,24855"/>
 <path fill="none" stroke="rgb(179,179,179)" stroke-linejoin="round" d="M 16994,25005 L 16994,24855"/>
 <path fill="none" stroke="rgb(179,179,179)" stroke-linejoin="round" d="M 19007,25005 L 19007,24855"/>
 <path fill="none" stroke="rgb(179,179,179)" stroke-linejoin="round" d="M 19007,25005 L 19007,24855"/>
 <path fill="none" stroke="rgb(179,179,179)" stroke-linejoin="round" d="M 21019,25005 L 21019,24855"/>
 <path fill="none" stroke="rgb(179,179,179)" stroke-linejoin="round" d="M 21019,25005 L 21019,24855"/>
 <path fill="none" stroke="rgb(179,179,179)" stroke-linejoin="round" d="M 23032,25005 L 23032,24855"/>
 <path fill="none" stroke="rgb(179,179,179)" stroke-linejoin="round" d="M 23032,25005 L 23032,24855"/>
 <path fill="none" stroke="rgb(179,179,179)" stroke-linejoin="round" d="M 2908,24855 L 23032,24855"/>
 <path fill="none" stroke="rgb(179,179,179)" stroke-linejoin="round" d="M 2758,24855 L 2908,24855"/>
 <path fill="none" stroke="rgb(179,179,179)" stroke-linejoin="round" d="M 2758,24855 L 2908,24855"/>
 <path fill="none" stroke="rgb(179,179,179)" stroke-linejoin="round" d="M 2758,22336 L 2908,22336"/>
 <path fill="none" stroke="rgb(179,179,179)" stroke-linejoin="round" d="M 2758,22336 L 2908,22336"/>
 <path fill="none" stroke="rgb(179,179,179)" stroke-linejoin="round" d="M 2758,19818 L 2908,19818"/>
 <path fill="none" stroke="rgb(179,179,179)" stroke-linejoin="round" d="M 2758,19818 L 2908,19818"/>
 <path fill="none" stroke="rgb(179,179,179)" stroke-linejoin="round" d="M 2758,17300 L 2908,17300"/>
 <path fill="none" stroke="rgb(179,179,179)" stroke-linejoin="round" d="M 2758,17300 L 2908,17300"/>
 <path fill="none" stroke="rgb(179,179,179)" stroke-linejoin="round" d="M 2758,14782 L 2908,14782"/>
 <path fill="none" stroke="rgb(179,179,179)" stroke-linejoin="round" d="M 2758,14782 L 2908,14782"/>
 <path fill="none" stroke="rgb(179,179,179)" stroke-linejoin="round" d="M 2758,12265 L 2908,12265"/>
 <path fill="none" stroke="rgb(179,179,179)" stroke-linejoin="round" d="M 2758,12265 L 2908,12265"/>
 <path fill="none" stroke="rgb(179,179,179)" stroke-linejoin="round" d="M 2758,9747 L 2908,9747"/>
 <path fill="none" stroke="rgb(179,179,179)" stroke-linejoin="round" d="M 2758,9747 L 2908,9747"/>
 <path fill="none" stroke="rgb(179,179,179)" stroke-linejoin="round" d="M 2758,7229 L 2908,7229"/>
 <path fill="none" stroke="rgb(179,179,179)" stroke-linejoin="round" d="M 2758,7229 L 2908,7229"/>
 <path fill="none" stroke="rgb(179,179,179)" stroke-linejoin="round" d="M 2758,4711 L 2908,4711"/>
 <path fill="none" stroke="rgb(179,179,179)" stroke-linejoin="round" d="M 2758,4711 L 2908,4711"/>
 <path fill="none" stroke="rgb(179,179,179)" stroke-linejoin="round" d="M 2758,2193 L 2908,2193"/>
 <path fill="none" stroke="rgb(179,179,179)" stroke-linejoin="round" d="M 2758,2193 L 2908,2193"/>
 <path fill="none" stroke="rgb(179,179,179)" stroke-linejoin="round" d="M 2908,24855 L 2908,2192"/>
 <path fill="none" stroke="rgb(0,69,134)" stroke-width="80" stroke-linejoin="round" d="M 6933,24340 L 8945,23867 10958,22915 12970,21708 14982,20310 16994,18955 19007,17963 21019,17373 23032,17399"/>
 <path fill="rgb(0,69,134)" stroke="none" d="M 6808,24215 L 6808,24465 7058,24465 7058,24215 6808,24215 Z"/>
 <path fill="none" stroke="rgb(0,69,134)" stroke-linejoin="round" d="M 6808,24215 L 6808,24465 7058,24465 7058,24215 6808,24215 Z"/>
 <path fill="rgb(0,69,134)" stroke="none" d="M 8820,23742 L 8820,23992 9070,23992 9070,23742 8820,23742 Z"/>
 <path fill="none" stroke="rgb(0,69,134)" stroke-linejoin="round" d="M 8820,23742 L 8820,23992 9070,23992 9070,23742 8820,23742 Z"/>
 <path fill="rgb(0,69,134)" stroke="none" d="M 10833,22790 L 10833,23040 11083,23040 11083,22790 10833,22790 Z"/>
 <path fill="none" stroke="rgb(0,69,134)" stroke-linejoin="round" d="M 10833,22790 L 10833,23040 11083,23040 11083,22790 10833,22790 Z"/>
 <path fill="rgb(0,69,134)" stroke="none" d="M 12845,21583 L 12845,21833 13095,21833 13095,21583 12845,21583 Z"/>
 <path fill="none" stroke="rgb(0,69,134)" stroke-linejoin="round" d="M 12845,21583 L 12845,21833 13095,21833 13095,21583 12845,21583 Z"/>
 <path fill="rgb(0,69,134)" stroke="none" d="M 14857,20185 L 14857,20435 15107,20435 15107,20185 14857,20185 Z"/>
 <path fill="none" stroke="rgb(0,69,134)" stroke-linejoin="round" d="M 14857,20185 L 14857,20435 15107,20435 15107,20185 14857,20185 Z"/>
 <path fill="rgb(0,69,134)" stroke="none" d="M 16869,18830 L 16869,19080 17119,19080 17119,18830 16869,18830 Z"/>
 <path fill="none" stroke="rgb(0,69,134)" stroke-linejoin="round" d="M 16869,18830 L 16869,19080 17119,19080 17119,18830 16869,18830 Z"/>
 <path fill="rgb(0,69,134)" stroke="none" d="M 18882,17838 L 18882,18088 19132,18088 19132,17838 18882,17838 Z"/>
 <path fill="none" stroke="rgb(0,69,134)" stroke-linejoin="round" d="M 18882,17838 L 18882,18088 19132,18088 19132,17838 18882,17838 Z"/>
 <path fill="rgb(0,69,134)" stroke="none" d="M 20894,17248 L 20894,17498 21144,17498 21144,17248 20894,17248 Z"/>
 <path fill="none" stroke="rgb(0,69,134)" stroke-linejoin="round" d="M 20894,17248 L 20894,17498 21144,17498 21144,17248 20894,17248 Z"/>
 <path fill="rgb(0,69,134)" stroke="none" d="M 22907,17274 L 22907,17524 23157,17524 23157,17274 22907,17274 Z"/>
 <path fill="none" stroke="rgb(0,69,134)" stroke-linejoin="round" d="M 22907,17274 L 22907,17524 23157,17524 23157,17274 22907,17274 Z"/>
 <path fill="none" stroke="rgb(255,66,14)" stroke-width="80" stroke-linejoin="round" d="M 2908,24657 L 4920,24477 6933,24311 8945,23887 10958,23175 12970,22419"/>
 <path fill="rgb(255,66,14)" stroke="none" d="M 2783,24657 L 2908,24782 3033,24657 2908,24532 2783,24657 Z"/>
 <path fill="none" stroke="rgb(255,66,14)" stroke-linejoin="round" d="M 2783,24657 L 2908,24782 3033,24657 2908,24532 2783,24657 Z"/>
 <path fill="rgb(255,66,14)" stroke="none" d="M 4795,24477 L 4920,24602 5045,24477 4920,24352 4795,24477 Z"/>
 <path fill="none" stroke="rgb(255,66,14)" stroke-linejoin="round" d="M 4795,24477 L 4920,24602 5045,24477 4920,24352 4795,24477 Z"/>
 <path fill="rgb(255,66,14)" stroke="none" d="M 6808,24311 L 6933,24436 7058,24311 6933,24186 6808,24311 Z"/>
 <path fill="none" stroke="rgb(255,66,14)" stroke-linejoin="round" d="M 6808,24311 L 6933,24436 7058,24311 6933,24186 6808,24311 Z"/>
 <path fill="rgb(255,66,14)" stroke="none" d="M 8820,23887 L 8945,24012 9070,23887 8945,23762 8820,23887 Z"/>
 <path fill="none" stroke="rgb(255,66,14)" stroke-linejoin="round" d="M 8820,23887 L 8945,24012 9070,23887 8945,23762 8820,23887 Z"/>
 <path fill="rgb(255,66,14)" stroke="none" d="M 10833,23175 L 10958,23300 11083,23175 10958,23050 10833,23175 Z"/>
 <path fill="none" stroke="rgb(255,66,14)" stroke-linejoin="round" d="M 10833,23175 L 10958,23300 11083,23175 10958,23050 10833,23175 Z"/>
 <path fill="rgb(255,66,14)" stroke="none" d="M 12845,22419 L 12970,22544 13095,22419 12970,22294 12845,22419 Z"/>
 <path fill="none" stroke="rgb(255,66,14)" stroke-linejoin="round" d="M 12845,22419 L 12970,22544 13095,22419 12970,22294 12845,22419 Z"/>
 <path fill="none" stroke="rgb(255,211,32)" stroke-width="80" stroke-linejoin="round" d="M 2908,24653 L 4920,24542 6933,24357 8945,23912 10958,22709 12970,22079 14982,20318 16994,20319 19007,20324 21019,20323 23032,20322"/>
 <path fill="rgb(255,211,32)" stroke="none" d="M 2783,24528 L 2908,24778 3033,24528 2783,24528 Z"/>
 <path fill="none" stroke="rgb(255,211,32)" stroke-linejoin="round" d="M 2783,24528 L 2908,24778 3033,24528 2783,24528 Z"/>
 <path fill="rgb(255,211,32)" stroke="none" d="M 4795,24417 L 4920,24667 5045,24417 4795,24417 Z"/>
 <path fill="none" stroke="rgb(255,211,32)" stroke-linejoin="round" d="M 4795,24417 L 4920,24667 5045,24417 4795,24417 Z"/>
 <path fill="rgb(255,211,32)" stroke="none" d="M 6808,24232 L 6933,24482 7058,24232 6808,24232 Z"/>
 <path fill="none" stroke="rgb(255,211,32)" stroke-linejoin="round" d="M 6808,24232 L 6933,24482 7058,24232 6808,24232 Z"/>
 <path fill="rgb(255,211,32)" stroke="none" d="M 8820,23787 L 8945,24037 9070,23787 8820,23787 Z"/>
 <path fill="none" stroke="rgb(255,211,32)" stroke-linejoin="round" d="M 8820,23787 L 8945,24037 9070,23787 8820,23787 Z"/>
 <path fill="rgb(255,211,32)" stroke="none" d="M 10833,22584 L 10958,22834 11083,22584 10833,22584 Z"/>
 <path fill="none" stroke="rgb(255,211,32)" stroke-linejoin="round" d="M 10833,22584 L 10958,22834 11083,22584 10833,22584 Z"/>
 <path fill="rgb(255,211,32)" stroke="none" d="M 12845,21954 L 12970,22204 13095,21954 12845,21954 Z"/>
 <path fill="none" stroke="rgb(255,211,32)" stroke-linejoin="round" d="M 12845,21954 L 12970,22204 13095,21954 12845,21954 Z"/>
 <path fill="rgb(255,211,32)" stroke="none" d="M 14857,20193 L 14982,20443 15107,20193 14857,20193 Z"/>
 <path fill="none" stroke="rgb(255,211,32)" stroke-linejoin="round" d="M 14857,20193 L 14982,20443 15107,20193 14857,20193 Z"/>
 <path fill="rgb(255,211,32)" stroke="none" d="M 16869,20194 L 16994,20444 17119,20194 16869,20194 Z"/>
 <path fill="none" stroke="rgb(255,211,32)" stroke-linejoin="round" d="M 16869,20194 L 16994,20444 17119,20194 16869,20194 Z"/>
 <path fill="rgb(255,211,32)" stroke="none" d="M 18882,20199 L 19007,20449 19132,20199 18882,20199 Z"/>
 <path fill="none" stroke="rgb(255,211,32)" stroke-linejoin="round" d="M 18882,20199 L 19007,20449 19132,20199 18882,20199 Z"/>
 <path fill="rgb(255,211,32)" stroke="none" d="M 20894,20198 L 21019,20448 21144,20198 20894,20198 Z"/>
 <path fill="none" stroke="rgb(255,211,32)" stroke-linejoin="round" d="M 20894,20198 L 21019,20448 21144,20198 20894,20198 Z"/>
 <path fill="rgb(255,211,32)" stroke="none" d="M 22907,20197 L 23032,20447 23157,20197 22907,20197 Z"/>
 <path fill="none" stroke="rgb(255,211,32)" stroke-linejoin="round" d="M 22907,20197 L 23032,20447 23157,20197 22907,20197 Z"/>
 <path fill="none" stroke="rgb(87,157,28)" stroke-width="80" stroke-linejoin="round" d="M 6933,24431 L 8945,24431 10958,22854 12970,22854 14982,18863 16994,13431 19007,13436 21019,5693 23032,5666"/>
 <path fill="rgb(87,157,28)" stroke="none" d="M 6808,24556 L 7058,24556 6933,24306 6808,24556 Z"/>
 <path fill="none" stroke="rgb(87,157,28)" stroke-linejoin="round" d="M 6808,24556 L 7058,24556 6933,24306 6808,24556 Z"/>
 <path fill="rgb(87,157,28)" stroke="none" d="M 8820,24556 L 9070,24556 8945,24306 8820,24556 Z"/>
 <path fill="none" stroke="rgb(87,157,28)" stroke-linejoin="round" d="M 8820,24556 L 9070,24556 8945,24306 8820,24556 Z"/>
 <path fill="rgb(87,157,28)" stroke="none" d="M 10833,22979 L 11083,22979 10958,22729 10833,22979 Z"/>
 <path fill="none" stroke="rgb(87,157,28)" stroke-linejoin="round" d="M 10833,22979 L 11083,22979 10958,22729 10833,22979 Z"/>
 <path fill="rgb(87,157,28)" stroke="none" d="M 12845,22979 L 13095,22979 12970,22729 12845,22979 Z"/>
 <path fill="none" stroke="rgb(87,157,28)" stroke-linejoin="round" d="M 12845,22979 L 13095,22979 12970,22729 12845,22979 Z"/>
 <path fill="rgb(87,157,28)" stroke="none" d="M 14857,18988 L 15107,18988 14982,18738 14857,18988 Z"/>
 <path fill="none" stroke="rgb(87,157,28)" stroke-linejoin="round" d="M 14857,18988 L 15107,18988 14982,18738 14857,18988 Z"/>
 <path fill="rgb(87,157,28)" stroke="none" d="M 16869,13555 L 17119,13555 16994,13306 16869,13555 Z"/>
 <path fill="none" stroke="rgb(87,157,28)" stroke-linejoin="round" d="M 16869,13555 L 17119,13555 16994,13306 16869,13555 Z"/>
 <path fill="rgb(87,157,28)" stroke="none" d="M 18882,13560 L 19132,13560 19007,13311 18882,13560 Z"/>
 <path fill="none" stroke="rgb(87,157,28)" stroke-linejoin="round" d="M 18882,13560 L 19132,13560 19007,13311 18882,13560 Z"/>
 <path fill="rgb(87,157,28)" stroke="none" d="M 20894,5818 L 21144,5818 21019,5568 20894,5818 Z"/>
 <path fill="none" stroke="rgb(87,157,28)" stroke-linejoin="round" d="M 20894,5818 L 21144,5818 21019,5568 20894,5818 Z"/>
 <path fill="rgb(87,157,28)" stroke="none" d="M 22907,5791 L 23157,5791 23032,5541 22907,5791 Z"/>
 <path fill="none" stroke="rgb(87,157,28)" stroke-linejoin="round" d="M 22907,5791 L 23157,5791 23032,5541 22907,5791 Z"/>
 <text class="TextShape"><tspan class="TextParagraph" font-family="Liberation Sans, sans-serif" font-size="353px" font-weight="400"><tspan class="TextPosition" x="2326" y="25423"><tspan fill="rgb(0,0,0)" stroke="none">100kHz</tspan></tspan></tspan></text>
 <text class="TextShape"><tspan class="TextParagraph" font-family="Liberation Sans, sans-serif" font-size="353px" font-weight="400"><tspan class="TextPosition" x="4338" y="25423"><tspan fill="rgb(0,0,0)" stroke="none">200kHz</tspan></tspan></tspan></text>
 <text class="TextShape"><tspan class="TextParagraph" font-family="Liberation Sans, sans-serif" font-size="353px" font-weight="400"><tspan class="TextPosition" x="6351" y="25423"><tspan fill="rgb(0,0,0)" stroke="none">300kHz</tspan></tspan></tspan></text>
 <text class="TextShape"><tspan class="TextParagraph" font-family="Liberation Sans, sans-serif" font-size="353px" font-weight="400"><tspan class="TextPosition" x="8363" y="25423"><tspan fill="rgb(0,0,0)" stroke="none">600kHz</tspan></tspan></tspan></text>
 <text class="TextShape"><tspan class="TextParagraph" font-family="Liberation Sans, sans-serif" font-size="353px" font-weight="400"><tspan class="TextPosition" x="10283" y="25423"><tspan fill="rgb(0,0,0)" stroke="none">1200kHz</tspan></tspan></tspan></text>
 <text class="TextShape"><tspan class="TextParagraph" font-family="Liberation Sans, sans-serif" font-size="353px" font-weight="400"><tspan class="TextPosition" x="12295" y="25423"><tspan fill="rgb(0,0,0)" stroke="none">2400kHz</tspan></tspan></tspan></text>
 <text class="TextShape"><tspan class="TextParagraph" font-family="Liberation Sans, sans-serif" font-size="353px" font-weight="400"><tspan class="TextPosition" x="14308" y="25423"><tspan fill="rgb(0,0,0)" stroke="none">4800kHz</tspan></tspan></tspan></text>
 <text class="TextShape"><tspan class="TextParagraph" font-family="Liberation Sans, sans-serif" font-size="353px" font-weight="400"><tspan class="TextPosition" x="16452" y="25423"><tspan fill="rgb(0,0,0)" stroke="none">10MHz</tspan></tspan></tspan></text>
 <text class="TextShape"><tspan class="TextParagraph" font-family="Liberation Sans, sans-serif" font-size="353px" font-weight="400"><tspan class="TextPosition" x="18465" y="25423"><tspan fill="rgb(0,0,0)" stroke="none">20MHz</tspan></tspan></tspan></text>
 <text class="TextShape"><tspan class="TextParagraph" font-family="Liberation Sans, sans-serif" font-size="353px" font-weight="400"><tspan class="TextPosition" x="20477" y="25423"><tspan fill="rgb(0,0,0)" stroke="none">40MHz</tspan></tspan></tspan></text>
 <text class="TextShape"><tspan class="TextParagraph" font-family="Liberation Sans, sans-serif" font-size="353px" font-weight="400"><tspan class="TextPosition" x="22490" y="25423"><tspan fill="rgb(0,0,0)" stroke="none">80MHz</tspan></tspan></tspan></text>
 <text class="TextShape"><tspan class="TextParagraph" font-family="Liberation Sans, sans-serif" font-size="353px" font-weight="400"><tspan class="TextPosition" x="2473" y="24976"><tspan fill="rgb(0,0,0)" stroke="none">0</tspan></tspan></tspan></text>
 <text class="TextShape"><tspan class="TextParagraph" font-family="Liberation Sans, sans-serif" font-size="353px" font-weight="400"><tspan class="TextPosition" x="1547" y="22457"><tspan fill="rgb(0,0,0)" stroke="none">100000</tspan></tspan></tspan></text>
 <text class="TextShape"><tspan class="TextParagraph" font-family="Liberation Sans, sans-serif" font-size="353px" font-weight="400"><tspan class="TextPosition" x="1547" y="19939"><tspan fill="rgb(0,0,0)" stroke="none">200000</tspan></tspan></tspan></text>
 <text class="TextShape"><tspan class="TextParagraph" font-family="Liberation Sans, sans-serif" font-size="353px" font-weight="400"><tspan class="TextPosition" x="1547" y="17421"><tspan fill="rgb(0,0,0)" stroke="none">300000</tspan></tspan></tspan></text>
 <text class="TextShape"><tspan class="TextParagraph" font-family="Liberation Sans, sans-serif" font-size="353px" font-weight="400"><tspan class="TextPosition" x="1547" y="14903"><tspan fill="rgb(0,0,0)" stroke="none">400000</tspan></tspan></tspan></text>
 <text class="TextShape"><tspan class="TextParagraph" font-family="Liberation Sans, sans-serif" font-size="353px" font-weight="400"><tspan class="TextPosition" x="1547" y="12385"><tspan fill="rgb(0,0,0)" stroke="none">500000</tspan></tspan></tspan></text>
 <text class="TextShape"><tspan class="TextParagraph" font-family="Liberation Sans, sans-serif" font-size="353px" font-weight="400"><tspan class="TextPosition" x="1547" y="9867"><tspan fill="rgb(0,0,0)" stroke="none">600000</tspan></tspan></tspan></text>
 <text class="TextShape"><tspan class="TextParagraph" font-family="Liberation Sans, sans-serif" font-size="353px" font-weight="400"><tspan class="TextPosition" x="1547" y="7349"><tspan fill="rgb(0,0,0)" stroke="none">700000</tspan></tspan></tspan></text>
 <text class="TextShape"><tspan class="TextParagraph" font-family="Liberation Sans, sans-serif" font-size="353px" font-weight="400"><tspan class="TextPosition" x="1547" y="4831"><tspan fill="rgb(0,0,0)" stroke="none">800000</tspan></tspan></tspan></text>
 <text class="TextShape"><tspan class="TextParagraph" font-family="Liberation Sans, sans-serif" font-size="353px" font-weight="400"><tspan class="TextPosition" x="1547" y="2313"><tspan fill="rgb(0,0,0)" stroke="none">900000</tspan></tspan></tspan></text>
 <text class="TextShape"><tspan class="TextParagraph" font-family="Liberation Sans, sans-serif" font-size="459px" font-weight="400"><tspan class="TextPosition" x="8931" y="1211"><tspan fill="rgb(0,0,0)" stroke="none">HS-Probe vs Non-CMSIS-DAP probes (read)</tspan></tspan></tspan></text>
 <path fill="none" stroke="rgb(0,69,134)" stroke-width="80" stroke-linejoin="round" d="M 24227,12764 L 25027,12764"/>
 <path fill="rgb(0,69,134)" stroke="none" d="M 24521,12659 L 24521,12870 24732,12870 24732,12659 24521,12659 Z"/>
 <path fill="none" stroke="rgb(0,69,134)" stroke-linejoin="round" d="M 24521,12659 L 24521,12870 24732,12870 24732,12659 24521,12659 Z"/>
 <path fill="none" stroke="rgb(255,66,14)" stroke-width="80" stroke-linejoin="round" d="M 24227,13262 L 25027,13262"/>
 <path fill="rgb(255,66,14)" stroke="none" d="M 24521,13262 L 24627,13368 24732,13262 24627,13157 24521,13262 Z"/>
 <path fill="none" stroke="rgb(255,66,14)" stroke-linejoin="round" d="M 24521,13262 L 24627,13368 24732,13262 24627,13157 24521,13262 Z"/>
 <path fill="none" stroke="rgb(255,211,32)" stroke-width="80" stroke-linejoin="round" d="M 24227,13759 L 25027,13759"/>
 <path fill="rgb(255,211,32)" stroke="none" d="M 24521,13654 L 24627,13865 24732,13654 24521,13654 Z"/>
 <path fill="none" stroke="rgb(255,211,32)" stroke-linejoin="round" d="M 24521,13654 L 24627,13865 24732,13654 24521,13654 Z"/>
 <path fill="none" stroke="rgb(87,157,28)" stroke-width="80" stroke-linejoin="round" d="M 24227,14257 L 25027,14257"/>
 <path fill="rgb(87,157,28)" stroke="none" d="M 24521,14363 L 24732,14363 24627,14152 24521,14363 Z"/>
 <path fill="none" stroke="rgb(87,157,28)" stroke-linejoin="round" d="M 24521,14363 L 24732,14363 24627,14152 24521,14363 Z"/>
 <text class="TextShape"><tspan class="TextParagraph" font-family="Liberation Sans, sans-serif" font-size="353px" font-weight="400"><tspan class="TextPosition" x="25127" y="12884"><tspan fill="rgb(0,0,0)" stroke="none">hsprobe</tspan></tspan></tspan></text>
 <text class="TextShape"><tspan class="TextParagraph" font-family="Liberation Sans, sans-serif" font-size="353px" font-weight="400"><tspan class="TextPosition" x="25127" y="13382"><tspan fill="rgb(0,0,0)" stroke="none">jlink</tspan></tspan></tspan></text>
 <text class="TextShape"><tspan class="TextParagraph" font-family="Liberation Sans, sans-serif" font-size="353px" font-weight="400"><tspan class="TextPosition" x="25127" y="13879"><tspan fill="rgb(0,0,0)" stroke="none">stlink v2</tspan></tspan></tspan></text>
 <text class="TextShape"><tspan class="TextParagraph" font-family="Liberation Sans, sans-serif" font-size="353px" font-weight="400"><tspan class="TextPosition" x="25127" y="14377"><tspan fill="rgb(0,0,0)" stroke="none">stlink v3</tspan></tspan></tspan></text>
 <text class="TextShape"><tspan class="TextParagraph" font-family="Liberation Sans, sans-serif" font-size="318px" font-weight="400"><tspan class="TextPosition" x="11383" y="26430"><tspan fill="rgb(0,0,0)" stroke="none">SWD Frequency</tspan></tspan></tspan></text>
 <text class="TextShape" transform="rotate(-90 837 15971)"><tspan class="TextParagraph" font-family="Liberation Sans, sans-serif" font-size="318px" font-weight="400"><tspan class="TextPosition" x="837" y="15971"><tspan fill="rgb(0,0,0)" stroke="none">Throughput (Bytes per second)</tspan></tspan></tspan></text>
</svg>