<?xml version="1.0" encoding="UTF-8"?>
<!DOCTYPE svg PUBLIC "-//W3C//DTD SVG 1.1//EN" "http://www.w3.org/Graphics/SVG/1.1/DTD/svg11.dtd">
<svg width="269mm" height="269mm" viewBox="0 0 26900 26900" version="1.1" xmlns="http://www.w3.org/2000/svg" xmlns:xlink="http://www.w3.org/1999/xlink" stroke-width="28.222" stroke-linejoin="round" xml:space="preserve">
 <path fill="rgb(255,255,255)" stroke="none" d="M 13427,26919 L 0,26919 0,0 26854,0 26854,26919 13427,26919 Z"/>
 <path fill="none" stroke="rgb(179,179,179)" stroke-linejoin="round" d="M 12631,24753 L 2725,24753 2725,2190 22537,2190 22537,24753 12631,24753 Z"/>
 <path fill="none" stroke="rgb(179,179,179)" stroke-linejoin="round" d="M 22537,24752 L 2725,24752"/>
 <path fill="none" stroke="rgb(179,179,179)" stroke-linejoin="round" d="M 22537,20991 L 2725,20991"/>
 <path fill="none" stroke="rgb(179,179,179)" stroke-linejoin="round" d="M 22537,17230 L 2725,17230"/>
 <path fill="none" stroke="rgb(179,179,179)" stroke-linejoin="round" d="M 22537,13470 L 2725,13470"/>
 <path fill="none" stroke="rgb(179,179,179)" stroke-linejoin="round" d="M 22537,9710 L 2725,9710"/>
 <path fill="none" stroke="rgb(179,179,179)" stroke-linejoin="round" d="M 22537,5949 L 2725,5949"/>
 <path fill="none" stroke="rgb(179,179,179)" stroke-linejoin="round" d="M 22537,2189 L 2725,2189"/>
 <path fill="none" stroke="rgb(179,179,179)" stroke-linejoin="round" d="M 2725,24902 L 2725,24752"/>
 <path fill="none" stroke="rgb(179,179,179)" stroke-linejoin="round" d="M 2725,24902 L 2725,24752"/>
 <path fill="none" stroke="rgb(179,179,179)" stroke-linejoin="round" d="M 6027,24902 L 6027,24752"/>
 <path fill="none" stroke="rgb(179,179,179)" stroke-linejoin="round" d="M 6027,24902 L 6027,24752"/>
 <path fill="none" stroke="rgb(179,179,179)" stroke-linejoin="round" d="M 9329,24902 L 9329,24752"/>
 <path fill="none" stroke="rgb(179,179,179)" stroke-linejoin="round" d="M 9329,24902 L 9329,24752"/>
 <path fill="none" stroke="rgb(179,179,179)" stroke-linejoin="round" d="M 12631,24902 L 12631,24752"/>
 <path fill="none" stroke="rgb(179,179,179)" stroke-linejoin="round" d="M 12631,24902 L 12631,24752"/>
 <path fill="none" stroke="rgb(179,179,179)" stroke-linejoin="round" d="M 15932,24902 L 15932,24752"/>
 <path fill="none" stroke="rgb(179,179,179)" stroke-linejoin="round" d="M 15932,24902 L 15932,24752"/>
 <path fill="none" stroke="rgb(179,179,179)" stroke-linejoin="round" d="M 19234,24902 L 19234,24752"/>
 <path fill="none" stroke="rgb(179,179,179)" stroke-linejoin="round" d="M 19234,24902 L 19234,24752"/>
 <path fill="none" stroke="rgb(179,179,179)" stroke-linejoin="round" d="M 22537,24902 L 22537,24752"/>
 <path fill="none" stroke="rgb(179,179,179)" stroke-linejoin="round" d="M 22537,24902 L 22537,24752"/>
 <path fill="none" stroke="rgb(179,179,179)" stroke-linejoin="round" d="M 2725,24752 L 22537,24752"/>
 <path fill="none" stroke="rgb(179,179,179)" stroke-linejoin="round" d="M 2575,24752 L 2725,24752"/>
 <path fill="none" stroke="rgb(179,179,179)" stroke-linejoin="round" d="M 2575,24752 L 2725,24752"/>
 <path fill="none" stroke="rgb(179,179,179)" stroke-linejoin="round" d="M 2575,20991 L 2725,20991"/>
 <path fill="none" stroke="rgb(179,179,179)" stroke-linejoin="round" d="M 2575,20991 L 2725,20991"/>
 <path fill="none" stroke="rgb(179,179,179)" stroke-linejoin="round" d="M 2575,17230 L 2725,17230"/>
 <path fill="none" stroke="rgb(179,179,179)" stroke-linejoin="round" d="M 2575,17230 L 2725,17230"/>
 <path fill="none" stroke="rgb(179,179,179)" stroke-linejoin="round" d="M 2575,13470 L 2725,13470"/>
 <path fill="none" stroke="rgb(179,179,179)" stroke-linejoin="round" d="M 2575,13470 L 2725,13470"/>
 <path fill="none" stroke="rgb(179,179,179)" stroke-linejoin="round" d="M 2575,9710 L 2725,9710"/>
 <path fill="none" stroke="rgb(179,179,179)" stroke-linejoin="round" d="M 2575,9710 L 2725,9710"/>
 <path fill="none" stroke="rgb(179,179,179)" stroke-linejoin="round" d="M 2575,5949 L 2725,5949"/>
 <path fill="none" stroke="rgb(179,179,179)" stroke-linejoin="round" d="M 2575,5949 L 2725,5949"/>
 <path fill="none" stroke="rgb(179,179,179)" stroke-linejoin="round" d="M 2575,2189 L 2725,2189"/>
 <path fill="none" stroke="rgb(179,179,179)" stroke-linejoin="round" d="M 2575,2189 L 2725,2189"/>
 <path fill="none" stroke="rgb(179,179,179)" stroke-linejoin="round" d="M 2725,24752 L 2725,2189"/>
 <path fill="none" stroke="rgb(0,69,134)" stroke-width="80" stroke-linejoin="round" d="M 2725,22473 L 6027,20698 9329,19685 12631,18113 15932,15125 19234,15125 22537,15125"/>
 <path fill="rgb(0,69,134)" stroke="none" d="M 2600,22348 L 2600,22598 2850,22598 2850,22348 2600,22348 Z"/>
 <path fill="none" stroke="rgb(0,69,134)" stroke-linejoin="round" d="M 2600,22348 L 2600,22598 2850,22598 2850,22348 2600,22348 Z"/>
 <path fill="rgb(0,69,134)" stroke="none" d="M 5902,20573 L 5902,20823 6152,20823 6152,20573 5902,20573 Z"/>
 <path fill="none" stroke="rgb(0,69,134)" stroke-linejoin="round" d="M 5902,20573 L 5902,20823 6152,20823 6152,20573 5902,20573 Z"/>
 <path fill="rgb(0,69,134)" stroke="none" d="M 9204,19560 L 9204,19810 9454,19810 9454,19560 9204,19560 Z"/>
 <path fill="none" stroke="rgb(0,69,134)" stroke-linejoin="round" d="M 9204,19560 L 9204,19810 9454,19810 9454,19560 9204,19560 Z"/>
 <path fill="rgb(0,69,134)" stroke="none" d="M 12506,17988 L 12506,18238 12756,18238 12756,17988 12506,17988 Z"/>
 <path fill="none" stroke="rgb(0,69,134)" stroke-linejoin="round" d="M 12506,17988 L 12506,18238 12756,18238 12756,17988 12506,17988 Z"/>
 <path fill="rgb(0,69,134)" stroke="none" d="M 15807,15000 L 15807,15250 16057,15250 16057,15000 15807,15000 Z"/>
 <path fill="none" stroke="rgb(0,69,134)" stroke-linejoin="round" d="M 15807,15000 L 15807,15250 16057,15250 16057,15000 15807,15000 Z"/>
 <path fill="rgb(0,69,134)" stroke="none" d="M 19109,15000 L 19109,15250 19359,15250 19359,15000 19109,15000 Z"/>
 <path fill="none" stroke="rgb(0,69,134)" stroke-linejoin="round" d="M 19109,15000 L 19109,15250 19359,15250 19359,15000 19109,15000 Z"/>
 <path fill="rgb(0,69,134)" stroke="none" d="M 22412,15000 L 22412,15250 22662,15250 22662,15000 22412,15000 Z"/>
 <path fill="none" stroke="rgb(0,69,134)" stroke-linejoin="round" d="M 22412,15000 L 22412,15250 22662,15250 22662,15000 22412,15000 Z"/>
 <path fill="none" stroke="rgb(255,66,14)" stroke-width="80" stroke-linejoin="round" d="M 2725,22141 L 6027,19900 9329,17814 12631,12346 15932,4487 19234,3980 22537,4009"/>
 <path fill="rgb(255,66,14)" stroke="none" d="M 2600,22141 L 2725,22266 2850,22141 2725,22016 2600,22141 Z"/>
 <path fill="none" stroke="rgb(255,66,14)" stroke-linejoin="round" d="M 2600,22141 L 2725,22266 2850,22141 2725,22016 2600,22141 Z"/>
 <path fill="rgb(255,66,14)" stroke="none" d="M 5902,19900 L 6027,20025 6152,19900 6027,19775 5902,19900 Z"/>
 <path fill="none" stroke="rgb(255,66,14)" stroke-linejoin="round" d="M 5902,19900 L 6027,20025 6152,19900 6027,19775 5902,19900 Z"/>
 <path fill="rgb(255,66,14)" stroke="none" d="M 9204,17814 L 9329,17939 9454,17814 9329,17689 9204,17814 Z"/>
 <path fill="none" stroke="rgb(255,66,14)" stroke-linejoin="round" d="M 9204,17814 L 9329,17939 9454,17814 9329,17689 9204,17814 Z"/>
 <path fill="rgb(255,66,14)" stroke="none" d="M 12506,12346 L 12631,12471 12756,12346 12631,12221 12506,12346 Z"/>
 <path fill="none" stroke="rgb(255,66,14)" stroke-linejoin="round" d="M 12506,12346 L 12631,12471 12756,12346 12631,12221 12506,12346 Z"/>
 <path fill="rgb(255,66,14)" stroke="none" d="M 15807,4487 L 15932,4612 16057,4487 15932,4362 15807,4487 Z"/>
 <path fill="none" stroke="rgb(255,66,14)" stroke-linejoin="round" d="M 15807,4487 L 15932,4612 16057,4487 15932,4362 15807,4487 Z"/>
 <path fill="rgb(255,66,14)" stroke="none" d="M 19109,3980 L 19234,4105 19359,3980 19234,3855 19109,3980 Z"/>
 <path fill="none" stroke="rgb(255,66,14)" stroke-linejoin="round" d="M 19109,3980 L 19234,4105 19359,3980 19234,3855 19109,3980 Z"/>
 <path fill="rgb(255,66,14)" stroke="none" d="M 22412,4009 L 22537,4134 22662,4009 22537,3884 22412,4009 Z"/>
 <path fill="none" stroke="rgb(255,66,14)" stroke-linejoin="round" d="M 22412,4009 L 22537,4134 22662,4009 22537,3884 22412,4009 Z"/>
 <path fill="none" stroke="rgb(255,211,32)" stroke-width="80" stroke-linejoin="round" d="M 2725,19750 L 6027,18112 9329,18112 12631,15125 15932,15124 19234,15125 22537,15124"/>
 <path fill="rgb(255,211,32)" stroke="none" d="M 2600,19625 L 2725,19875 2850,19625 2600,19625 Z"/>
 <path fill="none" stroke="rgb(255,211,32)" stroke-linejoin="round" d="M 2600,19625 L 2725,19875 2850,19625 2600,19625 Z"/>
 <path fill="rgb(255,211,32)" stroke="none" d="M 5902,17987 L 6027,18237 6152,17987 5902,17987 Z"/>
 <path fill="none" stroke="rgb(255,211,32)" stroke-linejoin="round" d="M 5902,17987 L 6027,18237 6152,17987 5902,17987 Z"/>
 <path fill="rgb(255,211,32)" stroke="none" d="M 9204,17987 L 9329,18237 9454,17987 9204,17987 Z"/>
 <path fill="none" stroke="rgb(255,211,32)" stroke-linejoin="round" d="M 9204,17987 L 9329,18237 9454,17987 9204,17987 Z"/>
 <path fill="rgb(255,211,32)" stroke="none" d="M 12506,15000 L 12631,15250 12756,15000 12506,15000 Z"/>
 <path fill="none" stroke="rgb(255,211,32)" stroke-linejoin="round" d="M 12506,15000 L 12631,15250 12756,15000 12506,15000 Z"/>
 <path fill="rgb(255,211,32)" stroke="none" d="M 15807,14999 L 15932,15249 16057,14999 15807,14999 Z"/>
 <path fill="none" stroke="rgb(255,211,32)" stroke-linejoin="round" d="M 15807,14999 L 15932,15249 16057,14999 15807,14999 Z"/>
 <path fill="rgb(255,211,32)" stroke="none" d="M 19109,15000 L 19234,15250 19359,15000 19109,15000 Z"/>
 <path fill="none" stroke="rgb(255,211,32)" stroke-linejoin="round" d="M 19109,15000 L 19234,15250 19359,15000 19109,15000 Z"/>
 <path fill="rgb(255,211,32)" stroke="none" d="M 22412,14999 L 22537,15249 22662,14999 22412,14999 Z"/>
 <path fill="none" stroke="rgb(255,211,32)" stroke-linejoin="round" d="M 22412,14999 L 22537,15249 22662,14999 22412,14999 Z"/>
 <path fill="none" stroke="rgb(87,157,28)" stroke-width="80" stroke-linejoin="round" d="M 2725,15124 L 6027,15124 9329,15124 12631,15124 15932,15124 19234,15124 22537,15124"/>
 <path fill="rgb(87,157,28)" stroke="none" d="M 2600,15249 L 2850,15249 2725,14999 2600,15249 Z"/>
 <path fill="none" stroke="rgb(87,157,28)" stroke-linejoin="round" d="M 2600,15249 L 2850,15249 2725,14999 2600,15249 Z"/>
 <path fill="rgb(87,157,28)" stroke="none" d="M 5902,15249 L 6152,15249 6027,14999 5902,15249 Z"/>
 <path fill="none" stroke="rgb(87,157,28)" stroke-linejoin="round" d="M 5902,15249 L 6152,15249 6027,14999 5902,15249 Z"/>
 <path fill="rgb(87,157,28)" stroke="none" d="M 9204,15249 L 9454,15249 9329,14999 9204,15249 Z"/>
 <path fill="none" stroke="rgb(87,157,28)" stroke-linejoin="round" d="M 9204,15249 L 9454,15249 9329,14999 9204,15249 Z"/>
 <path fill="rgb(87,157,28)" stroke="none" d="M 12506,15249 L 12756,15249 12631,14999 12506,15249 Z"/>
 <path fill="none" stroke="rgb(87,157,28)" stroke-linejoin="round" d="M 12506,15249 L 12756,15249 12631,14999 12506,15249 Z"/>
 <path fill="rgb(87,157,28)" stroke="none" d="M 15807,15249 L 16057,15249 15932,14999 15807,15249 Z"/>
 <path fill="none" stroke="rgb(87,157,28)" stroke-linejoin="round" d="M 15807,15249 L 16057,15249 15932,14999 15807,15249 Z"/>
 <path fill="rgb(87,157,28)" stroke="none" d="M 19109,15249 L 19359,15249 19234,14999 19109,15249 Z"/>
 <path fill="none" stroke="rgb(87,157,28)" stroke-linejoin="round" d="M 19109,15249 L 19359,15249 19234,14999 19109,15249 Z"/>
 <path fill="rgb(87,157,28)" stroke="none" d="M 22412,15249 L 22662,15249 22537,14999 22412,15249 Z"/>
 <path fill="none" stroke="rgb(87,157,28)" stroke-linejoin="round" d="M 22412,15249 L 22662,15249 22537,14999 22412,15249 Z"/>
 <path fill="none" stroke="rgb(126,0,33)" stroke-width="80" stroke-linejoin="round" d="M 2725,4486 L 6027,4487 9329,4487 12631,4486 15932,4486 19234,4487 22537,4487"/>
 <path fill="rgb(126,0,33)" stroke="none" d="M 2600,4361 L 2600,4611 2850,4486 2600,4361 Z"/>
 <path fill="none" stroke="rgb(126,0,33)" stroke-linejoin="round" d="M 2600,4361 L 2600,4611 2850,4486 2600,4361 Z"/>
 <path fill="rgb(126,0,33)" stroke="none" d="M 5902,4362 L 5902,4612 6152,4487 5902,4362 Z"/>
 <path fill="none" stroke="rgb(126,0,33)" stroke-linejoin="round" d="M 5902,4362 L 5902,4612 6152,4487 5902,4362 Z"/>
 <path fill="rgb(126,0,33)" stroke="none" d="M 9204,4362 L 9204,4612 9454,4487 9204,4362 Z"/>
 <path fill="none" stroke="rgb(126,0,33)" stroke-linejoin="round" d="M 9204,4362 L 9204,4612 9454,4487 9204,4362 Z"/>
 <path fill="rgb(126,0,33)" stroke="none" d="M 12506,4361 L 12506,4611 12756,4486 12506,4361 Z"/>
 <path fill="none" stroke="rgb(126,0,33)" stroke-linejoin="round" d="M 12506,4361 L 12506,4611 12756,4486 12506,4361 Z"/>
 <path fill="rgb(126,0,33)" stroke="none" d="M 15807,4361 L 15807,4611 16057,4486 15807,4361 Z"/>
 <path fill="none" stroke="rgb(126,0,33)" stroke-linejoin="round" d="M 15807,4361 L 15807,4611 16057,4486 15807,4361 Z"/>
 <path fill="rgb(126,0,33)" stroke="none" d="M 19109,4362 L 19109,4612 19359,4487 19109,4362 Z"/>
 <path fill="none" stroke="rgb(126,0,33)" stroke-linejoin="round" d="M 19109,4362 L 19109,4612 19359,4487 19109,4362 Z"/>
 <path fill="rgb(126,0,33)" stroke="none" d="M 22412,4362 L 22412,4612 22662,4487 22412,4362 Z"/>
 <path fill="none" stroke="rgb(126,0,33)" stroke-linejoin="round" d="M 22412,4362 L 22412,4612 22662,4487 22412,4362 Z"/>
 <text class="TextShape"><tspan class="TextParagraph" font-family="Liberation Sans, sans-serif" font-size="353px" font-weight="400"><tspan class="TextPosition" x="2143" y="25320"><tspan fill="rgb(0,0,0)" stroke="none">100kHz</tspan></tspan></tspan></text>
 <text class="TextShape"><tspan class="TextParagraph" font-family="Liberation Sans, sans-serif" font-size="353px" font-weight="400"><tspan class="TextPosition" x="5445" y="25320"><tspan fill="rgb(0,0,0)" stroke="none">200kHz</tspan></tspan></tspan></text>
 <text class="TextShape"><tspan class="TextParagraph" font-family="Liberation Sans, sans-serif" font-size="353px" font-weight="400"><tspan class="TextPosition" x="8747" y="25320"><tspan fill="rgb(0,0,0)" stroke="none">300kHz</tspan></tspan></tspan></text>
 <text class="TextShape"><tspan class="TextParagraph" font-family="Liberation Sans, sans-serif" font-size="353px" font-weight="400"><tspan class="TextPosition" x="12049" y="25320"><tspan fill="rgb(0,0,0)" stroke="none">600kHz</tspan></tspan></tspan></text>
 <text class="TextShape"><tspan class="TextParagraph" font-family="Liberation Sans, sans-serif" font-size="353px" font-weight="400"><tspan class="TextPosition" x="15258" y="25320"><tspan fill="rgb(0,0,0)" stroke="none">1200kHz</tspan></tspan></tspan></text>
 <text class="TextShape"><tspan class="TextParagraph" font-family="Liberation Sans, sans-serif" font-size="353px" font-weight="400"><tspan class="TextPosition" x="18560" y="25320"><tspan fill="rgb(0,0,0)" stroke="none">2400kHz</tspan></tspan></tspan></text>
 <text class="TextShape"><tspan class="TextParagraph" font-family="Liberation Sans, sans-serif" font-size="353px" font-weight="400"><tspan class="TextPosition" x="21982" y="25320"><tspan fill="rgb(0,0,0)" stroke="none">4800hz</tspan></tspan></tspan></text>
 <text class="TextShape"><tspan class="TextParagraph" font-family="Liberation Sans, sans-serif" font-size="353px" font-weight="400"><tspan class="TextPosition" x="2290" y="24873"><tspan fill="rgb(0,0,0)" stroke="none">0</tspan></tspan></tspan></text>
 <text class="TextShape"><tspan class="TextParagraph" font-family="Liberation Sans, sans-serif" font-size="353px" font-weight="400"><tspan class="TextPosition" x="1549" y="21112"><tspan fill="rgb(0,0,0)" stroke="none">10000</tspan></tspan></tspan></text>
 <text class="TextShape"><tspan class="TextParagraph" font-family="Liberation Sans, sans-serif" font-size="353px" font-weight="400"><tspan class="TextPosition" x="1549" y="17351"><tspan fill="rgb(0,0,0)" stroke="none">20000</tspan></tspan></tspan></text>
 <text class="TextShape"><tspan class="TextParagraph" font-family="Liberation Sans, sans-serif" font-size="353px" font-weight="400"><tspan class="TextPosition" x="1549" y="13591"><tspan fill="rgb(0,0,0)" stroke="none">30000</tspan></tspan></tspan></text>
 <text class="TextShape"><tspan class="TextParagraph" font-family="Liberation Sans, sans-serif" font-size="353px" font-weight="400"><tspan class="TextPosition" x="1549" y="9830"><tspan fill="rgb(0,0,0)" stroke="none">40000</tspan></tspan></tspan></text>
 <text class="TextShape"><tspan class="TextParagraph" font-family="Liberation Sans, sans-serif" font-size="353px" font-weight="400"><tspan class="TextPosition" x="1549" y="6069"><tspan fill="rgb(0,0,0)" stroke="none">50000</tspan></tspan></tspan></text>
 <text class="TextShape"><tspan class="TextParagraph" font-family="Liberation Sans, sans-serif" font-size="353px" font-weight="400"><tspan class="TextPosition" x="1549" y="2309"><tspan fill="rgb(0,0,0)" stroke="none">60000</tspan></tspan></tspan></text>
 <text class="TextShape"><tspan class="TextParagraph" font-family="Liberation Sans, sans-serif" font-size="459px" font-weight="400"><tspan class="TextPosition" x="10715" y="1209"><tspan fill="rgb(0,0,0)" stroke="none">USB Full-speed probe write</tspan></tspan></tspan></text>
 <path fill="none" stroke="rgb(0,69,134)" stroke-width="80" stroke-linejoin="round" d="M 23747,12463 L 24547,12463"/>
 <path fill="rgb(0,69,134)" stroke="none" d="M 24041,12358 L 24041,12569 24252,12569 24252,12358 24041,12358 Z"/>
 <path fill="none" stroke="rgb(0,69,134)" stroke-linejoin="round" d="M 24041,12358 L 24041,12569 24252,12569 24252,12358 24041,12358 Z"/>
 <path fill="none" stroke="rgb(255,66,14)" stroke-width="80" stroke-linejoin="round" d="M 23747,12961 L 24547,12961"/>
 <path fill="rgb(255,66,14)" stroke="none" d="M 24041,12961 L 24147,13067 24252,12961 24147,12856 24041,12961 Z"/>
 <path fill="none" stroke="rgb(255,66,14)" stroke-linejoin="round" d="M 24041,12961 L 24147,13067 24252,12961 24147,12856 24041,12961 Z"/>
 <path fill="none" stroke="rgb(255,211,32)" stroke-width="80" stroke-linejoin="round" d="M 23747,13459 L 24547,13459"/>
 <path fill="rgb(255,211,32)" stroke="none" d="M 24041,13354 L 24147,13564 24252,13354 24041,13354 Z"/>
 <path fill="none" stroke="rgb(255,211,32)" stroke-linejoin="round" d="M 24041,13354 L 24147,13564 24252,13354 24041,13354 Z"/>
 <path fill="none" stroke="rgb(87,157,28)" stroke-width="80" stroke-linejoin="round" d="M 23747,13956 L 24547,13956"/>
 <path fill="rgb(87,157,28)" stroke="none" d="M 24041,14062 L 24252,14062 24147,13851 24041,14062 Z"/>
 <path fill="none" stroke="rgb(87,157,28)" stroke-linejoin="round" d="M 24041,14062 L 24252,14062 24147,13851 24041,14062 Z"/>
 <path fill="none" stroke="rgb(126,0,33)" stroke-width="80" stroke-linejoin="round" d="M 23747,14454 L 24547,14454"/>
 <path fill="rgb(126,0,33)" stroke="none" d="M 24041,14349 L 24041,14560 24252,14454 24041,14349 Z"/>
 <path fill="none" stroke="rgb(126,0,33)" stroke-linejoin="round" d="M 24041,14349 L 24041,14560 24252,14454 24041,14349 Z"/>
 <text class="TextShape"><tspan class="TextParagraph" font-family="Liberation Sans, sans-serif" font-size="353px" font-weight="400"><tspan class="TextPosition" x="24647" y="12583"><tspan fill="rgb(0,0,0)" stroke="none">usbc-pill</tspan></tspan></tspan></text>
 <text class="TextShape"><tspan class="TextParagraph" font-family="Liberation Sans, sans-serif" font-size="353px" font-weight="400"><tspan class="TextPosition" x="24647" y="13081"><tspan fill="rgb(0,0,0)" stroke="none">rustyprobe</tspan></tspan></tspan></text>
 <text class="TextShape"><tspan class="TextParagraph" font-family="Liberation Sans, sans-serif" font-size="353px" font-weight="400"><tspan class="TextPosition" x="24647" y="13578"><tspan fill="rgb(0,0,0)" stroke="none">dappermime</tspan></tspan></tspan></text>
 <text class="TextShape"><tspan class="TextParagraph" font-family="Liberation Sans, sans-serif" font-size="353px" font-weight="400"><tspan class="TextPosition" x="24647" y="14076"><tspan fill="rgb(0,0,0)" stroke="none">dap42</tspan></tspan></tspan></text>
 <text class="TextShape"><tspan class="TextParagraph" font-family="Liberation Sans, sans-serif" font-size="353px" font-weight="400"><tspan class="TextPosition" x="24647" y="14574"><tspan fill="rgb(0,0,0)" stroke="none">rust-dap</tspan></tspan></tspan></text>
 <text class="TextShape"><tspan class="TextParagraph" font-family="Liberation Sans, sans-serif" font-size="318px" font-weight="400"><tspan class="TextPosition" x="11714" y="25655"><tspan fill="rgb(0,0,0)" stroke="none">SWD Frequency</tspan></tspan></tspan></text>
 <text class="TextShape" transform="rotate(-90 837 14410)"><tspan class="TextParagraph" font-family="Liberation Sans, sans-serif" font-size="318px" font-weight="400"><tspan class="TextPosition" x="837" y="14410"><tspan fill="rgb(0,0,0)" stroke="none">Bytes/Sec</tspan></tspan></tspan></text>
</svg>