<?xml version="1.0" encoding="UTF-8"?>
<!DOCTYPE svg PUBLIC "-//W3C//DTD SVG 1.1//EN" "http://www.w3.org/Graphics/SVG/1.1/DTD/svg11.dtd">
<svg width="268mm" height="270mm" viewBox="0 0 26800 27000" version="1.1" xmlns="http://www.w3.org/2000/svg" xmlns:xlink="http://www.w3.org/1999/xlink" stroke-width="28.222" stroke-linejoin="round" xml:space="preserve">
 <path fill="rgb(255,255,255)" stroke="none" d="M 13376,27024 L 0,27024 0,0 26751,0 26751,27024 13376,27024 Z"/>
 <path fill="none" stroke="rgb(179,179,179)" stroke-linejoin="round" d="M 12467,24856 L 2908,24856 2908,2194 22026,2194 22026,24856 12467,24856 Z"/>
 <path fill="none" stroke="rgb(179,179,179)" stroke-linejoin="round" d="M 22025,24855 L 2908,24855"/>
 <path fill="none" stroke="rgb(179,179,179)" stroke-linejoin="round" d="M 22025,22336 L 2908,22336"/>
 <path fill="none" stroke="rgb(179,179,179)" stroke-linejoin="round" d="M 22025,19818 L 2908,19818"/>
 <path fill="none" stroke="rgb(179,179,179)" stroke-linejoin="round" d="M 22025,17300 L 2908,17300"/>
 <path fill="none" stroke="rgb(179,179,179)" stroke-linejoin="round" d="M 22025,14782 L 2908,14782"/>
 <path fill="none" stroke="rgb(179,179,179)" stroke-linejoin="round" d="M 22025,12265 L 2908,12265"/>
 <path fill="none" stroke="rgb(179,179,179)" stroke-linejoin="round" d="M 22025,9747 L 2908,9747"/>
 <path fill="none" stroke="rgb(179,179,179)" stroke-linejoin="round" d="M 22025,7229 L 2908,7229"/>
 <path fill="none" stroke="rgb(179,179,179)" stroke-linejoin="round" d="M 22025,4711 L 2908,4711"/>
 <path fill="none" stroke="rgb(179,179,179)" stroke-linejoin="round" d="M 22025,2192 L 2908,2192"/>
 <path fill="none" stroke="rgb(179,179,179)" stroke-linejoin="round" d="M 2908,25005 L 2908,24855"/>
 <path fill="none" stroke="rgb(179,179,179)" stroke-linejoin="round" d="M 2908,25005 L 2908,24855"/>
 <path fill="none" stroke="rgb(179,179,179)" stroke-linejoin="round" d="M 4819,25005 L 4819,24855"/>
 <path fill="none" stroke="rgb(179,179,179)" stroke-linejoin="round" d="M 4819,25005 L 4819,24855"/>
 <path fill="none" stroke="rgb(179,179,179)" stroke-linejoin="round" d="M 6731,25005 L 6731,24855"/>
 <path fill="none" stroke="rgb(179,179,179)" stroke-linejoin="round" d="M 6731,25005 L 6731,24855"/>
 <path fill="none" stroke="rgb(179,179,179)" stroke-linejoin="round" d="M 8643,25005 L 8643,24855"/>
 <path fill="none" stroke="rgb(179,179,179)" stroke-linejoin="round" d="M 8643,25005 L 8643,24855"/>
 <path fill="none" stroke="rgb(179,179,179)" stroke-linejoin="round" d="M 10555,25005 L 10555,24855"/>
 <path fill="none" stroke="rgb(179,179,179)" stroke-linejoin="round" d="M 10555,25005 L 10555,24855"/>
 <path fill="none" stroke="rgb(179,179,179)" stroke-linejoin="round" d="M 12467,25005 L 12467,24855"/>
 <path fill="none" stroke="rgb(179,179,179)" stroke-linejoin="round" d="M 12467,25005 L 12467,24855"/>
 <path fill="none" stroke="rgb(179,179,179)" stroke-linejoin="round" d="M 14378,25005 L 14378,24855"/>
 <path fill="none" stroke="rgb(179,179,179)" stroke-linejoin="round" d="M 14378,25005 L 14378,24855"/>
 <path fill="none" stroke="rgb(179,179,179)" stroke-linejoin="round" d="M 16290,25005 L 16290,24855"/>
 <path fill="none" stroke="rgb(179,179,179)" stroke-linejoin="round" d="M 16290,25005 L 16290,24855"/>
 <path fill="none" stroke="rgb(179,179,179)" stroke-linejoin="round" d="M 18202,25005 L 18202,24855"/>
 <path fill="none" stroke="rgb(179,179,179)" stroke-linejoin="round" d="M 18202,25005 L 18202,24855"/>
 <path fill="none" stroke="rgb(179,179,179)" stroke-linejoin="round" d="M 20114,25005 L 20114,24855"/>
 <path fill="none" stroke="rgb(179,179,179)" stroke-linejoin="round" d="M 20114,25005 L 20114,24855"/>
 <path fill="none" stroke="rgb(179,179,179)" stroke-linejoin="round" d="M 22025,25005 L 22025,24855"/>
 <path fill="none" stroke="rgb(179,179,179)" stroke-linejoin="round" d="M 22025,25005 L 22025,24855"/>
 <path fill="none" stroke="rgb(179,179,179)" stroke-linejoin="round" d="M 2908,24855 L 22025,24855"/>
 <path fill="none" stroke="rgb(179,179,179)" stroke-linejoin="round" d="M 2758,24855 L 2908,24855"/>
 <path fill="none" stroke="rgb(179,179,179)" stroke-linejoin="round" d="M 2758,24855 L 2908,24855"/>
 <path fill="none" stroke="rgb(179,179,179)" stroke-linejoin="round" d="M 2758,22336 L 2908,22336"/>
 <path fill="none" stroke="rgb(179,179,179)" stroke-linejoin="round" d="M 2758,22336 L 2908,22336"/>
 <path fill="none" stroke="rgb(179,179,179)" stroke-linejoin="round" d="M 2758,19818 L 2908,19818"/>
 <path fill="none" stroke="rgb(179,179,179)" stroke-linejoin="round" d="M 2758,19818 L 2908,19818"/>
 <path fill="none" stroke="rgb(179,179,179)" stroke-linejoin="round" d="M 2758,17300 L 2908,17300"/>
 <path fill="none" stroke="rgb(179,179,179)" stroke-linejoin="round" d="M 2758,17300 L 2908,17300"/>
 <path fill="none" stroke="rgb(179,179,179)" stroke-linejoin="round" d="M 2758,14782 L 2908,14782"/>
 <path fill="none" stroke="rgb(179,179,179)" stroke-linejoin="round" d="M 2758,14782 L 2908,14782"/>
 <path fill="none" stroke="rgb(179,179,179)" stroke-linejoin="round" d="M 2758,12265 L 2908,12265"/>
 <path fill="none" stroke="rgb(179,179,179)" stroke-linejoin="round" d="M 2758,12265 L 2908,12265"/>
 <path fill="none" stroke="rgb(179,179,179)" stroke-linejoin="round" d="M 2758,9747 L 2908,9747"/>
 <path fill="none" stroke="rgb(179,179,179)" stroke-linejoin="round" d="M 2758,9747 L 2908,9747"/>
 <path fill="none" stroke="rgb(179,179,179)" stroke-linejoin="round" d="M 2758,7229 L 2908,7229"/>
 <path fill="none" stroke="rgb(179,179,179)" stroke-linejoin="round" d="M 2758,7229 L 2908,7229"/>
 <path fill="none" stroke="rgb(179,179,179)" stroke-linejoin="round" d="M 2758,4711 L 2908,4711"/>
 <path fill="none" stroke="rgb(179,179,179)" stroke-linejoin="round" d="M 2758,4711 L 2908,4711"/>
 <path fill="none" stroke="rgb(179,179,179)" stroke-linejoin="round" d="M 2758,2193 L 2908,2193"/>
 <path fill="none" stroke="rgb(179,179,179)" stroke-linejoin="round" d="M 2758,2193 L 2908,2193"/>
 <path fill="none" stroke="rgb(179,179,179)" stroke-linejoin="round" d="M 2908,24855 L 2908,2192"/>
 <path fill="none" stroke="rgb(0,69,134)" stroke-width="80" stroke-linejoin="round" d="M 6731,24340 L 8643,23867 10555,22915 12467,21708 14378,20310 16290,18955 18202,17963 20114,17373 22025,17399"/>
 <path fill="rgb(0,69,134)" stroke="none" d="M 6606,24215 L 6606,24465 6856,24465 6856,24215 6606,24215 Z"/>
 <path fill="none" stroke="rgb(0,69,134)" stroke-linejoin="round" d="M 6606,24215 L 6606,24465 6856,24465 6856,24215 6606,24215 Z"/>
 <path fill="rgb(0,69,134)" stroke="none" d="M 8518,23742 L 8518,23992 8768,23992 8768,23742 8518,23742 Z"/>
 <path fill="none" stroke="rgb(0,69,134)" stroke-linejoin="round" d="M 8518,23742 L 8518,23992 8768,23992 8768,23742 8518,23742 Z"/>
 <path fill="rgb(0,69,134)" stroke="none" d="M 10430,22790 L 10430,23040 10680,23040 10680,22790 10430,22790 Z"/>
 <path fill="none" stroke="rgb(0,69,134)" stroke-linejoin="round" d="M 10430,22790 L 10430,23040 10680,23040 10680,22790 10430,22790 Z"/>
 <path fill="rgb(0,69,134)" stroke="none" d="M 12342,21583 L 12342,21833 12592,21833 12592,21583 12342,21583 Z"/>
 <path fill="none" stroke="rgb(0,69,134)" stroke-linejoin="round" d="M 12342,21583 L 12342,21833 12592,21833 12592,21583 12342,21583 Z"/>
 <path fill="rgb(0,69,134)" stroke="none" d="M 14253,20185 L 14253,20435 14503,20435 14503,20185 14253,20185 Z"/>
 <path fill="none" stroke="rgb(0,69,134)" stroke-linejoin="round" d="M 14253,20185 L 14253,20435 14503,20435 14503,20185 14253,20185 Z"/>
 <path fill="rgb(0,69,134)" stroke="none" d="M 16165,18830 L 16165,19080 16415,19080 16415,18830 16165,18830 Z"/>
 <path fill="none" stroke="rgb(0,69,134)" stroke-linejoin="round" d="M 16165,18830 L 16165,19080 16415,19080 16415,18830 16165,18830 Z"/>
 <path fill="rgb(0,69,134)" stroke="none" d="M 18077,17838 L 18077,18088 18327,18088 18327,17838 18077,17838 Z"/>
 <path fill="none" stroke="rgb(0,69,134)" stroke-linejoin="round" d="M 18077,17838 L 18077,18088 18327,18088 18327,17838 18077,17838 Z"/>
 <path fill="rgb(0,69,134)" stroke="none" d="M 19989,17248 L 19989,17498 20239,17498 20239,17248 19989,17248 Z"/>
 <path fill="none" stroke="rgb(0,69,134)" stroke-linejoin="round" d="M 19989,17248 L 19989,17498 20239,17498 20239,17248 19989,17248 Z"/>
 <path fill="rgb(0,69,134)" stroke="none" d="M 21900,17274 L 21900,17524 22150,17524 22150,17274 21900,17274 Z"/>
 <path fill="none" stroke="rgb(0,69,134)" stroke-linejoin="round" d="M 21900,17274 L 21900,17524 22150,17524 22150,17274 21900,17274 Z"/>
 <path fill="none" stroke="rgb(255,66,14)" stroke-width="80" stroke-linejoin="round" d="M 2908,24657 L 4819,24477 6731,24311 8643,23887 10555,23175 12467,22419"/>
 <path fill="rgb(255,66,14)" stroke="none" d="M 2783,24657 L 2908,24782 3033,24657 2908,24532 2783,24657 Z"/>
 <path fill="none" stroke="rgb(255,66,14)" stroke-linejoin="round" d="M 2783,24657 L 2908,24782 3033,24657 2908,24532 2783,24657 Z"/>
 <path fill="rgb(255,66,14)" stroke="none" d="M 4694,24477 L 4819,24602 4944,24477 4819,24352 4694,24477 Z"/>
 <path fill="none" stroke="rgb(255,66,14)" stroke-linejoin="round" d="M 4694,24477 L 4819,24602 4944,24477 4819,24352 4694,24477 Z"/>
 <path fill="rgb(255,66,14)" stroke="none" d="M 6606,24311 L 6731,24436 6856,24311 6731,24186 6606,24311 Z"/>
 <path fill="none" stroke="rgb(255,66,14)" stroke-linejoin="round" d="M 6606,24311 L 6731,24436 6856,24311 6731,24186 6606,24311 Z"/>
 <path fill="rgb(255,66,14)" stroke="none" d="M 8518,23887 L 8643,24012 8768,23887 8643,23762 8518,23887 Z"/>
 <path fill="none" stroke="rgb(255,66,14)" stroke-linejoin="round" d="M 8518,23887 L 8643,24012 8768,23887 8643,23762 8518,23887 Z"/>
 <path fill="rgb(255,66,14)" stroke="none" d="M 10430,23175 L 10555,23300 10680,23175 10555,23050 10430,23175 Z"/>
 <path fill="none" stroke="rgb(255,66,14)" stroke-linejoin="round" d="M 10430,23175 L 10555,23300 10680,23175 10555,23050 10430,23175 Z"/>
 <path fill="rgb(255,66,14)" stroke="none" d="M 12342,22419 L 12467,22544 12592,22419 12467,22294 12342,22419 Z"/>
 <path fill="none" stroke="rgb(255,66,14)" stroke-linejoin="round" d="M 12342,22419 L 12467,22544 12592,22419 12467,22294 12342,22419 Z"/>
 <path fill="none" stroke="rgb(255,211,32)" stroke-width="80" stroke-linejoin="round" d="M 2908,24653 L 4819,24542 6731,24357 8643,23912 10555,22709 12467,22079 14378,20318 16290,20319 18202,20324 20114,20323 22025,20322"/>
 <path fill="rgb(255,211,32)" stroke="none" d="M 2783,24528 L 2908,24778 3033,24528 2783,24528 Z"/>
 <path fill="none" stroke="rgb(255,211,32)" stroke-linejoin="round" d="M 2783,24528 L 2908,24778 3033,24528 2783,24528 Z"/>
 <path fill="rgb(255,211,32)" stroke="none" d="M 4694,24417 L 4819,24667 4944,24417 4694,24417 Z"/>
 <path fill="none" stroke="rgb(255,211,32)" stroke-linejoin="round" d="M 4694,24417 L 4819,24667 4944,24417 4694,24417 Z"/>
 <path fill="rgb(255,211,32)" stroke="none" d="M 6606,24232 L 6731,24482 6856,24232 6606,24232 Z"/>
 <path fill="none" stroke="rgb(255,211,32)" stroke-linejoin="round" d="M 6606,24232 L 6731,24482 6856,24232 6606,24232 Z"/>
 <path fill="rgb(255,211,32)" stroke="none" d="M 8518,23787 L 8643,24037 8768,23787 8518,23787 Z"/>
 <path fill="none" stroke="rgb(255,211,32)" stroke-linejoin="round" d="M 8518,23787 L 8643,24037 8768,23787 8518,23787 Z"/>
 <path fill="rgb(255,211,32)" stroke="none" d="M 10430,22584 L 10555,22834 10680,22584 10430,22584 Z"/>
 <path fill="none" stroke="rgb(255,211,32)" stroke-linejoin="round" d="M 10430,22584 L 10555,22834 10680,22584 10430,22584 Z"/>
 <path fill="rgb(255,211,32)" stroke="none" d="M 12342,21954 L 12467,22204 12592,21954 12342,21954 Z"/>
 <path fill="none" stroke="rgb(255,211,32)" stroke-linejoin="round" d="M 12342,21954 L 12467,22204 12592,21954 12342,21954 Z"/>
 <path fill="rgb(255,211,32)" stroke="none" d="M 14253,20193 L 14378,20443 14503,20193 14253,20193 Z"/>
 <path fill="none" stroke="rgb(255,211,32)" stroke-linejoin="round" d="M 14253,20193 L 14378,20443 14503,20193 14253,20193 Z"/>
 <path fill="rgb(255,211,32)" stroke="none" d="M 16165,20194 L 16290,20444 16415,20194 16165,20194 Z"/>
 <path fill="none" stroke="rgb(255,211,32)" stroke-linejoin="round" d="M 16165,20194 L 16290,20444 16415,20194 16165,20194 Z"/>
 <path fill="rgb(255,211,32)" stroke="none" d="M 18077,20199 L 18202,20449 18327,20199 18077,20199 Z"/>
 <path fill="none" stroke="rgb(255,211,32)" stroke-linejoin="round" d="M 18077,20199 L 18202,20449 18327,20199 18077,20199 Z"/>
 <path fill="rgb(255,211,32)" stroke="none" d="M 19989,20198 L 20114,20448 20239,20198 19989,20198 Z"/>
 <path fill="none" stroke="rgb(255,211,32)" stroke-linejoin="round" d="M 19989,20198 L 20114,20448 20239,20198 19989,20198 Z"/>
 <path fill="rgb(255,211,32)" stroke="none" d="M 21900,20197 L 22025,20447 22150,20197 21900,20197 Z"/>
 <path fill="none" stroke="rgb(255,211,32)" stroke-linejoin="round" d="M 21900,20197 L 22025,20447 22150,20197 21900,20197 Z"/>
 <path fill="none" stroke="rgb(87,157,28)" stroke-width="80" stroke-linejoin="round" d="M 6731,24431 L 8643,24431 10555,22854 12467,22854 14378,18863 16290,13431 18202,13436 20114,5693 22025,5666"/>
 <path fill="rgb(87,157,28)" stroke="none" d="M 6606,24556 L 6856,24556 6731,24306 6606,24556 Z"/>
 <path fill="none" stroke="rgb(87,157,28)" stroke-linejoin="round" d="M 6606,24556 L 6856,24556 6731,24306 6606,24556 Z"/>
 <path fill="rgb(87,157,28)" stroke="none" d="M 8518,24556 L 8768,24556 8643,24306 8518,24556 Z"/>
 <path fill="none" stroke="rgb(87,157,28)" stroke-linejoin="round" d="M 8518,24556 L 8768,24556 8643,24306 8518,24556 Z"/>
 <path fill="rgb(87,157,28)" stroke="none" d="M 10430,22979 L 10680,22979 10555,22729 10430,22979 Z"/>
 <path fill="none" stroke="rgb(87,157,28)" stroke-linejoin="round" d="M 10430,22979 L 10680,22979 10555,22729 10430,22979 Z"/>
 <path fill="rgb(87,157,28)" stroke="none" d="M 12342,22979 L 12592,22979 12467,22729 12342,22979 Z"/>
 <path fill="none" stroke="rgb(87,157,28)" stroke-linejoin="round" d="M 12342,22979 L 12592,22979 12467,22729 12342,22979 Z"/>
 <path fill="rgb(87,157,28)" stroke="none" d="M 14253,18988 L 14503,18988 14378,18738 14253,18988 Z"/>
 <path fill="none" stroke="rgb(87,157,28)" stroke-linejoin="round" d="M 14253,18988 L 14503,18988 14378,18738 14253,18988 Z"/>
 <path fill="rgb(87,157,28)" stroke="none" d="M 16165,13555 L 16415,13555 16290,13306 16165,13555 Z"/>
 <path fill="none" stroke="rgb(87,157,28)" stroke-linejoin="round" d="M 16165,13555 L 16415,13555 16290,13306 16165,13555 Z"/>
 <path fill="rgb(87,157,28)" stroke="none" d="M 18077,13560 L 18327,13560 18202,13311 18077,13560 Z"/>
 <path fill="none" stroke="rgb(87,157,28)" stroke-linejoin="round" d="M 18077,13560 L 18327,13560 18202,13311 18077,13560 Z"/>
 <path fill="rgb(87,157,28)" stroke="none" d="M 19989,5818 L 20239,5818 20114,5568 19989,5818 Z"/>
 <path fill="none" stroke="rgb(87,157,28)" stroke-linejoin="round" d="M 19989,5818 L 20239,5818 20114,5568 19989,5818 Z"/>
 <path fill="rgb(87,157,28)" stroke="none" d="M 21900,5791 L 22150,5791 22025,5541 21900,5791 Z"/>
 <path fill="none" stroke="rgb(87,157,28)" stroke-linejoin="round" d="M 21900,5791 L 22150,5791 22025,5541 21900,5791 Z"/>
 <text class="TextShape"><tspan class="TextParagraph" font-family="Liberation Sans, sans-serif" font-size="353px" font-weight="400"><tspan class="TextPosition" x="2326" y="25423"><tspan fill="rgb(0,0,0)" stroke="none">100kHz</tspan></tspan></tspan></text>
 <text class="TextShape"><tspan class="TextParagraph" font-family="Liberation Sans, sans-serif" font-size="353px" font-weight="400"><tspan class="TextPosition" x="4237" y="25423"><tspan fill="rgb(0,0,0)" stroke="none">200kHz</tspan></tspan></tspan></text>
 <text class="TextShape"><tspan class="TextParagraph" font-family="Liberation Sans, sans-serif" font-size="353px" font-weight="400"><tspan class="TextPosition" x="6149" y="25423"><tspan fill="rgb(0,0,0)" stroke="none">300kHz</tspan></tspan></tspan></text>
 <text class="TextShape"><tspan class="TextParagraph" font-family="Liberation Sans, sans-serif" font-size="353px" font-weight="400"><tspan class="TextPosition" x="8061" y="25423"><tspan fill="rgb(0,0,0)" stroke="none">600kHz</tspan></tspan></tspan></text>
 <text class="TextShape"><tspan class="TextParagraph" font-family="Liberation Sans, sans-serif" font-size="353px" font-weight="400"><tspan class="TextPosition" x="9880" y="25423"><tspan fill="rgb(0,0,0)" stroke="none">1200kHz</tspan></tspan></tspan></text>
 <text class="TextShape"><tspan class="TextParagraph" font-family="Liberation Sans, sans-serif" font-size="353px" font-weight="400"><tspan class="TextPosition" x="11792" y="25423"><tspan fill="rgb(0,0,0)" stroke="none">2400kHz</tspan></tspan></tspan></text>
 <text class="TextShape"><tspan class="TextParagraph" font-family="Liberation Sans, sans-serif" font-size="353px" font-weight="400"><tspan class="TextPosition" x="13704" y="25423"><tspan fill="rgb(0,0,0)" stroke="none">4800kHz</tspan></tspan></tspan></text>
 <text class="TextShape"><tspan class="TextParagraph" font-family="Liberation Sans, sans-serif" font-size="353px" font-weight="400"><tspan class="TextPosition" x="15748" y="25423"><tspan fill="rgb(0,0,0)" stroke="none">10MHz</tspan></tspan></tspan></text>
 <text class="TextShape"><tspan class="TextParagraph" font-family="Liberation Sans, sans-serif" font-size="353px" font-weight="400"><tspan class="TextPosition" x="17660" y="25423"><tspan fill="rgb(0,0,0)" stroke="none">20MHz</tspan></tspan></tspan></text>
 <text class="TextShape"><tspan class="TextParagraph" font-family="Liberation Sans, sans-serif" font-size="353px" font-weight="400"><tspan class="TextPosition" x="19572" y="25423"><tspan fill="rgb(0,0,0)" stroke="none">40MHz</tspan></tspan></tspan></text>
 <text class="TextShape"><tspan class="TextParagraph" font-family="Liberation Sans, sans-serif" font-size="353px" font-weight="400"><tspan class="TextPosition" x="21483" y="25423"><tspan fill="rgb(0,0,0)" stroke="none">80MHz</tspan></tspan></tspan></text>
 <text class="TextShape"><tspan class="TextParagraph" font-family="Liberation Sans, sans-serif" font-size="353px" font-weight="400"><tspan class="TextPosition" x="2473" y="24976"><tspan fill="rgb(0,0,0)" stroke="none">0</tspan></tspan></tspan></text>
 <text class="TextShape"><tspan class="TextParagraph" font-family="Liberation Sans, sans-serif" font-size="353px" font-weight="400"><tspan class="TextPosition" x="1547" y="22457"><tspan fill="rgb(0,0,0)" stroke="none">100000</tspan></tspan></tspan></text>
 <text class="TextShape"><tspan class="TextParagraph" font-family="Liberation Sans, sans-serif" font-size="353px" font-weight="400"><tspan class="TextPosition" x="1547" y="19939"><tspan fill="rgb(0,0,0)" stroke="none">200000</tspan></tspan></tspan></text>
 <text class="TextShape"><tspan class="TextParagraph" font-family="Liberation Sans, sans-serif" font-size="353px" font-weight="400"><tspan class="TextPosition" x="1547" y="17421"><tspan fill="rgb(0,0,0)" stroke="none">300000</tspan></tspan></tspan></text>
 <text class="TextShape"><tspan class="TextParagraph" font-family="Liberation Sans, sans-serif" font-size="353px" font-weight="400"><tspan class="TextPosition" x="1547" y="14903"><tspan fill="rgb(0,0,0)" stroke="none">400000</tspan></tspan></tspan></text>
 <text class="TextShape"><tspan class="TextParagraph" font-family="Liberation Sans, sans-serif" font-size="353px" font-weight="400"><tspan class="TextPosition" x="1547" y="12385"><tspan fill="rgb(0,0,0)" stroke="none">500000</tspan></tspan></tspan></text>
 <text class="TextShape"><tspan class="TextParagraph" font-family="Liberation Sans, sans-serif" font-size="353px" font-weight="400"><tspan class="TextPosition" x="1547" y="9867"><tspan fill="rgb(0,0,0)" stroke="none">600000</tspan></tspan></tspan></text>
 <text class="TextShape"><tspan class="TextParagraph" font-family="Liberation Sans, sans-serif" font-size="353px" font-weight="400"><tspan class="TextPosition" x="1547" y="7349"><tspan fill="rgb(0,0,0)" stroke="none">700000</tspan></tspan></tspan></text>
 <text class="TextShape"><tspan class="TextParagraph" font-family="Liberation Sans, sans-serif" font-size="353px" font-weight="400"><tspan class="TextPosition" x="1547" y="4831"><tspan fill="rgb(0,0,0)" stroke="none">800000</tspan></tspan></tspan></text>
 <text class="TextShape"><tspan class="TextParagraph" font-family="Liberation Sans, sans-serif" font-size="353px" font-weight="400"><tspan class="TextPosition" x="1547" y="2313"><tspan fill="rgb(0,0,0)" stroke="none">900000</tspan></tspan></tspan></text>
 <text class="TextShape"><tspan class="TextParagraph" font-family="Liberation Sans, sans-serif" font-size="459px" font-weight="400"><tspan class="TextPosition" x="8931" y="1211"><tspan fill="rgb(0,0,0)" stroke="none">HS-Probe vs Non-CMSIS-DAP probes (read)</tspan></tspan></tspan></text>
 <path fill="none" stroke="rgb(0,69,134)" stroke-width="80" stroke-linejoin="round" d="M 23221,12764 L 24021,12764"/>
 <path fill="rgb(0,69,134)" stroke="none" d="M 23515,12659 L 23515,12870 23726,12870 23726,12659 23515,12659 Z"/>
 <path fill="none" stroke="rgb(0,69,134)" stroke-linejoin="round" d="M 23515,12659 L 23515,12870 23726,12870 23726,12659 23515,12659 Z"/>
 <path fill="none" stroke="rgb(255,66,14)" stroke-width="80" stroke-linejoin="round" d="M 23221,13262 L 24021,13262"/>
 <path fill="rgb(255,66,14)" stroke="none" d="M 23515,13262 L 23621,13368 23726,13262 23621,13157 23515,13262 Z"/>
 <path fill="none" stroke="rgb(255,66,14)" stroke-linejoin="round" d="M 23515,13262 L 23621,13368 23726,13262 23621,13157 23515,13262 Z"/>
 <path fill="none" stroke="rgb(255,211,32)" stroke-width="80" stroke-linejoin="round" d="M 23221,13759 L 24021,13759"/>
 <path fill="rgb(255,211,32)" stroke="none" d="M 23515,13654 L 23621,13865 23726,13654 23515,13654 Z"/>
 <path fill="none" stroke="rgb(255,211,32)" stroke-linejoin="round" d="M 23515,13654 L 23621,13865 23726,13654 23515,13654 Z"/>
 <path fill="none" stroke="rgb(87,157,28)" stroke-width="80" stroke-linejoin="round" d="M 23221,14257 L 24021,14257"/>
 <path fill="rgb(87,157,28)" stroke="none" d="M 23515,14363 L 23726,14363 23621,14152 23515,14363 Z"/>
 <path fill="none" stroke="rgb(87,157,28)" stroke-linejoin="round" d="M 23515,14363 L 23726,14363 23621,14152 23515,14363 Z"/>
 <text class="TextShape"><tspan class="TextParagraph" font-family="Liberation Sans, sans-serif" font-size="353px" font-weight="400"><tspan class="TextPosition" x="24121" y="12884"><tspan fill="rgb(0,0,0)" stroke="none">hsprobe (turbo)</tspan></tspan></tspan></text>
 <text class="TextShape"><tspan class="TextParagraph" font-family="Liberation Sans, sans-serif" font-size="353px" font-weight="400"><tspan class="TextPosition" x="24121" y="13382"><tspan fill="rgb(0,0,0)" stroke="none">jlink</tspan></tspan></tspan></text>
 <text class="TextShape"><tspan class="TextParagraph" font-family="Liberation Sans, sans-serif" font-size="353px" font-weight="400"><tspan class="TextPosition" x="24121" y="13879"><tspan fill="rgb(0,0,0)" stroke="none">stlink v2</tspan></tspan></tspan></text>
 <text class="TextShape"><tspan class="TextParagraph" font-family="Liberation Sans, sans-serif" font-size="353px" font-weight="400"><tspan class="TextPosition" x="24121" y="14377"><tspan fill="rgb(0,0,0)" stroke="none">stlink v3</tspan></tspan></tspan></text>
 <text class="TextShape"><tspan class="TextParagraph" font-family="Liberation Sans, sans-serif" font-size="318px" font-weight="400"><tspan class="TextPosition" x="10880" y="26430"><tspan fill="rgb(0,0,0)" stroke="none">SWD Frequency</tspan></tspan></tspan></text>
 <text class="TextShape" transform="rotate(-90 837 15971)"><tspan class="TextParagraph" font-family="Liberation Sans, sans-serif" font-size="318px" font-weight="400"><tspan class="TextPosition" x="837" y="15971"><tspan fill="rgb(0,0,0)" stroke="none">Throughput (Bytes per second)</tspan></tspan></tspan></text>
</svg>