<?xml version="1.0" encoding="UTF-8"?>
<!DOCTYPE svg PUBLIC "-//W3C//DTD SVG 1.1//EN" "http://www.w3.org/Graphics/SVG/1.1/DTD/svg11.dtd">
<svg width="275mm" height="270mm" viewBox="0 0 27500 27000" version="1.1" xmlns="http://www.w3.org/2000/svg" xmlns:xlink="http://www.w3.org/1999/xlink" stroke-width="28.222" stroke-linejoin="round" xml:space="preserve">
 <path fill="rgb(255,255,255)" stroke="none" d="M 13746,26989 L 0,26989 0,0 27492,0 27492,26989 13746,26989 Z"/>
 <path fill="none" stroke="rgb(179,179,179)" stroke-linejoin="round" d="M 12798,24822 L 2922,24822 2922,2192 22674,2192 22674,24822 12798,24822 Z"/>
 <path fill="none" stroke="rgb(179,179,179)" stroke-linejoin="round" d="M 22674,24821 L 2922,24821"/>
 <path fill="none" stroke="rgb(179,179,179)" stroke-linejoin="round" d="M 22674,21588 L 2922,21588"/>
 <path fill="none" stroke="rgb(179,179,179)" stroke-linejoin="round" d="M 22674,18355 L 2922,18355"/>
 <path fill="none" stroke="rgb(179,179,179)" stroke-linejoin="round" d="M 22674,15122 L 2922,15122"/>
 <path fill="none" stroke="rgb(179,179,179)" stroke-linejoin="round" d="M 22674,11890 L 2922,11890"/>
 <path fill="none" stroke="rgb(179,179,179)" stroke-linejoin="round" d="M 22674,8657 L 2922,8657"/>
 <path fill="none" stroke="rgb(179,179,179)" stroke-linejoin="round" d="M 22674,5424 L 2922,5424"/>
 <path fill="none" stroke="rgb(179,179,179)" stroke-linejoin="round" d="M 22674,2191 L 2922,2191"/>
 <path fill="none" stroke="rgb(179,179,179)" stroke-linejoin="round" d="M 2922,24971 L 2922,24821"/>
 <path fill="none" stroke="rgb(179,179,179)" stroke-linejoin="round" d="M 2922,24971 L 2922,24821"/>
 <path fill="none" stroke="rgb(179,179,179)" stroke-linejoin="round" d="M 4897,24971 L 4897,24821"/>
 <path fill="none" stroke="rgb(179,179,179)" stroke-linejoin="round" d="M 4897,24971 L 4897,24821"/>
 <path fill="none" stroke="rgb(179,179,179)" stroke-linejoin="round" d="M 6872,24971 L 6872,24821"/>
 <path fill="none" stroke="rgb(179,179,179)" stroke-linejoin="round" d="M 6872,24971 L 6872,24821"/>
 <path fill="none" stroke="rgb(179,179,179)" stroke-linejoin="round" d="M 8847,24971 L 8847,24821"/>
 <path fill="none" stroke="rgb(179,179,179)" stroke-linejoin="round" d="M 8847,24971 L 8847,24821"/>
 <path fill="none" stroke="rgb(179,179,179)" stroke-linejoin="round" d="M 10823,24971 L 10823,24821"/>
 <path fill="none" stroke="rgb(179,179,179)" stroke-linejoin="round" d="M 10823,24971 L 10823,24821"/>
 <path fill="none" stroke="rgb(179,179,179)" stroke-linejoin="round" d="M 12798,24971 L 12798,24821"/>
 <path fill="none" stroke="rgb(179,179,179)" stroke-linejoin="round" d="M 12798,24971 L 12798,24821"/>
 <path fill="none" stroke="rgb(179,179,179)" stroke-linejoin="round" d="M 14772,24971 L 14772,24821"/>
 <path fill="none" stroke="rgb(179,179,179)" stroke-linejoin="round" d="M 14772,24971 L 14772,24821"/>
 <path fill="none" stroke="rgb(179,179,179)" stroke-linejoin="round" d="M 16748,24971 L 16748,24821"/>
 <path fill="none" stroke="rgb(179,179,179)" stroke-linejoin="round" d="M 16748,24971 L 16748,24821"/>
 <path fill="none" stroke="rgb(179,179,179)" stroke-linejoin="round" d="M 18723,24971 L 18723,24821"/>
 <path fill="none" stroke="rgb(179,179,179)" stroke-linejoin="round" d="M 18723,24971 L 18723,24821"/>
 <path fill="none" stroke="rgb(179,179,179)" stroke-linejoin="round" d="M 20698,24971 L 20698,24821"/>
 <path fill="none" stroke="rgb(179,179,179)" stroke-linejoin="round" d="M 20698,24971 L 20698,24821"/>
 <path fill="none" stroke="rgb(179,179,179)" stroke-linejoin="round" d="M 22674,24971 L 22674,24821"/>
 <path fill="none" stroke="rgb(179,179,179)" stroke-linejoin="round" d="M 22674,24971 L 22674,24821"/>
 <path fill="none" stroke="rgb(179,179,179)" stroke-linejoin="round" d="M 2922,24821 L 22674,24821"/>
 <path fill="none" stroke="rgb(179,179,179)" stroke-linejoin="round" d="M 2772,24821 L 2922,24821"/>
 <path fill="none" stroke="rgb(179,179,179)" stroke-linejoin="round" d="M 2772,24821 L 2922,24821"/>
 <path fill="none" stroke="rgb(179,179,179)" stroke-linejoin="round" d="M 2772,21588 L 2922,21588"/>
 <path fill="none" stroke="rgb(179,179,179)" stroke-linejoin="round" d="M 2772,21588 L 2922,21588"/>
 <path fill="none" stroke="rgb(179,179,179)" stroke-linejoin="round" d="M 2772,18355 L 2922,18355"/>
 <path fill="none" stroke="rgb(179,179,179)" stroke-linejoin="round" d="M 2772,18355 L 2922,18355"/>
 <path fill="none" stroke="rgb(179,179,179)" stroke-linejoin="round" d="M 2772,15122 L 2922,15122"/>
 <path fill="none" stroke="rgb(179,179,179)" stroke-linejoin="round" d="M 2772,15122 L 2922,15122"/>
 <path fill="none" stroke="rgb(179,179,179)" stroke-linejoin="round" d="M 2772,11890 L 2922,11890"/>
 <path fill="none" stroke="rgb(179,179,179)" stroke-linejoin="round" d="M 2772,11890 L 2922,11890"/>
 <path fill="none" stroke="rgb(179,179,179)" stroke-linejoin="round" d="M 2772,8657 L 2922,8657"/>
 <path fill="none" stroke="rgb(179,179,179)" stroke-linejoin="round" d="M 2772,8657 L 2922,8657"/>
 <path fill="none" stroke="rgb(179,179,179)" stroke-linejoin="round" d="M 2772,5424 L 2922,5424"/>
 <path fill="none" stroke="rgb(179,179,179)" stroke-linejoin="round" d="M 2772,5424 L 2922,5424"/>
 <path fill="none" stroke="rgb(179,179,179)" stroke-linejoin="round" d="M 2772,2191 L 2922,2191"/>
 <path fill="none" stroke="rgb(179,179,179)" stroke-linejoin="round" d="M 2772,2191 L 2922,2191"/>
 <path fill="none" stroke="rgb(179,179,179)" stroke-linejoin="round" d="M 2922,24821 L 2922,2191"/>
 <path fill="none" stroke="rgb(0,69,134)" stroke-width="80" stroke-linejoin="round" d="M 6872,23499 L 8847,22285 10823,19840 12798,16741 14772,13152 16748,9673 18723,7126 20698,5611 22674,5678"/>
 <path fill="rgb(0,69,134)" stroke="none" d="M 6747,23374 L 6747,23624 6997,23624 6997,23374 6747,23374 Z"/>
 <path fill="none" stroke="rgb(0,69,134)" stroke-linejoin="round" d="M 6747,23374 L 6747,23624 6997,23624 6997,23374 6747,23374 Z"/>
 <path fill="rgb(0,69,134)" stroke="none" d="M 8722,22160 L 8722,22410 8972,22410 8972,22160 8722,22160 Z"/>
 <path fill="none" stroke="rgb(0,69,134)" stroke-linejoin="round" d="M 8722,22160 L 8722,22410 8972,22410 8972,22160 8722,22160 Z"/>
 <path fill="rgb(0,69,134)" stroke="none" d="M 10698,19715 L 10698,19965 10948,19965 10948,19715 10698,19715 Z"/>
 <path fill="none" stroke="rgb(0,69,134)" stroke-linejoin="round" d="M 10698,19715 L 10698,19965 10948,19965 10948,19715 10698,19715 Z"/>
 <path fill="rgb(0,69,134)" stroke="none" d="M 12673,16616 L 12673,16866 12923,16866 12923,16616 12673,16616 Z"/>
 <path fill="none" stroke="rgb(0,69,134)" stroke-linejoin="round" d="M 12673,16616 L 12673,16866 12923,16866 12923,16616 12673,16616 Z"/>
 <path fill="rgb(0,69,134)" stroke="none" d="M 14647,13027 L 14647,13277 14897,13277 14897,13027 14647,13027 Z"/>
 <path fill="none" stroke="rgb(0,69,134)" stroke-linejoin="round" d="M 14647,13027 L 14647,13277 14897,13277 14897,13027 14647,13027 Z"/>
 <path fill="rgb(0,69,134)" stroke="none" d="M 16623,9548 L 16623,9798 16873,9798 16873,9548 16623,9548 Z"/>
 <path fill="none" stroke="rgb(0,69,134)" stroke-linejoin="round" d="M 16623,9548 L 16623,9798 16873,9798 16873,9548 16623,9548 Z"/>
 <path fill="rgb(0,69,134)" stroke="none" d="M 18598,7001 L 18598,7251 18848,7251 18848,7001 18598,7001 Z"/>
 <path fill="none" stroke="rgb(0,69,134)" stroke-linejoin="round" d="M 18598,7001 L 18598,7251 18848,7251 18848,7001 18598,7001 Z"/>
 <path fill="rgb(0,69,134)" stroke="none" d="M 20573,5486 L 20573,5736 20823,5736 20823,5486 20573,5486 Z"/>
 <path fill="none" stroke="rgb(0,69,134)" stroke-linejoin="round" d="M 20573,5486 L 20573,5736 20823,5736 20823,5486 20573,5486 Z"/>
 <path fill="rgb(0,69,134)" stroke="none" d="M 22549,5553 L 22549,5803 22799,5803 22799,5553 22549,5553 Z"/>
 <path fill="none" stroke="rgb(0,69,134)" stroke-linejoin="round" d="M 22549,5553 L 22549,5803 22799,5803 22799,5553 22549,5553 Z"/>
 <path fill="none" stroke="rgb(255,66,14)" stroke-width="80" stroke-linejoin="round" d="M 6872,23501 L 8847,22291 10823,19872 12798,16898 14772,13315 16748,9909 18723,7445 20698,6121 22674,6123"/>
 <path fill="rgb(255,66,14)" stroke="none" d="M 6747,23501 L 6872,23626 6997,23501 6872,23376 6747,23501 Z"/>
 <path fill="none" stroke="rgb(255,66,14)" stroke-linejoin="round" d="M 6747,23501 L 6872,23626 6997,23501 6872,23376 6747,23501 Z"/>
 <path fill="rgb(255,66,14)" stroke="none" d="M 8722,22291 L 8847,22416 8972,22291 8847,22166 8722,22291 Z"/>
 <path fill="none" stroke="rgb(255,66,14)" stroke-linejoin="round" d="M 8722,22291 L 8847,22416 8972,22291 8847,22166 8722,22291 Z"/>
 <path fill="rgb(255,66,14)" stroke="none" d="M 10698,19872 L 10823,19997 10948,19872 10823,19747 10698,19872 Z"/>
 <path fill="none" stroke="rgb(255,66,14)" stroke-linejoin="round" d="M 10698,19872 L 10823,19997 10948,19872 10823,19747 10698,19872 Z"/>
 <path fill="rgb(255,66,14)" stroke="none" d="M 12673,16898 L 12798,17023 12923,16898 12798,16773 12673,16898 Z"/>
 <path fill="none" stroke="rgb(255,66,14)" stroke-linejoin="round" d="M 12673,16898 L 12798,17023 12923,16898 12798,16773 12673,16898 Z"/>
 <path fill="rgb(255,66,14)" stroke="none" d="M 14647,13315 L 14772,13440 14897,13315 14772,13190 14647,13315 Z"/>
 <path fill="none" stroke="rgb(255,66,14)" stroke-linejoin="round" d="M 14647,13315 L 14772,13440 14897,13315 14772,13190 14647,13315 Z"/>
 <path fill="rgb(255,66,14)" stroke="none" d="M 16623,9909 L 16748,10034 16873,9909 16748,9784 16623,9909 Z"/>
 <path fill="none" stroke="rgb(255,66,14)" stroke-linejoin="round" d="M 16623,9909 L 16748,10034 16873,9909 16748,9784 16623,9909 Z"/>
 <path fill="rgb(255,66,14)" stroke="none" d="M 18598,7445 L 18723,7570 18848,7445 18723,7320 18598,7445 Z"/>
 <path fill="none" stroke="rgb(255,66,14)" stroke-linejoin="round" d="M 18598,7445 L 18723,7570 18848,7445 18723,7320 18598,7445 Z"/>
 <path fill="rgb(255,66,14)" stroke="none" d="M 20573,6121 L 20698,6246 20823,6121 20698,5996 20573,6121 Z"/>
 <path fill="none" stroke="rgb(255,66,14)" stroke-linejoin="round" d="M 20573,6121 L 20698,6246 20823,6121 20698,5996 20573,6121 Z"/>
 <path fill="rgb(255,66,14)" stroke="none" d="M 22549,6123 L 22674,6248 22799,6123 22674,5998 22549,6123 Z"/>
 <path fill="none" stroke="rgb(255,66,14)" stroke-linejoin="round" d="M 22549,6123 L 22674,6248 22799,6123 22674,5998 22549,6123 Z"/>
 <path fill="none" stroke="rgb(255,211,32)" stroke-width="80" stroke-linejoin="round" d="M 2922,24019 L 4897,23277 6872,22561 8847,20631 10823,17962 12798,13582 14772,6022 16748,5980 18723,5898 20698,5974 22674,5895"/>
 <path fill="rgb(255,211,32)" stroke="none" d="M 2797,23894 L 2922,24144 3047,23894 2797,23894 Z"/>
 <path fill="none" stroke="rgb(255,211,32)" stroke-linejoin="round" d="M 2797,23894 L 2922,24144 3047,23894 2797,23894 Z"/>
 <path fill="rgb(255,211,32)" stroke="none" d="M 4772,23152 L 4897,23402 5022,23152 4772,23152 Z"/>
 <path fill="none" stroke="rgb(255,211,32)" stroke-linejoin="round" d="M 4772,23152 L 4897,23402 5022,23152 4772,23152 Z"/>
 <path fill="rgb(255,211,32)" stroke="none" d="M 6747,22436 L 6872,22686 6997,22436 6747,22436 Z"/>
 <path fill="none" stroke="rgb(255,211,32)" stroke-linejoin="round" d="M 6747,22436 L 6872,22686 6997,22436 6747,22436 Z"/>
 <path fill="rgb(255,211,32)" stroke="none" d="M 8722,20506 L 8847,20756 8972,20506 8722,20506 Z"/>
 <path fill="none" stroke="rgb(255,211,32)" stroke-linejoin="round" d="M 8722,20506 L 8847,20756 8972,20506 8722,20506 Z"/>
 <path fill="rgb(255,211,32)" stroke="none" d="M 10698,17837 L 10823,18087 10948,17837 10698,17837 Z"/>
 <path fill="none" stroke="rgb(255,211,32)" stroke-linejoin="round" d="M 10698,17837 L 10823,18087 10948,17837 10698,17837 Z"/>
 <path fill="rgb(255,211,32)" stroke="none" d="M 12673,13458 L 12798,13707 12923,13458 12673,13458 Z"/>
 <path fill="none" stroke="rgb(255,211,32)" stroke-linejoin="round" d="M 12673,13458 L 12798,13707 12923,13458 12673,13458 Z"/>
 <path fill="rgb(255,211,32)" stroke="none" d="M 14647,5897 L 14772,6147 14897,5897 14647,5897 Z"/>
 <path fill="none" stroke="rgb(255,211,32)" stroke-linejoin="round" d="M 14647,5897 L 14772,6147 14897,5897 14647,5897 Z"/>
 <path fill="rgb(255,211,32)" stroke="none" d="M 16623,5855 L 16748,6105 16873,5855 16623,5855 Z"/>
 <path fill="none" stroke="rgb(255,211,32)" stroke-linejoin="round" d="M 16623,5855 L 16748,6105 16873,5855 16623,5855 Z"/>
 <path fill="rgb(255,211,32)" stroke="none" d="M 18598,5773 L 18723,6023 18848,5773 18598,5773 Z"/>
 <path fill="none" stroke="rgb(255,211,32)" stroke-linejoin="round" d="M 18598,5773 L 18723,6023 18848,5773 18598,5773 Z"/>
 <path fill="rgb(255,211,32)" stroke="none" d="M 20573,5849 L 20698,6099 20823,5849 20573,5849 Z"/>
 <path fill="none" stroke="rgb(255,211,32)" stroke-linejoin="round" d="M 20573,5849 L 20698,6099 20823,5849 20573,5849 Z"/>
 <path fill="rgb(255,211,32)" stroke="none" d="M 22549,5770 L 22674,6020 22799,5770 22549,5770 Z"/>
 <path fill="none" stroke="rgb(255,211,32)" stroke-linejoin="round" d="M 22549,5770 L 22674,6020 22799,5770 22549,5770 Z"/>
 <path fill="none" stroke="rgb(87,157,28)" stroke-width="80" stroke-linejoin="round" d="M 4897,23802 L 6872,23316 8847,22062 10823,19727 12798,17463 14772,13781 16748,11576 18723,8264 20698,8262 22674,8262"/>
 <path fill="rgb(87,157,28)" stroke="none" d="M 4772,23927 L 5022,23927 4897,23677 4772,23927 Z"/>
 <path fill="none" stroke="rgb(87,157,28)" stroke-linejoin="round" d="M 4772,23927 L 5022,23927 4897,23677 4772,23927 Z"/>
 <path fill="rgb(87,157,28)" stroke="none" d="M 6747,23441 L 6997,23441 6872,23191 6747,23441 Z"/>
 <path fill="none" stroke="rgb(87,157,28)" stroke-linejoin="round" d="M 6747,23441 L 6997,23441 6872,23191 6747,23441 Z"/>
 <path fill="rgb(87,157,28)" stroke="none" d="M 8722,22187 L 8972,22187 8847,21937 8722,22187 Z"/>
 <path fill="none" stroke="rgb(87,157,28)" stroke-linejoin="round" d="M 8722,22187 L 8972,22187 8847,21937 8722,22187 Z"/>
 <path fill="rgb(87,157,28)" stroke="none" d="M 10698,19852 L 10948,19852 10823,19602 10698,19852 Z"/>
 <path fill="none" stroke="rgb(87,157,28)" stroke-linejoin="round" d="M 10698,19852 L 10948,19852 10823,19602 10698,19852 Z"/>
 <path fill="rgb(87,157,28)" stroke="none" d="M 12673,17588 L 12923,17588 12798,17338 12673,17588 Z"/>
 <path fill="none" stroke="rgb(87,157,28)" stroke-linejoin="round" d="M 12673,17588 L 12923,17588 12798,17338 12673,17588 Z"/>
 <path fill="rgb(87,157,28)" stroke="none" d="M 14647,13906 L 14897,13906 14772,13656 14647,13906 Z"/>
 <path fill="none" stroke="rgb(87,157,28)" stroke-linejoin="round" d="M 14647,13906 L 14897,13906 14772,13656 14647,13906 Z"/>
 <path fill="rgb(87,157,28)" stroke="none" d="M 16623,11701 L 16873,11701 16748,11451 16623,11701 Z"/>
 <path fill="none" stroke="rgb(87,157,28)" stroke-linejoin="round" d="M 16623,11701 L 16873,11701 16748,11451 16623,11701 Z"/>
 <path fill="rgb(87,157,28)" stroke="none" d="M 18598,8389 L 18848,8389 18723,8139 18598,8389 Z"/>
 <path fill="none" stroke="rgb(87,157,28)" stroke-linejoin="round" d="M 18598,8389 L 18848,8389 18723,8139 18598,8389 Z"/>
 <path fill="rgb(87,157,28)" stroke="none" d="M 20573,8387 L 20823,8387 20698,8137 20573,8387 Z"/>
 <path fill="none" stroke="rgb(87,157,28)" stroke-linejoin="round" d="M 20573,8387 L 20823,8387 20698,8137 20573,8387 Z"/>
 <path fill="rgb(87,157,28)" stroke="none" d="M 22549,8387 L 22799,8387 22674,8137 22549,8387 Z"/>
 <path fill="none" stroke="rgb(87,157,28)" stroke-linejoin="round" d="M 22549,8387 L 22799,8387 22674,8137 22549,8387 Z"/>
 <path fill="none" stroke="rgb(126,0,33)" stroke-width="80" stroke-linejoin="round" d="M 2922,24318 L 4897,23846 6872,23396 8847,22171 10823,20301 12798,17539 14772,14927 16748,10569 18723,10553"/>
 <path fill="rgb(126,0,33)" stroke="none" d="M 2797,24193 L 2797,24443 3047,24318 2797,24193 Z"/>
 <path fill="none" stroke="rgb(126,0,33)" stroke-linejoin="round" d="M 2797,24193 L 2797,24443 3047,24318 2797,24193 Z"/>
 <path fill="rgb(126,0,33)" stroke="none" d="M 4772,23721 L 4772,23971 5022,23846 4772,23721 Z"/>
 <path fill="none" stroke="rgb(126,0,33)" stroke-linejoin="round" d="M 4772,23721 L 4772,23971 5022,23846 4772,23721 Z"/>
 <path fill="rgb(126,0,33)" stroke="none" d="M 6747,23271 L 6747,23521 6997,23396 6747,23271 Z"/>
 <path fill="none" stroke="rgb(126,0,33)" stroke-linejoin="round" d="M 6747,23271 L 6747,23521 6997,23396 6747,23271 Z"/>
 <path fill="rgb(126,0,33)" stroke="none" d="M 8722,22046 L 8722,22296 8972,22171 8722,22046 Z"/>
 <path fill="none" stroke="rgb(126,0,33)" stroke-linejoin="round" d="M 8722,22046 L 8722,22296 8972,22171 8722,22046 Z"/>
 <path fill="rgb(126,0,33)" stroke="none" d="M 10698,20176 L 10698,20426 10948,20301 10698,20176 Z"/>
 <path fill="none" stroke="rgb(126,0,33)" stroke-linejoin="round" d="M 10698,20176 L 10698,20426 10948,20301 10698,20176 Z"/>
 <path fill="rgb(126,0,33)" stroke="none" d="M 12673,17414 L 12673,17664 12923,17539 12673,17414 Z"/>
 <path fill="none" stroke="rgb(126,0,33)" stroke-linejoin="round" d="M 12673,17414 L 12673,17664 12923,17539 12673,17414 Z"/>
 <path fill="rgb(126,0,33)" stroke="none" d="M 14647,14802 L 14647,15052 14897,14927 14647,14802 Z"/>
 <path fill="none" stroke="rgb(126,0,33)" stroke-linejoin="round" d="M 14647,14802 L 14647,15052 14897,14927 14647,14802 Z"/>
 <path fill="rgb(126,0,33)" stroke="none" d="M 16623,10444 L 16623,10694 16873,10569 16623,10444 Z"/>
 <path fill="none" stroke="rgb(126,0,33)" stroke-linejoin="round" d="M 16623,10444 L 16623,10694 16873,10569 16623,10444 Z"/>
 <path fill="rgb(126,0,33)" stroke="none" d="M 18598,10428 L 18598,10678 18848,10553 18598,10428 Z"/>
 <path fill="none" stroke="rgb(126,0,33)" stroke-linejoin="round" d="M 18598,10428 L 18598,10678 18848,10553 18598,10428 Z"/>
 <path fill="none" stroke="rgb(131,202,255)" stroke-width="80" stroke-linejoin="round" d="M 2922,24429 L 4897,24124 6872,23949 8847,23679 10823,23165 12798,23165 14772,23165 16748,23165 18723,23166 20698,23165 22674,23165"/>
 <path fill="rgb(131,202,255)" stroke="none" d="M 2797,24429 L 3047,24554 3047,24304 2797,24429 Z"/>
 <path fill="none" stroke="rgb(131,202,255)" stroke-linejoin="round" d="M 2797,24429 L 3047,24554 3047,24304 2797,24429 Z"/>
 <path fill="rgb(131,202,255)" stroke="none" d="M 4772,24124 L 5022,24249 5022,23999 4772,24124 Z"/>
 <path fill="none" stroke="rgb(131,202,255)" stroke-linejoin="round" d="M 4772,24124 L 5022,24249 5022,23999 4772,24124 Z"/>
 <path fill="rgb(131,202,255)" stroke="none" d="M 6747,23949 L 6997,24074 6997,23824 6747,23949 Z"/>
 <path fill="none" stroke="rgb(131,202,255)" stroke-linejoin="round" d="M 6747,23949 L 6997,24074 6997,23824 6747,23949 Z"/>
 <path fill="rgb(131,202,255)" stroke="none" d="M 8722,23679 L 8972,23804 8972,23554 8722,23679 Z"/>
 <path fill="none" stroke="rgb(131,202,255)" stroke-linejoin="round" d="M 8722,23679 L 8972,23804 8972,23554 8722,23679 Z"/>
 <path fill="rgb(131,202,255)" stroke="none" d="M 10698,23165 L 10948,23290 10948,23040 10698,23165 Z"/>
 <path fill="none" stroke="rgb(131,202,255)" stroke-linejoin="round" d="M 10698,23165 L 10948,23290 10948,23040 10698,23165 Z"/>
 <path fill="rgb(131,202,255)" stroke="none" d="M 12673,23165 L 12923,23290 12923,23040 12673,23165 Z"/>
 <path fill="none" stroke="rgb(131,202,255)" stroke-linejoin="round" d="M 12673,23165 L 12923,23290 12923,23040 12673,23165 Z"/>
 <path fill="rgb(131,202,255)" stroke="none" d="M 14647,23165 L 14897,23290 14897,23040 14647,23165 Z"/>
 <path fill="none" stroke="rgb(131,202,255)" stroke-linejoin="round" d="M 14647,23165 L 14897,23290 14897,23040 14647,23165 Z"/>
 <path fill="rgb(131,202,255)" stroke="none" d="M 16623,23165 L 16873,23290 16873,23040 16623,23165 Z"/>
 <path fill="none" stroke="rgb(131,202,255)" stroke-linejoin="round" d="M 16623,23165 L 16873,23290 16873,23040 16623,23165 Z"/>
 <path fill="rgb(131,202,255)" stroke="none" d="M 18598,23166 L 18848,23291 18848,23041 18598,23166 Z"/>
 <path fill="none" stroke="rgb(131,202,255)" stroke-linejoin="round" d="M 18598,23166 L 18848,23291 18848,23041 18598,23166 Z"/>
 <path fill="rgb(131,202,255)" stroke="none" d="M 20573,23165 L 20823,23290 20823,23040 20573,23165 Z"/>
 <path fill="none" stroke="rgb(131,202,255)" stroke-linejoin="round" d="M 20573,23165 L 20823,23290 20823,23040 20573,23165 Z"/>
 <path fill="rgb(131,202,255)" stroke="none" d="M 22549,23165 L 22799,23290 22799,23040 22549,23165 Z"/>
 <path fill="none" stroke="rgb(131,202,255)" stroke-linejoin="round" d="M 22549,23165 L 22799,23290 22799,23040 22549,23165 Z"/>
 <path fill="none" stroke="rgb(49,64,4)" stroke-width="80" stroke-linejoin="round" d="M 2922,24399 L 4897,24023 6872,23651 8847,23059 10823,21342 12798,21336 14772,21313 16748,21313 18723,21307 20698,21307 22674,21313"/>
 <path fill="rgb(49,64,4)" stroke="none" d="M 2797,24274 L 2797,24524 3047,24274 3047,24524 2797,24274 Z"/>
 <path fill="none" stroke="rgb(49,64,4)" stroke-linejoin="round" d="M 2797,24274 L 2797,24524 3047,24274 3047,24524 2797,24274 Z"/>
 <path fill="rgb(49,64,4)" stroke="none" d="M 4772,23898 L 4772,24148 5022,23898 5022,24148 4772,23898 Z"/>
 <path fill="none" stroke="rgb(49,64,4)" stroke-linejoin="round" d="M 4772,23898 L 4772,24148 5022,23898 5022,24148 4772,23898 Z"/>
 <path fill="rgb(49,64,4)" stroke="none" d="M 6747,23526 L 6747,23776 6997,23526 6997,23776 6747,23526 Z"/>
 <path fill="none" stroke="rgb(49,64,4)" stroke-linejoin="round" d="M 6747,23526 L 6747,23776 6997,23526 6997,23776 6747,23526 Z"/>
 <path fill="rgb(49,64,4)" stroke="none" d="M 8722,22934 L 8722,23184 8972,22934 8972,23184 8722,22934 Z"/>
 <path fill="none" stroke="rgb(49,64,4)" stroke-linejoin="round" d="M 8722,22934 L 8722,23184 8972,22934 8972,23184 8722,22934 Z"/>
 <path fill="rgb(49,64,4)" stroke="none" d="M 10698,21217 L 10698,21467 10948,21217 10948,21467 10698,21217 Z"/>
 <path fill="none" stroke="rgb(49,64,4)" stroke-linejoin="round" d="M 10698,21217 L 10698,21467 10948,21217 10948,21467 10698,21217 Z"/>
 <path fill="rgb(49,64,4)" stroke="none" d="M 12673,21211 L 12673,21461 12923,21211 12923,21461 12673,21211 Z"/>
 <path fill="none" stroke="rgb(49,64,4)" stroke-linejoin="round" d="M 12673,21211 L 12673,21461 12923,21211 12923,21461 12673,21211 Z"/>
 <path fill="rgb(49,64,4)" stroke="none" d="M 14647,21188 L 14647,21438 14897,21188 14897,21438 14647,21188 Z"/>
 <path fill="none" stroke="rgb(49,64,4)" stroke-linejoin="round" d="M 14647,21188 L 14647,21438 14897,21188 14897,21438 14647,21188 Z"/>
 <path fill="rgb(49,64,4)" stroke="none" d="M 16623,21188 L 16623,21438 16873,21188 16873,21438 16623,21188 Z"/>
 <path fill="none" stroke="rgb(49,64,4)" stroke-linejoin="round" d="M 16623,21188 L 16623,21438 16873,21188 16873,21438 16623,21188 Z"/>
 <path fill="rgb(49,64,4)" stroke="none" d="M 18598,21182 L 18598,21432 18848,21182 18848,21432 18598,21182 Z"/>
 <path fill="none" stroke="rgb(49,64,4)" stroke-linejoin="round" d="M 18598,21182 L 18598,21432 18848,21182 18848,21432 18598,21182 Z"/>
 <path fill="rgb(49,64,4)" stroke="none" d="M 20573,21182 L 20573,21432 20823,21182 20823,21432 20573,21182 Z"/>
 <path fill="none" stroke="rgb(49,64,4)" stroke-linejoin="round" d="M 20573,21182 L 20573,21432 20823,21182 20823,21432 20573,21182 Z"/>
 <path fill="rgb(49,64,4)" stroke="none" d="M 22549,21188 L 22549,21438 22799,21188 22799,21438 22549,21188 Z"/>
 <path fill="none" stroke="rgb(49,64,4)" stroke-linejoin="round" d="M 22549,21188 L 22549,21438 22799,21188 22799,21438 22549,21188 Z"/>
 <path fill="none" stroke="rgb(174,207,0)" stroke-width="80" stroke-linejoin="round" d="M 2922,23949 L 4897,23679 6872,23679 8847,23165 10823,23165 12798,23165 14772,23165 16748,23165"/>
 <path fill="rgb(174,207,0)" stroke="none" d="M 2797,24074 L 3047,24074 2797,23824 3047,23824 2797,24074 Z"/>
 <path fill="none" stroke="rgb(174,207,0)" stroke-linejoin="round" d="M 2797,24074 L 3047,24074 2797,23824 3047,23824 2797,24074 Z"/>
 <path fill="rgb(174,207,0)" stroke="none" d="M 4772,23804 L 5022,23804 4772,23554 5022,23554 4772,23804 Z"/>
 <path fill="none" stroke="rgb(174,207,0)" stroke-linejoin="round" d="M 4772,23804 L 5022,23804 4772,23554 5022,23554 4772,23804 Z"/>
 <path fill="rgb(174,207,0)" stroke="none" d="M 6747,23804 L 6997,23804 6747,23554 6997,23554 6747,23804 Z"/>
 <path fill="none" stroke="rgb(174,207,0)" stroke-linejoin="round" d="M 6747,23804 L 6997,23804 6747,23554 6997,23554 6747,23804 Z"/>
 <path fill="rgb(174,207,0)" stroke="none" d="M 8722,23290 L 8972,23290 8722,23040 8972,23040 8722,23290 Z"/>
 <path fill="none" stroke="rgb(174,207,0)" stroke-linejoin="round" d="M 8722,23290 L 8972,23290 8722,23040 8972,23040 8722,23290 Z"/>
 <path fill="rgb(174,207,0)" stroke="none" d="M 10698,23290 L 10948,23290 10698,23040 10948,23040 10698,23290 Z"/>
 <path fill="none" stroke="rgb(174,207,0)" stroke-linejoin="round" d="M 10698,23290 L 10948,23290 10698,23040 10948,23040 10698,23290 Z"/>
 <path fill="rgb(174,207,0)" stroke="none" d="M 12673,23290 L 12923,23290 12673,23040 12923,23040 12673,23290 Z"/>
 <path fill="none" stroke="rgb(174,207,0)" stroke-linejoin="round" d="M 12673,23290 L 12923,23290 12673,23040 12923,23040 12673,23290 Z"/>
 <path fill="rgb(174,207,0)" stroke="none" d="M 14647,23290 L 14897,23290 14647,23040 14897,23040 14647,23290 Z"/>
 <path fill="none" stroke="rgb(174,207,0)" stroke-linejoin="round" d="M 14647,23290 L 14897,23290 14647,23040 14897,23040 14647,23290 Z"/>
 <path fill="rgb(174,207,0)" stroke="none" d="M 16623,23290 L 16873,23290 16623,23040 16873,23040 16623,23290 Z"/>
 <path fill="none" stroke="rgb(174,207,0)" stroke-linejoin="round" d="M 16623,23290 L 16873,23290 16623,23040 16873,23040 16623,23290 Z"/>
 <path fill="none" stroke="rgb(75,31,111)" stroke-width="80" stroke-linejoin="round" d="M 2922,23165 L 4897,23165 6872,23165 8847,23165 10823,23165 12798,23165 14772,23165 16748,23165 18723,23165 20698,23165 22674,23165"/>
 <path fill="rgb(75,31,111)" stroke="none" d="M 3047,23165 L 3046,23160 3046,23154 3045,23149 3045,23143 3044,23138 3042,23133 3041,23128 3039,23122 3037,23117 3035,23112 3032,23107 3030,23103 3027,23098 3024,23093 3021,23089 3017,23085 3014,23081 3010,23077 3006,23073 3002,23069 2998,23066 2993,23063 2989,23060 2984,23057 2979,23054 2974,23052 2969,23050 2964,23048 2959,23046 2954,23044 2949,23043 2943,23042 2938,23041 2932,23041 2927,23040 2922,23040 2916,23040 2911,23041 2905,23041 2900,23042 2894,23043 2889,23044 2884,23046 2879,23048 2874,23050 2869,23052 2864,23054 2859,23057 2854,23060 2850,23063 2845,23066 2841,23069 2837,23073 2833,23077 2829,23081 2826,23085 2822,23089 2819,23093 2816,23098 2813,23103 2811,23107 2808,23112 2806,23117 2804,23122 2802,23128 2801,23133 2799,23138 2798,23143 2798,23149 2797,23154 2797,23160 2797,23165 2797,23171 2797,23176 2798,23181 2798,23187 2799,23192 2801,23198 2802,23203 2804,23208 2806,23213 2808,23218 2811,23223 2813,23228 2816,23232 2819,23237 2822,23241 2826,23245 2829,23250 2833,23254 2837,23257 2841,23261 2845,23264 2850,23268 2854,23271 2859,23273 2864,23276 2869,23278 2874,23281 2879,23283 2884,23284 2889,23286 2894,23287 2900,23288 2905,23289 2911,23290 2916,23290 2922,23290 2927,23290 2932,23290 2938,23289 2943,23288 2949,23287 2954,23286 2959,23284 2964,23283 2969,23281 2974,23278 2979,23276 2984,23273 2989,23271 2993,23268 2998,23264 3002,23261 3006,23257 3010,23254 3014,23250 3017,23245 3021,23241 3024,23237 3027,23232 3030,23228 3032,23223 3035,23218 3037,23213 3039,23208 3041,23203 3042,23198 3044,23192 3045,23187 3045,23181 3046,23176 3046,23171 3047,23165 Z"/>
 <path fill="none" stroke="rgb(75,31,111)" stroke-linejoin="round" d="M 3047,23165 L 3046,23160 3046,23154 3045,23149 3045,23143 3044,23138 3042,23133 3041,23128 3039,23122 3037,23117 3035,23112 3032,23107 3030,23103 3027,23098 3024,23093 3021,23089 3017,23085 3014,23081 3010,23077 3006,23073 3002,23069 2998,23066 2993,23063 2989,23060 2984,23057 2979,23054 2974,23052 2969,23050 2964,23048 2959,23046 2954,23044 2949,23043 2943,23042 2938,23041 2932,23041 2927,23040 2922,23040 2916,23040 2911,23041 2905,23041 2900,23042 2894,23043 2889,23044 2884,23046 2879,23048 2874,23050 2869,23052 2864,23054 2859,23057 2854,23060 2850,23063 2845,23066 2841,23069 2837,23073 2833,23077 2829,23081 2826,23085 2822,23089 2819,23093 2816,23098 2813,23103 2811,23107 2808,23112 2806,23117 2804,23122 2802,23128 2801,23133 2799,23138 2798,23143 2798,23149 2797,23154 2797,23160 2797,23165 2797,23171 2797,23176 2798,23181 2798,23187 2799,23192 2801,23198 2802,23203 2804,23208 2806,23213 2808,23218 2811,23223 2813,23228 2816,23232 2819,23237 2822,23241 2826,23245 2829,23250 2833,23254 2837,23257 2841,23261 2845,23264 2850,23268 2854,23271 2859,23273 2864,23276 2869,23278 2874,23281 2879,23283 2884,23284 2889,23286 2894,23287 2900,23288 2905,23289 2911,23290 2916,23290 2922,23290 2927,23290 2932,23290 2938,23289 2943,23288 2949,23287 2954,23286 2959,23284 2964,23283 2969,23281 2974,23278 2979,23276 2984,23273 2989,23271 2993,23268 2998,23264 3002,23261 3006,23257 3010,23254 3014,23250 3017,23245 3021,23241 3024,23237 3027,23232 3030,23228 3032,23223 3035,23218 3037,23213 3039,23208 3041,23203 3042,23198 3044,23192 3045,23187 3045,23181 3046,23176 3046,23171 3047,23165 Z"/>
 <path fill="rgb(75,31,111)" stroke="none" d="M 5022,23165 L 5022,23160 5021,23154 5021,23149 5020,23143 5019,23138 5018,23133 5016,23128 5014,23122 5012,23117 5010,23112 5008,23107 5005,23103 5002,23098 4999,23093 4996,23089 4993,23085 4989,23081 4985,23077 4981,23073 4977,23069 4973,23066 4968,23063 4964,23060 4959,23057 4955,23054 4950,23052 4945,23050 4940,23048 4934,23046 4929,23044 4924,23043 4919,23042 4913,23041 4908,23041 4902,23040 4897,23040 4891,23040 4886,23041 4880,23041 4875,23042 4870,23043 4864,23044 4859,23046 4854,23048 4849,23050 4844,23052 4839,23054 4834,23057 4830,23060 4825,23063 4821,23066 4816,23069 4812,23073 4808,23077 4805,23081 4801,23085 4798,23089 4794,23093 4791,23098 4789,23103 4786,23107 4784,23112 4781,23117 4779,23122 4778,23128 4776,23133 4775,23138 4774,23143 4773,23149 4772,23154 4772,23160 4772,23165 4772,23171 4772,23176 4773,23181 4774,23187 4775,23192 4776,23197 4778,23203 4779,23208 4781,23213 4784,23218 4786,23223 4789,23228 4791,23232 4794,23237 4798,23241 4801,23245 4805,23250 4808,23254 4812,23257 4816,23261 4821,23264 4825,23268 4830,23271 4834,23273 4839,23276 4844,23278 4849,23281 4854,23283 4859,23284 4864,23286 4870,23287 4875,23288 4880,23289 4886,23290 4891,23290 4897,23290 4902,23290 4908,23290 4913,23289 4919,23288 4924,23287 4929,23286 4934,23284 4940,23283 4945,23281 4950,23278 4955,23276 4959,23273 4964,23271 4968,23268 4973,23264 4977,23261 4981,23257 4985,23254 4989,23250 4993,23245 4996,23241 4999,23237 5002,23232 5005,23228 5008,23223 5010,23218 5012,23213 5014,23208 5016,23203 5018,23197 5019,23192 5020,23187 5021,23181 5021,23176 5022,23171 5022,23165 Z"/>
 <path fill="none" stroke="rgb(75,31,111)" stroke-linejoin="round" d="M 5022,23165 L 5022,23160 5021,23154 5021,23149 5020,23143 5019,23138 5018,23133 5016,23128 5014,23122 5012,23117 5010,23112 5008,23107 5005,23103 5002,23098 4999,23093 4996,23089 4993,23085 4989,23081 4985,23077 4981,23073 4977,23069 4973,23066 4968,23063 4964,23060 4959,23057 4955,23054 4950,23052 4945,23050 4940,23048 4934,23046 4929,23044 4924,23043 4919,23042 4913,23041 4908,23041 4902,23040 4897,23040 4891,23040 4886,23041 4880,23041 4875,23042 4870,23043 4864,23044 4859,23046 4854,23048 4849,23050 4844,23052 4839,23054 4834,23057 4830,23060 4825,23063 4821,23066 4816,23069 4812,23073 4808,23077 4805,23081 4801,23085 4798,23089 4794,23093 4791,23098 4789,23103 4786,23107 4784,23112 4781,23117 4779,23122 4778,23128 4776,23133 4775,23138 4774,23143 4773,23149 4772,23154 4772,23160 4772,23165 4772,23171 4772,23176 4773,23181 4774,23187 4775,23192 4776,23197 4778,23203 4779,23208 4781,23213 4784,23218 4786,23223 4789,23228 4791,23232 4794,23237 4798,23241 4801,23245 4805,23250 4808,23254 4812,23257 4816,23261 4821,23264 4825,23268 4830,23271 4834,23273 4839,23276 4844,23278 4849,23281 4854,23283 4859,23284 4864,23286 4870,23287 4875,23288 4880,23289 4886,23290 4891,23290 4897,23290 4902,23290 4908,23290 4913,23289 4919,23288 4924,23287 4929,23286 4934,23284 4940,23283 4945,23281 4950,23278 4955,23276 4959,23273 4964,23271 4968,23268 4973,23264 4977,23261 4981,23257 4985,23254 4989,23250 4993,23245 4996,23241 4999,23237 5002,23232 5005,23228 5008,23223 5010,23218 5012,23213 5014,23208 5016,23203 5018,23197 5019,23192 5020,23187 5021,23181 5021,23176 5022,23171 5022,23165 Z"/>
 <path fill="rgb(75,31,111)" stroke="none" d="M 6997,23165 L 6997,23160 6997,23154 6996,23149 6995,23143 6994,23138 6993,23133 6991,23128 6990,23122 6988,23117 6985,23112 6983,23107 6980,23103 6978,23098 6974,23093 6971,23089 6968,23085 6964,23081 6960,23077 6957,23073 6952,23069 6948,23066 6944,23063 6939,23060 6935,23057 6930,23054 6925,23052 6920,23050 6915,23048 6910,23046 6904,23044 6899,23043 6894,23042 6888,23041 6883,23041 6878,23040 6872,23040 6867,23040 6861,23041 6856,23041 6850,23042 6845,23043 6840,23044 6835,23046 6829,23048 6824,23050 6819,23052 6814,23054 6810,23057 6805,23060 6800,23063 6796,23066 6792,23069 6788,23073 6784,23077 6780,23081 6776,23085 6773,23089 6770,23093 6767,23098 6764,23103 6761,23107 6759,23112 6757,23117 6755,23122 6753,23128 6751,23133 6750,23138 6749,23143 6748,23149 6748,23154 6747,23160 6747,23165 6747,23171 6748,23176 6748,23181 6749,23187 6750,23192 6751,23197 6753,23203 6755,23208 6757,23213 6759,23218 6761,23223 6764,23228 6767,23232 6770,23237 6773,23241 6776,23245 6780,23250 6784,23254 6788,23257 6792,23261 6796,23264 6800,23268 6805,23271 6810,23273 6814,23276 6819,23278 6824,23281 6829,23283 6835,23284 6840,23286 6845,23287 6850,23288 6856,23289 6861,23290 6867,23290 6872,23290 6878,23290 6883,23290 6888,23289 6894,23288 6899,23287 6904,23286 6910,23284 6915,23283 6920,23281 6925,23278 6930,23276 6935,23273 6939,23271 6944,23268 6948,23264 6952,23261 6957,23257 6960,23254 6964,23250 6968,23245 6971,23241 6974,23237 6978,23232 6980,23228 6983,23223 6985,23218 6988,23213 6990,23208 6991,23203 6993,23197 6994,23192 6995,23187 6996,23181 6997,23176 6997,23171 6997,23165 Z"/>
 <path fill="none" stroke="rgb(75,31,111)" stroke-linejoin="round" d="M 6997,23165 L 6997,23160 6997,23154 6996,23149 6995,23143 6994,23138 6993,23133 6991,23128 6990,23122 6988,23117 6985,23112 6983,23107 6980,23103 6978,23098 6974,23093 6971,23089 6968,23085 6964,23081 6960,23077 6957,23073 6952,23069 6948,23066 6944,23063 6939,23060 6935,23057 6930,23054 6925,23052 6920,23050 6915,23048 6910,23046 6904,23044 6899,23043 6894,23042 6888,23041 6883,23041 6878,23040 6872,23040 6867,23040 6861,23041 6856,23041 6850,23042 6845,23043 6840,23044 6835,23046 6829,23048 6824,23050 6819,23052 6814,23054 6810,23057 6805,23060 6800,23063 6796,23066 6792,23069 6788,23073 6784,23077 6780,23081 6776,23085 6773,23089 6770,23093 6767,23098 6764,23103 6761,23107 6759,23112 6757,23117 6755,23122 6753,23128 6751,23133 6750,23138 6749,23143 6748,23149 6748,23154 6747,23160 6747,23165 6747,23171 6748,23176 6748,23181 6749,23187 6750,23192 6751,23197 6753,23203 6755,23208 6757,23213 6759,23218 6761,23223 6764,23228 6767,23232 6770,23237 6773,23241 6776,23245 6780,23250 6784,23254 6788,23257 6792,23261 6796,23264 6800,23268 6805,23271 6810,23273 6814,23276 6819,23278 6824,23281 6829,23283 6835,23284 6840,23286 6845,23287 6850,23288 6856,23289 6861,23290 6867,23290 6872,23290 6878,23290 6883,23290 6888,23289 6894,23288 6899,23287 6904,23286 6910,23284 6915,23283 6920,23281 6925,23278 6930,23276 6935,23273 6939,23271 6944,23268 6948,23264 6952,23261 6957,23257 6960,23254 6964,23250 6968,23245 6971,23241 6974,23237 6978,23232 6980,23228 6983,23223 6985,23218 6988,23213 6990,23208 6991,23203 6993,23197 6994,23192 6995,23187 6996,23181 6997,23176 6997,23171 6997,23165 Z"/>
 <path fill="rgb(75,31,111)" stroke="none" d="M 8972,23165 L 8972,23160 8972,23154 8971,23149 8971,23143 8969,23138 8968,23133 8967,23128 8965,23122 8963,23117 8961,23112 8958,23107 8956,23103 8953,23098 8950,23093 8947,23089 8943,23085 8940,23081 8936,23077 8932,23073 8928,23069 8923,23066 8919,23063 8915,23060 8910,23057 8905,23054 8900,23052 8895,23050 8890,23048 8885,23046 8880,23044 8874,23043 8869,23042 8864,23041 8858,23041 8853,23040 8847,23040 8842,23040 8837,23041 8831,23041 8826,23042 8820,23043 8815,23044 8810,23046 8805,23048 8800,23050 8795,23052 8790,23054 8785,23057 8780,23060 8776,23063 8771,23066 8767,23069 8763,23073 8759,23077 8755,23081 8752,23085 8748,23089 8745,23093 8742,23098 8739,23103 8737,23107 8734,23112 8732,23117 8730,23122 8728,23128 8727,23133 8725,23138 8724,23143 8723,23149 8723,23154 8723,23160 8722,23165 8723,23171 8723,23176 8723,23181 8724,23187 8725,23192 8727,23197 8728,23203 8730,23208 8732,23213 8734,23218 8737,23223 8739,23228 8742,23232 8745,23237 8748,23241 8752,23245 8755,23250 8759,23254 8763,23257 8767,23261 8771,23264 8776,23268 8780,23271 8785,23273 8790,23276 8795,23278 8800,23281 8805,23283 8810,23284 8815,23286 8820,23287 8826,23288 8831,23289 8837,23290 8842,23290 8847,23290 8853,23290 8858,23290 8864,23289 8869,23288 8874,23287 8880,23286 8885,23284 8890,23283 8895,23281 8900,23278 8905,23276 8910,23273 8915,23271 8919,23268 8923,23264 8928,23261 8932,23257 8936,23254 8940,23250 8943,23245 8947,23241 8950,23237 8953,23232 8956,23228 8958,23223 8961,23218 8963,23213 8965,23208 8967,23203 8968,23197 8969,23192 8971,23187 8971,23181 8972,23176 8972,23171 8972,23165 Z"/>
 <path fill="none" stroke="rgb(75,31,111)" stroke-linejoin="round" d="M 8972,23165 L 8972,23160 8972,23154 8971,23149 8971,23143 8969,23138 8968,23133 8967,23128 8965,23122 8963,23117 8961,23112 8958,23107 8956,23103 8953,23098 8950,23093 8947,23089 8943,23085 8940,23081 8936,23077 8932,23073 8928,23069 8923,23066 8919,23063 8915,23060 8910,23057 8905,23054 8900,23052 8895,23050 8890,23048 8885,23046 8880,23044 8874,23043 8869,23042 8864,23041 8858,23041 8853,23040 8847,23040 8842,23040 8837,23041 8831,23041 8826,23042 8820,23043 8815,23044 8810,23046 8805,23048 8800,23050 8795,23052 8790,23054 8785,23057 8780,23060 8776,23063 8771,23066 8767,23069 8763,23073 8759,23077 8755,23081 8752,23085 8748,23089 8745,23093 8742,23098 8739,23103 8737,23107 8734,23112 8732,23117 8730,23122 8728,23128 8727,23133 8725,23138 8724,23143 8723,23149 8723,23154 8723,23160 8722,23165 8723,23171 8723,23176 8723,23181 8724,23187 8725,23192 8727,23197 8728,23203 8730,23208 8732,23213 8734,23218 8737,23223 8739,23228 8742,23232 8745,23237 8748,23241 8752,23245 8755,23250 8759,23254 8763,23257 8767,23261 8771,23264 8776,23268 8780,23271 8785,23273 8790,23276 8795,23278 8800,23281 8805,23283 8810,23284 8815,23286 8820,23287 8826,23288 8831,23289 8837,23290 8842,23290 8847,23290 8853,23290 8858,23290 8864,23289 8869,23288 8874,23287 8880,23286 8885,23284 8890,23283 8895,23281 8900,23278 8905,23276 8910,23273 8915,23271 8919,23268 8923,23264 8928,23261 8932,23257 8936,23254 8940,23250 8943,23245 8947,23241 8950,23237 8953,23232 8956,23228 8958,23223 8961,23218 8963,23213 8965,23208 8967,23203 8968,23197 8969,23192 8971,23187 8971,23181 8972,23176 8972,23171 8972,23165 Z"/>
 <path fill="rgb(75,31,111)" stroke="none" d="M 10948,23165 L 10948,23160 10947,23154 10947,23149 10946,23143 10945,23138 10943,23133 10942,23128 10940,23122 10938,23117 10936,23112 10934,23107 10931,23103 10928,23098 10925,23093 10922,23089 10918,23085 10915,23081 10911,23077 10907,23073 10903,23069 10899,23066 10894,23063 10890,23060 10885,23057 10880,23054 10876,23052 10871,23050 10865,23048 10860,23046 10855,23044 10850,23043 10844,23042 10839,23041 10834,23041 10828,23040 10823,23040 10817,23040 10812,23041 10806,23041 10801,23042 10796,23043 10790,23044 10785,23046 10780,23048 10775,23050 10770,23052 10765,23054 10760,23057 10756,23060 10751,23063 10747,23066 10742,23069 10738,23073 10734,23077 10731,23081 10727,23085 10724,23089 10720,23093 10717,23098 10714,23103 10712,23107 10709,23112 10707,23117 10705,23122 10703,23128 10702,23133 10701,23138 10700,23143 10699,23149 10698,23154 10698,23160 10698,23165 10698,23171 10698,23176 10699,23181 10700,23187 10701,23192 10702,23198 10703,23203 10705,23208 10707,23213 10709,23218 10712,23223 10714,23228 10717,23232 10720,23237 10724,23241 10727,23245 10731,23250 10734,23254 10738,23257 10742,23261 10747,23264 10751,23268 10756,23271 10760,23273 10765,23276 10770,23278 10775,23281 10780,23283 10785,23284 10790,23286 10796,23287 10801,23288 10806,23289 10812,23290 10817,23290 10823,23290 10828,23290 10834,23290 10839,23289 10844,23288 10850,23287 10855,23286 10860,23284 10865,23283 10871,23281 10876,23278 10880,23276 10885,23273 10890,23271 10894,23268 10899,23264 10903,23261 10907,23257 10911,23254 10915,23250 10918,23245 10922,23241 10925,23237 10928,23232 10931,23228 10934,23223 10936,23218 10938,23213 10940,23208 10942,23203 10943,23198 10945,23192 10946,23187 10947,23181 10947,23176 10948,23171 10948,23165 Z"/>
 <path fill="none" stroke="rgb(75,31,111)" stroke-linejoin="round" d="M 10948,23165 L 10948,23160 10947,23154 10947,23149 10946,23143 10945,23138 10943,23133 10942,23128 10940,23122 10938,23117 10936,23112 10934,23107 10931,23103 10928,23098 10925,23093 10922,23089 10918,23085 10915,23081 10911,23077 10907,23073 10903,23069 10899,23066 10894,23063 10890,23060 10885,23057 10880,23054 10876,23052 10871,23050 10865,23048 10860,23046 10855,23044 10850,23043 10844,23042 10839,23041 10834,23041 10828,23040 10823,23040 10817,23040 10812,23041 10806,23041 10801,23042 10796,23043 10790,23044 10785,23046 10780,23048 10775,23050 10770,23052 10765,23054 10760,23057 10756,23060 10751,23063 10747,23066 10742,23069 10738,23073 10734,23077 10731,23081 10727,23085 10724,23089 10720,23093 10717,23098 10714,23103 10712,23107 10709,23112 10707,23117 10705,23122 10703,23128 10702,23133 10701,23138 10700,23143 10699,23149 10698,23154 10698,23160 10698,23165 10698,23171 10698,23176 10699,23181 10700,23187 10701,23192 10702,23198 10703,23203 10705,23208 10707,23213 10709,23218 10712,23223 10714,23228 10717,23232 10720,23237 10724,23241 10727,23245 10731,23250 10734,23254 10738,23257 10742,23261 10747,23264 10751,23268 10756,23271 10760,23273 10765,23276 10770,23278 10775,23281 10780,23283 10785,23284 10790,23286 10796,23287 10801,23288 10806,23289 10812,23290 10817,23290 10823,23290 10828,23290 10834,23290 10839,23289 10844,23288 10850,23287 10855,23286 10860,23284 10865,23283 10871,23281 10876,23278 10880,23276 10885,23273 10890,23271 10894,23268 10899,23264 10903,23261 10907,23257 10911,23254 10915,23250 10918,23245 10922,23241 10925,23237 10928,23232 10931,23228 10934,23223 10936,23218 10938,23213 10940,23208 10942,23203 10943,23198 10945,23192 10946,23187 10947,23181 10947,23176 10948,23171 10948,23165 Z"/>
 <path fill="rgb(75,31,111)" stroke="none" d="M 12923,23165 L 12923,23160 12923,23154 12922,23149 12921,23143 12920,23138 12919,23133 12917,23128 12915,23122 12913,23117 12911,23112 12909,23107 12906,23103 12903,23098 12900,23093 12897,23089 12894,23085 12890,23081 12886,23077 12882,23073 12878,23069 12874,23066 12870,23063 12865,23060 12861,23057 12856,23054 12851,23052 12846,23050 12841,23048 12836,23046 12830,23044 12825,23043 12820,23042 12814,23041 12809,23041 12803,23040 12798,23040 12793,23040 12787,23041 12782,23041 12776,23042 12771,23043 12766,23044 12760,23046 12755,23048 12750,23050 12745,23052 12740,23054 12736,23057 12731,23060 12726,23063 12722,23066 12718,23069 12714,23073 12710,23077 12706,23081 12702,23085 12699,23089 12696,23093 12693,23098 12690,23103 12687,23107 12685,23112 12683,23117 12681,23122 12679,23128 12677,23133 12676,23138 12675,23143 12674,23149 12673,23154 12673,23160 12673,23165 12673,23171 12673,23176 12674,23181 12675,23187 12676,23192 12677,23197 12679,23203 12681,23208 12683,23213 12685,23218 12687,23223 12690,23228 12693,23232 12696,23237 12699,23241 12702,23245 12706,23250 12710,23254 12714,23257 12718,23261 12722,23264 12726,23268 12731,23271 12736,23273 12740,23276 12745,23278 12750,23281 12755,23283 12760,23284 12766,23286 12771,23287 12776,23288 12782,23289 12787,23290 12793,23290 12798,23290 12803,23290 12809,23290 12814,23289 12820,23288 12825,23287 12830,23286 12836,23284 12841,23283 12846,23281 12851,23278 12856,23276 12861,23273 12865,23271 12870,23268 12874,23264 12878,23261 12882,23257 12886,23254 12890,23250 12894,23245 12897,23241 12900,23237 12903,23232 12906,23228 12909,23223 12911,23218 12913,23213 12915,23208 12917,23203 12919,23197 12920,23192 12921,23187 12922,23181 12923,23176 12923,23171 12923,23165 Z"/>
 <path fill="none" stroke="rgb(75,31,111)" stroke-linejoin="round" d="M 12923,23165 L 12923,23160 12923,23154 12922,23149 12921,23143 12920,23138 12919,23133 12917,23128 12915,23122 12913,23117 12911,23112 12909,23107 12906,23103 12903,23098 12900,23093 12897,23089 12894,23085 12890,23081 12886,23077 12882,23073 12878,23069 12874,23066 12870,23063 12865,23060 12861,23057 12856,23054 12851,23052 12846,23050 12841,23048 12836,23046 12830,23044 12825,23043 12820,23042 12814,23041 12809,23041 12803,23040 12798,23040 12793,23040 12787,23041 12782,23041 12776,23042 12771,23043 12766,23044 12760,23046 12755,23048 12750,23050 12745,23052 12740,23054 12736,23057 12731,23060 12726,23063 12722,23066 12718,23069 12714,23073 12710,23077 12706,23081 12702,23085 12699,23089 12696,23093 12693,23098 12690,23103 12687,23107 12685,23112 12683,23117 12681,23122 12679,23128 12677,23133 12676,23138 12675,23143 12674,23149 12673,23154 12673,23160 12673,23165 12673,23171 12673,23176 12674,23181 12675,23187 12676,23192 12677,23197 12679,23203 12681,23208 12683,23213 12685,23218 12687,23223 12690,23228 12693,23232 12696,23237 12699,23241 12702,23245 12706,23250 12710,23254 12714,23257 12718,23261 12722,23264 12726,23268 12731,23271 12736,23273 12740,23276 12745,23278 12750,23281 12755,23283 12760,23284 12766,23286 12771,23287 12776,23288 12782,23289 12787,23290 12793,23290 12798,23290 12803,23290 12809,23290 12814,23289 12820,23288 12825,23287 12830,23286 12836,23284 12841,23283 12846,23281 12851,23278 12856,23276 12861,23273 12865,23271 12870,23268 12874,23264 12878,23261 12882,23257 12886,23254 12890,23250 12894,23245 12897,23241 12900,23237 12903,23232 12906,23228 12909,23223 12911,23218 12913,23213 12915,23208 12917,23203 12919,23197 12920,23192 12921,23187 12922,23181 12923,23176 12923,23171 12923,23165 Z"/>
 <path fill="rgb(75,31,111)" stroke="none" d="M 14897,23165 L 14897,23160 14897,23154 14896,23149 14895,23143 14894,23138 14893,23133 14892,23128 14890,23122 14888,23117 14886,23112 14883,23107 14881,23103 14878,23098 14875,23093 14871,23089 14868,23085 14864,23081 14861,23077 14857,23073 14853,23069 14848,23066 14844,23063 14839,23060 14835,23057 14830,23054 14825,23052 14820,23050 14815,23048 14810,23046 14805,23044 14799,23043 14794,23042 14789,23041 14783,23041 14778,23040 14772,23040 14767,23040 14761,23041 14756,23041 14751,23042 14745,23043 14740,23044 14735,23046 14730,23048 14724,23050 14719,23052 14715,23054 14710,23057 14705,23060 14701,23063 14696,23066 14692,23069 14688,23073 14684,23077 14680,23081 14677,23085 14673,23089 14670,23093 14667,23098 14664,23103 14661,23107 14659,23112 14657,23117 14655,23122 14653,23128 14652,23133 14650,23138 14649,23143 14648,23149 14648,23154 14647,23160 14647,23165 14647,23171 14648,23176 14648,23181 14649,23187 14650,23192 14652,23198 14653,23203 14655,23208 14657,23213 14659,23218 14661,23223 14664,23228 14667,23232 14670,23237 14673,23241 14677,23246 14680,23250 14684,23254 14688,23257 14692,23261 14696,23264 14701,23268 14705,23271 14710,23273 14715,23276 14719,23278 14724,23281 14730,23283 14735,23284 14740,23286 14745,23287 14751,23288 14756,23289 14761,23290 14767,23290 14772,23290 14778,23290 14783,23290 14789,23289 14794,23288 14799,23287 14805,23286 14810,23284 14815,23283 14820,23281 14825,23278 14830,23276 14835,23273 14839,23271 14844,23268 14848,23264 14853,23261 14857,23257 14861,23254 14864,23250 14868,23246 14871,23241 14875,23237 14878,23232 14881,23228 14883,23223 14886,23218 14888,23213 14890,23208 14892,23203 14893,23198 14894,23192 14895,23187 14896,23181 14897,23176 14897,23171 14897,23165 Z"/>
 <path fill="none" stroke="rgb(75,31,111)" stroke-linejoin="round" d="M 14897,23165 L 14897,23160 14897,23154 14896,23149 14895,23143 14894,23138 14893,23133 14892,23128 14890,23122 14888,23117 14886,23112 14883,23107 14881,23103 14878,23098 14875,23093 14871,23089 14868,23085 14864,23081 14861,23077 14857,23073 14853,23069 14848,23066 14844,23063 14839,23060 14835,23057 14830,23054 14825,23052 14820,23050 14815,23048 14810,23046 14805,23044 14799,23043 14794,23042 14789,23041 14783,23041 14778,23040 14772,23040 14767,23040 14761,23041 14756,23041 14751,23042 14745,23043 14740,23044 14735,23046 14730,23048 14724,23050 14719,23052 14715,23054 14710,23057 14705,23060 14701,23063 14696,23066 14692,23069 14688,23073 14684,23077 14680,23081 14677,23085 14673,23089 14670,23093 14667,23098 14664,23103 14661,23107 14659,23112 14657,23117 14655,23122 14653,23128 14652,23133 14650,23138 14649,23143 14648,23149 14648,23154 14647,23160 14647,23165 14647,23171 14648,23176 14648,23181 14649,23187 14650,23192 14652,23198 14653,23203 14655,23208 14657,23213 14659,23218 14661,23223 14664,23228 14667,23232 14670,23237 14673,23241 14677,23246 14680,23250 14684,23254 14688,23257 14692,23261 14696,23264 14701,23268 14705,23271 14710,23273 14715,23276 14719,23278 14724,23281 14730,23283 14735,23284 14740,23286 14745,23287 14751,23288 14756,23289 14761,23290 14767,23290 14772,23290 14778,23290 14783,23290 14789,23289 14794,23288 14799,23287 14805,23286 14810,23284 14815,23283 14820,23281 14825,23278 14830,23276 14835,23273 14839,23271 14844,23268 14848,23264 14853,23261 14857,23257 14861,23254 14864,23250 14868,23246 14871,23241 14875,23237 14878,23232 14881,23228 14883,23223 14886,23218 14888,23213 14890,23208 14892,23203 14893,23198 14894,23192 14895,23187 14896,23181 14897,23176 14897,23171 14897,23165 Z"/>
 <path fill="rgb(75,31,111)" stroke="none" d="M 16873,23165 L 16872,23160 16872,23154 16872,23149 16871,23143 16870,23138 16868,23133 16867,23128 16865,23122 16863,23117 16861,23112 16858,23107 16856,23103 16853,23098 16850,23093 16847,23089 16843,23085 16840,23081 16836,23077 16832,23073 16828,23069 16824,23066 16819,23063 16815,23060 16810,23057 16805,23054 16800,23052 16795,23050 16790,23048 16785,23046 16780,23044 16775,23043 16769,23042 16764,23041 16758,23041 16753,23040 16748,23040 16742,23040 16737,23041 16731,23041 16726,23042 16721,23043 16715,23044 16710,23046 16705,23048 16700,23050 16695,23052 16690,23054 16685,23057 16680,23060 16676,23063 16672,23066 16667,23069 16663,23073 16659,23077 16655,23081 16652,23085 16648,23089 16645,23093 16642,23098 16639,23103 16637,23107 16634,23112 16632,23117 16630,23122 16628,23128 16627,23133 16626,23138 16624,23143 16624,23149 16623,23154 16623,23160 16623,23165 16623,23171 16623,23176 16624,23181 16624,23187 16626,23192 16627,23198 16628,23203 16630,23208 16632,23213 16634,23218 16637,23223 16639,23228 16642,23232 16645,23237 16648,23241 16652,23245 16655,23250 16659,23254 16663,23257 16667,23261 16672,23264 16676,23268 16680,23271 16685,23273 16690,23276 16695,23278 16700,23281 16705,23283 16710,23284 16715,23286 16721,23287 16726,23288 16731,23289 16737,23290 16742,23290 16748,23290 16753,23290 16758,23290 16764,23289 16769,23288 16775,23287 16780,23286 16785,23284 16790,23283 16795,23281 16800,23278 16805,23276 16810,23273 16815,23271 16819,23268 16824,23264 16828,23261 16832,23257 16836,23254 16840,23250 16843,23245 16847,23241 16850,23237 16853,23232 16856,23228 16858,23223 16861,23218 16863,23213 16865,23208 16867,23203 16868,23198 16870,23192 16871,23187 16872,23181 16872,23176 16872,23171 16873,23165 Z"/>
 <path fill="none" stroke="rgb(75,31,111)" stroke-linejoin="round" d="M 16873,23165 L 16872,23160 16872,23154 16872,23149 16871,23143 16870,23138 16868,23133 16867,23128 16865,23122 16863,23117 16861,23112 16858,23107 16856,23103 16853,23098 16850,23093 16847,23089 16843,23085 16840,23081 16836,23077 16832,23073 16828,23069 16824,23066 16819,23063 16815,23060 16810,23057 16805,23054 16800,23052 16795,23050 16790,23048 16785,23046 16780,23044 16775,23043 16769,23042 16764,23041 16758,23041 16753,23040 16748,23040 16742,23040 16737,23041 16731,23041 16726,23042 16721,23043 16715,23044 16710,23046 16705,23048 16700,23050 16695,23052 16690,23054 16685,23057 16680,23060 16676,23063 16672,23066 16667,23069 16663,23073 16659,23077 16655,23081 16652,23085 16648,23089 16645,23093 16642,23098 16639,23103 16637,23107 16634,23112 16632,23117 16630,23122 16628,23128 16627,23133 16626,23138 16624,23143 16624,23149 16623,23154 16623,23160 16623,23165 16623,23171 16623,23176 16624,23181 16624,23187 16626,23192 16627,23198 16628,23203 16630,23208 16632,23213 16634,23218 16637,23223 16639,23228 16642,23232 16645,23237 16648,23241 16652,23245 16655,23250 16659,23254 16663,23257 16667,23261 16672,23264 16676,23268 16680,23271 16685,23273 16690,23276 16695,23278 16700,23281 16705,23283 16710,23284 16715,23286 16721,23287 16726,23288 16731,23289 16737,23290 16742,23290 16748,23290 16753,23290 16758,23290 16764,23289 16769,23288 16775,23287 16780,23286 16785,23284 16790,23283 16795,23281 16800,23278 16805,23276 16810,23273 16815,23271 16819,23268 16824,23264 16828,23261 16832,23257 16836,23254 16840,23250 16843,23245 16847,23241 16850,23237 16853,23232 16856,23228 16858,23223 16861,23218 16863,23213 16865,23208 16867,23203 16868,23198 16870,23192 16871,23187 16872,23181 16872,23176 16872,23171 16873,23165 Z"/>
 <path fill="rgb(75,31,111)" stroke="none" d="M 18848,23165 L 18848,23160 18847,23154 18847,23149 18846,23143 18845,23138 18844,23133 18842,23128 18840,23122 18838,23117 18836,23112 18834,23107 18831,23103 18828,23098 18825,23093 18822,23089 18819,23085 18815,23081 18811,23077 18807,23073 18803,23069 18799,23066 18795,23063 18790,23060 18785,23057 18781,23054 18776,23052 18771,23050 18766,23048 18760,23046 18755,23044 18750,23043 18745,23042 18739,23041 18734,23041 18728,23040 18723,23040 18717,23040 18712,23041 18707,23041 18701,23042 18696,23043 18691,23044 18685,23046 18680,23048 18675,23050 18670,23052 18665,23054 18660,23057 18656,23060 18651,23063 18647,23066 18643,23069 18638,23073 18635,23077 18631,23081 18627,23085 18624,23089 18621,23093 18617,23098 18615,23103 18612,23107 18610,23112 18607,23117 18605,23122 18604,23128 18602,23133 18601,23138 18600,23143 18599,23149 18598,23154 18598,23160 18598,23165 18598,23171 18598,23176 18599,23181 18600,23187 18601,23192 18602,23197 18604,23203 18605,23208 18607,23213 18610,23218 18612,23223 18615,23228 18617,23232 18621,23237 18624,23241 18627,23245 18631,23250 18635,23254 18638,23257 18643,23261 18647,23264 18651,23268 18656,23271 18660,23273 18665,23276 18670,23278 18675,23281 18680,23283 18685,23284 18691,23286 18696,23287 18701,23288 18707,23289 18712,23290 18717,23290 18723,23290 18728,23290 18734,23290 18739,23289 18745,23288 18750,23287 18755,23286 18760,23284 18766,23283 18771,23281 18776,23278 18781,23276 18785,23273 18790,23271 18795,23268 18799,23264 18803,23261 18807,23257 18811,23254 18815,23250 18819,23245 18822,23241 18825,23237 18828,23232 18831,23228 18834,23223 18836,23218 18838,23213 18840,23208 18842,23203 18844,23197 18845,23192 18846,23187 18847,23181 18847,23176 18848,23171 18848,23165 Z"/>
 <path fill="none" stroke="rgb(75,31,111)" stroke-linejoin="round" d="M 18848,23165 L 18848,23160 18847,23154 18847,23149 18846,23143 18845,23138 18844,23133 18842,23128 18840,23122 18838,23117 18836,23112 18834,23107 18831,23103 18828,23098 18825,23093 18822,23089 18819,23085 18815,23081 18811,23077 18807,23073 18803,23069 18799,23066 18795,23063 18790,23060 18785,23057 18781,23054 18776,23052 18771,23050 18766,23048 18760,23046 18755,23044 18750,23043 18745,23042 18739,23041 18734,23041 18728,23040 18723,23040 18717,23040 18712,23041 18707,23041 18701,23042 18696,23043 18691,23044 18685,23046 18680,23048 18675,23050 18670,23052 18665,23054 18660,23057 18656,23060 18651,23063 18647,23066 18643,23069 18638,23073 18635,23077 18631,23081 18627,23085 18624,23089 18621,23093 18617,23098 18615,23103 18612,23107 18610,23112 18607,23117 18605,23122 18604,23128 18602,23133 18601,23138 18600,23143 18599,23149 18598,23154 18598,23160 18598,23165 18598,23171 18598,23176 18599,23181 18600,23187 18601,23192 18602,23197 18604,23203 18605,23208 18607,23213 18610,23218 18612,23223 18615,23228 18617,23232 18621,23237 18624,23241 18627,23245 18631,23250 18635,23254 18638,23257 18643,23261 18647,23264 18651,23268 18656,23271 18660,23273 18665,23276 18670,23278 18675,23281 18680,23283 18685,23284 18691,23286 18696,23287 18701,23288 18707,23289 18712,23290 18717,23290 18723,23290 18728,23290 18734,23290 18739,23289 18745,23288 18750,23287 18755,23286 18760,23284 18766,23283 18771,23281 18776,23278 18781,23276 18785,23273 18790,23271 18795,23268 18799,23264 18803,23261 18807,23257 18811,23254 18815,23250 18819,23245 18822,23241 18825,23237 18828,23232 18831,23228 18834,23223 18836,23218 18838,23213 18840,23208 18842,23203 18844,23197 18845,23192 18846,23187 18847,23181 18847,23176 18848,23171 18848,23165 Z"/>
 <path fill="rgb(75,31,111)" stroke="none" d="M 20823,23165 L 20823,23160 20823,23154 20822,23149 20821,23143 20820,23138 20819,23133 20817,23128 20816,23122 20814,23117 20811,23112 20809,23107 20806,23103 20804,23098 20801,23093 20797,23089 20794,23085 20790,23081 20787,23077 20783,23073 20779,23069 20774,23066 20770,23063 20765,23060 20761,23057 20756,23054 20751,23052 20746,23050 20741,23048 20736,23046 20731,23044 20725,23043 20720,23042 20715,23041 20709,23041 20704,23040 20698,23040 20693,23040 20687,23041 20682,23041 20676,23042 20671,23043 20666,23044 20661,23046 20655,23048 20650,23050 20645,23052 20640,23054 20636,23057 20631,23060 20627,23063 20622,23066 20618,23069 20614,23073 20610,23077 20606,23081 20602,23085 20599,23089 20596,23093 20593,23098 20590,23103 20587,23107 20585,23112 20583,23117 20581,23122 20579,23128 20577,23133 20576,23138 20575,23143 20574,23149 20574,23154 20573,23160 20573,23165 20573,23171 20574,23176 20574,23181 20575,23187 20576,23192 20577,23197 20579,23203 20581,23208 20583,23213 20585,23218 20587,23223 20590,23228 20593,23232 20596,23237 20599,23241 20602,23245 20606,23250 20610,23254 20614,23257 20618,23261 20622,23264 20627,23268 20631,23271 20636,23273 20640,23276 20645,23278 20650,23281 20655,23283 20661,23284 20666,23286 20671,23287 20676,23288 20682,23289 20687,23290 20693,23290 20698,23290 20704,23290 20709,23290 20715,23289 20720,23288 20725,23287 20731,23286 20736,23284 20741,23283 20746,23281 20751,23278 20756,23276 20761,23273 20765,23271 20770,23268 20774,23264 20779,23261 20783,23257 20787,23254 20790,23250 20794,23245 20797,23241 20801,23237 20804,23232 20806,23228 20809,23223 20811,23218 20814,23213 20816,23208 20817,23203 20819,23197 20820,23192 20821,23187 20822,23181 20823,23176 20823,23171 20823,23165 Z"/>
 <path fill="none" stroke="rgb(75,31,111)" stroke-linejoin="round" d="M 20823,23165 L 20823,23160 20823,23154 20822,23149 20821,23143 20820,23138 20819,23133 20817,23128 20816,23122 20814,23117 20811,23112 20809,23107 20806,23103 20804,23098 20801,23093 20797,23089 20794,23085 20790,23081 20787,23077 20783,23073 20779,23069 20774,23066 20770,23063 20765,23060 20761,23057 20756,23054 20751,23052 20746,23050 20741,23048 20736,23046 20731,23044 20725,23043 20720,23042 20715,23041 20709,23041 20704,23040 20698,23040 20693,23040 20687,23041 20682,23041 20676,23042 20671,23043 20666,23044 20661,23046 20655,23048 20650,23050 20645,23052 20640,23054 20636,23057 20631,23060 20627,23063 20622,23066 20618,23069 20614,23073 20610,23077 20606,23081 20602,23085 20599,23089 20596,23093 20593,23098 20590,23103 20587,23107 20585,23112 20583,23117 20581,23122 20579,23128 20577,23133 20576,23138 20575,23143 20574,23149 20574,23154 20573,23160 20573,23165 20573,23171 20574,23176 20574,23181 20575,23187 20576,23192 20577,23197 20579,23203 20581,23208 20583,23213 20585,23218 20587,23223 20590,23228 20593,23232 20596,23237 20599,23241 20602,23245 20606,23250 20610,23254 20614,23257 20618,23261 20622,23264 20627,23268 20631,23271 20636,23273 20640,23276 20645,23278 20650,23281 20655,23283 20661,23284 20666,23286 20671,23287 20676,23288 20682,23289 20687,23290 20693,23290 20698,23290 20704,23290 20709,23290 20715,23289 20720,23288 20725,23287 20731,23286 20736,23284 20741,23283 20746,23281 20751,23278 20756,23276 20761,23273 20765,23271 20770,23268 20774,23264 20779,23261 20783,23257 20787,23254 20790,23250 20794,23245 20797,23241 20801,23237 20804,23232 20806,23228 20809,23223 20811,23218 20814,23213 20816,23208 20817,23203 20819,23197 20820,23192 20821,23187 20822,23181 20823,23176 20823,23171 20823,23165 Z"/>
 <path fill="rgb(75,31,111)" stroke="none" d="M 22799,23165 L 22798,23160 22798,23154 22797,23149 22797,23143 22796,23138 22794,23133 22793,23128 22791,23122 22789,23117 22787,23112 22784,23107 22782,23103 22779,23098 22776,23093 22773,23089 22769,23085 22766,23081 22762,23077 22758,23073 22754,23069 22750,23066 22745,23063 22741,23060 22736,23057 22731,23054 22726,23052 22721,23050 22716,23048 22711,23046 22706,23044 22701,23043 22695,23042 22690,23041 22684,23041 22679,23040 22674,23040 22668,23040 22663,23041 22657,23041 22652,23042 22646,23043 22641,23044 22636,23046 22631,23048 22626,23050 22621,23052 22616,23054 22611,23057 22606,23060 22602,23063 22597,23066 22593,23069 22589,23073 22585,23077 22581,23081 22578,23085 22574,23089 22571,23093 22568,23098 22565,23103 22563,23107 22560,23112 22558,23117 22556,23122 22554,23128 22553,23133 22551,23138 22550,23143 22550,23149 22549,23154 22549,23160 22549,23165 22549,23171 22549,23176 22550,23181 22550,23187 22551,23192 22553,23197 22554,23203 22556,23208 22558,23213 22560,23218 22563,23223 22565,23228 22568,23232 22571,23237 22574,23241 22578,23245 22581,23250 22585,23254 22589,23257 22593,23261 22597,23264 22602,23268 22606,23271 22611,23273 22616,23276 22621,23278 22626,23281 22631,23283 22636,23284 22641,23286 22646,23287 22652,23288 22657,23289 22663,23290 22668,23290 22674,23290 22679,23290 22684,23290 22690,23289 22695,23288 22701,23287 22706,23286 22711,23284 22716,23283 22721,23281 22726,23278 22731,23276 22736,23273 22741,23271 22745,23268 22750,23264 22754,23261 22758,23257 22762,23254 22766,23250 22769,23245 22773,23241 22776,23237 22779,23232 22782,23228 22784,23223 22787,23218 22789,23213 22791,23208 22793,23203 22794,23197 22796,23192 22797,23187 22797,23181 22798,23176 22798,23171 22799,23165 Z"/>
 <path fill="none" stroke="rgb(75,31,111)" stroke-linejoin="round" d="M 22799,23165 L 22798,23160 22798,23154 22797,23149 22797,23143 22796,23138 22794,23133 22793,23128 22791,23122 22789,23117 22787,23112 22784,23107 22782,23103 22779,23098 22776,23093 22773,23089 22769,23085 22766,23081 22762,23077 22758,23073 22754,23069 22750,23066 22745,23063 22741,23060 22736,23057 22731,23054 22726,23052 22721,23050 22716,23048 22711,23046 22706,23044 22701,23043 22695,23042 22690,23041 22684,23041 22679,23040 22674,23040 22668,23040 22663,23041 22657,23041 22652,23042 22646,23043 22641,23044 22636,23046 22631,23048 22626,23050 22621,23052 22616,23054 22611,23057 22606,23060 22602,23063 22597,23066 22593,23069 22589,23073 22585,23077 22581,23081 22578,23085 22574,23089 22571,23093 22568,23098 22565,23103 22563,23107 22560,23112 22558,23117 22556,23122 22554,23128 22553,23133 22551,23138 22550,23143 22550,23149 22549,23154 22549,23160 22549,23165 22549,23171 22549,23176 22550,23181 22550,23187 22551,23192 22553,23197 22554,23203 22556,23208 22558,23213 22560,23218 22563,23223 22565,23228 22568,23232 22571,23237 22574,23241 22578,23245 22581,23250 22585,23254 22589,23257 22593,23261 22597,23264 22602,23268 22606,23271 22611,23273 22616,23276 22621,23278 22626,23281 22631,23283 22636,23284 22641,23286 22646,23287 22652,23288 22657,23289 22663,23290 22668,23290 22674,23290 22679,23290 22684,23290 22690,23289 22695,23288 22701,23287 22706,23286 22711,23284 22716,23283 22721,23281 22726,23278 22731,23276 22736,23273 22741,23271 22745,23268 22750,23264 22754,23261 22758,23257 22762,23254 22766,23250 22769,23245 22773,23241 22776,23237 22779,23232 22782,23228 22784,23223 22787,23218 22789,23213 22791,23208 22793,23203 22794,23197 22796,23192 22797,23187 22797,23181 22798,23176 22798,23171 22799,23165 Z"/>
 <path fill="none" stroke="rgb(255,149,14)" stroke-width="80" stroke-linejoin="round" d="M 2922,24336 L 4897,23902 6872,23524 8847,22494 10823,21277 12798,19442 14772,18561 16748,16094 18723,16183 20698,16060 22674,16097"/>
 <path fill="rgb(255,149,14)" stroke="none" d="M 2922,24211 L 2947,24311 3047,24336 2947,24361 2922,24461 2897,24361 2797,24336 2897,24311 2922,24211 Z"/>
 <path fill="none" stroke="rgb(255,149,14)" stroke-linejoin="round" d="M 2922,24211 L 2947,24311 3047,24336 2947,24361 2922,24461 2897,24361 2797,24336 2897,24311 2922,24211 Z"/>
 <path fill="rgb(255,149,14)" stroke="none" d="M 4897,23777 L 4922,23877 5022,23902 4922,23927 4897,24027 4872,23927 4772,23902 4872,23877 4897,23777 Z"/>
 <path fill="none" stroke="rgb(255,149,14)" stroke-linejoin="round" d="M 4897,23777 L 4922,23877 5022,23902 4922,23927 4897,24027 4872,23927 4772,23902 4872,23877 4897,23777 Z"/>
 <path fill="rgb(255,149,14)" stroke="none" d="M 6872,23399 L 6897,23499 6997,23524 6897,23549 6872,23649 6847,23549 6747,23524 6847,23499 6872,23399 Z"/>
 <path fill="none" stroke="rgb(255,149,14)" stroke-linejoin="round" d="M 6872,23399 L 6897,23499 6997,23524 6897,23549 6872,23649 6847,23549 6747,23524 6847,23499 6872,23399 Z"/>
 <path fill="rgb(255,149,14)" stroke="none" d="M 8847,22369 L 8872,22469 8972,22494 8872,22519 8847,22619 8822,22519 8722,22494 8822,22469 8847,22369 Z"/>
 <path fill="none" stroke="rgb(255,149,14)" stroke-linejoin="round" d="M 8847,22369 L 8872,22469 8972,22494 8872,22519 8847,22619 8822,22519 8722,22494 8822,22469 8847,22369 Z"/>
 <path fill="rgb(255,149,14)" stroke="none" d="M 10823,21152 L 10848,21252 10948,21277 10848,21302 10823,21402 10798,21302 10698,21277 10798,21252 10823,21152 Z"/>
 <path fill="none" stroke="rgb(255,149,14)" stroke-linejoin="round" d="M 10823,21152 L 10848,21252 10948,21277 10848,21302 10823,21402 10798,21302 10698,21277 10798,21252 10823,21152 Z"/>
 <path fill="rgb(255,149,14)" stroke="none" d="M 12798,19317 L 12823,19417 12923,19442 12823,19467 12798,19567 12773,19467 12673,19442 12773,19417 12798,19317 Z"/>
 <path fill="none" stroke="rgb(255,149,14)" stroke-linejoin="round" d="M 12798,19317 L 12823,19417 12923,19442 12823,19467 12798,19567 12773,19467 12673,19442 12773,19417 12798,19317 Z"/>
 <path fill="rgb(255,149,14)" stroke="none" d="M 14772,18436 L 14797,18536 14897,18561 14797,18586 14772,18686 14747,18586 14647,18561 14747,18536 14772,18436 Z"/>
 <path fill="none" stroke="rgb(255,149,14)" stroke-linejoin="round" d="M 14772,18436 L 14797,18536 14897,18561 14797,18586 14772,18686 14747,18586 14647,18561 14747,18536 14772,18436 Z"/>
 <path fill="rgb(255,149,14)" stroke="none" d="M 16748,15969 L 16773,16069 16873,16094 16773,16119 16748,16219 16723,16119 16623,16094 16723,16069 16748,15969 Z"/>
 <path fill="none" stroke="rgb(255,149,14)" stroke-linejoin="round" d="M 16748,15969 L 16773,16069 16873,16094 16773,16119 16748,16219 16723,16119 16623,16094 16723,16069 16748,15969 Z"/>
 <path fill="rgb(255,149,14)" stroke="none" d="M 18723,16058 L 18748,16158 18848,16183 18748,16208 18723,16308 18698,16208 18598,16183 18698,16158 18723,16058 Z"/>
 <path fill="none" stroke="rgb(255,149,14)" stroke-linejoin="round" d="M 18723,16058 L 18748,16158 18848,16183 18748,16208 18723,16308 18698,16208 18598,16183 18698,16158 18723,16058 Z"/>
 <path fill="rgb(255,149,14)" stroke="none" d="M 20698,15935 L 20723,16035 20823,16060 20723,16085 20698,16185 20673,16085 20573,16060 20673,16035 20698,15935 Z"/>
 <path fill="none" stroke="rgb(255,149,14)" stroke-linejoin="round" d="M 20698,15935 L 20723,16035 20823,16060 20723,16085 20698,16185 20673,16085 20573,16060 20673,16035 20698,15935 Z"/>
 <path fill="rgb(255,149,14)" stroke="none" d="M 22674,15972 L 22699,16072 22799,16097 22699,16122 22674,16222 22649,16122 22549,16097 22649,16072 22674,15972 Z"/>
 <path fill="none" stroke="rgb(255,149,14)" stroke-linejoin="round" d="M 22674,15972 L 22699,16072 22799,16097 22699,16122 22674,16222 22649,16122 22549,16097 22649,16072 22674,15972 Z"/>
 <path fill="none" stroke="rgb(197,0,11)" stroke-width="80" stroke-linejoin="round" d="M 2922,21289 L 4897,21248 6872,21271 8847,21266 10823,21266 12798,21254 14772,21273 16748,21254 18723,21266 20698,21259 22674,21236"/>
 <path fill="rgb(197,0,11)" stroke="none" d="M 2922,21276 L 2810,21164 2797,21178 2908,21289 2797,21401 2810,21414 2922,21303 3033,21414 3047,21401 2935,21289 3047,21178 3033,21164 2922,21276 Z"/>
 <path fill="none" stroke="rgb(197,0,11)" stroke-linejoin="round" d="M 2922,21276 L 2810,21164 2797,21178 2908,21289 2797,21401 2810,21414 2922,21303 3033,21414 3047,21401 2935,21289 3047,21178 3033,21164 2922,21276 Z"/>
 <path fill="rgb(197,0,11)" stroke="none" d="M 4897,21235 L 4786,21123 4772,21137 4883,21248 4772,21360 4786,21373 4897,21262 5008,21373 5022,21360 4911,21248 5022,21137 5008,21123 4897,21235 Z"/>
 <path fill="none" stroke="rgb(197,0,11)" stroke-linejoin="round" d="M 4897,21235 L 4786,21123 4772,21137 4883,21248 4772,21360 4786,21373 4897,21262 5008,21373 5022,21360 4911,21248 5022,21137 5008,21123 4897,21235 Z"/>
 <path fill="rgb(197,0,11)" stroke="none" d="M 6872,21257 L 6761,21146 6747,21159 6858,21271 6747,21382 6761,21396 6872,21284 6983,21396 6997,21382 6886,21271 6997,21159 6983,21146 6872,21257 Z"/>
 <path fill="none" stroke="rgb(197,0,11)" stroke-linejoin="round" d="M 6872,21257 L 6761,21146 6747,21159 6858,21271 6747,21382 6761,21396 6872,21284 6983,21396 6997,21382 6886,21271 6997,21159 6983,21146 6872,21257 Z"/>
 <path fill="rgb(197,0,11)" stroke="none" d="M 8847,21252 L 8736,21141 8722,21155 8834,21266 8722,21377 8736,21391 8847,21280 8959,21391 8972,21377 8861,21266 8972,21155 8959,21141 8847,21252 Z"/>
 <path fill="none" stroke="rgb(197,0,11)" stroke-linejoin="round" d="M 8847,21252 L 8736,21141 8722,21155 8834,21266 8722,21377 8736,21391 8847,21280 8959,21391 8972,21377 8861,21266 8972,21155 8959,21141 8847,21252 Z"/>
 <path fill="rgb(197,0,11)" stroke="none" d="M 10823,21252 L 10712,21141 10698,21155 10809,21266 10698,21377 10712,21391 10823,21280 10934,21391 10948,21377 10837,21266 10948,21155 10934,21141 10823,21252 Z"/>
 <path fill="none" stroke="rgb(197,0,11)" stroke-linejoin="round" d="M 10823,21252 L 10712,21141 10698,21155 10809,21266 10698,21377 10712,21391 10823,21280 10934,21391 10948,21377 10837,21266 10948,21155 10934,21141 10823,21252 Z"/>
 <path fill="rgb(197,0,11)" stroke="none" d="M 12798,21240 L 12687,21129 12673,21142 12784,21254 12673,21365 12687,21379 12798,21267 12909,21379 12923,21365 12812,21254 12923,21142 12909,21129 12798,21240 Z"/>
 <path fill="none" stroke="rgb(197,0,11)" stroke-linejoin="round" d="M 12798,21240 L 12687,21129 12673,21142 12784,21254 12673,21365 12687,21379 12798,21267 12909,21379 12923,21365 12812,21254 12923,21142 12909,21129 12798,21240 Z"/>
 <path fill="rgb(197,0,11)" stroke="none" d="M 14772,21259 L 14661,21148 14647,21161 14758,21273 14647,21384 14661,21398 14772,21286 14883,21398 14897,21384 14786,21273 14897,21161 14883,21148 14772,21259 Z"/>
 <path fill="none" stroke="rgb(197,0,11)" stroke-linejoin="round" d="M 14772,21259 L 14661,21148 14647,21161 14758,21273 14647,21384 14661,21398 14772,21286 14883,21398 14897,21384 14786,21273 14897,21161 14883,21148 14772,21259 Z"/>
 <path fill="rgb(197,0,11)" stroke="none" d="M 16748,21240 L 16636,21129 16623,21142 16734,21254 16623,21365 16636,21379 16748,21267 16859,21379 16873,21365 16761,21254 16873,21142 16859,21129 16748,21240 Z"/>
 <path fill="none" stroke="rgb(197,0,11)" stroke-linejoin="round" d="M 16748,21240 L 16636,21129 16623,21142 16734,21254 16623,21365 16636,21379 16748,21267 16859,21379 16873,21365 16761,21254 16873,21142 16859,21129 16748,21240 Z"/>
 <path fill="rgb(197,0,11)" stroke="none" d="M 18723,21252 L 18612,21141 18598,21154 18709,21266 18598,21377 18612,21391 18723,21279 18834,21391 18848,21377 18737,21266 18848,21154 18834,21141 18723,21252 Z"/>
 <path fill="none" stroke="rgb(197,0,11)" stroke-linejoin="round" d="M 18723,21252 L 18612,21141 18598,21154 18709,21266 18598,21377 18612,21391 18723,21279 18834,21391 18848,21377 18737,21266 18848,21154 18834,21141 18723,21252 Z"/>
 <path fill="rgb(197,0,11)" stroke="none" d="M 20698,21245 L 20587,21134 20573,21148 20684,21259 20573,21370 20587,21384 20698,21273 20809,21384 20823,21370 20712,21259 20823,21148 20809,21134 20698,21245 Z"/>
 <path fill="none" stroke="rgb(197,0,11)" stroke-linejoin="round" d="M 20698,21245 L 20587,21134 20573,21148 20684,21259 20573,21370 20587,21384 20698,21273 20809,21384 20823,21370 20712,21259 20823,21148 20809,21134 20698,21245 Z"/>
 <path fill="rgb(197,0,11)" stroke="none" d="M 22674,21222 L 22562,21111 22549,21125 22660,21236 22549,21347 22562,21361 22674,21250 22785,21361 22799,21347 22687,21236 22799,21125 22785,21111 22674,21222 Z"/>
 <path fill="none" stroke="rgb(197,0,11)" stroke-linejoin="round" d="M 22674,21222 L 22562,21111 22549,21125 22660,21236 22549,21347 22562,21361 22674,21250 22785,21361 22799,21347 22687,21236 22799,21125 22785,21111 22674,21222 Z"/>
 <text class="TextShape"><tspan class="TextParagraph" font-family="Liberation Sans, sans-serif" font-size="353px" font-weight="400"><tspan class="TextPosition" x="2340" y="25389"><tspan fill="rgb(0,0,0)" stroke="none">100kHz</tspan></tspan></tspan></text>
 <text class="TextShape"><tspan class="TextParagraph" font-family="Liberation Sans, sans-serif" font-size="353px" font-weight="400"><tspan class="TextPosition" x="4315" y="25389"><tspan fill="rgb(0,0,0)" stroke="none">200kHz</tspan></tspan></tspan></text>
 <text class="TextShape"><tspan class="TextParagraph" font-family="Liberation Sans, sans-serif" font-size="353px" font-weight="400"><tspan class="TextPosition" x="6290" y="25389"><tspan fill="rgb(0,0,0)" stroke="none">300kHz</tspan></tspan></tspan></text>
 <text class="TextShape"><tspan class="TextParagraph" font-family="Liberation Sans, sans-serif" font-size="353px" font-weight="400"><tspan class="TextPosition" x="8265" y="25389"><tspan fill="rgb(0,0,0)" stroke="none">600kHz</tspan></tspan></tspan></text>
 <text class="TextShape"><tspan class="TextParagraph" font-family="Liberation Sans, sans-serif" font-size="353px" font-weight="400"><tspan class="TextPosition" x="10148" y="25389"><tspan fill="rgb(0,0,0)" stroke="none">1200kHz</tspan></tspan></tspan></text>
 <text class="TextShape"><tspan class="TextParagraph" font-family="Liberation Sans, sans-serif" font-size="353px" font-weight="400"><tspan class="TextPosition" x="12123" y="25389"><tspan fill="rgb(0,0,0)" stroke="none">2400kHz</tspan></tspan></tspan></text>
 <text class="TextShape"><tspan class="TextParagraph" font-family="Liberation Sans, sans-serif" font-size="353px" font-weight="400"><tspan class="TextPosition" x="14098" y="25389"><tspan fill="rgb(0,0,0)" stroke="none">4800kHz</tspan></tspan></tspan></text>
 <text class="TextShape"><tspan class="TextParagraph" font-family="Liberation Sans, sans-serif" font-size="353px" font-weight="400"><tspan class="TextPosition" x="16206" y="25389"><tspan fill="rgb(0,0,0)" stroke="none">10MHz</tspan></tspan></tspan></text>
 <text class="TextShape"><tspan class="TextParagraph" font-family="Liberation Sans, sans-serif" font-size="353px" font-weight="400"><tspan class="TextPosition" x="18181" y="25389"><tspan fill="rgb(0,0,0)" stroke="none">20MHz</tspan></tspan></tspan></text>
 <text class="TextShape"><tspan class="TextParagraph" font-family="Liberation Sans, sans-serif" font-size="353px" font-weight="400"><tspan class="TextPosition" x="20156" y="25389"><tspan fill="rgb(0,0,0)" stroke="none">40MHz</tspan></tspan></tspan></text>
 <text class="TextShape"><tspan class="TextParagraph" font-family="Liberation Sans, sans-serif" font-size="353px" font-weight="400"><tspan class="TextPosition" x="22132" y="25389"><tspan fill="rgb(0,0,0)" stroke="none">80MHz</tspan></tspan></tspan></text>
 <text class="TextShape"><tspan class="TextParagraph" font-family="Liberation Sans, sans-serif" font-size="353px" font-weight="400"><tspan class="TextPosition" x="2487" y="24942"><tspan fill="rgb(0,0,0)" stroke="none">0</tspan></tspan></tspan></text>
 <text class="TextShape"><tspan class="TextParagraph" font-family="Liberation Sans, sans-serif" font-size="353px" font-weight="400"><tspan class="TextPosition" x="1746" y="21709"><tspan fill="rgb(0,0,0)" stroke="none">50000</tspan></tspan></tspan></text>
 <text class="TextShape"><tspan class="TextParagraph" font-family="Liberation Sans, sans-serif" font-size="353px" font-weight="400"><tspan class="TextPosition" x="1561" y="18476"><tspan fill="rgb(0,0,0)" stroke="none">100000</tspan></tspan></tspan></text>
 <text class="TextShape"><tspan class="TextParagraph" font-family="Liberation Sans, sans-serif" font-size="353px" font-weight="400"><tspan class="TextPosition" x="1561" y="15243"><tspan fill="rgb(0,0,0)" stroke="none">150000</tspan></tspan></tspan></text>
 <text class="TextShape"><tspan class="TextParagraph" font-family="Liberation Sans, sans-serif" font-size="353px" font-weight="400"><tspan class="TextPosition" x="1561" y="12010"><tspan fill="rgb(0,0,0)" stroke="none">200000</tspan></tspan></tspan></text>
 <text class="TextShape"><tspan class="TextParagraph" font-family="Liberation Sans, sans-serif" font-size="353px" font-weight="400"><tspan class="TextPosition" x="1561" y="8777"><tspan fill="rgb(0,0,0)" stroke="none">250000</tspan></tspan></tspan></text>
 <text class="TextShape"><tspan class="TextParagraph" font-family="Liberation Sans, sans-serif" font-size="353px" font-weight="400"><tspan class="TextPosition" x="1561" y="5544"><tspan fill="rgb(0,0,0)" stroke="none">300000</tspan></tspan></tspan></text>
 <text class="TextShape"><tspan class="TextParagraph" font-family="Liberation Sans, sans-serif" font-size="353px" font-weight="400"><tspan class="TextPosition" x="1561" y="2311"><tspan fill="rgb(0,0,0)" stroke="none">350000</tspan></tspan></tspan></text>
 <text class="TextShape"><tspan class="TextParagraph" font-family="Liberation Sans, sans-serif" font-size="459px" font-weight="400"><tspan class="TextPosition" x="12727" y="1210"><tspan fill="rgb(0,0,0)" stroke="none">SWD read</tspan></tspan></tspan></text>
 <path fill="none" stroke="rgb(0,69,134)" stroke-width="80" stroke-linejoin="round" d="M 23883,11004 L 24683,11004"/>
 <path fill="rgb(0,69,134)" stroke="none" d="M 24177,10899 L 24177,11110 24388,11110 24388,10899 24177,10899 Z"/>
 <path fill="none" stroke="rgb(0,69,134)" stroke-linejoin="round" d="M 24177,10899 L 24177,11110 24388,11110 24388,10899 24177,10899 Z"/>
 <path fill="none" stroke="rgb(255,66,14)" stroke-width="80" stroke-linejoin="round" d="M 23883,11502 L 24683,11502"/>
 <path fill="rgb(255,66,14)" stroke="none" d="M 24177,11502 L 24283,11608 24388,11502 24283,11397 24177,11502 Z"/>
 <path fill="none" stroke="rgb(255,66,14)" stroke-linejoin="round" d="M 24177,11502 L 24283,11608 24388,11502 24283,11397 24177,11502 Z"/>
 <path fill="none" stroke="rgb(255,211,32)" stroke-width="80" stroke-linejoin="round" d="M 23883,12000 L 24683,12000"/>
 <path fill="rgb(255,211,32)" stroke="none" d="M 24177,11895 L 24283,12106 24388,11895 24177,11895 Z"/>
 <path fill="none" stroke="rgb(255,211,32)" stroke-linejoin="round" d="M 24177,11895 L 24283,12106 24388,11895 24177,11895 Z"/>
 <path fill="none" stroke="rgb(87,157,28)" stroke-width="80" stroke-linejoin="round" d="M 23883,12498 L 24683,12498"/>
 <path fill="rgb(87,157,28)" stroke="none" d="M 24177,12604 L 24388,12604 24283,12393 24177,12604 Z"/>
 <path fill="none" stroke="rgb(87,157,28)" stroke-linejoin="round" d="M 24177,12604 L 24388,12604 24283,12393 24177,12604 Z"/>
 <path fill="none" stroke="rgb(126,0,33)" stroke-width="80" stroke-linejoin="round" d="M 23883,12996 L 24683,12996"/>
 <path fill="rgb(126,0,33)" stroke="none" d="M 24177,12891 L 24177,13102 24388,12996 24177,12891 Z"/>
 <path fill="none" stroke="rgb(126,0,33)" stroke-linejoin="round" d="M 24177,12891 L 24177,13102 24388,12996 24177,12891 Z"/>
 <path fill="none" stroke="rgb(131,202,255)" stroke-width="80" stroke-linejoin="round" d="M 23883,13494 L 24683,13494"/>
 <path fill="rgb(131,202,255)" stroke="none" d="M 24177,13494 L 24388,13599 24388,13389 24177,13494 Z"/>
 <path fill="none" stroke="rgb(131,202,255)" stroke-linejoin="round" d="M 24177,13494 L 24388,13599 24388,13389 24177,13494 Z"/>
 <path fill="none" stroke="rgb(49,64,4)" stroke-width="80" stroke-linejoin="round" d="M 23883,13991 L 24683,13991"/>
 <path fill="rgb(49,64,4)" stroke="none" d="M 24177,13886 L 24177,14097 24388,13886 24388,14097 24177,13886 Z"/>
 <path fill="none" stroke="rgb(49,64,4)" stroke-linejoin="round" d="M 24177,13886 L 24177,14097 24388,13886 24388,14097 24177,13886 Z"/>
 <path fill="none" stroke="rgb(174,207,0)" stroke-width="80" stroke-linejoin="round" d="M 23883,14489 L 24683,14489"/>
 <path fill="rgb(174,207,0)" stroke="none" d="M 24177,14595 L 24388,14595 24177,14384 24388,14384 24177,14595 Z"/>
 <path fill="none" stroke="rgb(174,207,0)" stroke-linejoin="round" d="M 24177,14595 L 24388,14595 24177,14384 24388,14384 24177,14595 Z"/>
 <path fill="none" stroke="rgb(75,31,111)" stroke-width="80" stroke-linejoin="round" d="M 23883,14987 L 24683,14987"/>
 <path fill="rgb(75,31,111)" stroke="none" d="M 24388,14987 L 24388,14982 24388,14978 24387,14973 24386,14969 24385,14964 24384,14960 24383,14955 24382,14951 24380,14947 24378,14942 24376,14938 24374,14934 24371,14930 24369,14926 24366,14923 24363,14919 24360,14916 24357,14912 24354,14909 24350,14906 24347,14903 24343,14901 24339,14898 24335,14896 24331,14893 24327,14891 24323,14890 24319,14888 24314,14886 24310,14885 24305,14884 24301,14883 24296,14882 24292,14882 24287,14882 24283,14882 24278,14882 24273,14882 24269,14882 24264,14883 24260,14884 24255,14885 24251,14886 24246,14888 24242,14890 24238,14891 24234,14893 24230,14896 24226,14898 24222,14901 24218,14903 24215,14906 24211,14909 24208,14912 24205,14916 24202,14919 24199,14923 24196,14926 24194,14930 24191,14934 24189,14938 24187,14942 24185,14947 24183,14951 24182,14955 24181,14960 24180,14964 24179,14969 24178,14973 24177,14978 24177,14982 24177,14987 24177,14992 24177,14996 24178,15001 24179,15005 24180,15010 24181,15014 24182,15019 24183,15023 24185,15027 24187,15032 24189,15036 24191,15040 24194,15044 24196,15048 24199,15051 24202,15055 24205,15058 24208,15062 24211,15065 24215,15068 24218,15071 24222,15073 24226,15076 24230,15078 24234,15081 24238,15083 24242,15084 24246,15086 24251,15088 24255,15089 24260,15090 24264,15091 24269,15092 24273,15092 24278,15092 24283,15093 24287,15092 24292,15092 24296,15092 24301,15091 24305,15090 24310,15089 24314,15088 24319,15086 24323,15084 24327,15083 24331,15081 24335,15078 24339,15076 24343,15073 24347,15071 24350,15068 24354,15065 24357,15062 24360,15058 24363,15055 24366,15051 24369,15048 24371,15044 24374,15040 24376,15036 24378,15032 24380,15027 24382,15023 24383,15019 24384,15014 24385,15010 24386,15005 24387,15001 24388,14996 24388,14992 24388,14987 Z"/>
 <path fill="none" stroke="rgb(75,31,111)" stroke-linejoin="round" d="M 24388,14987 L 24388,14982 24388,14978 24387,14973 24386,14969 24385,14964 24384,14960 24383,14955 24382,14951 24380,14947 24378,14942 24376,14938 24374,14934 24371,14930 24369,14926 24366,14923 24363,14919 24360,14916 24357,14912 24354,14909 24350,14906 24347,14903 24343,14901 24339,14898 24335,14896 24331,14893 24327,14891 24323,14890 24319,14888 24314,14886 24310,14885 24305,14884 24301,14883 24296,14882 24292,14882 24287,14882 24283,14882 24278,14882 24273,14882 24269,14882 24264,14883 24260,14884 24255,14885 24251,14886 24246,14888 24242,14890 24238,14891 24234,14893 24230,14896 24226,14898 24222,14901 24218,14903 24215,14906 24211,14909 24208,14912 24205,14916 24202,14919 24199,14923 24196,14926 24194,14930 24191,14934 24189,14938 24187,14942 24185,14947 24183,14951 24182,14955 24181,14960 24180,14964 24179,14969 24178,14973 24177,14978 24177,14982 24177,14987 24177,14992 24177,14996 24178,15001 24179,15005 24180,15010 24181,15014 24182,15019 24183,15023 24185,15027 24187,15032 24189,15036 24191,15040 24194,15044 24196,15048 24199,15051 24202,15055 24205,15058 24208,15062 24211,15065 24215,15068 24218,15071 24222,15073 24226,15076 24230,15078 24234,15081 24238,15083 24242,15084 24246,15086 24251,15088 24255,15089 24260,15090 24264,15091 24269,15092 24273,15092 24278,15092 24283,15093 24287,15092 24292,15092 24296,15092 24301,15091 24305,15090 24310,15089 24314,15088 24319,15086 24323,15084 24327,15083 24331,15081 24335,15078 24339,15076 24343,15073 24347,15071 24350,15068 24354,15065 24357,15062 24360,15058 24363,15055 24366,15051 24369,15048 24371,15044 24374,15040 24376,15036 24378,15032 24380,15027 24382,15023 24383,15019 24384,15014 24385,15010 24386,15005 24387,15001 24388,14996 24388,14992 24388,14987 Z"/>
 <path fill="none" stroke="rgb(255,149,14)" stroke-width="80" stroke-linejoin="round" d="M 23883,15485 L 24683,15485"/>
 <path fill="rgb(255,149,14)" stroke="none" d="M 24283,15380 L 24304,15464 24388,15485 24304,15506 24283,15591 24261,15506 24177,15485 24261,15464 24283,15380 Z"/>
 <path fill="none" stroke="rgb(255,149,14)" stroke-linejoin="round" d="M 24283,15380 L 24304,15464 24388,15485 24304,15506 24283,15591 24261,15506 24177,15485 24261,15464 24283,15380 Z"/>
 <path fill="none" stroke="rgb(197,0,11)" stroke-width="80" stroke-linejoin="round" d="M 23883,15983 L 24683,15983"/>
 <path fill="rgb(197,0,11)" stroke="none" d="M 24283,15971 L 24189,15878 24177,15889 24271,15983 24177,16077 24189,16089 24283,15995 24376,16089 24388,16077 24294,15983 24388,15889 24376,15878 24283,15971 Z"/>
 <path fill="none" stroke="rgb(197,0,11)" stroke-linejoin="round" d="M 24283,15971 L 24189,15878 24177,15889 24271,15983 24177,16077 24189,16089 24283,15995 24376,16089 24388,16077 24294,15983 24388,15889 24376,15878 24283,15971 Z"/>
 <text class="TextShape"><tspan class="TextParagraph" font-family="Liberation Sans, sans-serif" font-size="353px" font-weight="400"><tspan class="TextPosition" x="24783" y="11124"><tspan fill="rgb(0,0,0)" stroke="none">hsprobe (turbo)</tspan></tspan></tspan></text>
 <text class="TextShape"><tspan class="TextParagraph" font-family="Liberation Sans, sans-serif" font-size="353px" font-weight="400"><tspan class="TextPosition" x="24783" y="11622"><tspan fill="rgb(0,0,0)" stroke="none">hsprobe</tspan></tspan></tspan></text>
 <text class="TextShape"><tspan class="TextParagraph" font-family="Liberation Sans, sans-serif" font-size="353px" font-weight="400"><tspan class="TextPosition" x="24783" y="12120"><tspan fill="rgb(0,0,0)" stroke="none">lpclink2</tspan></tspan></tspan></text>
 <text class="TextShape"><tspan class="TextParagraph" font-family="Liberation Sans, sans-serif" font-size="353px" font-weight="400"><tspan class="TextPosition" x="24783" y="12618"><tspan fill="rgb(0,0,0)" stroke="none">mculink</tspan></tspan></tspan></text>
 <text class="TextShape"><tspan class="TextParagraph" font-family="Liberation Sans, sans-serif" font-size="353px" font-weight="400"><tspan class="TextPosition" x="24783" y="13116"><tspan fill="rgb(0,0,0)" stroke="none">mculink-daplink</tspan></tspan></tspan></text>
 <text class="TextShape"><tspan class="TextParagraph" font-family="Liberation Sans, sans-serif" font-size="353px" font-weight="400"><tspan class="TextPosition" x="24783" y="13613"><tspan fill="rgb(0,0,0)" stroke="none">usbc-pill</tspan></tspan></tspan></text>
 <text class="TextShape"><tspan class="TextParagraph" font-family="Liberation Sans, sans-serif" font-size="353px" font-weight="400"><tspan class="TextPosition" x="24783" y="14111"><tspan fill="rgb(0,0,0)" stroke="none">rustyprobe</tspan></tspan></tspan></text>
 <text class="TextShape"><tspan class="TextParagraph" font-family="Liberation Sans, sans-serif" font-size="353px" font-weight="400"><tspan class="TextPosition" x="24783" y="14609"><tspan fill="rgb(0,0,0)" stroke="none">dappermime</tspan></tspan></tspan></text>
 <text class="TextShape"><tspan class="TextParagraph" font-family="Liberation Sans, sans-serif" font-size="353px" font-weight="400"><tspan class="TextPosition" x="24783" y="15107"><tspan fill="rgb(0,0,0)" stroke="none">dap42</tspan></tspan></tspan></text>
 <text class="TextShape"><tspan class="TextParagraph" font-family="Liberation Sans, sans-serif" font-size="353px" font-weight="400"><tspan class="TextPosition" x="24783" y="15605"><tspan fill="rgb(0,0,0)" stroke="none">microbit_v2</tspan></tspan></tspan></text>
 <text class="TextShape"><tspan class="TextParagraph" font-family="Liberation Sans, sans-serif" font-size="353px" font-weight="400"><tspan class="TextPosition" x="24783" y="16103"><tspan fill="rgb(0,0,0)" stroke="none">rust-dap</tspan></tspan></tspan></text>
 <text class="TextShape"><tspan class="TextParagraph" font-family="Liberation Sans, sans-serif" font-size="318px" font-weight="400"><tspan class="TextPosition" x="11264" y="26395"><tspan fill="rgb(0,0,0)" stroke="none">SWD frequency</tspan></tspan></tspan></text>
 <text class="TextShape" transform="rotate(-90 837 14246)"><tspan class="TextParagraph" font-family="Liberation Sans, sans-serif" font-size="318px" font-weight="400"><tspan class="TextPosition" x="837" y="14246"><tspan fill="rgb(0,0,0)" stroke="none">Bytes/s</tspan></tspan></tspan></text>
</svg>