<?xml version="1.0" encoding="UTF-8"?>
<!DOCTYPE svg PUBLIC "-//W3C//DTD SVG 1.1//EN" "http://www.w3.org/Graphics/SVG/1.1/DTD/svg11.dtd">
<svg width="269mm" height="270mm" viewBox="0 0 26900 27000" version="1.1" xmlns="http://www.w3.org/2000/svg" xmlns:xlink="http://www.w3.org/1999/xlink" stroke-width="28.222" stroke-linejoin="round" xml:space="preserve">
 <path fill="rgb(255,255,255)" stroke="none" d="M 13461,27024 L 0,27024 0,0 26922,0 26922,27024 13461,27024 Z"/>
 <path fill="none" stroke="rgb(179,179,179)" stroke-linejoin="round" d="M 12963,24856 L 2911,24856 2911,2194 23015,2194 23015,24856 12963,24856 Z"/>
 <path fill="none" stroke="rgb(179,179,179)" stroke-linejoin="round" d="M 23015,24855 L 2911,24855"/>
 <path fill="none" stroke="rgb(179,179,179)" stroke-linejoin="round" d="M 23015,21077 L 2911,21077"/>
 <path fill="none" stroke="rgb(179,179,179)" stroke-linejoin="round" d="M 23015,17300 L 2911,17300"/>
 <path fill="none" stroke="rgb(179,179,179)" stroke-linejoin="round" d="M 23015,13523 L 2911,13523"/>
 <path fill="none" stroke="rgb(179,179,179)" stroke-linejoin="round" d="M 23015,9747 L 2911,9747"/>
 <path fill="none" stroke="rgb(179,179,179)" stroke-linejoin="round" d="M 23015,5970 L 2911,5970"/>
 <path fill="none" stroke="rgb(179,179,179)" stroke-linejoin="round" d="M 23015,2193 L 2911,2193"/>
 <path fill="none" stroke="rgb(179,179,179)" stroke-linejoin="round" d="M 2911,25005 L 2911,24855"/>
 <path fill="none" stroke="rgb(179,179,179)" stroke-linejoin="round" d="M 2911,25005 L 2911,24855"/>
 <path fill="none" stroke="rgb(179,179,179)" stroke-linejoin="round" d="M 4921,25005 L 4921,24855"/>
 <path fill="none" stroke="rgb(179,179,179)" stroke-linejoin="round" d="M 4921,25005 L 4921,24855"/>
 <path fill="none" stroke="rgb(179,179,179)" stroke-linejoin="round" d="M 6932,25005 L 6932,24855"/>
 <path fill="none" stroke="rgb(179,179,179)" stroke-linejoin="round" d="M 6932,25005 L 6932,24855"/>
 <path fill="none" stroke="rgb(179,179,179)" stroke-linejoin="round" d="M 8942,25005 L 8942,24855"/>
 <path fill="none" stroke="rgb(179,179,179)" stroke-linejoin="round" d="M 8942,25005 L 8942,24855"/>
 <path fill="none" stroke="rgb(179,179,179)" stroke-linejoin="round" d="M 10953,25005 L 10953,24855"/>
 <path fill="none" stroke="rgb(179,179,179)" stroke-linejoin="round" d="M 10953,25005 L 10953,24855"/>
 <path fill="none" stroke="rgb(179,179,179)" stroke-linejoin="round" d="M 12963,25005 L 12963,24855"/>
 <path fill="none" stroke="rgb(179,179,179)" stroke-linejoin="round" d="M 12963,25005 L 12963,24855"/>
 <path fill="none" stroke="rgb(179,179,179)" stroke-linejoin="round" d="M 14973,25005 L 14973,24855"/>
 <path fill="none" stroke="rgb(179,179,179)" stroke-linejoin="round" d="M 14973,25005 L 14973,24855"/>
 <path fill="none" stroke="rgb(179,179,179)" stroke-linejoin="round" d="M 16983,25005 L 16983,24855"/>
 <path fill="none" stroke="rgb(179,179,179)" stroke-linejoin="round" d="M 16983,25005 L 16983,24855"/>
 <path fill="none" stroke="rgb(179,179,179)" stroke-linejoin="round" d="M 18994,25005 L 18994,24855"/>
 <path fill="none" stroke="rgb(179,179,179)" stroke-linejoin="round" d="M 18994,25005 L 18994,24855"/>
 <path fill="none" stroke="rgb(179,179,179)" stroke-linejoin="round" d="M 21004,25005 L 21004,24855"/>
 <path fill="none" stroke="rgb(179,179,179)" stroke-linejoin="round" d="M 21004,25005 L 21004,24855"/>
 <path fill="none" stroke="rgb(179,179,179)" stroke-linejoin="round" d="M 23015,25005 L 23015,24855"/>
 <path fill="none" stroke="rgb(179,179,179)" stroke-linejoin="round" d="M 23015,25005 L 23015,24855"/>
 <path fill="none" stroke="rgb(179,179,179)" stroke-linejoin="round" d="M 2911,24855 L 23015,24855"/>
 <path fill="none" stroke="rgb(179,179,179)" stroke-linejoin="round" d="M 2761,24855 L 2911,24855"/>
 <path fill="none" stroke="rgb(179,179,179)" stroke-linejoin="round" d="M 2761,24855 L 2911,24855"/>
 <path fill="none" stroke="rgb(179,179,179)" stroke-linejoin="round" d="M 2761,21077 L 2911,21077"/>
 <path fill="none" stroke="rgb(179,179,179)" stroke-linejoin="round" d="M 2761,21077 L 2911,21077"/>
 <path fill="none" stroke="rgb(179,179,179)" stroke-linejoin="round" d="M 2761,17300 L 2911,17300"/>
 <path fill="none" stroke="rgb(179,179,179)" stroke-linejoin="round" d="M 2761,17300 L 2911,17300"/>
 <path fill="none" stroke="rgb(179,179,179)" stroke-linejoin="round" d="M 2761,13523 L 2911,13523"/>
 <path fill="none" stroke="rgb(179,179,179)" stroke-linejoin="round" d="M 2761,13523 L 2911,13523"/>
 <path fill="none" stroke="rgb(179,179,179)" stroke-linejoin="round" d="M 2761,9747 L 2911,9747"/>
 <path fill="none" stroke="rgb(179,179,179)" stroke-linejoin="round" d="M 2761,9747 L 2911,9747"/>
 <path fill="none" stroke="rgb(179,179,179)" stroke-linejoin="round" d="M 2761,5970 L 2911,5970"/>
 <path fill="none" stroke="rgb(179,179,179)" stroke-linejoin="round" d="M 2761,5970 L 2911,5970"/>
 <path fill="none" stroke="rgb(179,179,179)" stroke-linejoin="round" d="M 2761,2193 L 2911,2193"/>
 <path fill="none" stroke="rgb(179,179,179)" stroke-linejoin="round" d="M 2761,2193 L 2911,2193"/>
 <path fill="none" stroke="rgb(179,179,179)" stroke-linejoin="round" d="M 2911,24855 L 2911,2193"/>
 <path fill="none" stroke="rgb(0,69,134)" stroke-width="80" stroke-linejoin="round" d="M 6932,24472 L 8942,24121 10953,23500 12963,22501 14973,21125 16983,19667 18994,18201 21004,17226 23015,17237"/>
 <path fill="rgb(0,69,134)" stroke="none" d="M 6807,24347 L 6807,24597 7057,24597 7057,24347 6807,24347 Z"/>
 <path fill="none" stroke="rgb(0,69,134)" stroke-linejoin="round" d="M 6807,24347 L 6807,24597 7057,24597 7057,24347 6807,24347 Z"/>
 <path fill="rgb(0,69,134)" stroke="none" d="M 8817,23996 L 8817,24246 9067,24246 9067,23996 8817,23996 Z"/>
 <path fill="none" stroke="rgb(0,69,134)" stroke-linejoin="round" d="M 8817,23996 L 8817,24246 9067,24246 9067,23996 8817,23996 Z"/>
 <path fill="rgb(0,69,134)" stroke="none" d="M 10828,23375 L 10828,23625 11078,23625 11078,23375 10828,23375 Z"/>
 <path fill="none" stroke="rgb(0,69,134)" stroke-linejoin="round" d="M 10828,23375 L 10828,23625 11078,23625 11078,23375 10828,23375 Z"/>
 <path fill="rgb(0,69,134)" stroke="none" d="M 12838,22376 L 12838,22626 13088,22626 13088,22376 12838,22376 Z"/>
 <path fill="none" stroke="rgb(0,69,134)" stroke-linejoin="round" d="M 12838,22376 L 12838,22626 13088,22626 13088,22376 12838,22376 Z"/>
 <path fill="rgb(0,69,134)" stroke="none" d="M 14848,21000 L 14848,21250 15098,21250 15098,21000 14848,21000 Z"/>
 <path fill="none" stroke="rgb(0,69,134)" stroke-linejoin="round" d="M 14848,21000 L 14848,21250 15098,21250 15098,21000 14848,21000 Z"/>
 <path fill="rgb(0,69,134)" stroke="none" d="M 16858,19542 L 16858,19792 17108,19792 17108,19542 16858,19542 Z"/>
 <path fill="none" stroke="rgb(0,69,134)" stroke-linejoin="round" d="M 16858,19542 L 16858,19792 17108,19792 17108,19542 16858,19542 Z"/>
 <path fill="rgb(0,69,134)" stroke="none" d="M 18869,18076 L 18869,18326 19119,18326 19119,18076 18869,18076 Z"/>
 <path fill="none" stroke="rgb(0,69,134)" stroke-linejoin="round" d="M 18869,18076 L 18869,18326 19119,18326 19119,18076 18869,18076 Z"/>
 <path fill="rgb(0,69,134)" stroke="none" d="M 20879,17101 L 20879,17351 21129,17351 21129,17101 20879,17101 Z"/>
 <path fill="none" stroke="rgb(0,69,134)" stroke-linejoin="round" d="M 20879,17101 L 20879,17351 21129,17351 21129,17101 20879,17101 Z"/>
 <path fill="rgb(0,69,134)" stroke="none" d="M 22890,17112 L 22890,17362 23140,17362 23140,17112 22890,17112 Z"/>
 <path fill="none" stroke="rgb(0,69,134)" stroke-linejoin="round" d="M 22890,17112 L 22890,17362 23140,17362 23140,17112 22890,17112 Z"/>
 <path fill="none" stroke="rgb(255,66,14)" stroke-width="80" stroke-linejoin="round" d="M 2911,24711 L 4921,24576 6932,24450 8942,24117 10953,23593 12963,22712"/>
 <path fill="rgb(255,66,14)" stroke="none" d="M 2786,24711 L 2911,24836 3036,24711 2911,24586 2786,24711 Z"/>
 <path fill="none" stroke="rgb(255,66,14)" stroke-linejoin="round" d="M 2786,24711 L 2911,24836 3036,24711 2911,24586 2786,24711 Z"/>
 <path fill="rgb(255,66,14)" stroke="none" d="M 4796,24576 L 4921,24701 5046,24576 4921,24451 4796,24576 Z"/>
 <path fill="none" stroke="rgb(255,66,14)" stroke-linejoin="round" d="M 4796,24576 L 4921,24701 5046,24576 4921,24451 4796,24576 Z"/>
 <path fill="rgb(255,66,14)" stroke="none" d="M 6807,24450 L 6932,24575 7057,24450 6932,24325 6807,24450 Z"/>
 <path fill="none" stroke="rgb(255,66,14)" stroke-linejoin="round" d="M 6807,24450 L 6932,24575 7057,24450 6932,24325 6807,24450 Z"/>
 <path fill="rgb(255,66,14)" stroke="none" d="M 8817,24117 L 8942,24242 9067,24117 8942,23992 8817,24117 Z"/>
 <path fill="none" stroke="rgb(255,66,14)" stroke-linejoin="round" d="M 8817,24117 L 8942,24242 9067,24117 8942,23992 8817,24117 Z"/>
 <path fill="rgb(255,66,14)" stroke="none" d="M 10828,23593 L 10953,23718 11078,23593 10953,23468 10828,23593 Z"/>
 <path fill="none" stroke="rgb(255,66,14)" stroke-linejoin="round" d="M 10828,23593 L 10953,23718 11078,23593 10953,23468 10828,23593 Z"/>
 <path fill="rgb(255,66,14)" stroke="none" d="M 12838,22712 L 12963,22837 13088,22712 12963,22587 12838,22712 Z"/>
 <path fill="none" stroke="rgb(255,66,14)" stroke-linejoin="round" d="M 12838,22712 L 12963,22837 13088,22712 12963,22587 12838,22712 Z"/>
 <path fill="none" stroke="rgb(255,211,32)" stroke-width="80" stroke-linejoin="round" d="M 2911,24724 L 4921,24650 6932,24528 8942,24232 10953,23395 12963,22987 14973,21822 16983,21834 18994,21828 21004,21832 23015,21821"/>
 <path fill="rgb(255,211,32)" stroke="none" d="M 2786,24599 L 2911,24849 3036,24599 2786,24599 Z"/>
 <path fill="none" stroke="rgb(255,211,32)" stroke-linejoin="round" d="M 2786,24599 L 2911,24849 3036,24599 2786,24599 Z"/>
 <path fill="rgb(255,211,32)" stroke="none" d="M 4796,24525 L 4921,24775 5046,24525 4796,24525 Z"/>
 <path fill="none" stroke="rgb(255,211,32)" stroke-linejoin="round" d="M 4796,24525 L 4921,24775 5046,24525 4796,24525 Z"/>
 <path fill="rgb(255,211,32)" stroke="none" d="M 6807,24403 L 6932,24653 7057,24403 6807,24403 Z"/>
 <path fill="none" stroke="rgb(255,211,32)" stroke-linejoin="round" d="M 6807,24403 L 6932,24653 7057,24403 6807,24403 Z"/>
 <path fill="rgb(255,211,32)" stroke="none" d="M 8817,24107 L 8942,24357 9067,24107 8817,24107 Z"/>
 <path fill="none" stroke="rgb(255,211,32)" stroke-linejoin="round" d="M 8817,24107 L 8942,24357 9067,24107 8817,24107 Z"/>
 <path fill="rgb(255,211,32)" stroke="none" d="M 10828,23270 L 10953,23520 11078,23270 10828,23270 Z"/>
 <path fill="none" stroke="rgb(255,211,32)" stroke-linejoin="round" d="M 10828,23270 L 10953,23520 11078,23270 10828,23270 Z"/>
 <path fill="rgb(255,211,32)" stroke="none" d="M 12838,22862 L 12963,23112 13088,22862 12838,22862 Z"/>
 <path fill="none" stroke="rgb(255,211,32)" stroke-linejoin="round" d="M 12838,22862 L 12963,23112 13088,22862 12838,22862 Z"/>
 <path fill="rgb(255,211,32)" stroke="none" d="M 14848,21697 L 14973,21947 15098,21697 14848,21697 Z"/>
 <path fill="none" stroke="rgb(255,211,32)" stroke-linejoin="round" d="M 14848,21697 L 14973,21947 15098,21697 14848,21697 Z"/>
 <path fill="rgb(255,211,32)" stroke="none" d="M 16858,21709 L 16983,21959 17108,21709 16858,21709 Z"/>
 <path fill="none" stroke="rgb(255,211,32)" stroke-linejoin="round" d="M 16858,21709 L 16983,21959 17108,21709 16858,21709 Z"/>
 <path fill="rgb(255,211,32)" stroke="none" d="M 18869,21703 L 18994,21953 19119,21703 18869,21703 Z"/>
 <path fill="none" stroke="rgb(255,211,32)" stroke-linejoin="round" d="M 18869,21703 L 18994,21953 19119,21703 18869,21703 Z"/>
 <path fill="rgb(255,211,32)" stroke="none" d="M 20879,21707 L 21004,21957 21129,21707 20879,21707 Z"/>
 <path fill="none" stroke="rgb(255,211,32)" stroke-linejoin="round" d="M 20879,21707 L 21004,21957 21129,21707 20879,21707 Z"/>
 <path fill="rgb(255,211,32)" stroke="none" d="M 22890,21696 L 23015,21946 23140,21696 22890,21696 Z"/>
 <path fill="none" stroke="rgb(255,211,32)" stroke-linejoin="round" d="M 22890,21696 L 23015,21946 23140,21696 22890,21696 Z"/>
 <path fill="none" stroke="rgb(87,157,28)" stroke-width="80" stroke-linejoin="round" d="M 6932,24528 L 8942,24528 10953,23285 12963,23285 14973,20024 16983,15392 18994,15398 21004,3957 23015,3932"/>
 <path fill="rgb(87,157,28)" stroke="none" d="M 6807,24653 L 7057,24653 6932,24403 6807,24653 Z"/>
 <path fill="none" stroke="rgb(87,157,28)" stroke-linejoin="round" d="M 6807,24653 L 7057,24653 6932,24403 6807,24653 Z"/>
 <path fill="rgb(87,157,28)" stroke="none" d="M 8817,24653 L 9067,24653 8942,24403 8817,24653 Z"/>
 <path fill="none" stroke="rgb(87,157,28)" stroke-linejoin="round" d="M 8817,24653 L 9067,24653 8942,24403 8817,24653 Z"/>
 <path fill="rgb(87,157,28)" stroke="none" d="M 10828,23410 L 11078,23410 10953,23160 10828,23410 Z"/>
 <path fill="none" stroke="rgb(87,157,28)" stroke-linejoin="round" d="M 10828,23410 L 11078,23410 10953,23160 10828,23410 Z"/>
 <path fill="rgb(87,157,28)" stroke="none" d="M 12838,23410 L 13088,23410 12963,23160 12838,23410 Z"/>
 <path fill="none" stroke="rgb(87,157,28)" stroke-linejoin="round" d="M 12838,23410 L 13088,23410 12963,23160 12838,23410 Z"/>
 <path fill="rgb(87,157,28)" stroke="none" d="M 14848,20149 L 15098,20149 14973,19899 14848,20149 Z"/>
 <path fill="none" stroke="rgb(87,157,28)" stroke-linejoin="round" d="M 14848,20149 L 15098,20149 14973,19899 14848,20149 Z"/>
 <path fill="rgb(87,157,28)" stroke="none" d="M 16858,15517 L 17108,15517 16983,15267 16858,15517 Z"/>
 <path fill="none" stroke="rgb(87,157,28)" stroke-linejoin="round" d="M 16858,15517 L 17108,15517 16983,15267 16858,15517 Z"/>
 <path fill="rgb(87,157,28)" stroke="none" d="M 18869,15523 L 19119,15523 18994,15273 18869,15523 Z"/>
 <path fill="none" stroke="rgb(87,157,28)" stroke-linejoin="round" d="M 18869,15523 L 19119,15523 18994,15273 18869,15523 Z"/>
 <path fill="rgb(87,157,28)" stroke="none" d="M 20879,4082 L 21129,4082 21004,3832 20879,4082 Z"/>
 <path fill="none" stroke="rgb(87,157,28)" stroke-linejoin="round" d="M 20879,4082 L 21129,4082 21004,3832 20879,4082 Z"/>
 <path fill="rgb(87,157,28)" stroke="none" d="M 22890,4057 L 23140,4057 23015,3807 22890,4057 Z"/>
 <path fill="none" stroke="rgb(87,157,28)" stroke-linejoin="round" d="M 22890,4057 L 23140,4057 23015,3807 22890,4057 Z"/>
 <text class="TextShape"><tspan class="TextParagraph" font-family="Liberation Sans, sans-serif" font-size="353px" font-weight="400"><tspan class="TextPosition" x="2329" y="25423"><tspan fill="rgb(0,0,0)" stroke="none">100kHz</tspan></tspan></tspan></text>
 <text class="TextShape"><tspan class="TextParagraph" font-family="Liberation Sans, sans-serif" font-size="353px" font-weight="400"><tspan class="TextPosition" x="4339" y="25423"><tspan fill="rgb(0,0,0)" stroke="none">200kHz</tspan></tspan></tspan></text>
 <text class="TextShape"><tspan class="TextParagraph" font-family="Liberation Sans, sans-serif" font-size="353px" font-weight="400"><tspan class="TextPosition" x="6350" y="25423"><tspan fill="rgb(0,0,0)" stroke="none">300kHz</tspan></tspan></tspan></text>
 <text class="TextShape"><tspan class="TextParagraph" font-family="Liberation Sans, sans-serif" font-size="353px" font-weight="400"><tspan class="TextPosition" x="8360" y="25423"><tspan fill="rgb(0,0,0)" stroke="none">600kHz</tspan></tspan></tspan></text>
 <text class="TextShape"><tspan class="TextParagraph" font-family="Liberation Sans, sans-serif" font-size="353px" font-weight="400"><tspan class="TextPosition" x="10278" y="25423"><tspan fill="rgb(0,0,0)" stroke="none">1200kHz</tspan></tspan></tspan></text>
 <text class="TextShape"><tspan class="TextParagraph" font-family="Liberation Sans, sans-serif" font-size="353px" font-weight="400"><tspan class="TextPosition" x="12288" y="25423"><tspan fill="rgb(0,0,0)" stroke="none">2400kHz</tspan></tspan></tspan></text>
 <text class="TextShape"><tspan class="TextParagraph" font-family="Liberation Sans, sans-serif" font-size="353px" font-weight="400"><tspan class="TextPosition" x="14299" y="25423"><tspan fill="rgb(0,0,0)" stroke="none">4800kHz</tspan></tspan></tspan></text>
 <text class="TextShape"><tspan class="TextParagraph" font-family="Liberation Sans, sans-serif" font-size="353px" font-weight="400"><tspan class="TextPosition" x="16441" y="25423"><tspan fill="rgb(0,0,0)" stroke="none">10MHz</tspan></tspan></tspan></text>
 <text class="TextShape"><tspan class="TextParagraph" font-family="Liberation Sans, sans-serif" font-size="353px" font-weight="400"><tspan class="TextPosition" x="18452" y="25423"><tspan fill="rgb(0,0,0)" stroke="none">20MHz</tspan></tspan></tspan></text>
 <text class="TextShape"><tspan class="TextParagraph" font-family="Liberation Sans, sans-serif" font-size="353px" font-weight="400"><tspan class="TextPosition" x="20462" y="25423"><tspan fill="rgb(0,0,0)" stroke="none">40MHz</tspan></tspan></tspan></text>
 <text class="TextShape"><tspan class="TextParagraph" font-family="Liberation Sans, sans-serif" font-size="353px" font-weight="400"><tspan class="TextPosition" x="22473" y="25423"><tspan fill="rgb(0,0,0)" stroke="none">80MHz</tspan></tspan></tspan></text>
 <text class="TextShape"><tspan class="TextParagraph" font-family="Liberation Sans, sans-serif" font-size="353px" font-weight="400"><tspan class="TextPosition" x="2476" y="24976"><tspan fill="rgb(0,0,0)" stroke="none">0</tspan></tspan></tspan></text>
 <text class="TextShape"><tspan class="TextParagraph" font-family="Liberation Sans, sans-serif" font-size="353px" font-weight="400"><tspan class="TextPosition" x="1550" y="21198"><tspan fill="rgb(0,0,0)" stroke="none">200000</tspan></tspan></tspan></text>
 <text class="TextShape"><tspan class="TextParagraph" font-family="Liberation Sans, sans-serif" font-size="353px" font-weight="400"><tspan class="TextPosition" x="1550" y="17421"><tspan fill="rgb(0,0,0)" stroke="none">400000</tspan></tspan></tspan></text>
 <text class="TextShape"><tspan class="TextParagraph" font-family="Liberation Sans, sans-serif" font-size="353px" font-weight="400"><tspan class="TextPosition" x="1550" y="13644"><tspan fill="rgb(0,0,0)" stroke="none">600000</tspan></tspan></tspan></text>
 <text class="TextShape"><tspan class="TextParagraph" font-family="Liberation Sans, sans-serif" font-size="353px" font-weight="400"><tspan class="TextPosition" x="1550" y="9867"><tspan fill="rgb(0,0,0)" stroke="none">800000</tspan></tspan></tspan></text>
 <text class="TextShape"><tspan class="TextParagraph" font-family="Liberation Sans, sans-serif" font-size="353px" font-weight="400"><tspan class="TextPosition" x="1365" y="6090"><tspan fill="rgb(0,0,0)" stroke="none">1000000</tspan></tspan></tspan></text>
 <text class="TextShape"><tspan class="TextParagraph" font-family="Liberation Sans, sans-serif" font-size="353px" font-weight="400"><tspan class="TextPosition" x="1365" y="2313"><tspan fill="rgb(0,0,0)" stroke="none">1200000</tspan></tspan></tspan></text>
 <text class="TextShape"><tspan class="TextParagraph" font-family="Liberation Sans, sans-serif" font-size="459px" font-weight="400"><tspan class="TextPosition" x="8976" y="1211"><tspan fill="rgb(0,0,0)" stroke="none">HS-Probe vs Non-CMSIS-DAP probes (write)</tspan></tspan></tspan></text>
 <path fill="none" stroke="rgb(0,69,134)" stroke-width="80" stroke-linejoin="round" d="M 24398,12764 L 25198,12764"/>
 <path fill="rgb(0,69,134)" stroke="none" d="M 24692,12659 L 24692,12870 24903,12870 24903,12659 24692,12659 Z"/>
 <path fill="none" stroke="rgb(0,69,134)" stroke-linejoin="round" d="M 24692,12659 L 24692,12870 24903,12870 24903,12659 24692,12659 Z"/>
 <path fill="none" stroke="rgb(255,66,14)" stroke-width="80" stroke-linejoin="round" d="M 24398,13262 L 25198,13262"/>
 <path fill="rgb(255,66,14)" stroke="none" d="M 24692,13262 L 24798,13368 24903,13262 24798,13157 24692,13262 Z"/>
 <path fill="none" stroke="rgb(255,66,14)" stroke-linejoin="round" d="M 24692,13262 L 24798,13368 24903,13262 24798,13157 24692,13262 Z"/>
 <path fill="none" stroke="rgb(255,211,32)" stroke-width="80" stroke-linejoin="round" d="M 24398,13759 L 25198,13759"/>
 <path fill="rgb(255,211,32)" stroke="none" d="M 24692,13654 L 24798,13865 24903,13654 24692,13654 Z"/>
 <path fill="none" stroke="rgb(255,211,32)" stroke-linejoin="round" d="M 24692,13654 L 24798,13865 24903,13654 24692,13654 Z"/>
 <path fill="none" stroke="rgb(87,157,28)" stroke-width="80" stroke-linejoin="round" d="M 24398,14257 L 25198,14257"/>
 <path fill="rgb(87,157,28)" stroke="none" d="M 24692,14363 L 24903,14363 24798,14152 24692,14363 Z"/>
 <path fill="none" stroke="rgb(87,157,28)" stroke-linejoin="round" d="M 24692,14363 L 24903,14363 24798,14152 24692,14363 Z"/>
 <text class="TextShape"><tspan class="TextParagraph" font-family="Liberation Sans, sans-serif" font-size="353px" font-weight="400"><tspan class="TextPosition" x="25298" y="12884"><tspan fill="rgb(0,0,0)" stroke="none">hsprobe</tspan></tspan></tspan></text>
 <text class="TextShape"><tspan class="TextParagraph" font-family="Liberation Sans, sans-serif" font-size="353px" font-weight="400"><tspan class="TextPosition" x="25298" y="13382"><tspan fill="rgb(0,0,0)" stroke="none">jlink</tspan></tspan></tspan></text>
 <text class="TextShape"><tspan class="TextParagraph" font-family="Liberation Sans, sans-serif" font-size="353px" font-weight="400"><tspan class="TextPosition" x="25298" y="13879"><tspan fill="rgb(0,0,0)" stroke="none">stlink v2</tspan></tspan></tspan></text>
 <text class="TextShape"><tspan class="TextParagraph" font-family="Liberation Sans, sans-serif" font-size="353px" font-weight="400"><tspan class="TextPosition" x="25298" y="14377"><tspan fill="rgb(0,0,0)" stroke="none">stlink v3</tspan></tspan></tspan></text>
 <text class="TextShape"><tspan class="TextParagraph" font-family="Liberation Sans, sans-serif" font-size="318px" font-weight="400"><tspan class="TextPosition" x="11469" y="26430"><tspan fill="rgb(0,0,0)" stroke="none">SWD Frequency</tspan></tspan></tspan></text>
 <text class="TextShape" transform="rotate(-90 837 15971)"><tspan class="TextParagraph" font-family="Liberation Sans, sans-serif" font-size="318px" font-weight="400"><tspan class="TextPosition" x="837" y="15971"><tspan fill="rgb(0,0,0)" stroke="none">Throughput (Bytes per second)</tspan></tspan></tspan></text>
</svg>