<?xml version="1.0" encoding="UTF-8"?>
<!DOCTYPE svg PUBLIC "-//W3C//DTD SVG 1.1//EN" "http://www.w3.org/Graphics/SVG/1.1/DTD/svg11.dtd">
<svg width="275mm" height="270mm" viewBox="0 0 27500 27000" version="1.1" xmlns="http://www.w3.org/2000/svg" xmlns:xlink="http://www.w3.org/1999/xlink" stroke-width="28.222" stroke-linejoin="round" xml:space="preserve">
 <path fill="rgb(255,255,255)" stroke="none" d="M 13729,26987 L 0,26987 0,0 27457,0 27457,26987 13729,26987 Z"/>
 <path fill="none" stroke="rgb(179,179,179)" stroke-linejoin="round" d="M 12781,24820 L 2922,24820 2922,2192 22640,2192 22640,24820 12781,24820 Z"/>
 <path fill="none" stroke="rgb(179,179,179)" stroke-linejoin="round" d="M 22640,24819 L 2922,24819"/>
 <path fill="none" stroke="rgb(179,179,179)" stroke-linejoin="round" d="M 22640,22304 L 2922,22304"/>
 <path fill="none" stroke="rgb(179,179,179)" stroke-linejoin="round" d="M 22640,19790 L 2922,19790"/>
 <path fill="none" stroke="rgb(179,179,179)" stroke-linejoin="round" d="M 22640,17276 L 2922,17276"/>
 <path fill="none" stroke="rgb(179,179,179)" stroke-linejoin="round" d="M 22640,14761 L 2922,14761"/>
 <path fill="none" stroke="rgb(179,179,179)" stroke-linejoin="round" d="M 22640,12248 L 2922,12248"/>
 <path fill="none" stroke="rgb(179,179,179)" stroke-linejoin="round" d="M 22640,9733 L 2922,9733"/>
 <path fill="none" stroke="rgb(179,179,179)" stroke-linejoin="round" d="M 22640,7219 L 2922,7219"/>
 <path fill="none" stroke="rgb(179,179,179)" stroke-linejoin="round" d="M 22640,4705 L 2922,4705"/>
 <path fill="none" stroke="rgb(179,179,179)" stroke-linejoin="round" d="M 22640,2190 L 2922,2190"/>
 <path fill="none" stroke="rgb(179,179,179)" stroke-linejoin="round" d="M 2922,24969 L 2922,24819"/>
 <path fill="none" stroke="rgb(179,179,179)" stroke-linejoin="round" d="M 2922,24969 L 2922,24819"/>
 <path fill="none" stroke="rgb(179,179,179)" stroke-linejoin="round" d="M 4893,24969 L 4893,24819"/>
 <path fill="none" stroke="rgb(179,179,179)" stroke-linejoin="round" d="M 4893,24969 L 4893,24819"/>
 <path fill="none" stroke="rgb(179,179,179)" stroke-linejoin="round" d="M 6865,24969 L 6865,24819"/>
 <path fill="none" stroke="rgb(179,179,179)" stroke-linejoin="round" d="M 6865,24969 L 6865,24819"/>
 <path fill="none" stroke="rgb(179,179,179)" stroke-linejoin="round" d="M 8837,24969 L 8837,24819"/>
 <path fill="none" stroke="rgb(179,179,179)" stroke-linejoin="round" d="M 8837,24969 L 8837,24819"/>
 <path fill="none" stroke="rgb(179,179,179)" stroke-linejoin="round" d="M 10809,24969 L 10809,24819"/>
 <path fill="none" stroke="rgb(179,179,179)" stroke-linejoin="round" d="M 10809,24969 L 10809,24819"/>
 <path fill="none" stroke="rgb(179,179,179)" stroke-linejoin="round" d="M 12781,24969 L 12781,24819"/>
 <path fill="none" stroke="rgb(179,179,179)" stroke-linejoin="round" d="M 12781,24969 L 12781,24819"/>
 <path fill="none" stroke="rgb(179,179,179)" stroke-linejoin="round" d="M 14752,24969 L 14752,24819"/>
 <path fill="none" stroke="rgb(179,179,179)" stroke-linejoin="round" d="M 14752,24969 L 14752,24819"/>
 <path fill="none" stroke="rgb(179,179,179)" stroke-linejoin="round" d="M 16724,24969 L 16724,24819"/>
 <path fill="none" stroke="rgb(179,179,179)" stroke-linejoin="round" d="M 16724,24969 L 16724,24819"/>
 <path fill="none" stroke="rgb(179,179,179)" stroke-linejoin="round" d="M 18696,24969 L 18696,24819"/>
 <path fill="none" stroke="rgb(179,179,179)" stroke-linejoin="round" d="M 18696,24969 L 18696,24819"/>
 <path fill="none" stroke="rgb(179,179,179)" stroke-linejoin="round" d="M 20668,24969 L 20668,24819"/>
 <path fill="none" stroke="rgb(179,179,179)" stroke-linejoin="round" d="M 20668,24969 L 20668,24819"/>
 <path fill="none" stroke="rgb(179,179,179)" stroke-linejoin="round" d="M 22640,24969 L 22640,24819"/>
 <path fill="none" stroke="rgb(179,179,179)" stroke-linejoin="round" d="M 22640,24969 L 22640,24819"/>
 <path fill="none" stroke="rgb(179,179,179)" stroke-linejoin="round" d="M 2922,24819 L 22640,24819"/>
 <path fill="none" stroke="rgb(179,179,179)" stroke-linejoin="round" d="M 2772,24819 L 2922,24819"/>
 <path fill="none" stroke="rgb(179,179,179)" stroke-linejoin="round" d="M 2772,24819 L 2922,24819"/>
 <path fill="none" stroke="rgb(179,179,179)" stroke-linejoin="round" d="M 2772,22304 L 2922,22304"/>
 <path fill="none" stroke="rgb(179,179,179)" stroke-linejoin="round" d="M 2772,22304 L 2922,22304"/>
 <path fill="none" stroke="rgb(179,179,179)" stroke-linejoin="round" d="M 2772,19790 L 2922,19790"/>
 <path fill="none" stroke="rgb(179,179,179)" stroke-linejoin="round" d="M 2772,19790 L 2922,19790"/>
 <path fill="none" stroke="rgb(179,179,179)" stroke-linejoin="round" d="M 2772,17276 L 2922,17276"/>
 <path fill="none" stroke="rgb(179,179,179)" stroke-linejoin="round" d="M 2772,17276 L 2922,17276"/>
 <path fill="none" stroke="rgb(179,179,179)" stroke-linejoin="round" d="M 2772,14761 L 2922,14761"/>
 <path fill="none" stroke="rgb(179,179,179)" stroke-linejoin="round" d="M 2772,14761 L 2922,14761"/>
 <path fill="none" stroke="rgb(179,179,179)" stroke-linejoin="round" d="M 2772,12248 L 2922,12248"/>
 <path fill="none" stroke="rgb(179,179,179)" stroke-linejoin="round" d="M 2772,12248 L 2922,12248"/>
 <path fill="none" stroke="rgb(179,179,179)" stroke-linejoin="round" d="M 2772,9733 L 2922,9733"/>
 <path fill="none" stroke="rgb(179,179,179)" stroke-linejoin="round" d="M 2772,9733 L 2922,9733"/>
 <path fill="none" stroke="rgb(179,179,179)" stroke-linejoin="round" d="M 2772,7219 L 2922,7219"/>
 <path fill="none" stroke="rgb(179,179,179)" stroke-linejoin="round" d="M 2772,7219 L 2922,7219"/>
 <path fill="none" stroke="rgb(179,179,179)" stroke-linejoin="round" d="M 2772,4705 L 2922,4705"/>
 <path fill="none" stroke="rgb(179,179,179)" stroke-linejoin="round" d="M 2772,4705 L 2922,4705"/>
 <path fill="none" stroke="rgb(179,179,179)" stroke-linejoin="round" d="M 2772,2191 L 2922,2191"/>
 <path fill="none" stroke="rgb(179,179,179)" stroke-linejoin="round" d="M 2772,2191 L 2922,2191"/>
 <path fill="none" stroke="rgb(179,179,179)" stroke-linejoin="round" d="M 2922,24819 L 2922,2190"/>
 <path fill="none" stroke="rgb(0,69,134)" stroke-width="80" stroke-linejoin="round" d="M 6865,23801 L 8837,22866 10809,21211 12781,18553 14752,14889 16724,11006 18696,7105 20668,4508 22640,4537"/>
 <path fill="rgb(0,69,134)" stroke="none" d="M 6740,23676 L 6740,23926 6990,23926 6990,23676 6740,23676 Z"/>
 <path fill="none" stroke="rgb(0,69,134)" stroke-linejoin="round" d="M 6740,23676 L 6740,23926 6990,23926 6990,23676 6740,23676 Z"/>
 <path fill="rgb(0,69,134)" stroke="none" d="M 8712,22741 L 8712,22991 8962,22991 8962,22741 8712,22741 Z"/>
 <path fill="none" stroke="rgb(0,69,134)" stroke-linejoin="round" d="M 8712,22741 L 8712,22991 8962,22991 8962,22741 8712,22741 Z"/>
 <path fill="rgb(0,69,134)" stroke="none" d="M 10684,21086 L 10684,21336 10934,21336 10934,21086 10684,21086 Z"/>
 <path fill="none" stroke="rgb(0,69,134)" stroke-linejoin="round" d="M 10684,21086 L 10684,21336 10934,21336 10934,21086 10684,21086 Z"/>
 <path fill="rgb(0,69,134)" stroke="none" d="M 12656,18428 L 12656,18678 12906,18678 12906,18428 12656,18428 Z"/>
 <path fill="none" stroke="rgb(0,69,134)" stroke-linejoin="round" d="M 12656,18428 L 12656,18678 12906,18678 12906,18428 12656,18428 Z"/>
 <path fill="rgb(0,69,134)" stroke="none" d="M 14627,14764 L 14627,15014 14877,15014 14877,14764 14627,14764 Z"/>
 <path fill="none" stroke="rgb(0,69,134)" stroke-linejoin="round" d="M 14627,14764 L 14627,15014 14877,15014 14877,14764 14627,14764 Z"/>
 <path fill="rgb(0,69,134)" stroke="none" d="M 16599,10881 L 16599,11131 16849,11131 16849,10881 16599,10881 Z"/>
 <path fill="none" stroke="rgb(0,69,134)" stroke-linejoin="round" d="M 16599,10881 L 16599,11131 16849,11131 16849,10881 16599,10881 Z"/>
 <path fill="rgb(0,69,134)" stroke="none" d="M 18571,6980 L 18571,7230 18821,7230 18821,6980 18571,6980 Z"/>
 <path fill="none" stroke="rgb(0,69,134)" stroke-linejoin="round" d="M 18571,6980 L 18571,7230 18821,7230 18821,6980 18571,6980 Z"/>
 <path fill="rgb(0,69,134)" stroke="none" d="M 20543,4383 L 20543,4633 20793,4633 20793,4383 20543,4383 Z"/>
 <path fill="none" stroke="rgb(0,69,134)" stroke-linejoin="round" d="M 20543,4383 L 20543,4633 20793,4633 20793,4383 20543,4383 Z"/>
 <path fill="rgb(0,69,134)" stroke="none" d="M 22515,4412 L 22515,4662 22765,4662 22765,4412 22515,4412 Z"/>
 <path fill="none" stroke="rgb(0,69,134)" stroke-linejoin="round" d="M 22515,4412 L 22515,4662 22765,4662 22765,4412 22515,4412 Z"/>
 <path fill="none" stroke="rgb(255,66,14)" stroke-width="80" stroke-linejoin="round" d="M 2922,24196 L 4893,23614 6865,23059 8837,21528 10809,19398 12781,15992 14752,9805 16724,9545 18696,9562 20668,9599 22640,9633"/>
 <path fill="rgb(255,66,14)" stroke="none" d="M 2797,24196 L 2922,24321 3047,24196 2922,24071 2797,24196 Z"/>
 <path fill="none" stroke="rgb(255,66,14)" stroke-linejoin="round" d="M 2797,24196 L 2922,24321 3047,24196 2922,24071 2797,24196 Z"/>
 <path fill="rgb(255,66,14)" stroke="none" d="M 4768,23614 L 4893,23739 5018,23614 4893,23489 4768,23614 Z"/>
 <path fill="none" stroke="rgb(255,66,14)" stroke-linejoin="round" d="M 4768,23614 L 4893,23739 5018,23614 4893,23489 4768,23614 Z"/>
 <path fill="rgb(255,66,14)" stroke="none" d="M 6740,23059 L 6865,23184 6990,23059 6865,22934 6740,23059 Z"/>
 <path fill="none" stroke="rgb(255,66,14)" stroke-linejoin="round" d="M 6740,23059 L 6865,23184 6990,23059 6865,22934 6740,23059 Z"/>
 <path fill="rgb(255,66,14)" stroke="none" d="M 8712,21528 L 8837,21653 8962,21528 8837,21403 8712,21528 Z"/>
 <path fill="none" stroke="rgb(255,66,14)" stroke-linejoin="round" d="M 8712,21528 L 8837,21653 8962,21528 8837,21403 8712,21528 Z"/>
 <path fill="rgb(255,66,14)" stroke="none" d="M 10684,19398 L 10809,19523 10934,19398 10809,19273 10684,19398 Z"/>
 <path fill="none" stroke="rgb(255,66,14)" stroke-linejoin="round" d="M 10684,19398 L 10809,19523 10934,19398 10809,19273 10684,19398 Z"/>
 <path fill="rgb(255,66,14)" stroke="none" d="M 12656,15992 L 12781,16117 12906,15992 12781,15867 12656,15992 Z"/>
 <path fill="none" stroke="rgb(255,66,14)" stroke-linejoin="round" d="M 12656,15992 L 12781,16117 12906,15992 12781,15867 12656,15992 Z"/>
 <path fill="rgb(255,66,14)" stroke="none" d="M 14627,9805 L 14752,9930 14877,9805 14752,9680 14627,9805 Z"/>
 <path fill="none" stroke="rgb(255,66,14)" stroke-linejoin="round" d="M 14627,9805 L 14752,9930 14877,9805 14752,9680 14627,9805 Z"/>
 <path fill="rgb(255,66,14)" stroke="none" d="M 16599,9545 L 16724,9670 16849,9545 16724,9420 16599,9545 Z"/>
 <path fill="none" stroke="rgb(255,66,14)" stroke-linejoin="round" d="M 16599,9545 L 16724,9670 16849,9545 16724,9420 16599,9545 Z"/>
 <path fill="rgb(255,66,14)" stroke="none" d="M 18571,9562 L 18696,9687 18821,9562 18696,9437 18571,9562 Z"/>
 <path fill="none" stroke="rgb(255,66,14)" stroke-linejoin="round" d="M 18571,9562 L 18696,9687 18821,9562 18696,9437 18571,9562 Z"/>
 <path fill="rgb(255,66,14)" stroke="none" d="M 20543,9599 L 20668,9724 20793,9599 20668,9474 20543,9599 Z"/>
 <path fill="none" stroke="rgb(255,66,14)" stroke-linejoin="round" d="M 20543,9599 L 20668,9724 20793,9599 20668,9474 20543,9599 Z"/>
 <path fill="rgb(255,66,14)" stroke="none" d="M 22515,9633 L 22640,9758 22765,9633 22640,9508 22515,9633 Z"/>
 <path fill="none" stroke="rgb(255,66,14)" stroke-linejoin="round" d="M 22515,9633 L 22640,9758 22765,9633 22640,9508 22515,9633 Z"/>
 <path fill="none" stroke="rgb(255,211,32)" stroke-width="80" stroke-linejoin="round" d="M 4893,24026 L 6865,23648 8837,22580 10809,20858 12781,19098 14752,16238 16724,14521 18696,11947 20668,11948 22640,11947"/>
 <path fill="rgb(255,211,32)" stroke="none" d="M 4768,23901 L 4893,24151 5018,23901 4768,23901 Z"/>
 <path fill="none" stroke="rgb(255,211,32)" stroke-linejoin="round" d="M 4768,23901 L 4893,24151 5018,23901 4768,23901 Z"/>
 <path fill="rgb(255,211,32)" stroke="none" d="M 6740,23523 L 6865,23773 6990,23523 6740,23523 Z"/>
 <path fill="none" stroke="rgb(255,211,32)" stroke-linejoin="round" d="M 6740,23523 L 6865,23773 6990,23523 6740,23523 Z"/>
 <path fill="rgb(255,211,32)" stroke="none" d="M 8712,22455 L 8837,22705 8962,22455 8712,22455 Z"/>
 <path fill="none" stroke="rgb(255,211,32)" stroke-linejoin="round" d="M 8712,22455 L 8837,22705 8962,22455 8712,22455 Z"/>
 <path fill="rgb(255,211,32)" stroke="none" d="M 10684,20733 L 10809,20983 10934,20733 10684,20733 Z"/>
 <path fill="none" stroke="rgb(255,211,32)" stroke-linejoin="round" d="M 10684,20733 L 10809,20983 10934,20733 10684,20733 Z"/>
 <path fill="rgb(255,211,32)" stroke="none" d="M 12656,18973 L 12781,19223 12906,18973 12656,18973 Z"/>
 <path fill="none" stroke="rgb(255,211,32)" stroke-linejoin="round" d="M 12656,18973 L 12781,19223 12906,18973 12656,18973 Z"/>
 <path fill="rgb(255,211,32)" stroke="none" d="M 14627,16113 L 14752,16363 14877,16113 14627,16113 Z"/>
 <path fill="none" stroke="rgb(255,211,32)" stroke-linejoin="round" d="M 14627,16113 L 14752,16363 14877,16113 14627,16113 Z"/>
 <path fill="rgb(255,211,32)" stroke="none" d="M 16599,14396 L 16724,14646 16849,14396 16599,14396 Z"/>
 <path fill="none" stroke="rgb(255,211,32)" stroke-linejoin="round" d="M 16599,14396 L 16724,14646 16849,14396 16599,14396 Z"/>
 <path fill="rgb(255,211,32)" stroke="none" d="M 18571,11822 L 18696,12072 18821,11822 18571,11822 Z"/>
 <path fill="none" stroke="rgb(255,211,32)" stroke-linejoin="round" d="M 18571,11822 L 18696,12072 18821,11822 18571,11822 Z"/>
 <path fill="rgb(255,211,32)" stroke="none" d="M 20543,11823 L 20668,12073 20793,11823 20543,11823 Z"/>
 <path fill="none" stroke="rgb(255,211,32)" stroke-linejoin="round" d="M 20543,11823 L 20668,12073 20793,11823 20543,11823 Z"/>
 <path fill="rgb(255,211,32)" stroke="none" d="M 22515,11822 L 22640,12072 22765,11822 22515,11822 Z"/>
 <path fill="none" stroke="rgb(255,211,32)" stroke-linejoin="round" d="M 22515,11822 L 22640,12072 22765,11822 22515,11822 Z"/>
 <path fill="none" stroke="rgb(87,157,28)" stroke-width="80" stroke-linejoin="round" d="M 2922,24434 L 4893,24073 6865,23727 8837,22779 10809,21316 12781,19134 14752,17001 16724,13419 18696,13508"/>
 <path fill="rgb(87,157,28)" stroke="none" d="M 2797,24559 L 3047,24559 2922,24309 2797,24559 Z"/>
 <path fill="none" stroke="rgb(87,157,28)" stroke-linejoin="round" d="M 2797,24559 L 3047,24559 2922,24309 2797,24559 Z"/>
 <path fill="rgb(87,157,28)" stroke="none" d="M 4768,24198 L 5018,24198 4893,23948 4768,24198 Z"/>
 <path fill="none" stroke="rgb(87,157,28)" stroke-linejoin="round" d="M 4768,24198 L 5018,24198 4893,23948 4768,24198 Z"/>
 <path fill="rgb(87,157,28)" stroke="none" d="M 6740,23852 L 6990,23852 6865,23602 6740,23852 Z"/>
 <path fill="none" stroke="rgb(87,157,28)" stroke-linejoin="round" d="M 6740,23852 L 6990,23852 6865,23602 6740,23852 Z"/>
 <path fill="rgb(87,157,28)" stroke="none" d="M 8712,22904 L 8962,22904 8837,22654 8712,22904 Z"/>
 <path fill="none" stroke="rgb(87,157,28)" stroke-linejoin="round" d="M 8712,22904 L 8962,22904 8837,22654 8712,22904 Z"/>
 <path fill="rgb(87,157,28)" stroke="none" d="M 10684,21441 L 10934,21441 10809,21191 10684,21441 Z"/>
 <path fill="none" stroke="rgb(87,157,28)" stroke-linejoin="round" d="M 10684,21441 L 10934,21441 10809,21191 10684,21441 Z"/>
 <path fill="rgb(87,157,28)" stroke="none" d="M 12656,19259 L 12906,19259 12781,19009 12656,19259 Z"/>
 <path fill="none" stroke="rgb(87,157,28)" stroke-linejoin="round" d="M 12656,19259 L 12906,19259 12781,19009 12656,19259 Z"/>
 <path fill="rgb(87,157,28)" stroke="none" d="M 14627,17126 L 14877,17126 14752,16876 14627,17126 Z"/>
 <path fill="none" stroke="rgb(87,157,28)" stroke-linejoin="round" d="M 14627,17126 L 14877,17126 14752,16876 14627,17126 Z"/>
 <path fill="rgb(87,157,28)" stroke="none" d="M 16599,13543 L 16849,13543 16724,13294 16599,13543 Z"/>
 <path fill="none" stroke="rgb(87,157,28)" stroke-linejoin="round" d="M 16599,13543 L 16849,13543 16724,13294 16599,13543 Z"/>
 <path fill="rgb(87,157,28)" stroke="none" d="M 18571,13633 L 18821,13633 18696,13384 18571,13633 Z"/>
 <path fill="none" stroke="rgb(87,157,28)" stroke-linejoin="round" d="M 18571,13633 L 18821,13633 18696,13384 18571,13633 Z"/>
 <path fill="none" stroke="rgb(126,0,33)" stroke-width="80" stroke-linejoin="round" d="M 2922,24514 L 4893,24277 6865,24141 8837,23931 10809,23531 12781,23531 14752,23531 16724,23531 18696,23531 20668,23531 22640,23531"/>
 <path fill="rgb(126,0,33)" stroke="none" d="M 2797,24389 L 2797,24639 3047,24514 2797,24389 Z"/>
 <path fill="none" stroke="rgb(126,0,33)" stroke-linejoin="round" d="M 2797,24389 L 2797,24639 3047,24514 2797,24389 Z"/>
 <path fill="rgb(126,0,33)" stroke="none" d="M 4768,24152 L 4768,24402 5018,24277 4768,24152 Z"/>
 <path fill="none" stroke="rgb(126,0,33)" stroke-linejoin="round" d="M 4768,24152 L 4768,24402 5018,24277 4768,24152 Z"/>
 <path fill="rgb(126,0,33)" stroke="none" d="M 6740,24016 L 6740,24266 6990,24141 6740,24016 Z"/>
 <path fill="none" stroke="rgb(126,0,33)" stroke-linejoin="round" d="M 6740,24016 L 6740,24266 6990,24141 6740,24016 Z"/>
 <path fill="rgb(126,0,33)" stroke="none" d="M 8712,23806 L 8712,24056 8962,23931 8712,23806 Z"/>
 <path fill="none" stroke="rgb(126,0,33)" stroke-linejoin="round" d="M 8712,23806 L 8712,24056 8962,23931 8712,23806 Z"/>
 <path fill="rgb(126,0,33)" stroke="none" d="M 10684,23406 L 10684,23656 10934,23531 10684,23406 Z"/>
 <path fill="none" stroke="rgb(126,0,33)" stroke-linejoin="round" d="M 10684,23406 L 10684,23656 10934,23531 10684,23406 Z"/>
 <path fill="rgb(126,0,33)" stroke="none" d="M 12656,23406 L 12656,23656 12906,23531 12656,23406 Z"/>
 <path fill="none" stroke="rgb(126,0,33)" stroke-linejoin="round" d="M 12656,23406 L 12656,23656 12906,23531 12656,23406 Z"/>
 <path fill="rgb(126,0,33)" stroke="none" d="M 14627,23406 L 14627,23656 14877,23531 14627,23406 Z"/>
 <path fill="none" stroke="rgb(126,0,33)" stroke-linejoin="round" d="M 14627,23406 L 14627,23656 14877,23531 14627,23406 Z"/>
 <path fill="rgb(126,0,33)" stroke="none" d="M 16599,23406 L 16599,23656 16849,23531 16599,23406 Z"/>
 <path fill="none" stroke="rgb(126,0,33)" stroke-linejoin="round" d="M 16599,23406 L 16599,23656 16849,23531 16599,23406 Z"/>
 <path fill="rgb(126,0,33)" stroke="none" d="M 18571,23406 L 18571,23656 18821,23531 18571,23406 Z"/>
 <path fill="none" stroke="rgb(126,0,33)" stroke-linejoin="round" d="M 18571,23406 L 18571,23656 18821,23531 18571,23406 Z"/>
 <path fill="rgb(126,0,33)" stroke="none" d="M 20543,23406 L 20543,23656 20793,23531 20543,23406 Z"/>
 <path fill="none" stroke="rgb(126,0,33)" stroke-linejoin="round" d="M 20543,23406 L 20543,23656 20793,23531 20543,23406 Z"/>
 <path fill="rgb(126,0,33)" stroke="none" d="M 22515,23406 L 22515,23656 22765,23531 22515,23406 Z"/>
 <path fill="none" stroke="rgb(126,0,33)" stroke-linejoin="round" d="M 22515,23406 L 22515,23656 22765,23531 22515,23406 Z"/>
 <path fill="none" stroke="rgb(131,202,255)" stroke-width="80" stroke-linejoin="round" d="M 2922,24512 L 4893,24277 6865,24141 8837,23931 10809,23531 12781,23531 14752,23531 16724,23531 18696,23531 20668,23531 22640,23531"/>
 <path fill="rgb(131,202,255)" stroke="none" d="M 2797,24512 L 3047,24637 3047,24387 2797,24512 Z"/>
 <path fill="none" stroke="rgb(131,202,255)" stroke-linejoin="round" d="M 2797,24512 L 3047,24637 3047,24387 2797,24512 Z"/>
 <path fill="rgb(131,202,255)" stroke="none" d="M 4768,24277 L 5018,24402 5018,24152 4768,24277 Z"/>
 <path fill="none" stroke="rgb(131,202,255)" stroke-linejoin="round" d="M 4768,24277 L 5018,24402 5018,24152 4768,24277 Z"/>
 <path fill="rgb(131,202,255)" stroke="none" d="M 6740,24141 L 6990,24266 6990,24016 6740,24141 Z"/>
 <path fill="none" stroke="rgb(131,202,255)" stroke-linejoin="round" d="M 6740,24141 L 6990,24266 6990,24016 6740,24141 Z"/>
 <path fill="rgb(131,202,255)" stroke="none" d="M 8712,23931 L 8962,24056 8962,23806 8712,23931 Z"/>
 <path fill="none" stroke="rgb(131,202,255)" stroke-linejoin="round" d="M 8712,23931 L 8962,24056 8962,23806 8712,23931 Z"/>
 <path fill="rgb(131,202,255)" stroke="none" d="M 10684,23531 L 10934,23656 10934,23406 10684,23531 Z"/>
 <path fill="none" stroke="rgb(131,202,255)" stroke-linejoin="round" d="M 10684,23531 L 10934,23656 10934,23406 10684,23531 Z"/>
 <path fill="rgb(131,202,255)" stroke="none" d="M 12656,23531 L 12906,23656 12906,23406 12656,23531 Z"/>
 <path fill="none" stroke="rgb(131,202,255)" stroke-linejoin="round" d="M 12656,23531 L 12906,23656 12906,23406 12656,23531 Z"/>
 <path fill="rgb(131,202,255)" stroke="none" d="M 14627,23531 L 14877,23656 14877,23406 14627,23531 Z"/>
 <path fill="none" stroke="rgb(131,202,255)" stroke-linejoin="round" d="M 14627,23531 L 14877,23656 14877,23406 14627,23531 Z"/>
 <path fill="rgb(131,202,255)" stroke="none" d="M 16599,23531 L 16849,23656 16849,23406 16599,23531 Z"/>
 <path fill="none" stroke="rgb(131,202,255)" stroke-linejoin="round" d="M 16599,23531 L 16849,23656 16849,23406 16599,23531 Z"/>
 <path fill="rgb(131,202,255)" stroke="none" d="M 18571,23531 L 18821,23656 18821,23406 18571,23531 Z"/>
 <path fill="none" stroke="rgb(131,202,255)" stroke-linejoin="round" d="M 18571,23531 L 18821,23656 18821,23406 18571,23531 Z"/>
 <path fill="rgb(131,202,255)" stroke="none" d="M 20543,23531 L 20793,23656 20793,23406 20543,23531 Z"/>
 <path fill="none" stroke="rgb(131,202,255)" stroke-linejoin="round" d="M 20543,23531 L 20793,23656 20793,23406 20543,23531 Z"/>
 <path fill="rgb(131,202,255)" stroke="none" d="M 22515,23531 L 22765,23656 22765,23406 22515,23531 Z"/>
 <path fill="none" stroke="rgb(131,202,255)" stroke-linejoin="round" d="M 22515,23531 L 22765,23656 22765,23406 22515,23531 Z"/>
 <path fill="none" stroke="rgb(49,64,4)" stroke-width="80" stroke-linejoin="round" d="M 2922,24150 L 4893,23931 6865,23931 8837,23531 10809,23531 12781,23531 14752,23531 16724,23531"/>
 <path fill="rgb(49,64,4)" stroke="none" d="M 2797,24025 L 2797,24275 3047,24025 3047,24275 2797,24025 Z"/>
 <path fill="none" stroke="rgb(49,64,4)" stroke-linejoin="round" d="M 2797,24025 L 2797,24275 3047,24025 3047,24275 2797,24025 Z"/>
 <path fill="rgb(49,64,4)" stroke="none" d="M 4768,23806 L 4768,24056 5018,23806 5018,24056 4768,23806 Z"/>
 <path fill="none" stroke="rgb(49,64,4)" stroke-linejoin="round" d="M 4768,23806 L 4768,24056 5018,23806 5018,24056 4768,23806 Z"/>
 <path fill="rgb(49,64,4)" stroke="none" d="M 6740,23806 L 6740,24056 6990,23806 6990,24056 6740,23806 Z"/>
 <path fill="none" stroke="rgb(49,64,4)" stroke-linejoin="round" d="M 6740,23806 L 6740,24056 6990,23806 6990,24056 6740,23806 Z"/>
 <path fill="rgb(49,64,4)" stroke="none" d="M 8712,23406 L 8712,23656 8962,23406 8962,23656 8712,23406 Z"/>
 <path fill="none" stroke="rgb(49,64,4)" stroke-linejoin="round" d="M 8712,23406 L 8712,23656 8962,23406 8962,23656 8712,23406 Z"/>
 <path fill="rgb(49,64,4)" stroke="none" d="M 10684,23406 L 10684,23656 10934,23406 10934,23656 10684,23406 Z"/>
 <path fill="none" stroke="rgb(49,64,4)" stroke-linejoin="round" d="M 10684,23406 L 10684,23656 10934,23406 10934,23656 10684,23406 Z"/>
 <path fill="rgb(49,64,4)" stroke="none" d="M 12656,23406 L 12656,23656 12906,23406 12906,23656 12656,23406 Z"/>
 <path fill="none" stroke="rgb(49,64,4)" stroke-linejoin="round" d="M 12656,23406 L 12656,23656 12906,23406 12906,23656 12656,23406 Z"/>
 <path fill="rgb(49,64,4)" stroke="none" d="M 14627,23406 L 14627,23656 14877,23406 14877,23656 14627,23406 Z"/>
 <path fill="none" stroke="rgb(49,64,4)" stroke-linejoin="round" d="M 14627,23406 L 14627,23656 14877,23406 14877,23656 14627,23406 Z"/>
 <path fill="rgb(49,64,4)" stroke="none" d="M 16599,23406 L 16599,23656 16849,23406 16849,23656 16599,23406 Z"/>
 <path fill="none" stroke="rgb(49,64,4)" stroke-linejoin="round" d="M 16599,23406 L 16599,23656 16849,23406 16849,23656 16599,23406 Z"/>
 <path fill="none" stroke="rgb(174,207,0)" stroke-width="80" stroke-linejoin="round" d="M 2922,23531 L 4893,23531 6865,23531 8837,23531 10809,23531 12781,23531 14752,23531 16724,23531 18696,23531 20668,23531 22640,23531"/>
 <path fill="rgb(174,207,0)" stroke="none" d="M 2797,23656 L 3047,23656 2797,23406 3047,23406 2797,23656 Z"/>
 <path fill="none" stroke="rgb(174,207,0)" stroke-linejoin="round" d="M 2797,23656 L 3047,23656 2797,23406 3047,23406 2797,23656 Z"/>
 <path fill="rgb(174,207,0)" stroke="none" d="M 4768,23656 L 5018,23656 4768,23406 5018,23406 4768,23656 Z"/>
 <path fill="none" stroke="rgb(174,207,0)" stroke-linejoin="round" d="M 4768,23656 L 5018,23656 4768,23406 5018,23406 4768,23656 Z"/>
 <path fill="rgb(174,207,0)" stroke="none" d="M 6740,23656 L 6990,23656 6740,23406 6990,23406 6740,23656 Z"/>
 <path fill="none" stroke="rgb(174,207,0)" stroke-linejoin="round" d="M 6740,23656 L 6990,23656 6740,23406 6990,23406 6740,23656 Z"/>
 <path fill="rgb(174,207,0)" stroke="none" d="M 8712,23656 L 8962,23656 8712,23406 8962,23406 8712,23656 Z"/>
 <path fill="none" stroke="rgb(174,207,0)" stroke-linejoin="round" d="M 8712,23656 L 8962,23656 8712,23406 8962,23406 8712,23656 Z"/>
 <path fill="rgb(174,207,0)" stroke="none" d="M 10684,23656 L 10934,23656 10684,23406 10934,23406 10684,23656 Z"/>
 <path fill="none" stroke="rgb(174,207,0)" stroke-linejoin="round" d="M 10684,23656 L 10934,23656 10684,23406 10934,23406 10684,23656 Z"/>
 <path fill="rgb(174,207,0)" stroke="none" d="M 12656,23656 L 12906,23656 12656,23406 12906,23406 12656,23656 Z"/>
 <path fill="none" stroke="rgb(174,207,0)" stroke-linejoin="round" d="M 12656,23656 L 12906,23656 12656,23406 12906,23406 12656,23656 Z"/>
 <path fill="rgb(174,207,0)" stroke="none" d="M 14627,23656 L 14877,23656 14627,23406 14877,23406 14627,23656 Z"/>
 <path fill="none" stroke="rgb(174,207,0)" stroke-linejoin="round" d="M 14627,23656 L 14877,23656 14627,23406 14877,23406 14627,23656 Z"/>
 <path fill="rgb(174,207,0)" stroke="none" d="M 16599,23656 L 16849,23656 16599,23406 16849,23406 16599,23656 Z"/>
 <path fill="none" stroke="rgb(174,207,0)" stroke-linejoin="round" d="M 16599,23656 L 16849,23656 16599,23406 16849,23406 16599,23656 Z"/>
 <path fill="rgb(174,207,0)" stroke="none" d="M 18571,23656 L 18821,23656 18571,23406 18821,23406 18571,23656 Z"/>
 <path fill="none" stroke="rgb(174,207,0)" stroke-linejoin="round" d="M 18571,23656 L 18821,23656 18571,23406 18821,23406 18571,23656 Z"/>
 <path fill="rgb(174,207,0)" stroke="none" d="M 20543,23656 L 20793,23656 20543,23406 20793,23406 20543,23656 Z"/>
 <path fill="none" stroke="rgb(174,207,0)" stroke-linejoin="round" d="M 20543,23656 L 20793,23656 20543,23406 20793,23406 20543,23656 Z"/>
 <path fill="rgb(174,207,0)" stroke="none" d="M 22515,23656 L 22765,23656 22515,23406 22765,23406 22515,23656 Z"/>
 <path fill="none" stroke="rgb(174,207,0)" stroke-linejoin="round" d="M 22515,23656 L 22765,23656 22515,23406 22765,23406 22515,23656 Z"/>
 <path fill="none" stroke="rgb(75,31,111)" stroke-width="80" stroke-linejoin="round" d="M 2922,24449 L 4893,24122 6865,23828 8837,23037 10809,22109 12781,20647 14752,20016 16724,18428 18696,18455 20668,18413 22640,18426"/>
 <path fill="rgb(75,31,111)" stroke="none" d="M 3047,24449 L 3046,24443 3046,24438 3045,24432 3045,24427 3044,24422 3042,24416 3041,24411 3039,24406 3037,24401 3035,24396 3032,24391 3030,24386 3027,24382 3024,24377 3021,24373 3017,24368 3014,24364 3010,24360 3006,24357 3002,24353 2998,24350 2993,24346 2989,24343 2984,24341 2979,24338 2974,24335 2969,24333 2964,24331 2959,24330 2954,24328 2949,24327 2943,24326 2938,24325 2932,24324 2927,24324 2922,24324 2916,24324 2911,24324 2905,24325 2900,24326 2894,24327 2889,24328 2884,24330 2879,24331 2874,24333 2869,24335 2864,24338 2859,24341 2854,24343 2850,24346 2845,24350 2841,24353 2837,24357 2833,24360 2829,24364 2826,24368 2822,24373 2819,24377 2816,24382 2813,24386 2811,24391 2808,24396 2806,24401 2804,24406 2802,24411 2801,24416 2799,24422 2798,24427 2798,24432 2797,24438 2797,24443 2797,24449 2797,24454 2797,24460 2798,24465 2798,24470 2799,24476 2801,24481 2802,24486 2804,24492 2806,24497 2808,24502 2811,24506 2813,24511 2816,24516 2819,24520 2822,24525 2826,24529 2829,24533 2833,24537 2837,24541 2841,24545 2845,24548 2850,24551 2854,24554 2859,24557 2864,24560 2869,24562 2874,24564 2879,24566 2884,24568 2889,24570 2894,24571 2900,24572 2905,24573 2911,24573 2916,24574 2922,24574 2927,24574 2932,24573 2938,24573 2943,24572 2949,24571 2954,24570 2959,24568 2964,24566 2969,24564 2974,24562 2979,24560 2984,24557 2989,24554 2993,24551 2998,24548 3002,24545 3006,24541 3010,24537 3014,24533 3017,24529 3021,24525 3024,24520 3027,24516 3030,24511 3032,24506 3035,24502 3037,24497 3039,24492 3041,24486 3042,24481 3044,24476 3045,24470 3045,24465 3046,24460 3046,24454 3047,24449 Z"/>
 <path fill="none" stroke="rgb(75,31,111)" stroke-linejoin="round" d="M 3047,24449 L 3046,24443 3046,24438 3045,24432 3045,24427 3044,24422 3042,24416 3041,24411 3039,24406 3037,24401 3035,24396 3032,24391 3030,24386 3027,24382 3024,24377 3021,24373 3017,24368 3014,24364 3010,24360 3006,24357 3002,24353 2998,24350 2993,24346 2989,24343 2984,24341 2979,24338 2974,24335 2969,24333 2964,24331 2959,24330 2954,24328 2949,24327 2943,24326 2938,24325 2932,24324 2927,24324 2922,24324 2916,24324 2911,24324 2905,24325 2900,24326 2894,24327 2889,24328 2884,24330 2879,24331 2874,24333 2869,24335 2864,24338 2859,24341 2854,24343 2850,24346 2845,24350 2841,24353 2837,24357 2833,24360 2829,24364 2826,24368 2822,24373 2819,24377 2816,24382 2813,24386 2811,24391 2808,24396 2806,24401 2804,24406 2802,24411 2801,24416 2799,24422 2798,24427 2798,24432 2797,24438 2797,24443 2797,24449 2797,24454 2797,24460 2798,24465 2798,24470 2799,24476 2801,24481 2802,24486 2804,24492 2806,24497 2808,24502 2811,24506 2813,24511 2816,24516 2819,24520 2822,24525 2826,24529 2829,24533 2833,24537 2837,24541 2841,24545 2845,24548 2850,24551 2854,24554 2859,24557 2864,24560 2869,24562 2874,24564 2879,24566 2884,24568 2889,24570 2894,24571 2900,24572 2905,24573 2911,24573 2916,24574 2922,24574 2927,24574 2932,24573 2938,24573 2943,24572 2949,24571 2954,24570 2959,24568 2964,24566 2969,24564 2974,24562 2979,24560 2984,24557 2989,24554 2993,24551 2998,24548 3002,24545 3006,24541 3010,24537 3014,24533 3017,24529 3021,24525 3024,24520 3027,24516 3030,24511 3032,24506 3035,24502 3037,24497 3039,24492 3041,24486 3042,24481 3044,24476 3045,24470 3045,24465 3046,24460 3046,24454 3047,24449 Z"/>
 <path fill="rgb(75,31,111)" stroke="none" d="M 5018,24122 L 5018,24116 5018,24111 5017,24106 5017,24100 5015,24095 5014,24090 5013,24084 5011,24079 5009,24074 5007,24069 5004,24064 5002,24059 4999,24055 4996,24050 4993,24046 4989,24042 4986,24037 4982,24034 4978,24030 4974,24026 4969,24023 4965,24020 4961,24016 4956,24014 4951,24011 4946,24009 4941,24006 4936,24004 4931,24003 4926,24001 4920,24000 4915,23999 4910,23998 4904,23997 4899,23997 4893,23997 4888,23997 4883,23997 4877,23998 4872,23999 4866,24000 4861,24001 4856,24003 4851,24004 4846,24006 4841,24009 4836,24011 4831,24014 4826,24016 4822,24020 4817,24023 4813,24026 4809,24030 4805,24034 4801,24037 4798,24042 4794,24046 4791,24050 4788,24055 4785,24059 4783,24064 4780,24069 4778,24074 4776,24079 4774,24084 4773,24090 4771,24095 4770,24100 4769,24106 4769,24111 4769,24116 4768,24122 4769,24127 4769,24133 4769,24138 4770,24144 4771,24149 4773,24154 4774,24160 4776,24165 4778,24170 4780,24175 4783,24180 4785,24184 4788,24189 4791,24194 4794,24198 4798,24202 4801,24206 4805,24210 4809,24214 4813,24218 4817,24221 4822,24224 4826,24227 4831,24230 4836,24233 4841,24235 4846,24237 4851,24239 4856,24241 4861,24243 4866,24244 4872,24245 4877,24246 4883,24246 4888,24247 4893,24247 4899,24247 4904,24246 4910,24246 4915,24245 4920,24244 4926,24243 4931,24241 4936,24239 4941,24237 4946,24235 4951,24233 4956,24230 4961,24227 4965,24224 4969,24221 4974,24218 4978,24214 4982,24210 4986,24206 4989,24202 4993,24198 4996,24194 4999,24189 5002,24184 5004,24180 5007,24175 5009,24170 5011,24165 5013,24160 5014,24154 5015,24149 5017,24144 5017,24138 5018,24133 5018,24127 5018,24122 Z"/>
 <path fill="none" stroke="rgb(75,31,111)" stroke-linejoin="round" d="M 5018,24122 L 5018,24116 5018,24111 5017,24106 5017,24100 5015,24095 5014,24090 5013,24084 5011,24079 5009,24074 5007,24069 5004,24064 5002,24059 4999,24055 4996,24050 4993,24046 4989,24042 4986,24037 4982,24034 4978,24030 4974,24026 4969,24023 4965,24020 4961,24016 4956,24014 4951,24011 4946,24009 4941,24006 4936,24004 4931,24003 4926,24001 4920,24000 4915,23999 4910,23998 4904,23997 4899,23997 4893,23997 4888,23997 4883,23997 4877,23998 4872,23999 4866,24000 4861,24001 4856,24003 4851,24004 4846,24006 4841,24009 4836,24011 4831,24014 4826,24016 4822,24020 4817,24023 4813,24026 4809,24030 4805,24034 4801,24037 4798,24042 4794,24046 4791,24050 4788,24055 4785,24059 4783,24064 4780,24069 4778,24074 4776,24079 4774,24084 4773,24090 4771,24095 4770,24100 4769,24106 4769,24111 4769,24116 4768,24122 4769,24127 4769,24133 4769,24138 4770,24144 4771,24149 4773,24154 4774,24160 4776,24165 4778,24170 4780,24175 4783,24180 4785,24184 4788,24189 4791,24194 4794,24198 4798,24202 4801,24206 4805,24210 4809,24214 4813,24218 4817,24221 4822,24224 4826,24227 4831,24230 4836,24233 4841,24235 4846,24237 4851,24239 4856,24241 4861,24243 4866,24244 4872,24245 4877,24246 4883,24246 4888,24247 4893,24247 4899,24247 4904,24246 4910,24246 4915,24245 4920,24244 4926,24243 4931,24241 4936,24239 4941,24237 4946,24235 4951,24233 4956,24230 4961,24227 4965,24224 4969,24221 4974,24218 4978,24214 4982,24210 4986,24206 4989,24202 4993,24198 4996,24194 4999,24189 5002,24184 5004,24180 5007,24175 5009,24170 5011,24165 5013,24160 5014,24154 5015,24149 5017,24144 5017,24138 5018,24133 5018,24127 5018,24122 Z"/>
 <path fill="rgb(75,31,111)" stroke="none" d="M 6990,23828 L 6990,23822 6990,23817 6989,23811 6988,23806 6987,23801 6986,23795 6985,23790 6983,23785 6981,23780 6979,23775 6976,23770 6974,23765 6971,23761 6968,23756 6964,23752 6961,23747 6957,23743 6954,23739 6950,23736 6946,23732 6941,23729 6937,23725 6932,23722 6928,23719 6923,23717 6918,23714 6913,23712 6908,23710 6903,23709 6898,23707 6892,23706 6887,23705 6882,23704 6876,23703 6871,23703 6865,23703 6860,23703 6854,23703 6849,23704 6844,23705 6838,23706 6833,23707 6828,23709 6823,23710 6817,23712 6812,23714 6808,23717 6803,23719 6798,23722 6794,23725 6789,23729 6785,23732 6781,23736 6777,23739 6773,23743 6770,23747 6766,23752 6763,23756 6760,23761 6757,23765 6754,23770 6752,23775 6750,23780 6748,23785 6746,23790 6745,23795 6743,23801 6742,23806 6741,23811 6741,23817 6740,23822 6740,23828 6740,23833 6741,23839 6741,23844 6742,23849 6743,23855 6745,23860 6746,23865 6748,23870 6750,23876 6752,23881 6754,23885 6757,23890 6760,23895 6763,23899 6766,23904 6770,23908 6773,23912 6777,23916 6781,23920 6785,23923 6789,23927 6794,23930 6798,23933 6803,23936 6808,23939 6812,23941 6817,23943 6823,23945 6828,23947 6833,23948 6838,23950 6844,23951 6849,23952 6854,23952 6860,23953 6865,23953 6871,23953 6876,23952 6882,23952 6887,23951 6892,23950 6898,23948 6903,23947 6908,23945 6913,23943 6918,23941 6923,23939 6928,23936 6932,23933 6937,23930 6941,23927 6946,23923 6950,23920 6954,23916 6957,23912 6961,23908 6964,23904 6968,23899 6971,23895 6974,23890 6976,23885 6979,23881 6981,23876 6983,23870 6985,23865 6986,23860 6987,23855 6988,23849 6989,23844 6990,23839 6990,23833 6990,23828 Z"/>
 <path fill="none" stroke="rgb(75,31,111)" stroke-linejoin="round" d="M 6990,23828 L 6990,23822 6990,23817 6989,23811 6988,23806 6987,23801 6986,23795 6985,23790 6983,23785 6981,23780 6979,23775 6976,23770 6974,23765 6971,23761 6968,23756 6964,23752 6961,23747 6957,23743 6954,23739 6950,23736 6946,23732 6941,23729 6937,23725 6932,23722 6928,23719 6923,23717 6918,23714 6913,23712 6908,23710 6903,23709 6898,23707 6892,23706 6887,23705 6882,23704 6876,23703 6871,23703 6865,23703 6860,23703 6854,23703 6849,23704 6844,23705 6838,23706 6833,23707 6828,23709 6823,23710 6817,23712 6812,23714 6808,23717 6803,23719 6798,23722 6794,23725 6789,23729 6785,23732 6781,23736 6777,23739 6773,23743 6770,23747 6766,23752 6763,23756 6760,23761 6757,23765 6754,23770 6752,23775 6750,23780 6748,23785 6746,23790 6745,23795 6743,23801 6742,23806 6741,23811 6741,23817 6740,23822 6740,23828 6740,23833 6741,23839 6741,23844 6742,23849 6743,23855 6745,23860 6746,23865 6748,23870 6750,23876 6752,23881 6754,23885 6757,23890 6760,23895 6763,23899 6766,23904 6770,23908 6773,23912 6777,23916 6781,23920 6785,23923 6789,23927 6794,23930 6798,23933 6803,23936 6808,23939 6812,23941 6817,23943 6823,23945 6828,23947 6833,23948 6838,23950 6844,23951 6849,23952 6854,23952 6860,23953 6865,23953 6871,23953 6876,23952 6882,23952 6887,23951 6892,23950 6898,23948 6903,23947 6908,23945 6913,23943 6918,23941 6923,23939 6928,23936 6932,23933 6937,23930 6941,23927 6946,23923 6950,23920 6954,23916 6957,23912 6961,23908 6964,23904 6968,23899 6971,23895 6974,23890 6976,23885 6979,23881 6981,23876 6983,23870 6985,23865 6986,23860 6987,23855 6988,23849 6989,23844 6990,23839 6990,23833 6990,23828 Z"/>
 <path fill="rgb(75,31,111)" stroke="none" d="M 8962,23037 L 8962,23032 8962,23026 8961,23021 8960,23016 8959,23010 8958,23005 8956,23000 8955,22995 8953,22989 8950,22984 8948,22980 8945,22975 8943,22970 8940,22966 8936,22961 8933,22957 8929,22953 8926,22949 8922,22945 8918,22942 8913,22938 8909,22935 8904,22932 8900,22929 8895,22926 8890,22924 8885,22922 8880,22920 8875,22918 8870,22917 8864,22915 8859,22914 8854,22913 8848,22913 8843,22912 8837,22912 8832,22912 8826,22913 8821,22913 8815,22914 8810,22915 8805,22917 8800,22918 8794,22920 8789,22922 8784,22924 8779,22926 8775,22929 8770,22932 8766,22935 8761,22938 8757,22942 8753,22945 8749,22949 8745,22953 8741,22957 8738,22961 8735,22966 8732,22970 8729,22975 8726,22980 8724,22984 8722,22989 8720,22995 8718,23000 8716,23005 8715,23010 8714,23016 8713,23021 8713,23026 8712,23032 8712,23037 8712,23043 8713,23048 8713,23054 8714,23059 8715,23064 8716,23070 8718,23075 8720,23080 8722,23085 8724,23090 8726,23095 8729,23100 8732,23104 8735,23109 8738,23113 8741,23118 8745,23122 8749,23126 8753,23129 8757,23133 8761,23136 8766,23140 8770,23143 8775,23146 8779,23148 8784,23151 8789,23153 8794,23155 8800,23157 8805,23158 8810,23159 8815,23160 8821,23161 8826,23162 8832,23162 8837,23162 8843,23162 8848,23162 8854,23161 8859,23160 8864,23159 8870,23158 8875,23157 8880,23155 8885,23153 8890,23151 8895,23148 8900,23146 8904,23143 8909,23140 8913,23136 8918,23133 8922,23129 8926,23126 8929,23122 8933,23118 8936,23113 8940,23109 8943,23104 8945,23100 8948,23095 8950,23090 8953,23085 8955,23080 8956,23075 8958,23070 8959,23064 8960,23059 8961,23054 8962,23048 8962,23043 8962,23037 Z"/>
 <path fill="none" stroke="rgb(75,31,111)" stroke-linejoin="round" d="M 8962,23037 L 8962,23032 8962,23026 8961,23021 8960,23016 8959,23010 8958,23005 8956,23000 8955,22995 8953,22989 8950,22984 8948,22980 8945,22975 8943,22970 8940,22966 8936,22961 8933,22957 8929,22953 8926,22949 8922,22945 8918,22942 8913,22938 8909,22935 8904,22932 8900,22929 8895,22926 8890,22924 8885,22922 8880,22920 8875,22918 8870,22917 8864,22915 8859,22914 8854,22913 8848,22913 8843,22912 8837,22912 8832,22912 8826,22913 8821,22913 8815,22914 8810,22915 8805,22917 8800,22918 8794,22920 8789,22922 8784,22924 8779,22926 8775,22929 8770,22932 8766,22935 8761,22938 8757,22942 8753,22945 8749,22949 8745,22953 8741,22957 8738,22961 8735,22966 8732,22970 8729,22975 8726,22980 8724,22984 8722,22989 8720,22995 8718,23000 8716,23005 8715,23010 8714,23016 8713,23021 8713,23026 8712,23032 8712,23037 8712,23043 8713,23048 8713,23054 8714,23059 8715,23064 8716,23070 8718,23075 8720,23080 8722,23085 8724,23090 8726,23095 8729,23100 8732,23104 8735,23109 8738,23113 8741,23118 8745,23122 8749,23126 8753,23129 8757,23133 8761,23136 8766,23140 8770,23143 8775,23146 8779,23148 8784,23151 8789,23153 8794,23155 8800,23157 8805,23158 8810,23159 8815,23160 8821,23161 8826,23162 8832,23162 8837,23162 8843,23162 8848,23162 8854,23161 8859,23160 8864,23159 8870,23158 8875,23157 8880,23155 8885,23153 8890,23151 8895,23148 8900,23146 8904,23143 8909,23140 8913,23136 8918,23133 8922,23129 8926,23126 8929,23122 8933,23118 8936,23113 8940,23109 8943,23104 8945,23100 8948,23095 8950,23090 8953,23085 8955,23080 8956,23075 8958,23070 8959,23064 8960,23059 8961,23054 8962,23048 8962,23043 8962,23037 Z"/>
 <path fill="rgb(75,31,111)" stroke="none" d="M 10934,22109 L 10934,22104 10934,22098 10933,22093 10932,22087 10931,22082 10930,22077 10928,22072 10927,22066 10925,22061 10922,22056 10920,22051 10917,22047 10915,22042 10911,22037 10908,22033 10905,22029 10901,22025 10897,22021 10894,22017 10889,22013 10885,22010 10881,22007 10876,22004 10872,22001 10867,21998 10862,21996 10857,21994 10852,21992 10847,21990 10841,21988 10836,21987 10831,21986 10825,21985 10820,21985 10815,21984 10809,21984 10804,21984 10798,21985 10793,21985 10787,21986 10782,21987 10777,21988 10772,21990 10766,21992 10761,21994 10756,21996 10751,21998 10747,22001 10742,22004 10737,22007 10733,22010 10729,22013 10725,22017 10721,22021 10717,22025 10713,22029 10710,22033 10707,22037 10704,22042 10701,22047 10698,22051 10696,22056 10694,22061 10692,22066 10690,22072 10688,22077 10687,22082 10686,22087 10685,22093 10685,22098 10684,22104 10684,22109 10684,22115 10685,22120 10685,22125 10686,22131 10687,22136 10688,22141 10690,22147 10692,22152 10694,22157 10696,22162 10698,22167 10701,22172 10704,22176 10707,22181 10710,22185 10713,22189 10717,22194 10721,22197 10725,22201 10729,22205 10733,22208 10737,22211 10742,22215 10747,22217 10751,22220 10756,22222 10761,22225 10766,22227 10772,22228 10777,22230 10782,22231 10787,22232 10793,22233 10798,22234 10804,22234 10809,22234 10815,22234 10820,22234 10825,22233 10831,22232 10836,22231 10841,22230 10847,22228 10852,22227 10857,22225 10862,22222 10867,22220 10872,22217 10876,22215 10881,22211 10885,22208 10889,22205 10894,22201 10897,22197 10901,22194 10905,22189 10908,22185 10911,22181 10915,22176 10917,22172 10920,22167 10922,22162 10925,22157 10927,22152 10928,22147 10930,22141 10931,22136 10932,22131 10933,22125 10934,22120 10934,22115 10934,22109 Z"/>
 <path fill="none" stroke="rgb(75,31,111)" stroke-linejoin="round" d="M 10934,22109 L 10934,22104 10934,22098 10933,22093 10932,22087 10931,22082 10930,22077 10928,22072 10927,22066 10925,22061 10922,22056 10920,22051 10917,22047 10915,22042 10911,22037 10908,22033 10905,22029 10901,22025 10897,22021 10894,22017 10889,22013 10885,22010 10881,22007 10876,22004 10872,22001 10867,21998 10862,21996 10857,21994 10852,21992 10847,21990 10841,21988 10836,21987 10831,21986 10825,21985 10820,21985 10815,21984 10809,21984 10804,21984 10798,21985 10793,21985 10787,21986 10782,21987 10777,21988 10772,21990 10766,21992 10761,21994 10756,21996 10751,21998 10747,22001 10742,22004 10737,22007 10733,22010 10729,22013 10725,22017 10721,22021 10717,22025 10713,22029 10710,22033 10707,22037 10704,22042 10701,22047 10698,22051 10696,22056 10694,22061 10692,22066 10690,22072 10688,22077 10687,22082 10686,22087 10685,22093 10685,22098 10684,22104 10684,22109 10684,22115 10685,22120 10685,22125 10686,22131 10687,22136 10688,22141 10690,22147 10692,22152 10694,22157 10696,22162 10698,22167 10701,22172 10704,22176 10707,22181 10710,22185 10713,22189 10717,22194 10721,22197 10725,22201 10729,22205 10733,22208 10737,22211 10742,22215 10747,22217 10751,22220 10756,22222 10761,22225 10766,22227 10772,22228 10777,22230 10782,22231 10787,22232 10793,22233 10798,22234 10804,22234 10809,22234 10815,22234 10820,22234 10825,22233 10831,22232 10836,22231 10841,22230 10847,22228 10852,22227 10857,22225 10862,22222 10867,22220 10872,22217 10876,22215 10881,22211 10885,22208 10889,22205 10894,22201 10897,22197 10901,22194 10905,22189 10908,22185 10911,22181 10915,22176 10917,22172 10920,22167 10922,22162 10925,22157 10927,22152 10928,22147 10930,22141 10931,22136 10932,22131 10933,22125 10934,22120 10934,22115 10934,22109 Z"/>
 <path fill="rgb(75,31,111)" stroke="none" d="M 12906,20647 L 12906,20642 12906,20636 12905,20631 12904,20626 12903,20620 12902,20615 12900,20610 12898,20605 12896,20600 12894,20595 12892,20590 12889,20585 12886,20580 12883,20576 12880,20571 12877,20567 12873,20563 12869,20559 12865,20555 12861,20552 12857,20548 12853,20545 12848,20542 12844,20539 12839,20537 12834,20534 12829,20532 12824,20530 12819,20528 12813,20527 12808,20525 12803,20524 12797,20523 12792,20523 12786,20522 12781,20522 12776,20522 12770,20523 12765,20523 12759,20524 12754,20525 12749,20527 12743,20528 12738,20530 12733,20532 12728,20534 12723,20537 12719,20539 12714,20542 12709,20545 12705,20548 12701,20552 12697,20555 12693,20559 12689,20563 12685,20567 12682,20571 12679,20576 12676,20580 12673,20585 12670,20590 12668,20595 12666,20600 12664,20605 12662,20610 12660,20615 12659,20620 12658,20626 12657,20631 12656,20636 12656,20642 12656,20647 12656,20653 12656,20658 12657,20664 12658,20669 12659,20674 12660,20680 12662,20685 12664,20690 12666,20695 12668,20700 12670,20705 12673,20710 12676,20715 12679,20719 12682,20723 12685,20728 12689,20732 12693,20736 12697,20740 12701,20743 12705,20747 12709,20750 12714,20753 12719,20756 12723,20758 12728,20761 12733,20763 12738,20765 12743,20767 12749,20768 12754,20769 12759,20770 12765,20771 12770,20772 12776,20772 12781,20772 12786,20772 12792,20772 12797,20771 12803,20770 12808,20769 12813,20768 12819,20767 12824,20765 12829,20763 12834,20761 12839,20758 12844,20756 12848,20753 12853,20750 12857,20747 12861,20743 12865,20740 12869,20736 12873,20732 12877,20728 12880,20723 12883,20719 12886,20715 12889,20710 12892,20705 12894,20700 12896,20695 12898,20690 12900,20685 12902,20680 12903,20674 12904,20669 12905,20664 12906,20658 12906,20653 12906,20647 Z"/>
 <path fill="none" stroke="rgb(75,31,111)" stroke-linejoin="round" d="M 12906,20647 L 12906,20642 12906,20636 12905,20631 12904,20626 12903,20620 12902,20615 12900,20610 12898,20605 12896,20600 12894,20595 12892,20590 12889,20585 12886,20580 12883,20576 12880,20571 12877,20567 12873,20563 12869,20559 12865,20555 12861,20552 12857,20548 12853,20545 12848,20542 12844,20539 12839,20537 12834,20534 12829,20532 12824,20530 12819,20528 12813,20527 12808,20525 12803,20524 12797,20523 12792,20523 12786,20522 12781,20522 12776,20522 12770,20523 12765,20523 12759,20524 12754,20525 12749,20527 12743,20528 12738,20530 12733,20532 12728,20534 12723,20537 12719,20539 12714,20542 12709,20545 12705,20548 12701,20552 12697,20555 12693,20559 12689,20563 12685,20567 12682,20571 12679,20576 12676,20580 12673,20585 12670,20590 12668,20595 12666,20600 12664,20605 12662,20610 12660,20615 12659,20620 12658,20626 12657,20631 12656,20636 12656,20642 12656,20647 12656,20653 12656,20658 12657,20664 12658,20669 12659,20674 12660,20680 12662,20685 12664,20690 12666,20695 12668,20700 12670,20705 12673,20710 12676,20715 12679,20719 12682,20723 12685,20728 12689,20732 12693,20736 12697,20740 12701,20743 12705,20747 12709,20750 12714,20753 12719,20756 12723,20758 12728,20761 12733,20763 12738,20765 12743,20767 12749,20768 12754,20769 12759,20770 12765,20771 12770,20772 12776,20772 12781,20772 12786,20772 12792,20772 12797,20771 12803,20770 12808,20769 12813,20768 12819,20767 12824,20765 12829,20763 12834,20761 12839,20758 12844,20756 12848,20753 12853,20750 12857,20747 12861,20743 12865,20740 12869,20736 12873,20732 12877,20728 12880,20723 12883,20719 12886,20715 12889,20710 12892,20705 12894,20700 12896,20695 12898,20690 12900,20685 12902,20680 12903,20674 12904,20669 12905,20664 12906,20658 12906,20653 12906,20647 Z"/>
 <path fill="rgb(75,31,111)" stroke="none" d="M 14877,20016 L 14877,20011 14876,20005 14876,20000 14875,19994 14874,19989 14873,19984 14871,19979 14869,19973 14867,19968 14865,19963 14863,19958 14860,19954 14857,19949 14854,19944 14851,19940 14848,19936 14844,19932 14840,19928 14836,19924 14832,19920 14828,19917 14824,19914 14819,19911 14814,19908 14810,19905 14805,19903 14800,19901 14795,19899 14789,19897 14784,19895 14779,19894 14774,19893 14768,19892 14763,19892 14757,19891 14752,19891 14746,19891 14741,19892 14736,19892 14730,19893 14725,19894 14720,19895 14714,19897 14709,19899 14704,19901 14699,19903 14694,19905 14689,19908 14685,19911 14680,19914 14676,19917 14672,19920 14667,19924 14664,19928 14660,19932 14656,19936 14653,19940 14650,19944 14646,19949 14644,19954 14641,19958 14639,19963 14636,19968 14634,19973 14633,19979 14631,19984 14630,19989 14629,19994 14628,20000 14627,20005 14627,20011 14627,20016 14627,20022 14627,20027 14628,20032 14629,20038 14630,20043 14631,20048 14633,20054 14634,20059 14636,20064 14639,20069 14641,20074 14644,20079 14646,20083 14650,20088 14653,20092 14656,20096 14660,20101 14664,20104 14667,20108 14672,20112 14676,20115 14680,20118 14685,20122 14689,20124 14694,20127 14699,20129 14704,20132 14709,20134 14714,20135 14720,20137 14725,20138 14730,20139 14736,20140 14741,20141 14746,20141 14752,20141 14757,20141 14763,20141 14768,20140 14774,20139 14779,20138 14784,20137 14789,20135 14795,20134 14800,20132 14805,20129 14810,20127 14814,20124 14819,20122 14824,20118 14828,20115 14832,20112 14836,20108 14840,20104 14844,20101 14848,20096 14851,20092 14854,20088 14857,20083 14860,20079 14863,20074 14865,20069 14867,20064 14869,20059 14871,20054 14873,20048 14874,20043 14875,20038 14876,20032 14876,20027 14877,20022 14877,20016 Z"/>
 <path fill="none" stroke="rgb(75,31,111)" stroke-linejoin="round" d="M 14877,20016 L 14877,20011 14876,20005 14876,20000 14875,19994 14874,19989 14873,19984 14871,19979 14869,19973 14867,19968 14865,19963 14863,19958 14860,19954 14857,19949 14854,19944 14851,19940 14848,19936 14844,19932 14840,19928 14836,19924 14832,19920 14828,19917 14824,19914 14819,19911 14814,19908 14810,19905 14805,19903 14800,19901 14795,19899 14789,19897 14784,19895 14779,19894 14774,19893 14768,19892 14763,19892 14757,19891 14752,19891 14746,19891 14741,19892 14736,19892 14730,19893 14725,19894 14720,19895 14714,19897 14709,19899 14704,19901 14699,19903 14694,19905 14689,19908 14685,19911 14680,19914 14676,19917 14672,19920 14667,19924 14664,19928 14660,19932 14656,19936 14653,19940 14650,19944 14646,19949 14644,19954 14641,19958 14639,19963 14636,19968 14634,19973 14633,19979 14631,19984 14630,19989 14629,19994 14628,20000 14627,20005 14627,20011 14627,20016 14627,20022 14627,20027 14628,20032 14629,20038 14630,20043 14631,20048 14633,20054 14634,20059 14636,20064 14639,20069 14641,20074 14644,20079 14646,20083 14650,20088 14653,20092 14656,20096 14660,20101 14664,20104 14667,20108 14672,20112 14676,20115 14680,20118 14685,20122 14689,20124 14694,20127 14699,20129 14704,20132 14709,20134 14714,20135 14720,20137 14725,20138 14730,20139 14736,20140 14741,20141 14746,20141 14752,20141 14757,20141 14763,20141 14768,20140 14774,20139 14779,20138 14784,20137 14789,20135 14795,20134 14800,20132 14805,20129 14810,20127 14814,20124 14819,20122 14824,20118 14828,20115 14832,20112 14836,20108 14840,20104 14844,20101 14848,20096 14851,20092 14854,20088 14857,20083 14860,20079 14863,20074 14865,20069 14867,20064 14869,20059 14871,20054 14873,20048 14874,20043 14875,20038 14876,20032 14876,20027 14877,20022 14877,20016 Z"/>
 <path fill="rgb(75,31,111)" stroke="none" d="M 16849,18428 L 16849,18423 16848,18417 16848,18412 16847,18407 16846,18401 16845,18396 16843,18391 16841,18386 16839,18381 16837,18376 16835,18371 16832,18366 16829,18361 16826,18357 16823,18352 16820,18348 16816,18344 16812,18340 16808,18336 16804,18333 16800,18329 16795,18326 16791,18323 16786,18320 16782,18317 16777,18315 16772,18313 16767,18311 16761,18309 16756,18308 16751,18306 16746,18305 16740,18304 16735,18304 16729,18303 16724,18303 16718,18303 16713,18304 16707,18304 16702,18305 16697,18306 16691,18308 16686,18309 16681,18311 16676,18313 16671,18315 16666,18317 16661,18320 16657,18323 16652,18326 16648,18329 16643,18333 16639,18336 16635,18340 16632,18344 16628,18348 16625,18352 16621,18357 16618,18361 16616,18366 16613,18371 16611,18376 16608,18381 16606,18386 16605,18391 16603,18396 16602,18401 16601,18407 16600,18412 16599,18417 16599,18423 16599,18428 16599,18434 16599,18439 16600,18445 16601,18450 16602,18455 16603,18461 16605,18466 16606,18471 16608,18476 16611,18481 16613,18486 16616,18491 16618,18496 16621,18500 16625,18504 16628,18509 16632,18513 16635,18517 16639,18521 16643,18524 16648,18528 16652,18531 16657,18534 16661,18537 16666,18539 16671,18542 16676,18544 16681,18546 16686,18548 16691,18549 16697,18550 16702,18551 16707,18552 16713,18553 16718,18553 16724,18553 16729,18553 16735,18553 16740,18552 16746,18551 16751,18550 16756,18549 16761,18548 16767,18546 16772,18544 16777,18542 16782,18539 16786,18537 16791,18534 16795,18531 16800,18528 16804,18524 16808,18521 16812,18517 16816,18513 16820,18509 16823,18504 16826,18500 16829,18496 16832,18491 16835,18486 16837,18481 16839,18476 16841,18471 16843,18466 16845,18461 16846,18455 16847,18450 16848,18445 16848,18439 16849,18434 16849,18428 Z"/>
 <path fill="none" stroke="rgb(75,31,111)" stroke-linejoin="round" d="M 16849,18428 L 16849,18423 16848,18417 16848,18412 16847,18407 16846,18401 16845,18396 16843,18391 16841,18386 16839,18381 16837,18376 16835,18371 16832,18366 16829,18361 16826,18357 16823,18352 16820,18348 16816,18344 16812,18340 16808,18336 16804,18333 16800,18329 16795,18326 16791,18323 16786,18320 16782,18317 16777,18315 16772,18313 16767,18311 16761,18309 16756,18308 16751,18306 16746,18305 16740,18304 16735,18304 16729,18303 16724,18303 16718,18303 16713,18304 16707,18304 16702,18305 16697,18306 16691,18308 16686,18309 16681,18311 16676,18313 16671,18315 16666,18317 16661,18320 16657,18323 16652,18326 16648,18329 16643,18333 16639,18336 16635,18340 16632,18344 16628,18348 16625,18352 16621,18357 16618,18361 16616,18366 16613,18371 16611,18376 16608,18381 16606,18386 16605,18391 16603,18396 16602,18401 16601,18407 16600,18412 16599,18417 16599,18423 16599,18428 16599,18434 16599,18439 16600,18445 16601,18450 16602,18455 16603,18461 16605,18466 16606,18471 16608,18476 16611,18481 16613,18486 16616,18491 16618,18496 16621,18500 16625,18504 16628,18509 16632,18513 16635,18517 16639,18521 16643,18524 16648,18528 16652,18531 16657,18534 16661,18537 16666,18539 16671,18542 16676,18544 16681,18546 16686,18548 16691,18549 16697,18550 16702,18551 16707,18552 16713,18553 16718,18553 16724,18553 16729,18553 16735,18553 16740,18552 16746,18551 16751,18550 16756,18549 16761,18548 16767,18546 16772,18544 16777,18542 16782,18539 16786,18537 16791,18534 16795,18531 16800,18528 16804,18524 16808,18521 16812,18517 16816,18513 16820,18509 16823,18504 16826,18500 16829,18496 16832,18491 16835,18486 16837,18481 16839,18476 16841,18471 16843,18466 16845,18461 16846,18455 16847,18450 16848,18445 16848,18439 16849,18434 16849,18428 Z"/>
 <path fill="rgb(75,31,111)" stroke="none" d="M 18821,18455 L 18821,18450 18820,18444 18820,18439 18819,18433 18818,18428 18816,18423 18815,18418 18813,18412 18811,18407 18809,18402 18807,18397 18804,18393 18801,18388 18798,18383 18795,18379 18791,18375 18788,18371 18784,18367 18780,18363 18776,18359 18772,18356 18767,18353 18763,18350 18758,18347 18753,18344 18749,18342 18744,18340 18738,18338 18733,18336 18728,18334 18723,18333 18717,18332 18712,18331 18707,18331 18701,18330 18696,18330 18690,18330 18685,18331 18679,18331 18674,18332 18669,18333 18663,18334 18658,18336 18653,18338 18648,18340 18643,18342 18638,18344 18633,18347 18629,18350 18624,18353 18620,18356 18615,18359 18611,18363 18607,18367 18604,18371 18600,18375 18597,18379 18593,18383 18590,18388 18587,18393 18585,18397 18582,18402 18580,18407 18578,18412 18576,18418 18575,18423 18574,18428 18573,18433 18572,18439 18571,18444 18571,18450 18571,18455 18571,18461 18571,18466 18572,18471 18573,18477 18574,18482 18575,18488 18576,18493 18578,18498 18580,18503 18582,18508 18585,18513 18587,18518 18590,18522 18593,18527 18597,18531 18600,18536 18604,18540 18607,18544 18611,18547 18615,18551 18620,18554 18624,18558 18629,18561 18633,18563 18638,18566 18643,18568 18648,18571 18653,18573 18658,18574 18663,18576 18669,18577 18674,18578 18679,18579 18685,18580 18690,18580 18696,18580 18701,18580 18707,18580 18712,18579 18717,18578 18723,18577 18728,18576 18733,18574 18738,18573 18744,18571 18749,18568 18753,18566 18758,18563 18763,18561 18767,18558 18772,18554 18776,18551 18780,18547 18784,18544 18788,18540 18791,18536 18795,18531 18798,18527 18801,18522 18804,18518 18807,18513 18809,18508 18811,18503 18813,18498 18815,18493 18816,18488 18818,18482 18819,18477 18820,18471 18820,18466 18821,18461 18821,18455 Z"/>
 <path fill="none" stroke="rgb(75,31,111)" stroke-linejoin="round" d="M 18821,18455 L 18821,18450 18820,18444 18820,18439 18819,18433 18818,18428 18816,18423 18815,18418 18813,18412 18811,18407 18809,18402 18807,18397 18804,18393 18801,18388 18798,18383 18795,18379 18791,18375 18788,18371 18784,18367 18780,18363 18776,18359 18772,18356 18767,18353 18763,18350 18758,18347 18753,18344 18749,18342 18744,18340 18738,18338 18733,18336 18728,18334 18723,18333 18717,18332 18712,18331 18707,18331 18701,18330 18696,18330 18690,18330 18685,18331 18679,18331 18674,18332 18669,18333 18663,18334 18658,18336 18653,18338 18648,18340 18643,18342 18638,18344 18633,18347 18629,18350 18624,18353 18620,18356 18615,18359 18611,18363 18607,18367 18604,18371 18600,18375 18597,18379 18593,18383 18590,18388 18587,18393 18585,18397 18582,18402 18580,18407 18578,18412 18576,18418 18575,18423 18574,18428 18573,18433 18572,18439 18571,18444 18571,18450 18571,18455 18571,18461 18571,18466 18572,18471 18573,18477 18574,18482 18575,18488 18576,18493 18578,18498 18580,18503 18582,18508 18585,18513 18587,18518 18590,18522 18593,18527 18597,18531 18600,18536 18604,18540 18607,18544 18611,18547 18615,18551 18620,18554 18624,18558 18629,18561 18633,18563 18638,18566 18643,18568 18648,18571 18653,18573 18658,18574 18663,18576 18669,18577 18674,18578 18679,18579 18685,18580 18690,18580 18696,18580 18701,18580 18707,18580 18712,18579 18717,18578 18723,18577 18728,18576 18733,18574 18738,18573 18744,18571 18749,18568 18753,18566 18758,18563 18763,18561 18767,18558 18772,18554 18776,18551 18780,18547 18784,18544 18788,18540 18791,18536 18795,18531 18798,18527 18801,18522 18804,18518 18807,18513 18809,18508 18811,18503 18813,18498 18815,18493 18816,18488 18818,18482 18819,18477 18820,18471 18820,18466 18821,18461 18821,18455 Z"/>
 <path fill="rgb(75,31,111)" stroke="none" d="M 20793,18413 L 20792,18408 20792,18402 20792,18397 20791,18391 20790,18386 20788,18381 20787,18375 20785,18370 20783,18365 20781,18360 20778,18355 20776,18351 20773,18346 20770,18341 20767,18337 20763,18333 20760,18329 20756,18325 20752,18321 20748,18317 20744,18314 20739,18311 20735,18308 20730,18305 20725,18302 20720,18300 20715,18298 20710,18296 20705,18294 20700,18292 20695,18291 20689,18290 20684,18289 20678,18288 20673,18288 20668,18288 20662,18288 20657,18288 20651,18289 20646,18290 20641,18291 20635,18292 20630,18294 20625,18296 20620,18298 20615,18300 20610,18302 20605,18305 20600,18308 20596,18311 20592,18314 20587,18317 20583,18321 20579,18325 20575,18329 20572,18333 20568,18337 20565,18341 20562,18346 20559,18351 20557,18355 20554,18360 20552,18365 20550,18370 20548,18375 20547,18381 20546,18386 20544,18391 20544,18397 20543,18402 20543,18408 20543,18413 20543,18418 20543,18424 20544,18429 20544,18435 20546,18440 20547,18445 20548,18451 20550,18456 20552,18461 20554,18466 20557,18471 20559,18476 20562,18480 20565,18485 20568,18489 20572,18493 20575,18497 20579,18501 20583,18505 20587,18509 20592,18512 20596,18515 20600,18518 20605,18521 20610,18524 20615,18526 20620,18529 20625,18530 20630,18532 20635,18534 20641,18535 20646,18536 20651,18537 20657,18538 20662,18538 20668,18538 20673,18538 20678,18538 20684,18537 20689,18536 20695,18535 20700,18534 20705,18532 20710,18530 20715,18529 20720,18526 20725,18524 20730,18521 20735,18518 20739,18515 20744,18512 20748,18509 20752,18505 20756,18501 20760,18497 20763,18493 20767,18489 20770,18485 20773,18480 20776,18476 20778,18471 20781,18466 20783,18461 20785,18456 20787,18451 20788,18445 20790,18440 20791,18435 20792,18429 20792,18424 20792,18418 20793,18413 Z"/>
 <path fill="none" stroke="rgb(75,31,111)" stroke-linejoin="round" d="M 20793,18413 L 20792,18408 20792,18402 20792,18397 20791,18391 20790,18386 20788,18381 20787,18375 20785,18370 20783,18365 20781,18360 20778,18355 20776,18351 20773,18346 20770,18341 20767,18337 20763,18333 20760,18329 20756,18325 20752,18321 20748,18317 20744,18314 20739,18311 20735,18308 20730,18305 20725,18302 20720,18300 20715,18298 20710,18296 20705,18294 20700,18292 20695,18291 20689,18290 20684,18289 20678,18288 20673,18288 20668,18288 20662,18288 20657,18288 20651,18289 20646,18290 20641,18291 20635,18292 20630,18294 20625,18296 20620,18298 20615,18300 20610,18302 20605,18305 20600,18308 20596,18311 20592,18314 20587,18317 20583,18321 20579,18325 20575,18329 20572,18333 20568,18337 20565,18341 20562,18346 20559,18351 20557,18355 20554,18360 20552,18365 20550,18370 20548,18375 20547,18381 20546,18386 20544,18391 20544,18397 20543,18402 20543,18408 20543,18413 20543,18418 20543,18424 20544,18429 20544,18435 20546,18440 20547,18445 20548,18451 20550,18456 20552,18461 20554,18466 20557,18471 20559,18476 20562,18480 20565,18485 20568,18489 20572,18493 20575,18497 20579,18501 20583,18505 20587,18509 20592,18512 20596,18515 20600,18518 20605,18521 20610,18524 20615,18526 20620,18529 20625,18530 20630,18532 20635,18534 20641,18535 20646,18536 20651,18537 20657,18538 20662,18538 20668,18538 20673,18538 20678,18538 20684,18537 20689,18536 20695,18535 20700,18534 20705,18532 20710,18530 20715,18529 20720,18526 20725,18524 20730,18521 20735,18518 20739,18515 20744,18512 20748,18509 20752,18505 20756,18501 20760,18497 20763,18493 20767,18489 20770,18485 20773,18480 20776,18476 20778,18471 20781,18466 20783,18461 20785,18456 20787,18451 20788,18445 20790,18440 20791,18435 20792,18429 20792,18424 20792,18418 20793,18413 Z"/>
 <path fill="rgb(75,31,111)" stroke="none" d="M 22765,18426 L 22764,18421 22764,18415 22763,18410 22763,18405 22762,18399 22760,18394 22759,18389 22757,18384 22755,18379 22753,18374 22750,18369 22748,18364 22745,18359 22742,18355 22739,18350 22735,18346 22732,18342 22728,18338 22724,18334 22720,18331 22716,18327 22711,18324 22707,18321 22702,18318 22697,18316 22692,18313 22687,18311 22682,18309 22677,18307 22672,18306 22667,18304 22661,18303 22656,18302 22650,18302 22645,18302 22640,18301 22634,18302 22629,18302 22623,18302 22618,18303 22612,18304 22607,18306 22602,18307 22597,18309 22592,18311 22587,18313 22582,18316 22577,18318 22572,18321 22568,18324 22563,18327 22559,18331 22555,18334 22551,18338 22547,18342 22544,18346 22540,18350 22537,18355 22534,18359 22531,18364 22529,18369 22526,18374 22524,18379 22522,18384 22520,18389 22519,18394 22517,18399 22516,18405 22516,18410 22515,18415 22515,18421 22515,18426 22515,18432 22515,18437 22516,18443 22516,18448 22517,18453 22519,18459 22520,18464 22522,18469 22524,18474 22526,18479 22529,18484 22531,18489 22534,18494 22537,18498 22540,18502 22544,18507 22547,18511 22551,18515 22555,18519 22559,18522 22563,18526 22568,18529 22572,18532 22577,18535 22582,18537 22587,18540 22592,18542 22597,18544 22602,18546 22607,18547 22612,18548 22618,18549 22623,18550 22629,18551 22634,18551 22640,18551 22645,18551 22650,18551 22656,18550 22661,18549 22667,18548 22672,18547 22677,18546 22682,18544 22687,18542 22692,18540 22697,18537 22702,18535 22707,18532 22711,18529 22716,18526 22720,18522 22724,18519 22728,18515 22732,18511 22735,18507 22739,18502 22742,18498 22745,18494 22748,18489 22750,18484 22753,18479 22755,18474 22757,18469 22759,18464 22760,18459 22762,18453 22763,18448 22763,18443 22764,18437 22764,18432 22765,18426 Z"/>
 <path fill="none" stroke="rgb(75,31,111)" stroke-linejoin="round" d="M 22765,18426 L 22764,18421 22764,18415 22763,18410 22763,18405 22762,18399 22760,18394 22759,18389 22757,18384 22755,18379 22753,18374 22750,18369 22748,18364 22745,18359 22742,18355 22739,18350 22735,18346 22732,18342 22728,18338 22724,18334 22720,18331 22716,18327 22711,18324 22707,18321 22702,18318 22697,18316 22692,18313 22687,18311 22682,18309 22677,18307 22672,18306 22667,18304 22661,18303 22656,18302 22650,18302 22645,18302 22640,18301 22634,18302 22629,18302 22623,18302 22618,18303 22612,18304 22607,18306 22602,18307 22597,18309 22592,18311 22587,18313 22582,18316 22577,18318 22572,18321 22568,18324 22563,18327 22559,18331 22555,18334 22551,18338 22547,18342 22544,18346 22540,18350 22537,18355 22534,18359 22531,18364 22529,18369 22526,18374 22524,18379 22522,18384 22520,18389 22519,18394 22517,18399 22516,18405 22516,18410 22515,18415 22515,18421 22515,18426 22515,18432 22515,18437 22516,18443 22516,18448 22517,18453 22519,18459 22520,18464 22522,18469 22524,18474 22526,18479 22529,18484 22531,18489 22534,18494 22537,18498 22540,18502 22544,18507 22547,18511 22551,18515 22555,18519 22559,18522 22563,18526 22568,18529 22572,18532 22577,18535 22582,18537 22587,18540 22592,18542 22597,18544 22602,18546 22607,18547 22612,18548 22618,18549 22623,18550 22629,18551 22634,18551 22640,18551 22645,18551 22650,18551 22656,18550 22661,18549 22667,18548 22672,18547 22677,18546 22682,18544 22687,18542 22692,18540 22697,18537 22702,18535 22707,18532 22711,18529 22716,18526 22720,18522 22724,18519 22728,18515 22732,18511 22735,18507 22739,18502 22742,18498 22745,18494 22748,18489 22750,18484 22753,18479 22755,18474 22757,18469 22759,18464 22760,18459 22762,18453 22763,18448 22763,18443 22764,18437 22764,18432 22765,18426 Z"/>
 <text class="TextShape"><tspan class="TextParagraph" font-family="Liberation Sans, sans-serif" font-size="353px" font-weight="400"><tspan class="TextPosition" x="2340" y="25387"><tspan fill="rgb(0,0,0)" stroke="none">100kHz</tspan></tspan></tspan></text>
 <text class="TextShape"><tspan class="TextParagraph" font-family="Liberation Sans, sans-serif" font-size="353px" font-weight="400"><tspan class="TextPosition" x="4311" y="25387"><tspan fill="rgb(0,0,0)" stroke="none">200kHz</tspan></tspan></tspan></text>
 <text class="TextShape"><tspan class="TextParagraph" font-family="Liberation Sans, sans-serif" font-size="353px" font-weight="400"><tspan class="TextPosition" x="6283" y="25387"><tspan fill="rgb(0,0,0)" stroke="none">300kHz</tspan></tspan></tspan></text>
 <text class="TextShape"><tspan class="TextParagraph" font-family="Liberation Sans, sans-serif" font-size="353px" font-weight="400"><tspan class="TextPosition" x="8255" y="25387"><tspan fill="rgb(0,0,0)" stroke="none">600kHz</tspan></tspan></tspan></text>
 <text class="TextShape"><tspan class="TextParagraph" font-family="Liberation Sans, sans-serif" font-size="353px" font-weight="400"><tspan class="TextPosition" x="10134" y="25387"><tspan fill="rgb(0,0,0)" stroke="none">1200kHz</tspan></tspan></tspan></text>
 <text class="TextShape"><tspan class="TextParagraph" font-family="Liberation Sans, sans-serif" font-size="353px" font-weight="400"><tspan class="TextPosition" x="12106" y="25387"><tspan fill="rgb(0,0,0)" stroke="none">2400kHz</tspan></tspan></tspan></text>
 <text class="TextShape"><tspan class="TextParagraph" font-family="Liberation Sans, sans-serif" font-size="353px" font-weight="400"><tspan class="TextPosition" x="14078" y="25387"><tspan fill="rgb(0,0,0)" stroke="none">4800kHz</tspan></tspan></tspan></text>
 <text class="TextShape"><tspan class="TextParagraph" font-family="Liberation Sans, sans-serif" font-size="353px" font-weight="400"><tspan class="TextPosition" x="16182" y="25387"><tspan fill="rgb(0,0,0)" stroke="none">10MHz</tspan></tspan></tspan></text>
 <text class="TextShape"><tspan class="TextParagraph" font-family="Liberation Sans, sans-serif" font-size="353px" font-weight="400"><tspan class="TextPosition" x="18154" y="25387"><tspan fill="rgb(0,0,0)" stroke="none">20MHz</tspan></tspan></tspan></text>
 <text class="TextShape"><tspan class="TextParagraph" font-family="Liberation Sans, sans-serif" font-size="353px" font-weight="400"><tspan class="TextPosition" x="20126" y="25387"><tspan fill="rgb(0,0,0)" stroke="none">40MHz</tspan></tspan></tspan></text>
 <text class="TextShape"><tspan class="TextParagraph" font-family="Liberation Sans, sans-serif" font-size="353px" font-weight="400"><tspan class="TextPosition" x="22098" y="25387"><tspan fill="rgb(0,0,0)" stroke="none">80MHz</tspan></tspan></tspan></text>
 <text class="TextShape"><tspan class="TextParagraph" font-family="Liberation Sans, sans-serif" font-size="353px" font-weight="400"><tspan class="TextPosition" x="2487" y="24940"><tspan fill="rgb(0,0,0)" stroke="none">0</tspan></tspan></tspan></text>
 <text class="TextShape"><tspan class="TextParagraph" font-family="Liberation Sans, sans-serif" font-size="353px" font-weight="400"><tspan class="TextPosition" x="1746" y="22425"><tspan fill="rgb(0,0,0)" stroke="none">50000</tspan></tspan></tspan></text>
 <text class="TextShape"><tspan class="TextParagraph" font-family="Liberation Sans, sans-serif" font-size="353px" font-weight="400"><tspan class="TextPosition" x="1561" y="19911"><tspan fill="rgb(0,0,0)" stroke="none">100000</tspan></tspan></tspan></text>
 <text class="TextShape"><tspan class="TextParagraph" font-family="Liberation Sans, sans-serif" font-size="353px" font-weight="400"><tspan class="TextPosition" x="1561" y="17397"><tspan fill="rgb(0,0,0)" stroke="none">150000</tspan></tspan></tspan></text>
 <text class="TextShape"><tspan class="TextParagraph" font-family="Liberation Sans, sans-serif" font-size="353px" font-weight="400"><tspan class="TextPosition" x="1561" y="14882"><tspan fill="rgb(0,0,0)" stroke="none">200000</tspan></tspan></tspan></text>
 <text class="TextShape"><tspan class="TextParagraph" font-family="Liberation Sans, sans-serif" font-size="353px" font-weight="400"><tspan class="TextPosition" x="1561" y="12368"><tspan fill="rgb(0,0,0)" stroke="none">250000</tspan></tspan></tspan></text>
 <text class="TextShape"><tspan class="TextParagraph" font-family="Liberation Sans, sans-serif" font-size="353px" font-weight="400"><tspan class="TextPosition" x="1561" y="9853"><tspan fill="rgb(0,0,0)" stroke="none">300000</tspan></tspan></tspan></text>
 <text class="TextShape"><tspan class="TextParagraph" font-family="Liberation Sans, sans-serif" font-size="353px" font-weight="400"><tspan class="TextPosition" x="1561" y="7339"><tspan fill="rgb(0,0,0)" stroke="none">350000</tspan></tspan></tspan></text>
 <text class="TextShape"><tspan class="TextParagraph" font-family="Liberation Sans, sans-serif" font-size="353px" font-weight="400"><tspan class="TextPosition" x="1561" y="4825"><tspan fill="rgb(0,0,0)" stroke="none">400000</tspan></tspan></tspan></text>
 <text class="TextShape"><tspan class="TextParagraph" font-family="Liberation Sans, sans-serif" font-size="353px" font-weight="400"><tspan class="TextPosition" x="1561" y="2311"><tspan fill="rgb(0,0,0)" stroke="none">450000</tspan></tspan></tspan></text>
 <text class="TextShape"><tspan class="TextParagraph" font-family="Liberation Sans, sans-serif" font-size="459px" font-weight="400"><tspan class="TextPosition" x="12670" y="1210"><tspan fill="rgb(0,0,0)" stroke="none">SWD write</tspan></tspan></tspan></text>
 <path fill="none" stroke="rgb(0,69,134)" stroke-width="80" stroke-linejoin="round" d="M 23848,11501 L 24648,11501"/>
 <path fill="rgb(0,69,134)" stroke="none" d="M 24142,11396 L 24142,11607 24353,11607 24353,11396 24142,11396 Z"/>
 <path fill="none" stroke="rgb(0,69,134)" stroke-linejoin="round" d="M 24142,11396 L 24142,11607 24353,11607 24353,11396 24142,11396 Z"/>
 <path fill="none" stroke="rgb(255,66,14)" stroke-width="80" stroke-linejoin="round" d="M 23848,11999 L 24648,11999"/>
 <path fill="rgb(255,66,14)" stroke="none" d="M 24142,11999 L 24248,12105 24353,11999 24248,11894 24142,11999 Z"/>
 <path fill="none" stroke="rgb(255,66,14)" stroke-linejoin="round" d="M 24142,11999 L 24248,12105 24353,11999 24248,11894 24142,11999 Z"/>
 <path fill="none" stroke="rgb(255,211,32)" stroke-width="80" stroke-linejoin="round" d="M 23848,12497 L 24648,12497"/>
 <path fill="rgb(255,211,32)" stroke="none" d="M 24142,12392 L 24248,12603 24353,12392 24142,12392 Z"/>
 <path fill="none" stroke="rgb(255,211,32)" stroke-linejoin="round" d="M 24142,12392 L 24248,12603 24353,12392 24142,12392 Z"/>
 <path fill="none" stroke="rgb(87,157,28)" stroke-width="80" stroke-linejoin="round" d="M 23848,12995 L 24648,12995"/>
 <path fill="rgb(87,157,28)" stroke="none" d="M 24142,13101 L 24353,13101 24248,12890 24142,13101 Z"/>
 <path fill="none" stroke="rgb(87,157,28)" stroke-linejoin="round" d="M 24142,13101 L 24353,13101 24248,12890 24142,13101 Z"/>
 <path fill="none" stroke="rgb(126,0,33)" stroke-width="80" stroke-linejoin="round" d="M 23848,13493 L 24648,13493"/>
 <path fill="rgb(126,0,33)" stroke="none" d="M 24142,13388 L 24142,13598 24353,13493 24142,13388 Z"/>
 <path fill="none" stroke="rgb(126,0,33)" stroke-linejoin="round" d="M 24142,13388 L 24142,13598 24353,13493 24142,13388 Z"/>
 <path fill="none" stroke="rgb(131,202,255)" stroke-width="80" stroke-linejoin="round" d="M 23848,13990 L 24648,13990"/>
 <path fill="rgb(131,202,255)" stroke="none" d="M 24142,13990 L 24353,14096 24353,13885 24142,13990 Z"/>
 <path fill="none" stroke="rgb(131,202,255)" stroke-linejoin="round" d="M 24142,13990 L 24353,14096 24353,13885 24142,13990 Z"/>
 <path fill="none" stroke="rgb(49,64,4)" stroke-width="80" stroke-linejoin="round" d="M 23848,14488 L 24648,14488"/>
 <path fill="rgb(49,64,4)" stroke="none" d="M 24142,14383 L 24142,14594 24353,14383 24353,14594 24142,14383 Z"/>
 <path fill="none" stroke="rgb(49,64,4)" stroke-linejoin="round" d="M 24142,14383 L 24142,14594 24353,14383 24353,14594 24142,14383 Z"/>
 <path fill="none" stroke="rgb(174,207,0)" stroke-width="80" stroke-linejoin="round" d="M 23848,14986 L 24648,14986"/>
 <path fill="rgb(174,207,0)" stroke="none" d="M 24142,15092 L 24353,15092 24142,14881 24353,14881 24142,15092 Z"/>
 <path fill="none" stroke="rgb(174,207,0)" stroke-linejoin="round" d="M 24142,15092 L 24353,15092 24142,14881 24353,14881 24142,15092 Z"/>
 <path fill="none" stroke="rgb(75,31,111)" stroke-width="80" stroke-linejoin="round" d="M 23848,15484 L 24648,15484"/>
 <path fill="rgb(75,31,111)" stroke="none" d="M 24353,15484 L 24353,15479 24353,15475 24352,15470 24351,15466 24350,15461 24349,15457 24348,15452 24347,15448 24345,15444 24343,15439 24341,15435 24339,15431 24336,15427 24334,15423 24331,15420 24328,15416 24325,15413 24322,15409 24319,15406 24315,15403 24312,15400 24308,15398 24304,15395 24300,15393 24296,15390 24292,15388 24288,15387 24284,15385 24279,15383 24275,15382 24270,15381 24266,15380 24261,15379 24257,15379 24252,15379 24248,15379 24243,15379 24238,15379 24234,15379 24229,15380 24225,15381 24220,15382 24216,15383 24211,15385 24207,15387 24203,15388 24199,15390 24195,15393 24191,15395 24187,15398 24183,15400 24180,15403 24176,15406 24173,15409 24170,15413 24167,15416 24164,15420 24161,15423 24159,15427 24156,15431 24154,15435 24152,15439 24150,15444 24148,15448 24147,15452 24146,15457 24145,15461 24144,15466 24143,15470 24142,15475 24142,15479 24142,15484 24142,15489 24142,15493 24143,15498 24144,15502 24145,15507 24146,15511 24147,15516 24148,15520 24150,15524 24152,15529 24154,15533 24156,15537 24159,15541 24161,15545 24164,15548 24167,15552 24170,15555 24173,15559 24176,15562 24180,15565 24183,15568 24187,15570 24191,15573 24195,15575 24199,15578 24203,15580 24207,15581 24211,15583 24216,15585 24220,15586 24225,15587 24229,15588 24234,15589 24238,15589 24243,15589 24248,15590 24252,15589 24257,15589 24261,15589 24266,15588 24270,15587 24275,15586 24279,15585 24284,15583 24288,15581 24292,15580 24296,15578 24300,15575 24304,15573 24308,15570 24312,15568 24315,15565 24319,15562 24322,15559 24325,15555 24328,15552 24331,15548 24334,15545 24336,15541 24339,15537 24341,15533 24343,15529 24345,15524 24347,15520 24348,15516 24349,15511 24350,15507 24351,15502 24352,15498 24353,15493 24353,15489 24353,15484 Z"/>
 <path fill="none" stroke="rgb(75,31,111)" stroke-linejoin="round" d="M 24353,15484 L 24353,15479 24353,15475 24352,15470 24351,15466 24350,15461 24349,15457 24348,15452 24347,15448 24345,15444 24343,15439 24341,15435 24339,15431 24336,15427 24334,15423 24331,15420 24328,15416 24325,15413 24322,15409 24319,15406 24315,15403 24312,15400 24308,15398 24304,15395 24300,15393 24296,15390 24292,15388 24288,15387 24284,15385 24279,15383 24275,15382 24270,15381 24266,15380 24261,15379 24257,15379 24252,15379 24248,15379 24243,15379 24238,15379 24234,15379 24229,15380 24225,15381 24220,15382 24216,15383 24211,15385 24207,15387 24203,15388 24199,15390 24195,15393 24191,15395 24187,15398 24183,15400 24180,15403 24176,15406 24173,15409 24170,15413 24167,15416 24164,15420 24161,15423 24159,15427 24156,15431 24154,15435 24152,15439 24150,15444 24148,15448 24147,15452 24146,15457 24145,15461 24144,15466 24143,15470 24142,15475 24142,15479 24142,15484 24142,15489 24142,15493 24143,15498 24144,15502 24145,15507 24146,15511 24147,15516 24148,15520 24150,15524 24152,15529 24154,15533 24156,15537 24159,15541 24161,15545 24164,15548 24167,15552 24170,15555 24173,15559 24176,15562 24180,15565 24183,15568 24187,15570 24191,15573 24195,15575 24199,15578 24203,15580 24207,15581 24211,15583 24216,15585 24220,15586 24225,15587 24229,15588 24234,15589 24238,15589 24243,15589 24248,15590 24252,15589 24257,15589 24261,15589 24266,15588 24270,15587 24275,15586 24279,15585 24284,15583 24288,15581 24292,15580 24296,15578 24300,15575 24304,15573 24308,15570 24312,15568 24315,15565 24319,15562 24322,15559 24325,15555 24328,15552 24331,15548 24334,15545 24336,15541 24339,15537 24341,15533 24343,15529 24345,15524 24347,15520 24348,15516 24349,15511 24350,15507 24351,15502 24352,15498 24353,15493 24353,15489 24353,15484 Z"/>
 <text class="TextShape"><tspan class="TextParagraph" font-family="Liberation Sans, sans-serif" font-size="353px" font-weight="400"><tspan class="TextPosition" x="24748" y="11621"><tspan fill="rgb(0,0,0)" stroke="none">hsprobe</tspan></tspan></tspan></text>
 <text class="TextShape"><tspan class="TextParagraph" font-family="Liberation Sans, sans-serif" font-size="353px" font-weight="400"><tspan class="TextPosition" x="24748" y="12119"><tspan fill="rgb(0,0,0)" stroke="none">lpclink2</tspan></tspan></tspan></text>
 <text class="TextShape"><tspan class="TextParagraph" font-family="Liberation Sans, sans-serif" font-size="353px" font-weight="400"><tspan class="TextPosition" x="24748" y="12617"><tspan fill="rgb(0,0,0)" stroke="none">mculink</tspan></tspan></tspan></text>
 <text class="TextShape"><tspan class="TextParagraph" font-family="Liberation Sans, sans-serif" font-size="353px" font-weight="400"><tspan class="TextPosition" x="24748" y="13115"><tspan fill="rgb(0,0,0)" stroke="none">mculink-daplink</tspan></tspan></tspan></text>
 <text class="TextShape"><tspan class="TextParagraph" font-family="Liberation Sans, sans-serif" font-size="353px" font-weight="400"><tspan class="TextPosition" x="24748" y="13612"><tspan fill="rgb(0,0,0)" stroke="none">usbc-pill</tspan></tspan></tspan></text>
 <text class="TextShape"><tspan class="TextParagraph" font-family="Liberation Sans, sans-serif" font-size="353px" font-weight="400"><tspan class="TextPosition" x="24748" y="14110"><tspan fill="rgb(0,0,0)" stroke="none">rustyprobe</tspan></tspan></tspan></text>
 <text class="TextShape"><tspan class="TextParagraph" font-family="Liberation Sans, sans-serif" font-size="353px" font-weight="400"><tspan class="TextPosition" x="24748" y="14608"><tspan fill="rgb(0,0,0)" stroke="none">dappermime</tspan></tspan></tspan></text>
 <text class="TextShape"><tspan class="TextParagraph" font-family="Liberation Sans, sans-serif" font-size="353px" font-weight="400"><tspan class="TextPosition" x="24748" y="15106"><tspan fill="rgb(0,0,0)" stroke="none">dap42</tspan></tspan></tspan></text>
 <text class="TextShape"><tspan class="TextParagraph" font-family="Liberation Sans, sans-serif" font-size="353px" font-weight="400"><tspan class="TextPosition" x="24748" y="15604"><tspan fill="rgb(0,0,0)" stroke="none">microbit_v2</tspan></tspan></tspan></text>
 <text class="TextShape"><tspan class="TextParagraph" font-family="Liberation Sans, sans-serif" font-size="318px" font-weight="400"><tspan class="TextPosition" x="11247" y="26393"><tspan fill="rgb(0,0,0)" stroke="none">SWD frequency</tspan></tspan></tspan></text>
 <text class="TextShape" transform="rotate(-90 837 14245)"><tspan class="TextParagraph" font-family="Liberation Sans, sans-serif" font-size="318px" font-weight="400"><tspan class="TextPosition" x="837" y="14245"><tspan fill="rgb(0,0,0)" stroke="none">Bytes/s</tspan></tspan></tspan></text>
</svg>